%TF.GenerationSoftware,KiCad,Pcbnew,8.0.7*%
%TF.CreationDate,2025-01-20T20:06:26+09:00*%
%TF.ProjectId,cool937tb_R_v2,636f6f6c-3933-4377-9462-5f525f76322e,rev?*%
%TF.SameCoordinates,Original*%
%TF.FileFunction,Profile,NP*%
%FSLAX46Y46*%
G04 Gerber Fmt 4.6, Leading zero omitted, Abs format (unit mm)*
G04 Created by KiCad (PCBNEW 8.0.7) date 2025-01-20 20:06:26*
%MOMM*%
%LPD*%
G01*
G04 APERTURE LIST*
%TA.AperFunction,Profile*%
%ADD10C,0.050000*%
%TD*%
%TA.AperFunction,Profile*%
%ADD11C,0.100000*%
%TD*%
%TA.AperFunction,Profile*%
%ADD12C,0.120000*%
%TD*%
G04 APERTURE END LIST*
D10*
X-9540000Y9510000D02*
X123810000Y9510000D01*
X24020000Y-50400000D02*
X24030000Y-67240000D01*
D11*
X87130000Y-9140000D02*
G75*
G02*
X84930000Y-9140000I-1100000J0D01*
G01*
X84930000Y-9140000D02*
G75*
G02*
X87130000Y-9140000I1100000J0D01*
G01*
D10*
X24030000Y-67240000D02*
X-9540000Y-67280000D01*
X70900000Y-81250000D02*
X76050000Y-81250000D01*
X76050000Y-81250000D02*
X123810000Y-67280000D01*
D11*
X29990000Y-47930000D02*
G75*
G02*
X27790000Y-47930000I-1100000J0D01*
G01*
X27790000Y-47930000D02*
G75*
G02*
X29990000Y-47930000I1100000J0D01*
G01*
D10*
X-9540000Y-67280000D02*
X-9540000Y9510000D01*
X70880000Y-50420000D02*
X24020000Y-50400000D01*
D11*
X87140000Y-47930000D02*
G75*
G02*
X84940000Y-47930000I-1100000J0D01*
G01*
X84940000Y-47930000D02*
G75*
G02*
X87140000Y-47930000I1100000J0D01*
G01*
D10*
X123810000Y9510000D02*
X123810000Y-67280000D01*
D11*
X29990000Y-9140000D02*
G75*
G02*
X27790000Y-9140000I-1100000J0D01*
G01*
X27790000Y-9140000D02*
G75*
G02*
X29990000Y-9140000I1100000J0D01*
G01*
D10*
X70900000Y-81250000D02*
X70880000Y-50420000D01*
D12*
%TO.C,U1*%
X103608247Y-53161953D02*
X103608247Y-52120553D01*
X104294047Y-51434753D02*
X105894247Y-51434753D01*
X105894247Y-53847753D02*
X104294047Y-53847753D01*
X106275247Y-51815753D02*
X106275247Y-53466753D01*
X113250753Y-61441953D02*
X113250753Y-59841753D01*
X113631753Y-59460753D02*
X115282753Y-59460753D01*
X114977953Y-62127753D02*
X113936553Y-62127753D01*
X115663753Y-59841753D02*
X115663753Y-61441953D01*
X103608247Y-53161953D02*
G75*
G02*
X104294047Y-53847753I247753J-438047D01*
G01*
X104294047Y-51434753D02*
G75*
G02*
X103608251Y-52120546I-438047J-247747D01*
G01*
X105894247Y-51434753D02*
G75*
G02*
X106275247Y-51815753I3J-380997D01*
G01*
X106275247Y-53466753D02*
G75*
G02*
X105894247Y-53847757I-380997J-7D01*
G01*
X113250753Y-59841753D02*
G75*
G02*
X113631753Y-59460753I380996J4D01*
G01*
X113250753Y-61441953D02*
G75*
G02*
X113936553Y-62127753I247753J-438047D01*
G01*
X114977953Y-62127753D02*
G75*
G02*
X115663753Y-61441953I438047J247753D01*
G01*
X115282753Y-59460753D02*
G75*
G02*
X115663753Y-59841753I8J-380992D01*
G01*
%TD*%
M02*
