%TF.GenerationSoftware,KiCad,Pcbnew,8.0.7*%
%TF.CreationDate,2025-01-20T20:06:26+09:00*%
%TF.ProjectId,cool937tb_R_v2,636f6f6c-3933-4377-9462-5f525f76322e,rev?*%
%TF.SameCoordinates,Original*%
%TF.FileFunction,Soldermask,Bot*%
%TF.FilePolarity,Negative*%
%FSLAX46Y46*%
G04 Gerber Fmt 4.6, Leading zero omitted, Abs format (unit mm)*
G04 Created by KiCad (PCBNEW 8.0.7) date 2025-01-20 20:06:26*
%MOMM*%
%LPD*%
G01*
G04 APERTURE LIST*
%ADD10R,1.300000X0.950000*%
%ADD11C,1.900000*%
%ADD12C,1.700000*%
%ADD13C,3.000000*%
%ADD14C,5.000000*%
%ADD15R,2.000000X2.000000*%
%ADD16R,1.900000X2.000000*%
%ADD17O,1.000000X1.300000*%
%ADD18R,1.700000X1.700000*%
%ADD19O,1.700000X1.700000*%
%ADD20R,1.600000X1.600000*%
%ADD21C,1.600000*%
%ADD22O,1.800000X2.750000*%
%ADD23C,1.500000*%
G04 APERTURE END LIST*
D10*
%TO.C,D14*%
X66955000Y-27760000D03*
X70505000Y-27760000D03*
%TD*%
D11*
%TO.C,SW1*%
X-5500000Y0D03*
D12*
X-5080000Y0D03*
D13*
X-5000000Y-3700000D03*
D12*
X-4500000Y0D03*
D13*
X-3810000Y2540000D03*
D14*
X0Y0D03*
D13*
X0Y-5900000D03*
X2540000Y5080000D03*
D12*
X4500000Y0D03*
X5080000Y0D03*
D11*
X5500000Y0D03*
D15*
X-8100000Y-3700000D03*
X-6900000Y2540000D03*
D16*
X2800000Y-5900000D03*
D15*
X5600000Y5080000D03*
%TD*%
D10*
%TO.C,D10*%
X47835000Y-27730000D03*
X51385000Y-27730000D03*
%TD*%
%TO.C,D15*%
X76375000Y-46770000D03*
X79925000Y-46770000D03*
%TD*%
D11*
%TO.C,SW8*%
X84987500Y-38100000D03*
D12*
X85407500Y-38100000D03*
D13*
X85487500Y-41800000D03*
D12*
X85987500Y-38100000D03*
D13*
X86677500Y-35560000D03*
D14*
X90487500Y-38100000D03*
D13*
X90487500Y-44000000D03*
X93027500Y-33020000D03*
D12*
X94987500Y-38100000D03*
X95567500Y-38100000D03*
D11*
X95987500Y-38100000D03*
D15*
X82387500Y-41800000D03*
X83587500Y-35560000D03*
D16*
X93287500Y-44000000D03*
D15*
X96087500Y-33020000D03*
%TD*%
D11*
%TO.C,SW15*%
X65937500Y-38100000D03*
D12*
X66357500Y-38100000D03*
D13*
X66437500Y-41800000D03*
D12*
X66937500Y-38100000D03*
D13*
X67627500Y-35560000D03*
D14*
X71437500Y-38100000D03*
D13*
X71437500Y-44000000D03*
X73977500Y-33020000D03*
D12*
X75937500Y-38100000D03*
X76517500Y-38100000D03*
D11*
X76937500Y-38100000D03*
D15*
X63337500Y-41800000D03*
X64537500Y-35560000D03*
D16*
X74237500Y-44000000D03*
D15*
X77037500Y-33020000D03*
%TD*%
D10*
%TO.C,D13*%
X62155000Y-8750000D03*
X65705000Y-8750000D03*
%TD*%
D11*
%TO.C,SW16*%
X108800000Y0D03*
D12*
X109220000Y0D03*
D13*
X109300000Y-3700000D03*
D12*
X109800000Y0D03*
D13*
X110490000Y2540000D03*
D14*
X114300000Y0D03*
D13*
X114300000Y-5900000D03*
X116840000Y5080000D03*
D12*
X118800000Y0D03*
X119380000Y0D03*
D11*
X119800000Y0D03*
D15*
X106200000Y-3700000D03*
X107400000Y2540000D03*
D16*
X117100000Y-5900000D03*
D15*
X119900000Y5080000D03*
%TD*%
D17*
%TO.C,SW21*%
X121220000Y-11620000D03*
X121220000Y-14120000D03*
X121220000Y-16620000D03*
%TD*%
D10*
%TO.C,D1*%
X4865000Y-8620000D03*
X8415000Y-8620000D03*
%TD*%
%TO.C,D2*%
X9745000Y-27730000D03*
X13295000Y-27730000D03*
%TD*%
%TO.C,D17*%
X68535000Y-8710000D03*
X72085000Y-8710000D03*
%TD*%
%TO.C,D7*%
X38245000Y-46750000D03*
X41795000Y-46750000D03*
%TD*%
D11*
%TO.C,SW13*%
X51650000Y0D03*
D12*
X52070000Y0D03*
D13*
X52150000Y-3700000D03*
D12*
X52650000Y0D03*
D13*
X53340000Y2540000D03*
D14*
X57150000Y0D03*
D13*
X57150000Y-5900000D03*
X59690000Y5080000D03*
D12*
X61650000Y0D03*
X62230000Y0D03*
D11*
X62650000Y0D03*
D15*
X49050000Y-3700000D03*
X50250000Y2540000D03*
D16*
X59950000Y-5900000D03*
D15*
X62750000Y5080000D03*
%TD*%
D10*
%TO.C,D11*%
X57405000Y-46880000D03*
X60955000Y-46880000D03*
%TD*%
D11*
%TO.C,SW17*%
X70700000Y0D03*
D12*
X71120000Y0D03*
D13*
X71200000Y-3700000D03*
D12*
X71700000Y0D03*
D13*
X72390000Y2540000D03*
D14*
X76200000Y0D03*
D13*
X76200000Y-5900000D03*
X78740000Y5080000D03*
D12*
X80700000Y0D03*
X81280000Y0D03*
D11*
X81700000Y0D03*
D15*
X68100000Y-3700000D03*
X69300000Y2540000D03*
D16*
X79000000Y-5900000D03*
D15*
X81800000Y5080000D03*
%TD*%
D11*
%TO.C,SW11*%
X46887500Y-38100000D03*
D12*
X47307500Y-38100000D03*
D13*
X47387500Y-41800000D03*
D12*
X47887500Y-38100000D03*
D13*
X48577500Y-35560000D03*
D14*
X52387500Y-38100000D03*
D13*
X52387500Y-44000000D03*
X54927500Y-33020000D03*
D12*
X56887500Y-38100000D03*
X57467500Y-38100000D03*
D11*
X57887500Y-38100000D03*
D15*
X44287500Y-41800000D03*
X45487500Y-35560000D03*
D16*
X55187500Y-44000000D03*
D15*
X57987500Y-33020000D03*
%TD*%
D11*
%TO.C,SW12*%
X75462500Y-19050000D03*
D12*
X75882500Y-19050000D03*
D13*
X75962500Y-22750000D03*
D12*
X76462500Y-19050000D03*
D13*
X77152500Y-16510000D03*
D14*
X80962500Y-19050000D03*
D13*
X80962500Y-24950000D03*
X83502500Y-13970000D03*
D12*
X85462500Y-19050000D03*
X86042500Y-19050000D03*
D11*
X86462500Y-19050000D03*
D15*
X72862500Y-22750000D03*
X74062500Y-16510000D03*
D16*
X83762500Y-24950000D03*
D15*
X86562500Y-13970000D03*
%TD*%
D11*
%TO.C,SW19*%
X106418750Y-38100000D03*
D12*
X106838750Y-38100000D03*
D13*
X106918750Y-41800000D03*
D12*
X107418750Y-38100000D03*
D13*
X108108750Y-35560000D03*
D14*
X111918750Y-38100000D03*
D13*
X111918750Y-44000000D03*
X114458750Y-33020000D03*
D12*
X116418750Y-38100000D03*
X116998750Y-38100000D03*
D11*
X117418750Y-38100000D03*
D15*
X103818750Y-41800000D03*
X105018750Y-35560000D03*
D16*
X114718750Y-44000000D03*
D15*
X117518750Y-33020000D03*
%TD*%
D11*
%TO.C,SW20*%
X89750000Y0D03*
D12*
X90170000Y0D03*
D13*
X90250000Y-3700000D03*
D12*
X90750000Y0D03*
D13*
X91440000Y2540000D03*
D14*
X95250000Y0D03*
D13*
X95250000Y-5900000D03*
X97790000Y5080000D03*
D12*
X99750000Y0D03*
X100330000Y0D03*
D11*
X100750000Y0D03*
D15*
X87150000Y-3700000D03*
X88350000Y2540000D03*
D16*
X98050000Y-5900000D03*
D15*
X100850000Y5080000D03*
%TD*%
D10*
%TO.C,D18*%
X112155000Y-27740000D03*
X115705000Y-27740000D03*
%TD*%
D11*
%TO.C,SW3*%
X8787500Y-38100000D03*
D12*
X9207500Y-38100000D03*
D13*
X9287500Y-41800000D03*
D12*
X9787500Y-38100000D03*
D13*
X10477500Y-35560000D03*
D14*
X14287500Y-38100000D03*
D13*
X14287500Y-44000000D03*
X16827500Y-33020000D03*
D12*
X18787500Y-38100000D03*
X19367500Y-38100000D03*
D11*
X19787500Y-38100000D03*
D15*
X6187500Y-41800000D03*
X7387500Y-35560000D03*
D16*
X17087500Y-44000000D03*
D15*
X19887500Y-33020000D03*
%TD*%
D11*
%TO.C,SW7*%
X27837500Y-38100000D03*
D12*
X28257500Y-38100000D03*
D13*
X28337500Y-41800000D03*
D12*
X28837500Y-38100000D03*
D13*
X29527500Y-35560000D03*
D14*
X33337500Y-38100000D03*
D13*
X33337500Y-44000000D03*
X35877500Y-33020000D03*
D12*
X37837500Y-38100000D03*
X38417500Y-38100000D03*
D11*
X38837500Y-38100000D03*
D15*
X25237500Y-41800000D03*
X26437500Y-35560000D03*
D16*
X36137500Y-44000000D03*
D15*
X38937500Y-33020000D03*
%TD*%
D10*
%TO.C,D4*%
X16775000Y-65730000D03*
X20325000Y-65730000D03*
%TD*%
%TO.C,D19*%
X118075000Y-44200000D03*
X121625000Y-44200000D03*
%TD*%
%TO.C,D5*%
X10985000Y-8670000D03*
X14535000Y-8670000D03*
%TD*%
D11*
%TO.C,SW10*%
X37362500Y-19050000D03*
D12*
X37782500Y-19050000D03*
D13*
X37862500Y-22750000D03*
D12*
X38362500Y-19050000D03*
D13*
X39052500Y-16510000D03*
D14*
X42862500Y-19050000D03*
D13*
X42862500Y-24950000D03*
X45402500Y-13970000D03*
D12*
X47362500Y-19050000D03*
X47942500Y-19050000D03*
D11*
X48362500Y-19050000D03*
D15*
X34762500Y-22750000D03*
X35962500Y-16510000D03*
D16*
X45662500Y-24950000D03*
D15*
X48462500Y-13970000D03*
%TD*%
D18*
%TO.C,J1*%
X72730000Y-60790000D03*
D19*
X72730000Y-63330000D03*
X72730000Y-65870000D03*
X72730000Y-68410000D03*
X72730000Y-70950000D03*
X72730000Y-73490000D03*
X72730000Y-76030000D03*
%TD*%
D10*
%TO.C,D12*%
X85975000Y-27700000D03*
X89525000Y-27700000D03*
%TD*%
%TO.C,D3*%
X19265000Y-46810000D03*
X22815000Y-46810000D03*
%TD*%
D20*
%TO.C,J8*%
X93206250Y-26193750D03*
D21*
X95726250Y-26193750D03*
%TD*%
D11*
%TO.C,SW5*%
X13550000Y0D03*
D12*
X13970000Y0D03*
D13*
X14050000Y-3700000D03*
D12*
X14550000Y0D03*
D13*
X15240000Y2540000D03*
D14*
X19050000Y0D03*
D13*
X19050000Y-5900000D03*
X21590000Y5080000D03*
D12*
X23550000Y0D03*
X24130000Y0D03*
D11*
X24550000Y0D03*
D15*
X10950000Y-3700000D03*
X12150000Y2540000D03*
D16*
X21850000Y-5900000D03*
D15*
X24650000Y5080000D03*
%TD*%
D11*
%TO.C,SW6*%
X18312500Y-19050000D03*
D12*
X18732500Y-19050000D03*
D13*
X18812500Y-22750000D03*
D12*
X19312500Y-19050000D03*
D13*
X20002500Y-16510000D03*
D14*
X23812500Y-19050000D03*
D13*
X23812500Y-24950000D03*
X26352500Y-13970000D03*
D12*
X28312500Y-19050000D03*
X28892500Y-19050000D03*
D11*
X29312500Y-19050000D03*
D15*
X15712500Y-22750000D03*
X16912500Y-16510000D03*
D16*
X26612500Y-24950000D03*
D15*
X29412500Y-13970000D03*
%TD*%
D11*
%TO.C,SW9*%
X32600000Y0D03*
D12*
X33020000Y0D03*
D13*
X33100000Y-3700000D03*
D12*
X33600000Y0D03*
D13*
X34290000Y2540000D03*
D14*
X38100000Y0D03*
D13*
X38100000Y-5900000D03*
X40640000Y5080000D03*
D12*
X42600000Y0D03*
X43180000Y0D03*
D11*
X43600000Y0D03*
D15*
X30000000Y-3700000D03*
X31200000Y2540000D03*
D16*
X40900000Y-5900000D03*
D15*
X43700000Y5080000D03*
%TD*%
D11*
%TO.C,SW4*%
X6406250Y-57150000D03*
D12*
X6826250Y-57150000D03*
D13*
X6906250Y-60850000D03*
D12*
X7406250Y-57150000D03*
D13*
X8096250Y-54610000D03*
D14*
X11906250Y-57150000D03*
D13*
X11906250Y-63050000D03*
X14446250Y-52070000D03*
D12*
X16406250Y-57150000D03*
X16986250Y-57150000D03*
D11*
X17406250Y-57150000D03*
D15*
X3806250Y-60850000D03*
X5006250Y-54610000D03*
D16*
X14706250Y-63050000D03*
D15*
X17506250Y-52070000D03*
%TD*%
D10*
%TO.C,D6*%
X28725000Y-27780000D03*
X32275000Y-27780000D03*
%TD*%
%TO.C,D16*%
X105845000Y-8730000D03*
X109395000Y-8730000D03*
%TD*%
D11*
%TO.C,SW2*%
X-737500Y-19050000D03*
D12*
X-317500Y-19050000D03*
D13*
X-237500Y-22750000D03*
D12*
X262500Y-19050000D03*
D13*
X952500Y-16510000D03*
D14*
X4762500Y-19050000D03*
D13*
X4762500Y-24950000D03*
X7302500Y-13970000D03*
D12*
X9262500Y-19050000D03*
X9842500Y-19050000D03*
D11*
X10262500Y-19050000D03*
D15*
X-3337500Y-22750000D03*
X-2137500Y-16510000D03*
D16*
X7562500Y-24950000D03*
D15*
X10362500Y-13970000D03*
%TD*%
D11*
%TO.C,SW18*%
X101656250Y-19050000D03*
D12*
X102076250Y-19050000D03*
D13*
X102156250Y-22750000D03*
D12*
X102656250Y-19050000D03*
D13*
X103346250Y-16510000D03*
D14*
X107156250Y-19050000D03*
D13*
X107156250Y-24950000D03*
X109696250Y-13970000D03*
D12*
X111656250Y-19050000D03*
X112236250Y-19050000D03*
D11*
X112656250Y-19050000D03*
D15*
X99056250Y-22750000D03*
X100256250Y-16510000D03*
D16*
X109956250Y-24950000D03*
D15*
X112756250Y-13970000D03*
%TD*%
D11*
%TO.C,SW14*%
X56412500Y-19050000D03*
D12*
X56832500Y-19050000D03*
D13*
X56912500Y-22750000D03*
D12*
X57412500Y-19050000D03*
D13*
X58102500Y-16510000D03*
D14*
X61912500Y-19050000D03*
D13*
X61912500Y-24950000D03*
X64452500Y-13970000D03*
D12*
X66412500Y-19050000D03*
X66992500Y-19050000D03*
D11*
X67412500Y-19050000D03*
D15*
X53812500Y-22750000D03*
X55012500Y-16510000D03*
D16*
X64712500Y-24950000D03*
D15*
X67512500Y-13970000D03*
%TD*%
D10*
%TO.C,D20*%
X99565000Y-8640000D03*
X103115000Y-8640000D03*
%TD*%
%TO.C,D9*%
X43055000Y-8680000D03*
X46605000Y-8680000D03*
%TD*%
%TO.C,D8*%
X95465000Y-46850000D03*
X99015000Y-46850000D03*
%TD*%
D22*
%TO.C,U1*%
X120806000Y-65540000D03*
X118266000Y-65540000D03*
X115726000Y-65540000D03*
X113186000Y-65540000D03*
X110646000Y-65540000D03*
X108106000Y-65540000D03*
X105566000Y-65540000D03*
X105566000Y-49300000D03*
X108106000Y-49300000D03*
X110646000Y-49300000D03*
X113186000Y-49300000D03*
X115726000Y-49300000D03*
X118266000Y-49300000D03*
X120806000Y-49300000D03*
D23*
X103874000Y-53584600D03*
X103874000Y-51705000D03*
X113503000Y-61865000D03*
X115408000Y-61865000D03*
%TD*%
M02*
