%TF.GenerationSoftware,KiCad,Pcbnew,8.0.7*%
%TF.CreationDate,2025-01-20T20:00:10+09:00*%
%TF.ProjectId,cool937tb_L,636f6f6c-3933-4377-9462-5f4c2e6b6963,rev?*%
%TF.SameCoordinates,Original*%
%TF.FileFunction,Legend,Bot*%
%TF.FilePolarity,Positive*%
%FSLAX46Y46*%
G04 Gerber Fmt 4.6, Leading zero omitted, Abs format (unit mm)*
G04 Created by KiCad (PCBNEW 8.0.7) date 2025-01-20 20:00:10*
%MOMM*%
%LPD*%
G01*
G04 APERTURE LIST*
%ADD10C,0.300000*%
%ADD11C,0.125000*%
%ADD12C,0.150000*%
G04 APERTURE END LIST*
D10*
X115579568Y5842632D02*
X115650996Y5985489D01*
X115650996Y5985489D02*
X115650996Y6271203D01*
X115650996Y6271203D02*
X115579568Y6414060D01*
X115579568Y6414060D02*
X115508139Y6485489D01*
X115508139Y6485489D02*
X115365282Y6556917D01*
X115365282Y6556917D02*
X114936710Y6556917D01*
X114936710Y6556917D02*
X114793853Y6485489D01*
X114793853Y6485489D02*
X114722425Y6414060D01*
X114722425Y6414060D02*
X114650996Y6271203D01*
X114650996Y6271203D02*
X114650996Y5985489D01*
X114650996Y5985489D02*
X114722425Y5842632D01*
X115650996Y4985489D02*
X115579568Y5128346D01*
X115579568Y5128346D02*
X115508139Y5199775D01*
X115508139Y5199775D02*
X115365282Y5271203D01*
X115365282Y5271203D02*
X114936710Y5271203D01*
X114936710Y5271203D02*
X114793853Y5199775D01*
X114793853Y5199775D02*
X114722425Y5128346D01*
X114722425Y5128346D02*
X114650996Y4985489D01*
X114650996Y4985489D02*
X114650996Y4771203D01*
X114650996Y4771203D02*
X114722425Y4628346D01*
X114722425Y4628346D02*
X114793853Y4556918D01*
X114793853Y4556918D02*
X114936710Y4485489D01*
X114936710Y4485489D02*
X115365282Y4485489D01*
X115365282Y4485489D02*
X115508139Y4556918D01*
X115508139Y4556918D02*
X115579568Y4628346D01*
X115579568Y4628346D02*
X115650996Y4771203D01*
X115650996Y4771203D02*
X115650996Y4985489D01*
X115650996Y3628346D02*
X115579568Y3771203D01*
X115579568Y3771203D02*
X115508139Y3842632D01*
X115508139Y3842632D02*
X115365282Y3914060D01*
X115365282Y3914060D02*
X114936710Y3914060D01*
X114936710Y3914060D02*
X114793853Y3842632D01*
X114793853Y3842632D02*
X114722425Y3771203D01*
X114722425Y3771203D02*
X114650996Y3628346D01*
X114650996Y3628346D02*
X114650996Y3414060D01*
X114650996Y3414060D02*
X114722425Y3271203D01*
X114722425Y3271203D02*
X114793853Y3199775D01*
X114793853Y3199775D02*
X114936710Y3128346D01*
X114936710Y3128346D02*
X115365282Y3128346D01*
X115365282Y3128346D02*
X115508139Y3199775D01*
X115508139Y3199775D02*
X115579568Y3271203D01*
X115579568Y3271203D02*
X115650996Y3414060D01*
X115650996Y3414060D02*
X115650996Y3628346D01*
X115650996Y2271203D02*
X115579568Y2414060D01*
X115579568Y2414060D02*
X115436710Y2485489D01*
X115436710Y2485489D02*
X114150996Y2485489D01*
X115650996Y1628346D02*
X115650996Y1342632D01*
X115650996Y1342632D02*
X115579568Y1199775D01*
X115579568Y1199775D02*
X115508139Y1128346D01*
X115508139Y1128346D02*
X115293853Y985489D01*
X115293853Y985489D02*
X115008139Y914060D01*
X115008139Y914060D02*
X114436710Y914060D01*
X114436710Y914060D02*
X114293853Y985489D01*
X114293853Y985489D02*
X114222425Y1056918D01*
X114222425Y1056918D02*
X114150996Y1199775D01*
X114150996Y1199775D02*
X114150996Y1485489D01*
X114150996Y1485489D02*
X114222425Y1628346D01*
X114222425Y1628346D02*
X114293853Y1699775D01*
X114293853Y1699775D02*
X114436710Y1771203D01*
X114436710Y1771203D02*
X114793853Y1771203D01*
X114793853Y1771203D02*
X114936710Y1699775D01*
X114936710Y1699775D02*
X115008139Y1628346D01*
X115008139Y1628346D02*
X115079568Y1485489D01*
X115079568Y1485489D02*
X115079568Y1199775D01*
X115079568Y1199775D02*
X115008139Y1056918D01*
X115008139Y1056918D02*
X114936710Y985489D01*
X114936710Y985489D02*
X114793853Y914060D01*
X114650996Y-371653D02*
X115650996Y-371653D01*
X114079568Y-14510D02*
X115150996Y342632D01*
X115150996Y342632D02*
X115150996Y-585938D01*
X114293853Y-1085938D02*
X114222425Y-1157366D01*
X114222425Y-1157366D02*
X114150996Y-1300224D01*
X114150996Y-1300224D02*
X114150996Y-1657366D01*
X114150996Y-1657366D02*
X114222425Y-1800224D01*
X114222425Y-1800224D02*
X114293853Y-1871652D01*
X114293853Y-1871652D02*
X114436710Y-1943081D01*
X114436710Y-1943081D02*
X114579568Y-1943081D01*
X114579568Y-1943081D02*
X114793853Y-1871652D01*
X114793853Y-1871652D02*
X115650996Y-1014509D01*
X115650996Y-1014509D02*
X115650996Y-1943081D01*
X114650996Y-2371652D02*
X114650996Y-2943080D01*
X114150996Y-2585937D02*
X115436710Y-2585937D01*
X115436710Y-2585937D02*
X115579568Y-2657366D01*
X115579568Y-2657366D02*
X115650996Y-2800223D01*
X115650996Y-2800223D02*
X115650996Y-2943080D01*
X115650996Y-3443080D02*
X114150996Y-3443080D01*
X114722425Y-3443080D02*
X114650996Y-3585938D01*
X114650996Y-3585938D02*
X114650996Y-3871652D01*
X114650996Y-3871652D02*
X114722425Y-4014509D01*
X114722425Y-4014509D02*
X114793853Y-4085938D01*
X114793853Y-4085938D02*
X114936710Y-4157366D01*
X114936710Y-4157366D02*
X115365282Y-4157366D01*
X115365282Y-4157366D02*
X115508139Y-4085938D01*
X115508139Y-4085938D02*
X115579568Y-4014509D01*
X115579568Y-4014509D02*
X115650996Y-3871652D01*
X115650996Y-3871652D02*
X115650996Y-3585938D01*
X115650996Y-3585938D02*
X115579568Y-3443080D01*
X115650996Y-6585938D02*
X114150996Y-6585938D01*
X115579568Y-6585938D02*
X115650996Y-6443080D01*
X115650996Y-6443080D02*
X115650996Y-6157366D01*
X115650996Y-6157366D02*
X115579568Y-6014509D01*
X115579568Y-6014509D02*
X115508139Y-5943080D01*
X115508139Y-5943080D02*
X115365282Y-5871652D01*
X115365282Y-5871652D02*
X114936710Y-5871652D01*
X114936710Y-5871652D02*
X114793853Y-5943080D01*
X114793853Y-5943080D02*
X114722425Y-6014509D01*
X114722425Y-6014509D02*
X114650996Y-6157366D01*
X114650996Y-6157366D02*
X114650996Y-6443080D01*
X114650996Y-6443080D02*
X114722425Y-6585938D01*
X115579568Y-7871652D02*
X115650996Y-7728795D01*
X115650996Y-7728795D02*
X115650996Y-7443081D01*
X115650996Y-7443081D02*
X115579568Y-7300223D01*
X115579568Y-7300223D02*
X115436710Y-7228795D01*
X115436710Y-7228795D02*
X114865282Y-7228795D01*
X114865282Y-7228795D02*
X114722425Y-7300223D01*
X114722425Y-7300223D02*
X114650996Y-7443081D01*
X114650996Y-7443081D02*
X114650996Y-7728795D01*
X114650996Y-7728795D02*
X114722425Y-7871652D01*
X114722425Y-7871652D02*
X114865282Y-7943081D01*
X114865282Y-7943081D02*
X115008139Y-7943081D01*
X115008139Y-7943081D02*
X115150996Y-7228795D01*
X115579568Y-8514509D02*
X115650996Y-8657366D01*
X115650996Y-8657366D02*
X115650996Y-8943080D01*
X115650996Y-8943080D02*
X115579568Y-9085937D01*
X115579568Y-9085937D02*
X115436710Y-9157366D01*
X115436710Y-9157366D02*
X115365282Y-9157366D01*
X115365282Y-9157366D02*
X115222425Y-9085937D01*
X115222425Y-9085937D02*
X115150996Y-8943080D01*
X115150996Y-8943080D02*
X115150996Y-8728795D01*
X115150996Y-8728795D02*
X115079568Y-8585937D01*
X115079568Y-8585937D02*
X114936710Y-8514509D01*
X114936710Y-8514509D02*
X114865282Y-8514509D01*
X114865282Y-8514509D02*
X114722425Y-8585937D01*
X114722425Y-8585937D02*
X114650996Y-8728795D01*
X114650996Y-8728795D02*
X114650996Y-8943080D01*
X114650996Y-8943080D02*
X114722425Y-9085937D01*
X115650996Y-9800223D02*
X114650996Y-9800223D01*
X114150996Y-9800223D02*
X114222425Y-9728795D01*
X114222425Y-9728795D02*
X114293853Y-9800223D01*
X114293853Y-9800223D02*
X114222425Y-9871652D01*
X114222425Y-9871652D02*
X114150996Y-9800223D01*
X114150996Y-9800223D02*
X114293853Y-9800223D01*
X114650996Y-11157367D02*
X115865282Y-11157367D01*
X115865282Y-11157367D02*
X116008139Y-11085938D01*
X116008139Y-11085938D02*
X116079568Y-11014509D01*
X116079568Y-11014509D02*
X116150996Y-10871652D01*
X116150996Y-10871652D02*
X116150996Y-10657367D01*
X116150996Y-10657367D02*
X116079568Y-10514509D01*
X115579568Y-11157367D02*
X115650996Y-11014509D01*
X115650996Y-11014509D02*
X115650996Y-10728795D01*
X115650996Y-10728795D02*
X115579568Y-10585938D01*
X115579568Y-10585938D02*
X115508139Y-10514509D01*
X115508139Y-10514509D02*
X115365282Y-10443081D01*
X115365282Y-10443081D02*
X114936710Y-10443081D01*
X114936710Y-10443081D02*
X114793853Y-10514509D01*
X114793853Y-10514509D02*
X114722425Y-10585938D01*
X114722425Y-10585938D02*
X114650996Y-10728795D01*
X114650996Y-10728795D02*
X114650996Y-11014509D01*
X114650996Y-11014509D02*
X114722425Y-11157367D01*
X114650996Y-11871652D02*
X115650996Y-11871652D01*
X114793853Y-11871652D02*
X114722425Y-11943081D01*
X114722425Y-11943081D02*
X114650996Y-12085938D01*
X114650996Y-12085938D02*
X114650996Y-12300224D01*
X114650996Y-12300224D02*
X114722425Y-12443081D01*
X114722425Y-12443081D02*
X114865282Y-12514510D01*
X114865282Y-12514510D02*
X115650996Y-12514510D01*
X115579568Y-13800224D02*
X115650996Y-13657367D01*
X115650996Y-13657367D02*
X115650996Y-13371653D01*
X115650996Y-13371653D02*
X115579568Y-13228795D01*
X115579568Y-13228795D02*
X115436710Y-13157367D01*
X115436710Y-13157367D02*
X114865282Y-13157367D01*
X114865282Y-13157367D02*
X114722425Y-13228795D01*
X114722425Y-13228795D02*
X114650996Y-13371653D01*
X114650996Y-13371653D02*
X114650996Y-13657367D01*
X114650996Y-13657367D02*
X114722425Y-13800224D01*
X114722425Y-13800224D02*
X114865282Y-13871653D01*
X114865282Y-13871653D02*
X115008139Y-13871653D01*
X115008139Y-13871653D02*
X115150996Y-13157367D01*
X115650996Y-15157367D02*
X114150996Y-15157367D01*
X115579568Y-15157367D02*
X115650996Y-15014509D01*
X115650996Y-15014509D02*
X115650996Y-14728795D01*
X115650996Y-14728795D02*
X115579568Y-14585938D01*
X115579568Y-14585938D02*
X115508139Y-14514509D01*
X115508139Y-14514509D02*
X115365282Y-14443081D01*
X115365282Y-14443081D02*
X114936710Y-14443081D01*
X114936710Y-14443081D02*
X114793853Y-14514509D01*
X114793853Y-14514509D02*
X114722425Y-14585938D01*
X114722425Y-14585938D02*
X114650996Y-14728795D01*
X114650996Y-14728795D02*
X114650996Y-15014509D01*
X114650996Y-15014509D02*
X114722425Y-15157367D01*
X115650996Y-17014509D02*
X114150996Y-17014509D01*
X114722425Y-17014509D02*
X114650996Y-17157367D01*
X114650996Y-17157367D02*
X114650996Y-17443081D01*
X114650996Y-17443081D02*
X114722425Y-17585938D01*
X114722425Y-17585938D02*
X114793853Y-17657367D01*
X114793853Y-17657367D02*
X114936710Y-17728795D01*
X114936710Y-17728795D02*
X115365282Y-17728795D01*
X115365282Y-17728795D02*
X115508139Y-17657367D01*
X115508139Y-17657367D02*
X115579568Y-17585938D01*
X115579568Y-17585938D02*
X115650996Y-17443081D01*
X115650996Y-17443081D02*
X115650996Y-17157367D01*
X115650996Y-17157367D02*
X115579568Y-17014509D01*
X114650996Y-18228795D02*
X115650996Y-18585938D01*
X114650996Y-18943081D02*
X115650996Y-18585938D01*
X115650996Y-18585938D02*
X116008139Y-18443081D01*
X116008139Y-18443081D02*
X116079568Y-18371652D01*
X116079568Y-18371652D02*
X116150996Y-18228795D01*
X115650996Y-20657366D02*
X114650996Y-20657366D01*
X114793853Y-20657366D02*
X114722425Y-20728795D01*
X114722425Y-20728795D02*
X114650996Y-20871652D01*
X114650996Y-20871652D02*
X114650996Y-21085938D01*
X114650996Y-21085938D02*
X114722425Y-21228795D01*
X114722425Y-21228795D02*
X114865282Y-21300224D01*
X114865282Y-21300224D02*
X115650996Y-21300224D01*
X114865282Y-21300224D02*
X114722425Y-21371652D01*
X114722425Y-21371652D02*
X114650996Y-21514509D01*
X114650996Y-21514509D02*
X114650996Y-21728795D01*
X114650996Y-21728795D02*
X114722425Y-21871652D01*
X114722425Y-21871652D02*
X114865282Y-21943081D01*
X114865282Y-21943081D02*
X115650996Y-21943081D01*
X115508139Y-22657366D02*
X115579568Y-22728795D01*
X115579568Y-22728795D02*
X115650996Y-22657366D01*
X115650996Y-22657366D02*
X115579568Y-22585938D01*
X115579568Y-22585938D02*
X115508139Y-22657366D01*
X115508139Y-22657366D02*
X115650996Y-22657366D01*
X115650996Y-23371652D02*
X114150996Y-23371652D01*
X115079568Y-23514510D02*
X115650996Y-23943081D01*
X114650996Y-23943081D02*
X115222425Y-23371652D01*
X115650996Y-24585938D02*
X114650996Y-24585938D01*
X114150996Y-24585938D02*
X114222425Y-24514510D01*
X114222425Y-24514510D02*
X114293853Y-24585938D01*
X114293853Y-24585938D02*
X114222425Y-24657367D01*
X114222425Y-24657367D02*
X114150996Y-24585938D01*
X114150996Y-24585938D02*
X114293853Y-24585938D01*
X118065912Y6485489D02*
X117065912Y6485489D01*
X116565912Y6485489D02*
X116637341Y6556917D01*
X116637341Y6556917D02*
X116708769Y6485489D01*
X116708769Y6485489D02*
X116637341Y6414060D01*
X116637341Y6414060D02*
X116565912Y6485489D01*
X116565912Y6485489D02*
X116708769Y6485489D01*
X117065912Y5771203D02*
X118065912Y5771203D01*
X117208769Y5771203D02*
X117137341Y5699774D01*
X117137341Y5699774D02*
X117065912Y5556917D01*
X117065912Y5556917D02*
X117065912Y5342631D01*
X117065912Y5342631D02*
X117137341Y5199774D01*
X117137341Y5199774D02*
X117280198Y5128346D01*
X117280198Y5128346D02*
X118065912Y5128346D01*
X117994484Y4485488D02*
X118065912Y4342631D01*
X118065912Y4342631D02*
X118065912Y4056917D01*
X118065912Y4056917D02*
X117994484Y3914060D01*
X117994484Y3914060D02*
X117851626Y3842631D01*
X117851626Y3842631D02*
X117780198Y3842631D01*
X117780198Y3842631D02*
X117637341Y3914060D01*
X117637341Y3914060D02*
X117565912Y4056917D01*
X117565912Y4056917D02*
X117565912Y4271203D01*
X117565912Y4271203D02*
X117494484Y4414060D01*
X117494484Y4414060D02*
X117351626Y4485488D01*
X117351626Y4485488D02*
X117280198Y4485488D01*
X117280198Y4485488D02*
X117137341Y4414060D01*
X117137341Y4414060D02*
X117065912Y4271203D01*
X117065912Y4271203D02*
X117065912Y4056917D01*
X117065912Y4056917D02*
X117137341Y3914060D01*
X117065912Y3199774D02*
X118565912Y3199774D01*
X117137341Y3199774D02*
X117065912Y3056917D01*
X117065912Y3056917D02*
X117065912Y2771202D01*
X117065912Y2771202D02*
X117137341Y2628345D01*
X117137341Y2628345D02*
X117208769Y2556917D01*
X117208769Y2556917D02*
X117351626Y2485488D01*
X117351626Y2485488D02*
X117780198Y2485488D01*
X117780198Y2485488D02*
X117923055Y2556917D01*
X117923055Y2556917D02*
X117994484Y2628345D01*
X117994484Y2628345D02*
X118065912Y2771202D01*
X118065912Y2771202D02*
X118065912Y3056917D01*
X118065912Y3056917D02*
X117994484Y3199774D01*
X118065912Y1842631D02*
X117065912Y1842631D01*
X116565912Y1842631D02*
X116637341Y1914059D01*
X116637341Y1914059D02*
X116708769Y1842631D01*
X116708769Y1842631D02*
X116637341Y1771202D01*
X116637341Y1771202D02*
X116565912Y1842631D01*
X116565912Y1842631D02*
X116708769Y1842631D01*
X118065912Y1128345D02*
X117065912Y1128345D01*
X117351626Y1128345D02*
X117208769Y1056916D01*
X117208769Y1056916D02*
X117137341Y985488D01*
X117137341Y985488D02*
X117065912Y842630D01*
X117065912Y842630D02*
X117065912Y699773D01*
X117994484Y-371654D02*
X118065912Y-228797D01*
X118065912Y-228797D02*
X118065912Y56917D01*
X118065912Y56917D02*
X117994484Y199774D01*
X117994484Y199774D02*
X117851626Y271202D01*
X117851626Y271202D02*
X117280198Y271202D01*
X117280198Y271202D02*
X117137341Y199774D01*
X117137341Y199774D02*
X117065912Y56917D01*
X117065912Y56917D02*
X117065912Y-228797D01*
X117065912Y-228797D02*
X117137341Y-371654D01*
X117137341Y-371654D02*
X117280198Y-443083D01*
X117280198Y-443083D02*
X117423055Y-443083D01*
X117423055Y-443083D02*
X117565912Y271202D01*
X118065912Y-1728797D02*
X116565912Y-1728797D01*
X117994484Y-1728797D02*
X118065912Y-1585939D01*
X118065912Y-1585939D02*
X118065912Y-1300225D01*
X118065912Y-1300225D02*
X117994484Y-1157368D01*
X117994484Y-1157368D02*
X117923055Y-1085939D01*
X117923055Y-1085939D02*
X117780198Y-1014511D01*
X117780198Y-1014511D02*
X117351626Y-1014511D01*
X117351626Y-1014511D02*
X117208769Y-1085939D01*
X117208769Y-1085939D02*
X117137341Y-1157368D01*
X117137341Y-1157368D02*
X117065912Y-1300225D01*
X117065912Y-1300225D02*
X117065912Y-1585939D01*
X117065912Y-1585939D02*
X117137341Y-1728797D01*
X118065912Y-3585939D02*
X116565912Y-3585939D01*
X117137341Y-3585939D02*
X117065912Y-3728797D01*
X117065912Y-3728797D02*
X117065912Y-4014511D01*
X117065912Y-4014511D02*
X117137341Y-4157368D01*
X117137341Y-4157368D02*
X117208769Y-4228797D01*
X117208769Y-4228797D02*
X117351626Y-4300225D01*
X117351626Y-4300225D02*
X117780198Y-4300225D01*
X117780198Y-4300225D02*
X117923055Y-4228797D01*
X117923055Y-4228797D02*
X117994484Y-4157368D01*
X117994484Y-4157368D02*
X118065912Y-4014511D01*
X118065912Y-4014511D02*
X118065912Y-3728797D01*
X118065912Y-3728797D02*
X117994484Y-3585939D01*
X117065912Y-4800225D02*
X118065912Y-5157368D01*
X117065912Y-5514511D02*
X118065912Y-5157368D01*
X118065912Y-5157368D02*
X118423055Y-5014511D01*
X118423055Y-5014511D02*
X118494484Y-4943082D01*
X118494484Y-4943082D02*
X118565912Y-4800225D01*
X118065912Y-7228796D02*
X117065912Y-7228796D01*
X117351626Y-7228796D02*
X117208769Y-7300225D01*
X117208769Y-7300225D02*
X117137341Y-7371654D01*
X117137341Y-7371654D02*
X117065912Y-7514511D01*
X117065912Y-7514511D02*
X117065912Y-7657368D01*
X118065912Y-8371653D02*
X117994484Y-8228796D01*
X117994484Y-8228796D02*
X117923055Y-8157367D01*
X117923055Y-8157367D02*
X117780198Y-8085939D01*
X117780198Y-8085939D02*
X117351626Y-8085939D01*
X117351626Y-8085939D02*
X117208769Y-8157367D01*
X117208769Y-8157367D02*
X117137341Y-8228796D01*
X117137341Y-8228796D02*
X117065912Y-8371653D01*
X117065912Y-8371653D02*
X117065912Y-8585939D01*
X117065912Y-8585939D02*
X117137341Y-8728796D01*
X117137341Y-8728796D02*
X117208769Y-8800225D01*
X117208769Y-8800225D02*
X117351626Y-8871653D01*
X117351626Y-8871653D02*
X117780198Y-8871653D01*
X117780198Y-8871653D02*
X117923055Y-8800225D01*
X117923055Y-8800225D02*
X117994484Y-8728796D01*
X117994484Y-8728796D02*
X118065912Y-8585939D01*
X118065912Y-8585939D02*
X118065912Y-8371653D01*
X117280198Y-10014510D02*
X117351626Y-10228796D01*
X117351626Y-10228796D02*
X117423055Y-10300225D01*
X117423055Y-10300225D02*
X117565912Y-10371653D01*
X117565912Y-10371653D02*
X117780198Y-10371653D01*
X117780198Y-10371653D02*
X117923055Y-10300225D01*
X117923055Y-10300225D02*
X117994484Y-10228796D01*
X117994484Y-10228796D02*
X118065912Y-10085939D01*
X118065912Y-10085939D02*
X118065912Y-9514510D01*
X118065912Y-9514510D02*
X116565912Y-9514510D01*
X116565912Y-9514510D02*
X116565912Y-10014510D01*
X116565912Y-10014510D02*
X116637341Y-10157368D01*
X116637341Y-10157368D02*
X116708769Y-10228796D01*
X116708769Y-10228796D02*
X116851626Y-10300225D01*
X116851626Y-10300225D02*
X116994484Y-10300225D01*
X116994484Y-10300225D02*
X117137341Y-10228796D01*
X117137341Y-10228796D02*
X117208769Y-10157368D01*
X117208769Y-10157368D02*
X117280198Y-10014510D01*
X117280198Y-10014510D02*
X117280198Y-9514510D01*
X118065912Y-11657368D02*
X117280198Y-11657368D01*
X117280198Y-11657368D02*
X117137341Y-11585939D01*
X117137341Y-11585939D02*
X117065912Y-11443082D01*
X117065912Y-11443082D02*
X117065912Y-11157368D01*
X117065912Y-11157368D02*
X117137341Y-11014510D01*
X117994484Y-11657368D02*
X118065912Y-11514510D01*
X118065912Y-11514510D02*
X118065912Y-11157368D01*
X118065912Y-11157368D02*
X117994484Y-11014510D01*
X117994484Y-11014510D02*
X117851626Y-10943082D01*
X117851626Y-10943082D02*
X117708769Y-10943082D01*
X117708769Y-10943082D02*
X117565912Y-11014510D01*
X117565912Y-11014510D02*
X117494484Y-11157368D01*
X117494484Y-11157368D02*
X117494484Y-11514510D01*
X117494484Y-11514510D02*
X117423055Y-11657368D01*
X117065912Y-13371653D02*
X118065912Y-13728796D01*
X118065912Y-13728796D02*
X117065912Y-14085939D01*
X117994484Y-15228796D02*
X118065912Y-15085939D01*
X118065912Y-15085939D02*
X118065912Y-14800225D01*
X118065912Y-14800225D02*
X117994484Y-14657367D01*
X117994484Y-14657367D02*
X117851626Y-14585939D01*
X117851626Y-14585939D02*
X117280198Y-14585939D01*
X117280198Y-14585939D02*
X117137341Y-14657367D01*
X117137341Y-14657367D02*
X117065912Y-14800225D01*
X117065912Y-14800225D02*
X117065912Y-15085939D01*
X117065912Y-15085939D02*
X117137341Y-15228796D01*
X117137341Y-15228796D02*
X117280198Y-15300225D01*
X117280198Y-15300225D02*
X117423055Y-15300225D01*
X117423055Y-15300225D02*
X117565912Y-14585939D01*
X118065912Y-15943081D02*
X117065912Y-15943081D01*
X117351626Y-15943081D02*
X117208769Y-16014510D01*
X117208769Y-16014510D02*
X117137341Y-16085939D01*
X117137341Y-16085939D02*
X117065912Y-16228796D01*
X117065912Y-16228796D02*
X117065912Y-16371653D01*
X117923055Y-16871652D02*
X117994484Y-16943081D01*
X117994484Y-16943081D02*
X118065912Y-16871652D01*
X118065912Y-16871652D02*
X117994484Y-16800224D01*
X117994484Y-16800224D02*
X117923055Y-16871652D01*
X117923055Y-16871652D02*
X118065912Y-16871652D01*
X118065912Y-18371653D02*
X118065912Y-17514510D01*
X118065912Y-17943081D02*
X116565912Y-17943081D01*
X116565912Y-17943081D02*
X116780198Y-17800224D01*
X116780198Y-17800224D02*
X116923055Y-17657367D01*
X116923055Y-17657367D02*
X116994484Y-17514510D01*
X117923055Y-19014509D02*
X117994484Y-19085938D01*
X117994484Y-19085938D02*
X118065912Y-19014509D01*
X118065912Y-19014509D02*
X117994484Y-18943081D01*
X117994484Y-18943081D02*
X117923055Y-19014509D01*
X117923055Y-19014509D02*
X118065912Y-19014509D01*
X118065912Y-20514510D02*
X118065912Y-19657367D01*
X118065912Y-20085938D02*
X116565912Y-20085938D01*
X116565912Y-20085938D02*
X116780198Y-19943081D01*
X116780198Y-19943081D02*
X116923055Y-19800224D01*
X116923055Y-19800224D02*
X116994484Y-19657367D01*
X118065912Y-21943081D02*
X118065912Y-21085938D01*
X118065912Y-21514509D02*
X116565912Y-21514509D01*
X116565912Y-21514509D02*
X116780198Y-21371652D01*
X116780198Y-21371652D02*
X116923055Y-21228795D01*
X116923055Y-21228795D02*
X116994484Y-21085938D01*
X120480828Y5842632D02*
X118980828Y5842632D01*
X120409400Y5842632D02*
X120480828Y5985489D01*
X120480828Y5985489D02*
X120480828Y6271203D01*
X120480828Y6271203D02*
X120409400Y6414060D01*
X120409400Y6414060D02*
X120337971Y6485489D01*
X120337971Y6485489D02*
X120195114Y6556917D01*
X120195114Y6556917D02*
X119766542Y6556917D01*
X119766542Y6556917D02*
X119623685Y6485489D01*
X119623685Y6485489D02*
X119552257Y6414060D01*
X119552257Y6414060D02*
X119480828Y6271203D01*
X119480828Y6271203D02*
X119480828Y5985489D01*
X119480828Y5985489D02*
X119552257Y5842632D01*
X120480828Y4485489D02*
X119695114Y4485489D01*
X119695114Y4485489D02*
X119552257Y4556917D01*
X119552257Y4556917D02*
X119480828Y4699774D01*
X119480828Y4699774D02*
X119480828Y4985489D01*
X119480828Y4985489D02*
X119552257Y5128346D01*
X120409400Y4485489D02*
X120480828Y4628346D01*
X120480828Y4628346D02*
X120480828Y4985489D01*
X120480828Y4985489D02*
X120409400Y5128346D01*
X120409400Y5128346D02*
X120266542Y5199774D01*
X120266542Y5199774D02*
X120123685Y5199774D01*
X120123685Y5199774D02*
X119980828Y5128346D01*
X119980828Y5128346D02*
X119909400Y4985489D01*
X119909400Y4985489D02*
X119909400Y4628346D01*
X119909400Y4628346D02*
X119837971Y4485489D01*
X119480828Y3985488D02*
X119480828Y3414060D01*
X118980828Y3771203D02*
X120266542Y3771203D01*
X120266542Y3771203D02*
X120409400Y3699774D01*
X120409400Y3699774D02*
X120480828Y3556917D01*
X120480828Y3556917D02*
X120480828Y3414060D01*
X120480828Y2271203D02*
X119695114Y2271203D01*
X119695114Y2271203D02*
X119552257Y2342631D01*
X119552257Y2342631D02*
X119480828Y2485488D01*
X119480828Y2485488D02*
X119480828Y2771203D01*
X119480828Y2771203D02*
X119552257Y2914060D01*
X120409400Y2271203D02*
X120480828Y2414060D01*
X120480828Y2414060D02*
X120480828Y2771203D01*
X120480828Y2771203D02*
X120409400Y2914060D01*
X120409400Y2914060D02*
X120266542Y2985488D01*
X120266542Y2985488D02*
X120123685Y2985488D01*
X120123685Y2985488D02*
X119980828Y2914060D01*
X119980828Y2914060D02*
X119909400Y2771203D01*
X119909400Y2771203D02*
X119909400Y2414060D01*
X119909400Y2414060D02*
X119837971Y2271203D01*
X119123685Y485488D02*
X119052257Y414060D01*
X119052257Y414060D02*
X118980828Y271203D01*
X118980828Y271203D02*
X118980828Y-85939D01*
X118980828Y-85939D02*
X119052257Y-228797D01*
X119052257Y-228797D02*
X119123685Y-300225D01*
X119123685Y-300225D02*
X119266542Y-371654D01*
X119266542Y-371654D02*
X119409400Y-371654D01*
X119409400Y-371654D02*
X119623685Y-300225D01*
X119623685Y-300225D02*
X120480828Y556917D01*
X120480828Y556917D02*
X120480828Y-371654D01*
X118980828Y-1300225D02*
X118980828Y-1443082D01*
X118980828Y-1443082D02*
X119052257Y-1585939D01*
X119052257Y-1585939D02*
X119123685Y-1657368D01*
X119123685Y-1657368D02*
X119266542Y-1728796D01*
X119266542Y-1728796D02*
X119552257Y-1800225D01*
X119552257Y-1800225D02*
X119909400Y-1800225D01*
X119909400Y-1800225D02*
X120195114Y-1728796D01*
X120195114Y-1728796D02*
X120337971Y-1657368D01*
X120337971Y-1657368D02*
X120409400Y-1585939D01*
X120409400Y-1585939D02*
X120480828Y-1443082D01*
X120480828Y-1443082D02*
X120480828Y-1300225D01*
X120480828Y-1300225D02*
X120409400Y-1157368D01*
X120409400Y-1157368D02*
X120337971Y-1085939D01*
X120337971Y-1085939D02*
X120195114Y-1014510D01*
X120195114Y-1014510D02*
X119909400Y-943082D01*
X119909400Y-943082D02*
X119552257Y-943082D01*
X119552257Y-943082D02*
X119266542Y-1014510D01*
X119266542Y-1014510D02*
X119123685Y-1085939D01*
X119123685Y-1085939D02*
X119052257Y-1157368D01*
X119052257Y-1157368D02*
X118980828Y-1300225D01*
X119123685Y-2371653D02*
X119052257Y-2443081D01*
X119052257Y-2443081D02*
X118980828Y-2585939D01*
X118980828Y-2585939D02*
X118980828Y-2943081D01*
X118980828Y-2943081D02*
X119052257Y-3085939D01*
X119052257Y-3085939D02*
X119123685Y-3157367D01*
X119123685Y-3157367D02*
X119266542Y-3228796D01*
X119266542Y-3228796D02*
X119409400Y-3228796D01*
X119409400Y-3228796D02*
X119623685Y-3157367D01*
X119623685Y-3157367D02*
X120480828Y-2300224D01*
X120480828Y-2300224D02*
X120480828Y-3228796D01*
X119480828Y-4514510D02*
X120480828Y-4514510D01*
X118909400Y-4157367D02*
X119980828Y-3800224D01*
X119980828Y-3800224D02*
X119980828Y-4728795D01*
X118980828Y-5585938D02*
X118980828Y-5728795D01*
X118980828Y-5728795D02*
X119052257Y-5871652D01*
X119052257Y-5871652D02*
X119123685Y-5943081D01*
X119123685Y-5943081D02*
X119266542Y-6014509D01*
X119266542Y-6014509D02*
X119552257Y-6085938D01*
X119552257Y-6085938D02*
X119909400Y-6085938D01*
X119909400Y-6085938D02*
X120195114Y-6014509D01*
X120195114Y-6014509D02*
X120337971Y-5943081D01*
X120337971Y-5943081D02*
X120409400Y-5871652D01*
X120409400Y-5871652D02*
X120480828Y-5728795D01*
X120480828Y-5728795D02*
X120480828Y-5585938D01*
X120480828Y-5585938D02*
X120409400Y-5443081D01*
X120409400Y-5443081D02*
X120337971Y-5371652D01*
X120337971Y-5371652D02*
X120195114Y-5300223D01*
X120195114Y-5300223D02*
X119909400Y-5228795D01*
X119909400Y-5228795D02*
X119552257Y-5228795D01*
X119552257Y-5228795D02*
X119266542Y-5300223D01*
X119266542Y-5300223D02*
X119123685Y-5371652D01*
X119123685Y-5371652D02*
X119052257Y-5443081D01*
X119052257Y-5443081D02*
X118980828Y-5585938D01*
X120480828Y-7514509D02*
X120480828Y-6657366D01*
X120480828Y-7085937D02*
X118980828Y-7085937D01*
X118980828Y-7085937D02*
X119195114Y-6943080D01*
X119195114Y-6943080D02*
X119337971Y-6800223D01*
X119337971Y-6800223D02*
X119409400Y-6657366D01*
X119123685Y-8085937D02*
X119052257Y-8157365D01*
X119052257Y-8157365D02*
X118980828Y-8300223D01*
X118980828Y-8300223D02*
X118980828Y-8657365D01*
X118980828Y-8657365D02*
X119052257Y-8800223D01*
X119052257Y-8800223D02*
X119123685Y-8871651D01*
X119123685Y-8871651D02*
X119266542Y-8943080D01*
X119266542Y-8943080D02*
X119409400Y-8943080D01*
X119409400Y-8943080D02*
X119623685Y-8871651D01*
X119623685Y-8871651D02*
X120480828Y-8014508D01*
X120480828Y-8014508D02*
X120480828Y-8943080D01*
X118980828Y-9871651D02*
X118980828Y-10014508D01*
X118980828Y-10014508D02*
X119052257Y-10157365D01*
X119052257Y-10157365D02*
X119123685Y-10228794D01*
X119123685Y-10228794D02*
X119266542Y-10300222D01*
X119266542Y-10300222D02*
X119552257Y-10371651D01*
X119552257Y-10371651D02*
X119909400Y-10371651D01*
X119909400Y-10371651D02*
X120195114Y-10300222D01*
X120195114Y-10300222D02*
X120337971Y-10228794D01*
X120337971Y-10228794D02*
X120409400Y-10157365D01*
X120409400Y-10157365D02*
X120480828Y-10014508D01*
X120480828Y-10014508D02*
X120480828Y-9871651D01*
X120480828Y-9871651D02*
X120409400Y-9728794D01*
X120409400Y-9728794D02*
X120337971Y-9657365D01*
X120337971Y-9657365D02*
X120195114Y-9585936D01*
X120195114Y-9585936D02*
X119909400Y-9514508D01*
X119909400Y-9514508D02*
X119552257Y-9514508D01*
X119552257Y-9514508D02*
X119266542Y-9585936D01*
X119266542Y-9585936D02*
X119123685Y-9657365D01*
X119123685Y-9657365D02*
X119052257Y-9728794D01*
X119052257Y-9728794D02*
X118980828Y-9871651D01*
D11*
X6840475Y-9983595D02*
X6840475Y-9183595D01*
X6840475Y-9183595D02*
X6649999Y-9183595D01*
X6649999Y-9183595D02*
X6535713Y-9221690D01*
X6535713Y-9221690D02*
X6459523Y-9297880D01*
X6459523Y-9297880D02*
X6421428Y-9374071D01*
X6421428Y-9374071D02*
X6383332Y-9526452D01*
X6383332Y-9526452D02*
X6383332Y-9640738D01*
X6383332Y-9640738D02*
X6421428Y-9793119D01*
X6421428Y-9793119D02*
X6459523Y-9869309D01*
X6459523Y-9869309D02*
X6535713Y-9945500D01*
X6535713Y-9945500D02*
X6649999Y-9983595D01*
X6649999Y-9983595D02*
X6840475Y-9983595D01*
X5621428Y-9983595D02*
X6078571Y-9983595D01*
X5849999Y-9983595D02*
X5849999Y-9183595D01*
X5849999Y-9183595D02*
X5926190Y-9297880D01*
X5926190Y-9297880D02*
X6002380Y-9374071D01*
X6002380Y-9374071D02*
X6078571Y-9412166D01*
X97721428Y-48093595D02*
X97721428Y-47293595D01*
X97721428Y-47293595D02*
X97530952Y-47293595D01*
X97530952Y-47293595D02*
X97416666Y-47331690D01*
X97416666Y-47331690D02*
X97340476Y-47407880D01*
X97340476Y-47407880D02*
X97302381Y-47484071D01*
X97302381Y-47484071D02*
X97264285Y-47636452D01*
X97264285Y-47636452D02*
X97264285Y-47750738D01*
X97264285Y-47750738D02*
X97302381Y-47903119D01*
X97302381Y-47903119D02*
X97340476Y-47979309D01*
X97340476Y-47979309D02*
X97416666Y-48055500D01*
X97416666Y-48055500D02*
X97530952Y-48093595D01*
X97530952Y-48093595D02*
X97721428Y-48093595D01*
X96502381Y-48093595D02*
X96959524Y-48093595D01*
X96730952Y-48093595D02*
X96730952Y-47293595D01*
X96730952Y-47293595D02*
X96807143Y-47407880D01*
X96807143Y-47407880D02*
X96883333Y-47484071D01*
X96883333Y-47484071D02*
X96959524Y-47522166D01*
X96121428Y-48093595D02*
X95969047Y-48093595D01*
X95969047Y-48093595D02*
X95892857Y-48055500D01*
X95892857Y-48055500D02*
X95854761Y-48017404D01*
X95854761Y-48017404D02*
X95778571Y-47903119D01*
X95778571Y-47903119D02*
X95740476Y-47750738D01*
X95740476Y-47750738D02*
X95740476Y-47445976D01*
X95740476Y-47445976D02*
X95778571Y-47369785D01*
X95778571Y-47369785D02*
X95816666Y-47331690D01*
X95816666Y-47331690D02*
X95892857Y-47293595D01*
X95892857Y-47293595D02*
X96045238Y-47293595D01*
X96045238Y-47293595D02*
X96121428Y-47331690D01*
X96121428Y-47331690D02*
X96159523Y-47369785D01*
X96159523Y-47369785D02*
X96197619Y-47445976D01*
X96197619Y-47445976D02*
X96197619Y-47636452D01*
X96197619Y-47636452D02*
X96159523Y-47712642D01*
X96159523Y-47712642D02*
X96121428Y-47750738D01*
X96121428Y-47750738D02*
X96045238Y-47788833D01*
X96045238Y-47788833D02*
X95892857Y-47788833D01*
X95892857Y-47788833D02*
X95816666Y-47750738D01*
X95816666Y-47750738D02*
X95778571Y-47712642D01*
X95778571Y-47712642D02*
X95740476Y-47636452D01*
X31130475Y-29483595D02*
X31130475Y-28683595D01*
X31130475Y-28683595D02*
X30939999Y-28683595D01*
X30939999Y-28683595D02*
X30825713Y-28721690D01*
X30825713Y-28721690D02*
X30749523Y-28797880D01*
X30749523Y-28797880D02*
X30711428Y-28874071D01*
X30711428Y-28874071D02*
X30673332Y-29026452D01*
X30673332Y-29026452D02*
X30673332Y-29140738D01*
X30673332Y-29140738D02*
X30711428Y-29293119D01*
X30711428Y-29293119D02*
X30749523Y-29369309D01*
X30749523Y-29369309D02*
X30825713Y-29445500D01*
X30825713Y-29445500D02*
X30939999Y-29483595D01*
X30939999Y-29483595D02*
X31130475Y-29483595D01*
X29987618Y-28683595D02*
X30139999Y-28683595D01*
X30139999Y-28683595D02*
X30216190Y-28721690D01*
X30216190Y-28721690D02*
X30254285Y-28759785D01*
X30254285Y-28759785D02*
X30330475Y-28874071D01*
X30330475Y-28874071D02*
X30368571Y-29026452D01*
X30368571Y-29026452D02*
X30368571Y-29331214D01*
X30368571Y-29331214D02*
X30330475Y-29407404D01*
X30330475Y-29407404D02*
X30292380Y-29445500D01*
X30292380Y-29445500D02*
X30216190Y-29483595D01*
X30216190Y-29483595D02*
X30063809Y-29483595D01*
X30063809Y-29483595D02*
X29987618Y-29445500D01*
X29987618Y-29445500D02*
X29949523Y-29407404D01*
X29949523Y-29407404D02*
X29911428Y-29331214D01*
X29911428Y-29331214D02*
X29911428Y-29140738D01*
X29911428Y-29140738D02*
X29949523Y-29064547D01*
X29949523Y-29064547D02*
X29987618Y-29026452D01*
X29987618Y-29026452D02*
X30063809Y-28988357D01*
X30063809Y-28988357D02*
X30216190Y-28988357D01*
X30216190Y-28988357D02*
X30292380Y-29026452D01*
X30292380Y-29026452D02*
X30330475Y-29064547D01*
X30330475Y-29064547D02*
X30368571Y-29140738D01*
X64401428Y-10453595D02*
X64401428Y-9653595D01*
X64401428Y-9653595D02*
X64210952Y-9653595D01*
X64210952Y-9653595D02*
X64096666Y-9691690D01*
X64096666Y-9691690D02*
X64020476Y-9767880D01*
X64020476Y-9767880D02*
X63982381Y-9844071D01*
X63982381Y-9844071D02*
X63944285Y-9996452D01*
X63944285Y-9996452D02*
X63944285Y-10110738D01*
X63944285Y-10110738D02*
X63982381Y-10263119D01*
X63982381Y-10263119D02*
X64020476Y-10339309D01*
X64020476Y-10339309D02*
X64096666Y-10415500D01*
X64096666Y-10415500D02*
X64210952Y-10453595D01*
X64210952Y-10453595D02*
X64401428Y-10453595D01*
X63182381Y-10453595D02*
X63639524Y-10453595D01*
X63410952Y-10453595D02*
X63410952Y-9653595D01*
X63410952Y-9653595D02*
X63487143Y-9767880D01*
X63487143Y-9767880D02*
X63563333Y-9844071D01*
X63563333Y-9844071D02*
X63639524Y-9882166D01*
X62915714Y-9653595D02*
X62420476Y-9653595D01*
X62420476Y-9653595D02*
X62687142Y-9958357D01*
X62687142Y-9958357D02*
X62572857Y-9958357D01*
X62572857Y-9958357D02*
X62496666Y-9996452D01*
X62496666Y-9996452D02*
X62458571Y-10034547D01*
X62458571Y-10034547D02*
X62420476Y-10110738D01*
X62420476Y-10110738D02*
X62420476Y-10301214D01*
X62420476Y-10301214D02*
X62458571Y-10377404D01*
X62458571Y-10377404D02*
X62496666Y-10415500D01*
X62496666Y-10415500D02*
X62572857Y-10453595D01*
X62572857Y-10453595D02*
X62801428Y-10453595D01*
X62801428Y-10453595D02*
X62877619Y-10415500D01*
X62877619Y-10415500D02*
X62915714Y-10377404D01*
X50521428Y-29453595D02*
X50521428Y-28653595D01*
X50521428Y-28653595D02*
X50330952Y-28653595D01*
X50330952Y-28653595D02*
X50216666Y-28691690D01*
X50216666Y-28691690D02*
X50140476Y-28767880D01*
X50140476Y-28767880D02*
X50102381Y-28844071D01*
X50102381Y-28844071D02*
X50064285Y-28996452D01*
X50064285Y-28996452D02*
X50064285Y-29110738D01*
X50064285Y-29110738D02*
X50102381Y-29263119D01*
X50102381Y-29263119D02*
X50140476Y-29339309D01*
X50140476Y-29339309D02*
X50216666Y-29415500D01*
X50216666Y-29415500D02*
X50330952Y-29453595D01*
X50330952Y-29453595D02*
X50521428Y-29453595D01*
X49302381Y-29453595D02*
X49759524Y-29453595D01*
X49530952Y-29453595D02*
X49530952Y-28653595D01*
X49530952Y-28653595D02*
X49607143Y-28767880D01*
X49607143Y-28767880D02*
X49683333Y-28844071D01*
X49683333Y-28844071D02*
X49759524Y-28882166D01*
X48807142Y-28653595D02*
X48730952Y-28653595D01*
X48730952Y-28653595D02*
X48654761Y-28691690D01*
X48654761Y-28691690D02*
X48616666Y-28729785D01*
X48616666Y-28729785D02*
X48578571Y-28805976D01*
X48578571Y-28805976D02*
X48540476Y-28958357D01*
X48540476Y-28958357D02*
X48540476Y-29148833D01*
X48540476Y-29148833D02*
X48578571Y-29301214D01*
X48578571Y-29301214D02*
X48616666Y-29377404D01*
X48616666Y-29377404D02*
X48654761Y-29415500D01*
X48654761Y-29415500D02*
X48730952Y-29453595D01*
X48730952Y-29453595D02*
X48807142Y-29453595D01*
X48807142Y-29453595D02*
X48883333Y-29415500D01*
X48883333Y-29415500D02*
X48921428Y-29377404D01*
X48921428Y-29377404D02*
X48959523Y-29301214D01*
X48959523Y-29301214D02*
X48997619Y-29148833D01*
X48997619Y-29148833D02*
X48997619Y-28958357D01*
X48997619Y-28958357D02*
X48959523Y-28805976D01*
X48959523Y-28805976D02*
X48921428Y-28729785D01*
X48921428Y-28729785D02*
X48883333Y-28691690D01*
X48883333Y-28691690D02*
X48807142Y-28653595D01*
D12*
X21719887Y-61926009D02*
X21577030Y-61973628D01*
X21577030Y-61973628D02*
X21529411Y-62021247D01*
X21529411Y-62021247D02*
X21481792Y-62116485D01*
X21481792Y-62116485D02*
X21481792Y-62259342D01*
X21481792Y-62259342D02*
X21529411Y-62354580D01*
X21529411Y-62354580D02*
X21577030Y-62402200D01*
X21577030Y-62402200D02*
X21672268Y-62449819D01*
X21672268Y-62449819D02*
X22053220Y-62449819D01*
X22053220Y-62449819D02*
X22053220Y-61449819D01*
X22053220Y-61449819D02*
X21719887Y-61449819D01*
X21719887Y-61449819D02*
X21624649Y-61497438D01*
X21624649Y-61497438D02*
X21577030Y-61545057D01*
X21577030Y-61545057D02*
X21529411Y-61640295D01*
X21529411Y-61640295D02*
X21529411Y-61735533D01*
X21529411Y-61735533D02*
X21577030Y-61830771D01*
X21577030Y-61830771D02*
X21624649Y-61878390D01*
X21624649Y-61878390D02*
X21719887Y-61926009D01*
X21719887Y-61926009D02*
X22053220Y-61926009D01*
X21100839Y-62164104D02*
X20624649Y-62164104D01*
X21196077Y-62449819D02*
X20862744Y-61449819D01*
X20862744Y-61449819D02*
X20529411Y-62449819D01*
X20338934Y-61449819D02*
X19767506Y-61449819D01*
X20053220Y-62449819D02*
X20053220Y-61449819D01*
X18849411Y-61457438D02*
X18944649Y-61409819D01*
X18944649Y-61409819D02*
X19087506Y-61409819D01*
X19087506Y-61409819D02*
X19230363Y-61457438D01*
X19230363Y-61457438D02*
X19325601Y-61552676D01*
X19325601Y-61552676D02*
X19373220Y-61647914D01*
X19373220Y-61647914D02*
X19420839Y-61838390D01*
X19420839Y-61838390D02*
X19420839Y-61981247D01*
X19420839Y-61981247D02*
X19373220Y-62171723D01*
X19373220Y-62171723D02*
X19325601Y-62266961D01*
X19325601Y-62266961D02*
X19230363Y-62362200D01*
X19230363Y-62362200D02*
X19087506Y-62409819D01*
X19087506Y-62409819D02*
X18992268Y-62409819D01*
X18992268Y-62409819D02*
X18849411Y-62362200D01*
X18849411Y-62362200D02*
X18801792Y-62314580D01*
X18801792Y-62314580D02*
X18801792Y-61981247D01*
X18801792Y-61981247D02*
X18992268Y-61981247D01*
X18373220Y-62409819D02*
X18373220Y-61409819D01*
X18373220Y-61409819D02*
X17801792Y-62409819D01*
X17801792Y-62409819D02*
X17801792Y-61409819D01*
X17325601Y-62409819D02*
X17325601Y-61409819D01*
X17325601Y-61409819D02*
X17087506Y-61409819D01*
X17087506Y-61409819D02*
X16944649Y-61457438D01*
X16944649Y-61457438D02*
X16849411Y-61552676D01*
X16849411Y-61552676D02*
X16801792Y-61647914D01*
X16801792Y-61647914D02*
X16754173Y-61838390D01*
X16754173Y-61838390D02*
X16754173Y-61981247D01*
X16754173Y-61981247D02*
X16801792Y-62171723D01*
X16801792Y-62171723D02*
X16849411Y-62266961D01*
X16849411Y-62266961D02*
X16944649Y-62362200D01*
X16944649Y-62362200D02*
X17087506Y-62409819D01*
X17087506Y-62409819D02*
X17325601Y-62409819D01*
D11*
X116681428Y-48043595D02*
X116681428Y-47243595D01*
X116681428Y-47243595D02*
X116490952Y-47243595D01*
X116490952Y-47243595D02*
X116376666Y-47281690D01*
X116376666Y-47281690D02*
X116300476Y-47357880D01*
X116300476Y-47357880D02*
X116262381Y-47434071D01*
X116262381Y-47434071D02*
X116224285Y-47586452D01*
X116224285Y-47586452D02*
X116224285Y-47700738D01*
X116224285Y-47700738D02*
X116262381Y-47853119D01*
X116262381Y-47853119D02*
X116300476Y-47929309D01*
X116300476Y-47929309D02*
X116376666Y-48005500D01*
X116376666Y-48005500D02*
X116490952Y-48043595D01*
X116490952Y-48043595D02*
X116681428Y-48043595D01*
X115919524Y-47319785D02*
X115881428Y-47281690D01*
X115881428Y-47281690D02*
X115805238Y-47243595D01*
X115805238Y-47243595D02*
X115614762Y-47243595D01*
X115614762Y-47243595D02*
X115538571Y-47281690D01*
X115538571Y-47281690D02*
X115500476Y-47319785D01*
X115500476Y-47319785D02*
X115462381Y-47395976D01*
X115462381Y-47395976D02*
X115462381Y-47472166D01*
X115462381Y-47472166D02*
X115500476Y-47586452D01*
X115500476Y-47586452D02*
X115957619Y-48043595D01*
X115957619Y-48043595D02*
X115462381Y-48043595D01*
X115157619Y-47319785D02*
X115119523Y-47281690D01*
X115119523Y-47281690D02*
X115043333Y-47243595D01*
X115043333Y-47243595D02*
X114852857Y-47243595D01*
X114852857Y-47243595D02*
X114776666Y-47281690D01*
X114776666Y-47281690D02*
X114738571Y-47319785D01*
X114738571Y-47319785D02*
X114700476Y-47395976D01*
X114700476Y-47395976D02*
X114700476Y-47472166D01*
X114700476Y-47472166D02*
X114738571Y-47586452D01*
X114738571Y-47586452D02*
X115195714Y-48043595D01*
X115195714Y-48043595D02*
X114700476Y-48043595D01*
X107126428Y-66993595D02*
X107126428Y-66193595D01*
X107126428Y-66193595D02*
X106935952Y-66193595D01*
X106935952Y-66193595D02*
X106821666Y-66231690D01*
X106821666Y-66231690D02*
X106745476Y-66307880D01*
X106745476Y-66307880D02*
X106707381Y-66384071D01*
X106707381Y-66384071D02*
X106669285Y-66536452D01*
X106669285Y-66536452D02*
X106669285Y-66650738D01*
X106669285Y-66650738D02*
X106707381Y-66803119D01*
X106707381Y-66803119D02*
X106745476Y-66879309D01*
X106745476Y-66879309D02*
X106821666Y-66955500D01*
X106821666Y-66955500D02*
X106935952Y-66993595D01*
X106935952Y-66993595D02*
X107126428Y-66993595D01*
X106364524Y-66269785D02*
X106326428Y-66231690D01*
X106326428Y-66231690D02*
X106250238Y-66193595D01*
X106250238Y-66193595D02*
X106059762Y-66193595D01*
X106059762Y-66193595D02*
X105983571Y-66231690D01*
X105983571Y-66231690D02*
X105945476Y-66269785D01*
X105945476Y-66269785D02*
X105907381Y-66345976D01*
X105907381Y-66345976D02*
X105907381Y-66422166D01*
X105907381Y-66422166D02*
X105945476Y-66536452D01*
X105945476Y-66536452D02*
X106402619Y-66993595D01*
X106402619Y-66993595D02*
X105907381Y-66993595D01*
X105412142Y-66193595D02*
X105335952Y-66193595D01*
X105335952Y-66193595D02*
X105259761Y-66231690D01*
X105259761Y-66231690D02*
X105221666Y-66269785D01*
X105221666Y-66269785D02*
X105183571Y-66345976D01*
X105183571Y-66345976D02*
X105145476Y-66498357D01*
X105145476Y-66498357D02*
X105145476Y-66688833D01*
X105145476Y-66688833D02*
X105183571Y-66841214D01*
X105183571Y-66841214D02*
X105221666Y-66917404D01*
X105221666Y-66917404D02*
X105259761Y-66955500D01*
X105259761Y-66955500D02*
X105335952Y-66993595D01*
X105335952Y-66993595D02*
X105412142Y-66993595D01*
X105412142Y-66993595D02*
X105488333Y-66955500D01*
X105488333Y-66955500D02*
X105526428Y-66917404D01*
X105526428Y-66917404D02*
X105564523Y-66841214D01*
X105564523Y-66841214D02*
X105602619Y-66688833D01*
X105602619Y-66688833D02*
X105602619Y-66498357D01*
X105602619Y-66498357D02*
X105564523Y-66345976D01*
X105564523Y-66345976D02*
X105526428Y-66269785D01*
X105526428Y-66269785D02*
X105488333Y-66231690D01*
X105488333Y-66231690D02*
X105412142Y-66193595D01*
X69631428Y-29523595D02*
X69631428Y-28723595D01*
X69631428Y-28723595D02*
X69440952Y-28723595D01*
X69440952Y-28723595D02*
X69326666Y-28761690D01*
X69326666Y-28761690D02*
X69250476Y-28837880D01*
X69250476Y-28837880D02*
X69212381Y-28914071D01*
X69212381Y-28914071D02*
X69174285Y-29066452D01*
X69174285Y-29066452D02*
X69174285Y-29180738D01*
X69174285Y-29180738D02*
X69212381Y-29333119D01*
X69212381Y-29333119D02*
X69250476Y-29409309D01*
X69250476Y-29409309D02*
X69326666Y-29485500D01*
X69326666Y-29485500D02*
X69440952Y-29523595D01*
X69440952Y-29523595D02*
X69631428Y-29523595D01*
X68412381Y-29523595D02*
X68869524Y-29523595D01*
X68640952Y-29523595D02*
X68640952Y-28723595D01*
X68640952Y-28723595D02*
X68717143Y-28837880D01*
X68717143Y-28837880D02*
X68793333Y-28914071D01*
X68793333Y-28914071D02*
X68869524Y-28952166D01*
X67726666Y-28990261D02*
X67726666Y-29523595D01*
X67917142Y-28685500D02*
X68107619Y-29256928D01*
X68107619Y-29256928D02*
X67612380Y-29256928D01*
X60071428Y-48553595D02*
X60071428Y-47753595D01*
X60071428Y-47753595D02*
X59880952Y-47753595D01*
X59880952Y-47753595D02*
X59766666Y-47791690D01*
X59766666Y-47791690D02*
X59690476Y-47867880D01*
X59690476Y-47867880D02*
X59652381Y-47944071D01*
X59652381Y-47944071D02*
X59614285Y-48096452D01*
X59614285Y-48096452D02*
X59614285Y-48210738D01*
X59614285Y-48210738D02*
X59652381Y-48363119D01*
X59652381Y-48363119D02*
X59690476Y-48439309D01*
X59690476Y-48439309D02*
X59766666Y-48515500D01*
X59766666Y-48515500D02*
X59880952Y-48553595D01*
X59880952Y-48553595D02*
X60071428Y-48553595D01*
X58852381Y-48553595D02*
X59309524Y-48553595D01*
X59080952Y-48553595D02*
X59080952Y-47753595D01*
X59080952Y-47753595D02*
X59157143Y-47867880D01*
X59157143Y-47867880D02*
X59233333Y-47944071D01*
X59233333Y-47944071D02*
X59309524Y-47982166D01*
X58090476Y-48553595D02*
X58547619Y-48553595D01*
X58319047Y-48553595D02*
X58319047Y-47753595D01*
X58319047Y-47753595D02*
X58395238Y-47867880D01*
X58395238Y-47867880D02*
X58471428Y-47944071D01*
X58471428Y-47944071D02*
X58547619Y-47982166D01*
X63970475Y-67123595D02*
X63970475Y-66323595D01*
X63970475Y-66323595D02*
X63779999Y-66323595D01*
X63779999Y-66323595D02*
X63665713Y-66361690D01*
X63665713Y-66361690D02*
X63589523Y-66437880D01*
X63589523Y-66437880D02*
X63551428Y-66514071D01*
X63551428Y-66514071D02*
X63513332Y-66666452D01*
X63513332Y-66666452D02*
X63513332Y-66780738D01*
X63513332Y-66780738D02*
X63551428Y-66933119D01*
X63551428Y-66933119D02*
X63589523Y-67009309D01*
X63589523Y-67009309D02*
X63665713Y-67085500D01*
X63665713Y-67085500D02*
X63779999Y-67123595D01*
X63779999Y-67123595D02*
X63970475Y-67123595D01*
X63056190Y-66666452D02*
X63132380Y-66628357D01*
X63132380Y-66628357D02*
X63170475Y-66590261D01*
X63170475Y-66590261D02*
X63208571Y-66514071D01*
X63208571Y-66514071D02*
X63208571Y-66475976D01*
X63208571Y-66475976D02*
X63170475Y-66399785D01*
X63170475Y-66399785D02*
X63132380Y-66361690D01*
X63132380Y-66361690D02*
X63056190Y-66323595D01*
X63056190Y-66323595D02*
X62903809Y-66323595D01*
X62903809Y-66323595D02*
X62827618Y-66361690D01*
X62827618Y-66361690D02*
X62789523Y-66399785D01*
X62789523Y-66399785D02*
X62751428Y-66475976D01*
X62751428Y-66475976D02*
X62751428Y-66514071D01*
X62751428Y-66514071D02*
X62789523Y-66590261D01*
X62789523Y-66590261D02*
X62827618Y-66628357D01*
X62827618Y-66628357D02*
X62903809Y-66666452D01*
X62903809Y-66666452D02*
X63056190Y-66666452D01*
X63056190Y-66666452D02*
X63132380Y-66704547D01*
X63132380Y-66704547D02*
X63170475Y-66742642D01*
X63170475Y-66742642D02*
X63208571Y-66818833D01*
X63208571Y-66818833D02*
X63208571Y-66971214D01*
X63208571Y-66971214D02*
X63170475Y-67047404D01*
X63170475Y-67047404D02*
X63132380Y-67085500D01*
X63132380Y-67085500D02*
X63056190Y-67123595D01*
X63056190Y-67123595D02*
X62903809Y-67123595D01*
X62903809Y-67123595D02*
X62827618Y-67085500D01*
X62827618Y-67085500D02*
X62789523Y-67047404D01*
X62789523Y-67047404D02*
X62751428Y-66971214D01*
X62751428Y-66971214D02*
X62751428Y-66818833D01*
X62751428Y-66818833D02*
X62789523Y-66742642D01*
X62789523Y-66742642D02*
X62827618Y-66704547D01*
X62827618Y-66704547D02*
X62903809Y-66666452D01*
X79151428Y-48533595D02*
X79151428Y-47733595D01*
X79151428Y-47733595D02*
X78960952Y-47733595D01*
X78960952Y-47733595D02*
X78846666Y-47771690D01*
X78846666Y-47771690D02*
X78770476Y-47847880D01*
X78770476Y-47847880D02*
X78732381Y-47924071D01*
X78732381Y-47924071D02*
X78694285Y-48076452D01*
X78694285Y-48076452D02*
X78694285Y-48190738D01*
X78694285Y-48190738D02*
X78732381Y-48343119D01*
X78732381Y-48343119D02*
X78770476Y-48419309D01*
X78770476Y-48419309D02*
X78846666Y-48495500D01*
X78846666Y-48495500D02*
X78960952Y-48533595D01*
X78960952Y-48533595D02*
X79151428Y-48533595D01*
X77932381Y-48533595D02*
X78389524Y-48533595D01*
X78160952Y-48533595D02*
X78160952Y-47733595D01*
X78160952Y-47733595D02*
X78237143Y-47847880D01*
X78237143Y-47847880D02*
X78313333Y-47924071D01*
X78313333Y-47924071D02*
X78389524Y-47962166D01*
X77208571Y-47733595D02*
X77589523Y-47733595D01*
X77589523Y-47733595D02*
X77627619Y-48114547D01*
X77627619Y-48114547D02*
X77589523Y-48076452D01*
X77589523Y-48076452D02*
X77513333Y-48038357D01*
X77513333Y-48038357D02*
X77322857Y-48038357D01*
X77322857Y-48038357D02*
X77246666Y-48076452D01*
X77246666Y-48076452D02*
X77208571Y-48114547D01*
X77208571Y-48114547D02*
X77170476Y-48190738D01*
X77170476Y-48190738D02*
X77170476Y-48381214D01*
X77170476Y-48381214D02*
X77208571Y-48457404D01*
X77208571Y-48457404D02*
X77246666Y-48495500D01*
X77246666Y-48495500D02*
X77322857Y-48533595D01*
X77322857Y-48533595D02*
X77513333Y-48533595D01*
X77513333Y-48533595D02*
X77589523Y-48495500D01*
X77589523Y-48495500D02*
X77627619Y-48457404D01*
X14010475Y-48063595D02*
X14010475Y-47263595D01*
X14010475Y-47263595D02*
X13819999Y-47263595D01*
X13819999Y-47263595D02*
X13705713Y-47301690D01*
X13705713Y-47301690D02*
X13629523Y-47377880D01*
X13629523Y-47377880D02*
X13591428Y-47454071D01*
X13591428Y-47454071D02*
X13553332Y-47606452D01*
X13553332Y-47606452D02*
X13553332Y-47720738D01*
X13553332Y-47720738D02*
X13591428Y-47873119D01*
X13591428Y-47873119D02*
X13629523Y-47949309D01*
X13629523Y-47949309D02*
X13705713Y-48025500D01*
X13705713Y-48025500D02*
X13819999Y-48063595D01*
X13819999Y-48063595D02*
X14010475Y-48063595D01*
X13286666Y-47263595D02*
X12791428Y-47263595D01*
X12791428Y-47263595D02*
X13058094Y-47568357D01*
X13058094Y-47568357D02*
X12943809Y-47568357D01*
X12943809Y-47568357D02*
X12867618Y-47606452D01*
X12867618Y-47606452D02*
X12829523Y-47644547D01*
X12829523Y-47644547D02*
X12791428Y-47720738D01*
X12791428Y-47720738D02*
X12791428Y-47911214D01*
X12791428Y-47911214D02*
X12829523Y-47987404D01*
X12829523Y-47987404D02*
X12867618Y-48025500D01*
X12867618Y-48025500D02*
X12943809Y-48063595D01*
X12943809Y-48063595D02*
X13172380Y-48063595D01*
X13172380Y-48063595D02*
X13248571Y-48025500D01*
X13248571Y-48025500D02*
X13286666Y-47987404D01*
X83381428Y-67023595D02*
X83381428Y-66223595D01*
X83381428Y-66223595D02*
X83190952Y-66223595D01*
X83190952Y-66223595D02*
X83076666Y-66261690D01*
X83076666Y-66261690D02*
X83000476Y-66337880D01*
X83000476Y-66337880D02*
X82962381Y-66414071D01*
X82962381Y-66414071D02*
X82924285Y-66566452D01*
X82924285Y-66566452D02*
X82924285Y-66680738D01*
X82924285Y-66680738D02*
X82962381Y-66833119D01*
X82962381Y-66833119D02*
X83000476Y-66909309D01*
X83000476Y-66909309D02*
X83076666Y-66985500D01*
X83076666Y-66985500D02*
X83190952Y-67023595D01*
X83190952Y-67023595D02*
X83381428Y-67023595D01*
X82162381Y-67023595D02*
X82619524Y-67023595D01*
X82390952Y-67023595D02*
X82390952Y-66223595D01*
X82390952Y-66223595D02*
X82467143Y-66337880D01*
X82467143Y-66337880D02*
X82543333Y-66414071D01*
X82543333Y-66414071D02*
X82619524Y-66452166D01*
X81857619Y-66299785D02*
X81819523Y-66261690D01*
X81819523Y-66261690D02*
X81743333Y-66223595D01*
X81743333Y-66223595D02*
X81552857Y-66223595D01*
X81552857Y-66223595D02*
X81476666Y-66261690D01*
X81476666Y-66261690D02*
X81438571Y-66299785D01*
X81438571Y-66299785D02*
X81400476Y-66375976D01*
X81400476Y-66375976D02*
X81400476Y-66452166D01*
X81400476Y-66452166D02*
X81438571Y-66566452D01*
X81438571Y-66566452D02*
X81895714Y-67023595D01*
X81895714Y-67023595D02*
X81400476Y-67023595D01*
X13390475Y-9973595D02*
X13390475Y-9173595D01*
X13390475Y-9173595D02*
X13199999Y-9173595D01*
X13199999Y-9173595D02*
X13085713Y-9211690D01*
X13085713Y-9211690D02*
X13009523Y-9287880D01*
X13009523Y-9287880D02*
X12971428Y-9364071D01*
X12971428Y-9364071D02*
X12933332Y-9516452D01*
X12933332Y-9516452D02*
X12933332Y-9630738D01*
X12933332Y-9630738D02*
X12971428Y-9783119D01*
X12971428Y-9783119D02*
X13009523Y-9859309D01*
X13009523Y-9859309D02*
X13085713Y-9935500D01*
X13085713Y-9935500D02*
X13199999Y-9973595D01*
X13199999Y-9973595D02*
X13390475Y-9973595D01*
X12209523Y-9173595D02*
X12590475Y-9173595D01*
X12590475Y-9173595D02*
X12628571Y-9554547D01*
X12628571Y-9554547D02*
X12590475Y-9516452D01*
X12590475Y-9516452D02*
X12514285Y-9478357D01*
X12514285Y-9478357D02*
X12323809Y-9478357D01*
X12323809Y-9478357D02*
X12247618Y-9516452D01*
X12247618Y-9516452D02*
X12209523Y-9554547D01*
X12209523Y-9554547D02*
X12171428Y-9630738D01*
X12171428Y-9630738D02*
X12171428Y-9821214D01*
X12171428Y-9821214D02*
X12209523Y-9897404D01*
X12209523Y-9897404D02*
X12247618Y-9935500D01*
X12247618Y-9935500D02*
X12323809Y-9973595D01*
X12323809Y-9973595D02*
X12514285Y-9973595D01*
X12514285Y-9973595D02*
X12590475Y-9935500D01*
X12590475Y-9935500D02*
X12628571Y-9897404D01*
X88721428Y-29573595D02*
X88721428Y-28773595D01*
X88721428Y-28773595D02*
X88530952Y-28773595D01*
X88530952Y-28773595D02*
X88416666Y-28811690D01*
X88416666Y-28811690D02*
X88340476Y-28887880D01*
X88340476Y-28887880D02*
X88302381Y-28964071D01*
X88302381Y-28964071D02*
X88264285Y-29116452D01*
X88264285Y-29116452D02*
X88264285Y-29230738D01*
X88264285Y-29230738D02*
X88302381Y-29383119D01*
X88302381Y-29383119D02*
X88340476Y-29459309D01*
X88340476Y-29459309D02*
X88416666Y-29535500D01*
X88416666Y-29535500D02*
X88530952Y-29573595D01*
X88530952Y-29573595D02*
X88721428Y-29573595D01*
X87502381Y-29573595D02*
X87959524Y-29573595D01*
X87730952Y-29573595D02*
X87730952Y-28773595D01*
X87730952Y-28773595D02*
X87807143Y-28887880D01*
X87807143Y-28887880D02*
X87883333Y-28964071D01*
X87883333Y-28964071D02*
X87959524Y-29002166D01*
X87045238Y-29116452D02*
X87121428Y-29078357D01*
X87121428Y-29078357D02*
X87159523Y-29040261D01*
X87159523Y-29040261D02*
X87197619Y-28964071D01*
X87197619Y-28964071D02*
X87197619Y-28925976D01*
X87197619Y-28925976D02*
X87159523Y-28849785D01*
X87159523Y-28849785D02*
X87121428Y-28811690D01*
X87121428Y-28811690D02*
X87045238Y-28773595D01*
X87045238Y-28773595D02*
X86892857Y-28773595D01*
X86892857Y-28773595D02*
X86816666Y-28811690D01*
X86816666Y-28811690D02*
X86778571Y-28849785D01*
X86778571Y-28849785D02*
X86740476Y-28925976D01*
X86740476Y-28925976D02*
X86740476Y-28964071D01*
X86740476Y-28964071D02*
X86778571Y-29040261D01*
X86778571Y-29040261D02*
X86816666Y-29078357D01*
X86816666Y-29078357D02*
X86892857Y-29116452D01*
X86892857Y-29116452D02*
X87045238Y-29116452D01*
X87045238Y-29116452D02*
X87121428Y-29154547D01*
X87121428Y-29154547D02*
X87159523Y-29192642D01*
X87159523Y-29192642D02*
X87197619Y-29268833D01*
X87197619Y-29268833D02*
X87197619Y-29421214D01*
X87197619Y-29421214D02*
X87159523Y-29497404D01*
X87159523Y-29497404D02*
X87121428Y-29535500D01*
X87121428Y-29535500D02*
X87045238Y-29573595D01*
X87045238Y-29573595D02*
X86892857Y-29573595D01*
X86892857Y-29573595D02*
X86816666Y-29535500D01*
X86816666Y-29535500D02*
X86778571Y-29497404D01*
X86778571Y-29497404D02*
X86740476Y-29421214D01*
X86740476Y-29421214D02*
X86740476Y-29268833D01*
X86740476Y-29268833D02*
X86778571Y-29192642D01*
X86778571Y-29192642D02*
X86816666Y-29154547D01*
X86816666Y-29154547D02*
X86892857Y-29116452D01*
X44980475Y-67183595D02*
X44980475Y-66383595D01*
X44980475Y-66383595D02*
X44789999Y-66383595D01*
X44789999Y-66383595D02*
X44675713Y-66421690D01*
X44675713Y-66421690D02*
X44599523Y-66497880D01*
X44599523Y-66497880D02*
X44561428Y-66574071D01*
X44561428Y-66574071D02*
X44523332Y-66726452D01*
X44523332Y-66726452D02*
X44523332Y-66840738D01*
X44523332Y-66840738D02*
X44561428Y-66993119D01*
X44561428Y-66993119D02*
X44599523Y-67069309D01*
X44599523Y-67069309D02*
X44675713Y-67145500D01*
X44675713Y-67145500D02*
X44789999Y-67183595D01*
X44789999Y-67183595D02*
X44980475Y-67183595D01*
X43837618Y-66650261D02*
X43837618Y-67183595D01*
X44028094Y-66345500D02*
X44218571Y-66916928D01*
X44218571Y-66916928D02*
X43723332Y-66916928D01*
X102451428Y-9923595D02*
X102451428Y-9123595D01*
X102451428Y-9123595D02*
X102260952Y-9123595D01*
X102260952Y-9123595D02*
X102146666Y-9161690D01*
X102146666Y-9161690D02*
X102070476Y-9237880D01*
X102070476Y-9237880D02*
X102032381Y-9314071D01*
X102032381Y-9314071D02*
X101994285Y-9466452D01*
X101994285Y-9466452D02*
X101994285Y-9580738D01*
X101994285Y-9580738D02*
X102032381Y-9733119D01*
X102032381Y-9733119D02*
X102070476Y-9809309D01*
X102070476Y-9809309D02*
X102146666Y-9885500D01*
X102146666Y-9885500D02*
X102260952Y-9923595D01*
X102260952Y-9923595D02*
X102451428Y-9923595D01*
X101232381Y-9923595D02*
X101689524Y-9923595D01*
X101460952Y-9923595D02*
X101460952Y-9123595D01*
X101460952Y-9123595D02*
X101537143Y-9237880D01*
X101537143Y-9237880D02*
X101613333Y-9314071D01*
X101613333Y-9314071D02*
X101689524Y-9352166D01*
X100546666Y-9123595D02*
X100699047Y-9123595D01*
X100699047Y-9123595D02*
X100775238Y-9161690D01*
X100775238Y-9161690D02*
X100813333Y-9199785D01*
X100813333Y-9199785D02*
X100889523Y-9314071D01*
X100889523Y-9314071D02*
X100927619Y-9466452D01*
X100927619Y-9466452D02*
X100927619Y-9771214D01*
X100927619Y-9771214D02*
X100889523Y-9847404D01*
X100889523Y-9847404D02*
X100851428Y-9885500D01*
X100851428Y-9885500D02*
X100775238Y-9923595D01*
X100775238Y-9923595D02*
X100622857Y-9923595D01*
X100622857Y-9923595D02*
X100546666Y-9885500D01*
X100546666Y-9885500D02*
X100508571Y-9847404D01*
X100508571Y-9847404D02*
X100470476Y-9771214D01*
X100470476Y-9771214D02*
X100470476Y-9580738D01*
X100470476Y-9580738D02*
X100508571Y-9504547D01*
X100508571Y-9504547D02*
X100546666Y-9466452D01*
X100546666Y-9466452D02*
X100622857Y-9428357D01*
X100622857Y-9428357D02*
X100775238Y-9428357D01*
X100775238Y-9428357D02*
X100851428Y-9466452D01*
X100851428Y-9466452D02*
X100889523Y-9504547D01*
X100889523Y-9504547D02*
X100927619Y-9580738D01*
X9740475Y-29493595D02*
X9740475Y-28693595D01*
X9740475Y-28693595D02*
X9549999Y-28693595D01*
X9549999Y-28693595D02*
X9435713Y-28731690D01*
X9435713Y-28731690D02*
X9359523Y-28807880D01*
X9359523Y-28807880D02*
X9321428Y-28884071D01*
X9321428Y-28884071D02*
X9283332Y-29036452D01*
X9283332Y-29036452D02*
X9283332Y-29150738D01*
X9283332Y-29150738D02*
X9321428Y-29303119D01*
X9321428Y-29303119D02*
X9359523Y-29379309D01*
X9359523Y-29379309D02*
X9435713Y-29455500D01*
X9435713Y-29455500D02*
X9549999Y-29493595D01*
X9549999Y-29493595D02*
X9740475Y-29493595D01*
X8978571Y-28769785D02*
X8940475Y-28731690D01*
X8940475Y-28731690D02*
X8864285Y-28693595D01*
X8864285Y-28693595D02*
X8673809Y-28693595D01*
X8673809Y-28693595D02*
X8597618Y-28731690D01*
X8597618Y-28731690D02*
X8559523Y-28769785D01*
X8559523Y-28769785D02*
X8521428Y-28845976D01*
X8521428Y-28845976D02*
X8521428Y-28922166D01*
X8521428Y-28922166D02*
X8559523Y-29036452D01*
X8559523Y-29036452D02*
X9016666Y-29493595D01*
X9016666Y-29493595D02*
X8521428Y-29493595D01*
X107201428Y-28973595D02*
X107201428Y-28173595D01*
X107201428Y-28173595D02*
X107010952Y-28173595D01*
X107010952Y-28173595D02*
X106896666Y-28211690D01*
X106896666Y-28211690D02*
X106820476Y-28287880D01*
X106820476Y-28287880D02*
X106782381Y-28364071D01*
X106782381Y-28364071D02*
X106744285Y-28516452D01*
X106744285Y-28516452D02*
X106744285Y-28630738D01*
X106744285Y-28630738D02*
X106782381Y-28783119D01*
X106782381Y-28783119D02*
X106820476Y-28859309D01*
X106820476Y-28859309D02*
X106896666Y-28935500D01*
X106896666Y-28935500D02*
X107010952Y-28973595D01*
X107010952Y-28973595D02*
X107201428Y-28973595D01*
X106439524Y-28249785D02*
X106401428Y-28211690D01*
X106401428Y-28211690D02*
X106325238Y-28173595D01*
X106325238Y-28173595D02*
X106134762Y-28173595D01*
X106134762Y-28173595D02*
X106058571Y-28211690D01*
X106058571Y-28211690D02*
X106020476Y-28249785D01*
X106020476Y-28249785D02*
X105982381Y-28325976D01*
X105982381Y-28325976D02*
X105982381Y-28402166D01*
X105982381Y-28402166D02*
X106020476Y-28516452D01*
X106020476Y-28516452D02*
X106477619Y-28973595D01*
X106477619Y-28973595D02*
X105982381Y-28973595D01*
X105220476Y-28973595D02*
X105677619Y-28973595D01*
X105449047Y-28973595D02*
X105449047Y-28173595D01*
X105449047Y-28173595D02*
X105525238Y-28287880D01*
X105525238Y-28287880D02*
X105601428Y-28364071D01*
X105601428Y-28364071D02*
X105677619Y-28402166D01*
X70341428Y-10463595D02*
X70341428Y-9663595D01*
X70341428Y-9663595D02*
X70150952Y-9663595D01*
X70150952Y-9663595D02*
X70036666Y-9701690D01*
X70036666Y-9701690D02*
X69960476Y-9777880D01*
X69960476Y-9777880D02*
X69922381Y-9854071D01*
X69922381Y-9854071D02*
X69884285Y-10006452D01*
X69884285Y-10006452D02*
X69884285Y-10120738D01*
X69884285Y-10120738D02*
X69922381Y-10273119D01*
X69922381Y-10273119D02*
X69960476Y-10349309D01*
X69960476Y-10349309D02*
X70036666Y-10425500D01*
X70036666Y-10425500D02*
X70150952Y-10463595D01*
X70150952Y-10463595D02*
X70341428Y-10463595D01*
X69122381Y-10463595D02*
X69579524Y-10463595D01*
X69350952Y-10463595D02*
X69350952Y-9663595D01*
X69350952Y-9663595D02*
X69427143Y-9777880D01*
X69427143Y-9777880D02*
X69503333Y-9854071D01*
X69503333Y-9854071D02*
X69579524Y-9892166D01*
X68855714Y-9663595D02*
X68322380Y-9663595D01*
X68322380Y-9663595D02*
X68665238Y-10463595D01*
X45510475Y-10443595D02*
X45510475Y-9643595D01*
X45510475Y-9643595D02*
X45319999Y-9643595D01*
X45319999Y-9643595D02*
X45205713Y-9681690D01*
X45205713Y-9681690D02*
X45129523Y-9757880D01*
X45129523Y-9757880D02*
X45091428Y-9834071D01*
X45091428Y-9834071D02*
X45053332Y-9986452D01*
X45053332Y-9986452D02*
X45053332Y-10100738D01*
X45053332Y-10100738D02*
X45091428Y-10253119D01*
X45091428Y-10253119D02*
X45129523Y-10329309D01*
X45129523Y-10329309D02*
X45205713Y-10405500D01*
X45205713Y-10405500D02*
X45319999Y-10443595D01*
X45319999Y-10443595D02*
X45510475Y-10443595D01*
X44672380Y-10443595D02*
X44519999Y-10443595D01*
X44519999Y-10443595D02*
X44443809Y-10405500D01*
X44443809Y-10405500D02*
X44405713Y-10367404D01*
X44405713Y-10367404D02*
X44329523Y-10253119D01*
X44329523Y-10253119D02*
X44291428Y-10100738D01*
X44291428Y-10100738D02*
X44291428Y-9795976D01*
X44291428Y-9795976D02*
X44329523Y-9719785D01*
X44329523Y-9719785D02*
X44367618Y-9681690D01*
X44367618Y-9681690D02*
X44443809Y-9643595D01*
X44443809Y-9643595D02*
X44596190Y-9643595D01*
X44596190Y-9643595D02*
X44672380Y-9681690D01*
X44672380Y-9681690D02*
X44710475Y-9719785D01*
X44710475Y-9719785D02*
X44748571Y-9795976D01*
X44748571Y-9795976D02*
X44748571Y-9986452D01*
X44748571Y-9986452D02*
X44710475Y-10062642D01*
X44710475Y-10062642D02*
X44672380Y-10100738D01*
X44672380Y-10100738D02*
X44596190Y-10138833D01*
X44596190Y-10138833D02*
X44443809Y-10138833D01*
X44443809Y-10138833D02*
X44367618Y-10100738D01*
X44367618Y-10100738D02*
X44329523Y-10062642D01*
X44329523Y-10062642D02*
X44291428Y-9986452D01*
X40610475Y-48523595D02*
X40610475Y-47723595D01*
X40610475Y-47723595D02*
X40419999Y-47723595D01*
X40419999Y-47723595D02*
X40305713Y-47761690D01*
X40305713Y-47761690D02*
X40229523Y-47837880D01*
X40229523Y-47837880D02*
X40191428Y-47914071D01*
X40191428Y-47914071D02*
X40153332Y-48066452D01*
X40153332Y-48066452D02*
X40153332Y-48180738D01*
X40153332Y-48180738D02*
X40191428Y-48333119D01*
X40191428Y-48333119D02*
X40229523Y-48409309D01*
X40229523Y-48409309D02*
X40305713Y-48485500D01*
X40305713Y-48485500D02*
X40419999Y-48523595D01*
X40419999Y-48523595D02*
X40610475Y-48523595D01*
X39886666Y-47723595D02*
X39353332Y-47723595D01*
X39353332Y-47723595D02*
X39696190Y-48523595D01*
D12*
%TO.C,SW22*%
X102262500Y-39500000D02*
X102237500Y-44100000D01*
X103437500Y-33250000D02*
X103437500Y-37195000D01*
X103437500Y-37204000D02*
X107047500Y-37204000D01*
X106037500Y-44125000D02*
X102262500Y-44125000D01*
X106962500Y-39475000D02*
X102262500Y-39475000D01*
X107257500Y-45600000D02*
X107257500Y-46300000D01*
X111812500Y-41675000D02*
X109262500Y-41675000D01*
X111812500Y-46325000D02*
X107262500Y-46325000D01*
X111837500Y-41700000D02*
X111837500Y-46300000D01*
X114337500Y-31296000D02*
X105712500Y-31296000D01*
X114337500Y-35204000D02*
X114337500Y-31296000D01*
X114337500Y-35250000D02*
X109287500Y-35296000D01*
X103448500Y-33180000D02*
G75*
G02*
X105712500Y-31296000I2074000J-190000D01*
G01*
X106037500Y-44130000D02*
G75*
G02*
X107257500Y-45550000I-100000J-1320000D01*
G01*
X107052500Y-37180000D02*
G75*
G02*
X109312500Y-35300000I2070000J-190000D01*
G01*
X109337500Y-41670000D02*
G75*
G02*
X106967500Y-39500000I-100000J2270000D01*
G01*
%TO.C,D1*%
X3550000Y-7470000D02*
X3550000Y-8970000D01*
X3550000Y-8970000D02*
X8950000Y-8970000D01*
X5750000Y-7720000D02*
X5750000Y-8720000D01*
X5850000Y-8220000D02*
X6750000Y-7720000D01*
X6750000Y-7720000D02*
X6750000Y-8720000D01*
X6750000Y-8720000D02*
X5850000Y-8220000D01*
X8950000Y-7470000D02*
X3550000Y-7470000D01*
X8950000Y-8970000D02*
X8950000Y-7470000D01*
%TO.C,SW14*%
X54637500Y-20450000D02*
X54612500Y-25050000D01*
X55812500Y-14200000D02*
X55812500Y-18145000D01*
X55812500Y-18154000D02*
X59422500Y-18154000D01*
X58412500Y-25075000D02*
X54637500Y-25075000D01*
X59337500Y-20425000D02*
X54637500Y-20425000D01*
X59632500Y-26550000D02*
X59632500Y-27250000D01*
X64187500Y-22625000D02*
X61637500Y-22625000D01*
X64187500Y-27275000D02*
X59637500Y-27275000D01*
X64212500Y-22650000D02*
X64212500Y-27250000D01*
X66712500Y-12246000D02*
X58087500Y-12246000D01*
X66712500Y-16154000D02*
X66712500Y-12246000D01*
X66712500Y-16200000D02*
X61662500Y-16246000D01*
X55823500Y-14130000D02*
G75*
G02*
X58087500Y-12246000I2074000J-190000D01*
G01*
X58412500Y-25080000D02*
G75*
G02*
X59632500Y-26500000I-100000J-1320000D01*
G01*
X59427500Y-18130000D02*
G75*
G02*
X61687500Y-16250000I2070000J-190000D01*
G01*
X61712500Y-22620000D02*
G75*
G02*
X59342500Y-20450000I-100000J2270000D01*
G01*
%TO.C,D19*%
X94050000Y-45580000D02*
X94050000Y-47080000D01*
X94050000Y-47080000D02*
X99450000Y-47080000D01*
X96250000Y-45830000D02*
X96250000Y-46830000D01*
X96350000Y-46330000D02*
X97250000Y-45830000D01*
X97250000Y-45830000D02*
X97250000Y-46830000D01*
X97250000Y-46830000D02*
X96350000Y-46330000D01*
X99450000Y-45580000D02*
X94050000Y-45580000D01*
X99450000Y-47080000D02*
X99450000Y-45580000D01*
%TO.C,SW18*%
X73687500Y-20450000D02*
X73662500Y-25050000D01*
X74862500Y-14200000D02*
X74862500Y-18145000D01*
X74862500Y-18154000D02*
X78472500Y-18154000D01*
X77462500Y-25075000D02*
X73687500Y-25075000D01*
X78387500Y-20425000D02*
X73687500Y-20425000D01*
X78682500Y-26550000D02*
X78682500Y-27250000D01*
X83237500Y-22625000D02*
X80687500Y-22625000D01*
X83237500Y-27275000D02*
X78687500Y-27275000D01*
X83262500Y-22650000D02*
X83262500Y-27250000D01*
X85762500Y-12246000D02*
X77137500Y-12246000D01*
X85762500Y-16154000D02*
X85762500Y-12246000D01*
X85762500Y-16200000D02*
X80712500Y-16246000D01*
X74873500Y-14130000D02*
G75*
G02*
X77137500Y-12246000I2074000J-190000D01*
G01*
X77462500Y-25080000D02*
G75*
G02*
X78682500Y-26500000I-100000J-1320000D01*
G01*
X78477500Y-18130000D02*
G75*
G02*
X80737500Y-16250000I2070000J-190000D01*
G01*
X80762500Y-22620000D02*
G75*
G02*
X78392500Y-20450000I-100000J2270000D01*
G01*
%TO.C,SW12*%
X68925000Y-58550000D02*
X68900000Y-63150000D01*
X70100000Y-52300000D02*
X70100000Y-56245000D01*
X70100000Y-56254000D02*
X73710000Y-56254000D01*
X72700000Y-63175000D02*
X68925000Y-63175000D01*
X73625000Y-58525000D02*
X68925000Y-58525000D01*
X73920000Y-64650000D02*
X73920000Y-65350000D01*
X78475000Y-60725000D02*
X75925000Y-60725000D01*
X78475000Y-65375000D02*
X73925000Y-65375000D01*
X78500000Y-60750000D02*
X78500000Y-65350000D01*
X81000000Y-50346000D02*
X72375000Y-50346000D01*
X81000000Y-54254000D02*
X81000000Y-50346000D01*
X81000000Y-54300000D02*
X75950000Y-54346000D01*
X70111000Y-52230000D02*
G75*
G02*
X72375000Y-50346000I2074000J-190000D01*
G01*
X72700000Y-63180000D02*
G75*
G02*
X73920000Y-64600000I-100000J-1320000D01*
G01*
X73715000Y-56230000D02*
G75*
G02*
X75975000Y-54350000I2070000J-190000D01*
G01*
X76000000Y-60720000D02*
G75*
G02*
X73630000Y-58550000I-100000J2270000D01*
G01*
%TO.C,D6*%
X27840000Y-26970000D02*
X27840000Y-28470000D01*
X27840000Y-28470000D02*
X33240000Y-28470000D01*
X30040000Y-27220000D02*
X30040000Y-28220000D01*
X30140000Y-27720000D02*
X31040000Y-27220000D01*
X31040000Y-27220000D02*
X31040000Y-28220000D01*
X31040000Y-28220000D02*
X30140000Y-27720000D01*
X33240000Y-26970000D02*
X27840000Y-26970000D01*
X33240000Y-28470000D02*
X33240000Y-26970000D01*
%TO.C,D13*%
X60730000Y-7940000D02*
X60730000Y-9440000D01*
X60730000Y-9440000D02*
X66130000Y-9440000D01*
X62930000Y-8190000D02*
X62930000Y-9190000D01*
X63030000Y-8690000D02*
X63930000Y-8190000D01*
X63930000Y-8190000D02*
X63930000Y-9190000D01*
X63930000Y-9190000D02*
X63030000Y-8690000D01*
X66130000Y-7940000D02*
X60730000Y-7940000D01*
X66130000Y-9440000D02*
X66130000Y-7940000D01*
%TO.C,SW19*%
X83212500Y-39500000D02*
X83187500Y-44100000D01*
X84387500Y-33250000D02*
X84387500Y-37195000D01*
X84387500Y-37204000D02*
X87997500Y-37204000D01*
X86987500Y-44125000D02*
X83212500Y-44125000D01*
X87912500Y-39475000D02*
X83212500Y-39475000D01*
X88207500Y-45600000D02*
X88207500Y-46300000D01*
X92762500Y-41675000D02*
X90212500Y-41675000D01*
X92762500Y-46325000D02*
X88212500Y-46325000D01*
X92787500Y-41700000D02*
X92787500Y-46300000D01*
X95287500Y-31296000D02*
X86662500Y-31296000D01*
X95287500Y-35204000D02*
X95287500Y-31296000D01*
X95287500Y-35250000D02*
X90237500Y-35296000D01*
X84398500Y-33180000D02*
G75*
G02*
X86662500Y-31296000I2074000J-190000D01*
G01*
X86987500Y-44130000D02*
G75*
G02*
X88207500Y-45550000I-100000J-1320000D01*
G01*
X88002500Y-37180000D02*
G75*
G02*
X90262500Y-35300000I2070000J-190000D01*
G01*
X90287500Y-41670000D02*
G75*
G02*
X87917500Y-39500000I-100000J2270000D01*
G01*
%TO.C,SW1*%
X-7275000Y-1400000D02*
X-7300000Y-6000000D01*
X-6100000Y4850000D02*
X-6100000Y905000D01*
X-6100000Y896000D02*
X-2490000Y896000D01*
X-3500000Y-6025000D02*
X-7275000Y-6025000D01*
X-2575000Y-1375000D02*
X-7275000Y-1375000D01*
X-2280000Y-7500000D02*
X-2280000Y-8200000D01*
X2275000Y-3575000D02*
X-275000Y-3575000D01*
X2275000Y-8225000D02*
X-2275000Y-8225000D01*
X2300000Y-3600000D02*
X2300000Y-8200000D01*
X4800000Y6804000D02*
X-3825000Y6804000D01*
X4800000Y2896000D02*
X4800000Y6804000D01*
X4800000Y2850000D02*
X-250000Y2804000D01*
X-6089000Y4920000D02*
G75*
G02*
X-3825000Y6804000I2074000J-190000D01*
G01*
X-3500000Y-6030000D02*
G75*
G02*
X-2280000Y-7450000I-100000J-1320000D01*
G01*
X-2485000Y920000D02*
G75*
G02*
X-225000Y2800000I2070000J-190000D01*
G01*
X-200000Y-3570000D02*
G75*
G02*
X-2570000Y-1400000I-100000J2270000D01*
G01*
%TO.C,D10*%
X46850000Y-26940000D02*
X46850000Y-28440000D01*
X46850000Y-28440000D02*
X52250000Y-28440000D01*
X49050000Y-27190000D02*
X49050000Y-28190000D01*
X49150000Y-27690000D02*
X50050000Y-27190000D01*
X50050000Y-27190000D02*
X50050000Y-28190000D01*
X50050000Y-28190000D02*
X49150000Y-27690000D01*
X52250000Y-26940000D02*
X46850000Y-26940000D01*
X52250000Y-28440000D02*
X52250000Y-26940000D01*
%TO.C,SW13*%
X49875000Y-1400000D02*
X49850000Y-6000000D01*
X51050000Y4850000D02*
X51050000Y905000D01*
X51050000Y896000D02*
X54660000Y896000D01*
X53650000Y-6025000D02*
X49875000Y-6025000D01*
X54575000Y-1375000D02*
X49875000Y-1375000D01*
X54870000Y-7500000D02*
X54870000Y-8200000D01*
X59425000Y-3575000D02*
X56875000Y-3575000D01*
X59425000Y-8225000D02*
X54875000Y-8225000D01*
X59450000Y-3600000D02*
X59450000Y-8200000D01*
X61950000Y6804000D02*
X53325000Y6804000D01*
X61950000Y2896000D02*
X61950000Y6804000D01*
X61950000Y2850000D02*
X56900000Y2804000D01*
X51061000Y4920000D02*
G75*
G02*
X53325000Y6804000I2074000J-190000D01*
G01*
X53650000Y-6030000D02*
G75*
G02*
X54870000Y-7450000I-100000J-1320000D01*
G01*
X54665000Y920000D02*
G75*
G02*
X56925000Y2800000I2070000J-190000D01*
G01*
X56950000Y-3570000D02*
G75*
G02*
X54580000Y-1400000I-100000J2270000D01*
G01*
%TO.C,D22*%
X113010000Y-45530000D02*
X113010000Y-47030000D01*
X113010000Y-47030000D02*
X118410000Y-47030000D01*
X115210000Y-45780000D02*
X115210000Y-46780000D01*
X115310000Y-46280000D02*
X116210000Y-45780000D01*
X116210000Y-45780000D02*
X116210000Y-46780000D01*
X116210000Y-46780000D02*
X115310000Y-46280000D01*
X118410000Y-45530000D02*
X113010000Y-45530000D01*
X118410000Y-47030000D02*
X118410000Y-45530000D01*
%TO.C,SW10*%
X35587500Y-20450000D02*
X35562500Y-25050000D01*
X36762500Y-14200000D02*
X36762500Y-18145000D01*
X36762500Y-18154000D02*
X40372500Y-18154000D01*
X39362500Y-25075000D02*
X35587500Y-25075000D01*
X40287500Y-20425000D02*
X35587500Y-20425000D01*
X40582500Y-26550000D02*
X40582500Y-27250000D01*
X45137500Y-22625000D02*
X42587500Y-22625000D01*
X45137500Y-27275000D02*
X40587500Y-27275000D01*
X45162500Y-22650000D02*
X45162500Y-27250000D01*
X47662500Y-12246000D02*
X39037500Y-12246000D01*
X47662500Y-16154000D02*
X47662500Y-12246000D01*
X47662500Y-16200000D02*
X42612500Y-16246000D01*
X36773500Y-14130000D02*
G75*
G02*
X39037500Y-12246000I2074000J-190000D01*
G01*
X39362500Y-25080000D02*
G75*
G02*
X40582500Y-26500000I-100000J-1320000D01*
G01*
X40377500Y-18130000D02*
G75*
G02*
X42637500Y-16250000I2070000J-190000D01*
G01*
X42662500Y-22620000D02*
G75*
G02*
X40292500Y-20450000I-100000J2270000D01*
G01*
%TO.C,D20*%
X103455000Y-64480000D02*
X103455000Y-65980000D01*
X103455000Y-65980000D02*
X108855000Y-65980000D01*
X105655000Y-64730000D02*
X105655000Y-65730000D01*
X105755000Y-65230000D02*
X106655000Y-64730000D01*
X106655000Y-64730000D02*
X106655000Y-65730000D01*
X106655000Y-65730000D02*
X105755000Y-65230000D01*
X108855000Y-64480000D02*
X103455000Y-64480000D01*
X108855000Y-65980000D02*
X108855000Y-64480000D01*
%TO.C,D14*%
X65960000Y-27010000D02*
X65960000Y-28510000D01*
X65960000Y-28510000D02*
X71360000Y-28510000D01*
X68160000Y-27260000D02*
X68160000Y-28260000D01*
X68260000Y-27760000D02*
X69160000Y-27260000D01*
X69160000Y-27260000D02*
X69160000Y-28260000D01*
X69160000Y-28260000D02*
X68260000Y-27760000D01*
X71360000Y-27010000D02*
X65960000Y-27010000D01*
X71360000Y-28510000D02*
X71360000Y-27010000D01*
%TO.C,D11*%
X56400000Y-46040000D02*
X56400000Y-47540000D01*
X56400000Y-47540000D02*
X61800000Y-47540000D01*
X58600000Y-46290000D02*
X58600000Y-47290000D01*
X58700000Y-46790000D02*
X59600000Y-46290000D01*
X59600000Y-46290000D02*
X59600000Y-47290000D01*
X59600000Y-47290000D02*
X58700000Y-46790000D01*
X61800000Y-46040000D02*
X56400000Y-46040000D01*
X61800000Y-47540000D02*
X61800000Y-46040000D01*
%TO.C,SW9*%
X30825000Y-1400000D02*
X30800000Y-6000000D01*
X32000000Y4850000D02*
X32000000Y905000D01*
X32000000Y896000D02*
X35610000Y896000D01*
X34600000Y-6025000D02*
X30825000Y-6025000D01*
X35525000Y-1375000D02*
X30825000Y-1375000D01*
X35820000Y-7500000D02*
X35820000Y-8200000D01*
X40375000Y-3575000D02*
X37825000Y-3575000D01*
X40375000Y-8225000D02*
X35825000Y-8225000D01*
X40400000Y-3600000D02*
X40400000Y-8200000D01*
X42900000Y6804000D02*
X34275000Y6804000D01*
X42900000Y2896000D02*
X42900000Y6804000D01*
X42900000Y2850000D02*
X37850000Y2804000D01*
X32011000Y4920000D02*
G75*
G02*
X34275000Y6804000I2074000J-190000D01*
G01*
X34600000Y-6030000D02*
G75*
G02*
X35820000Y-7450000I-100000J-1320000D01*
G01*
X35615000Y920000D02*
G75*
G02*
X37875000Y2800000I2070000J-190000D01*
G01*
X37900000Y-3570000D02*
G75*
G02*
X35530000Y-1400000I-100000J2270000D01*
G01*
%TO.C,D8*%
X60680000Y-64610000D02*
X60680000Y-66110000D01*
X60680000Y-66110000D02*
X66080000Y-66110000D01*
X62880000Y-64860000D02*
X62880000Y-65860000D01*
X62980000Y-65360000D02*
X63880000Y-64860000D01*
X63880000Y-64860000D02*
X63880000Y-65860000D01*
X63880000Y-65860000D02*
X62980000Y-65360000D01*
X66080000Y-64610000D02*
X60680000Y-64610000D01*
X66080000Y-66110000D02*
X66080000Y-64610000D01*
%TO.C,SW15*%
X64162500Y-39500000D02*
X64137500Y-44100000D01*
X65337500Y-33250000D02*
X65337500Y-37195000D01*
X65337500Y-37204000D02*
X68947500Y-37204000D01*
X67937500Y-44125000D02*
X64162500Y-44125000D01*
X68862500Y-39475000D02*
X64162500Y-39475000D01*
X69157500Y-45600000D02*
X69157500Y-46300000D01*
X73712500Y-41675000D02*
X71162500Y-41675000D01*
X73712500Y-46325000D02*
X69162500Y-46325000D01*
X73737500Y-41700000D02*
X73737500Y-46300000D01*
X76237500Y-31296000D02*
X67612500Y-31296000D01*
X76237500Y-35204000D02*
X76237500Y-31296000D01*
X76237500Y-35250000D02*
X71187500Y-35296000D01*
X65348500Y-33180000D02*
G75*
G02*
X67612500Y-31296000I2074000J-190000D01*
G01*
X67937500Y-44130000D02*
G75*
G02*
X69157500Y-45550000I-100000J-1320000D01*
G01*
X68952500Y-37180000D02*
G75*
G02*
X71212500Y-35300000I2070000J-190000D01*
G01*
X71237500Y-41670000D02*
G75*
G02*
X68867500Y-39500000I-100000J2270000D01*
G01*
%TO.C,SW20*%
X92725000Y-58550000D02*
X92700000Y-63150000D01*
X93900000Y-52300000D02*
X93900000Y-56245000D01*
X93900000Y-56254000D02*
X97510000Y-56254000D01*
X96500000Y-63175000D02*
X92725000Y-63175000D01*
X97425000Y-58525000D02*
X92725000Y-58525000D01*
X97720000Y-64650000D02*
X97720000Y-65350000D01*
X102275000Y-60725000D02*
X99725000Y-60725000D01*
X102275000Y-65375000D02*
X97725000Y-65375000D01*
X102300000Y-60750000D02*
X102300000Y-65350000D01*
X104800000Y-50346000D02*
X96175000Y-50346000D01*
X104800000Y-54254000D02*
X104800000Y-50346000D01*
X104800000Y-54300000D02*
X99750000Y-54346000D01*
X93911000Y-52230000D02*
G75*
G02*
X96175000Y-50346000I2074000J-190000D01*
G01*
X96500000Y-63180000D02*
G75*
G02*
X97720000Y-64600000I-100000J-1320000D01*
G01*
X97515000Y-56230000D02*
G75*
G02*
X99775000Y-54350000I2070000J-190000D01*
G01*
X99800000Y-60720000D02*
G75*
G02*
X97430000Y-58550000I-100000J2270000D01*
G01*
%TO.C,SW11*%
X45112500Y-39500000D02*
X45087500Y-44100000D01*
X46287500Y-33250000D02*
X46287500Y-37195000D01*
X46287500Y-37204000D02*
X49897500Y-37204000D01*
X48887500Y-44125000D02*
X45112500Y-44125000D01*
X49812500Y-39475000D02*
X45112500Y-39475000D01*
X50107500Y-45600000D02*
X50107500Y-46300000D01*
X54662500Y-41675000D02*
X52112500Y-41675000D01*
X54662500Y-46325000D02*
X50112500Y-46325000D01*
X54687500Y-41700000D02*
X54687500Y-46300000D01*
X57187500Y-31296000D02*
X48562500Y-31296000D01*
X57187500Y-35204000D02*
X57187500Y-31296000D01*
X57187500Y-35250000D02*
X52137500Y-35296000D01*
X46298500Y-33180000D02*
G75*
G02*
X48562500Y-31296000I2074000J-190000D01*
G01*
X48887500Y-44130000D02*
G75*
G02*
X50107500Y-45550000I-100000J-1320000D01*
G01*
X49902500Y-37180000D02*
G75*
G02*
X52162500Y-35300000I2070000J-190000D01*
G01*
X52187500Y-41670000D02*
G75*
G02*
X49817500Y-39500000I-100000J2270000D01*
G01*
%TO.C,SW16*%
X87975000Y-1400000D02*
X87950000Y-6000000D01*
X89150000Y4850000D02*
X89150000Y905000D01*
X89150000Y896000D02*
X92760000Y896000D01*
X91750000Y-6025000D02*
X87975000Y-6025000D01*
X92675000Y-1375000D02*
X87975000Y-1375000D01*
X92970000Y-7500000D02*
X92970000Y-8200000D01*
X97525000Y-3575000D02*
X94975000Y-3575000D01*
X97525000Y-8225000D02*
X92975000Y-8225000D01*
X97550000Y-3600000D02*
X97550000Y-8200000D01*
X100050000Y6804000D02*
X91425000Y6804000D01*
X100050000Y2896000D02*
X100050000Y6804000D01*
X100050000Y2850000D02*
X95000000Y2804000D01*
X89161000Y4920000D02*
G75*
G02*
X91425000Y6804000I2074000J-190000D01*
G01*
X91750000Y-6030000D02*
G75*
G02*
X92970000Y-7450000I-100000J-1320000D01*
G01*
X92765000Y920000D02*
G75*
G02*
X95025000Y2800000I2070000J-190000D01*
G01*
X95050000Y-3570000D02*
G75*
G02*
X92680000Y-1400000I-100000J2270000D01*
G01*
%TO.C,D15*%
X75480000Y-46020000D02*
X75480000Y-47520000D01*
X75480000Y-47520000D02*
X80880000Y-47520000D01*
X77680000Y-46270000D02*
X77680000Y-47270000D01*
X77780000Y-46770000D02*
X78680000Y-46270000D01*
X78680000Y-46270000D02*
X78680000Y-47270000D01*
X78680000Y-47270000D02*
X77780000Y-46770000D01*
X80880000Y-46020000D02*
X75480000Y-46020000D01*
X80880000Y-47520000D02*
X80880000Y-46020000D01*
%TO.C,SW5*%
X11775000Y-1400000D02*
X11750000Y-6000000D01*
X12950000Y4850000D02*
X12950000Y905000D01*
X12950000Y896000D02*
X16560000Y896000D01*
X15550000Y-6025000D02*
X11775000Y-6025000D01*
X16475000Y-1375000D02*
X11775000Y-1375000D01*
X16770000Y-7500000D02*
X16770000Y-8200000D01*
X21325000Y-3575000D02*
X18775000Y-3575000D01*
X21325000Y-8225000D02*
X16775000Y-8225000D01*
X21350000Y-3600000D02*
X21350000Y-8200000D01*
X23850000Y6804000D02*
X15225000Y6804000D01*
X23850000Y2896000D02*
X23850000Y6804000D01*
X23850000Y2850000D02*
X18800000Y2804000D01*
X12961000Y4920000D02*
G75*
G02*
X15225000Y6804000I2074000J-190000D01*
G01*
X15550000Y-6030000D02*
G75*
G02*
X16770000Y-7450000I-100000J-1320000D01*
G01*
X16565000Y920000D02*
G75*
G02*
X18825000Y2800000I2070000J-190000D01*
G01*
X18850000Y-3570000D02*
G75*
G02*
X16480000Y-1400000I-100000J2270000D01*
G01*
%TO.C,D3*%
X10720000Y-45550000D02*
X10720000Y-47050000D01*
X10720000Y-47050000D02*
X16120000Y-47050000D01*
X12920000Y-45800000D02*
X12920000Y-46800000D01*
X13020000Y-46300000D02*
X13920000Y-45800000D01*
X13920000Y-45800000D02*
X13920000Y-46800000D01*
X13920000Y-46800000D02*
X13020000Y-46300000D01*
X16120000Y-45550000D02*
X10720000Y-45550000D01*
X16120000Y-47050000D02*
X16120000Y-45550000D01*
%TO.C,SW4*%
X30825000Y-58550000D02*
X30800000Y-63150000D01*
X32000000Y-52300000D02*
X32000000Y-56245000D01*
X32000000Y-56254000D02*
X35610000Y-56254000D01*
X34600000Y-63175000D02*
X30825000Y-63175000D01*
X35525000Y-58525000D02*
X30825000Y-58525000D01*
X35820000Y-64650000D02*
X35820000Y-65350000D01*
X40375000Y-60725000D02*
X37825000Y-60725000D01*
X40375000Y-65375000D02*
X35825000Y-65375000D01*
X40400000Y-60750000D02*
X40400000Y-65350000D01*
X42900000Y-50346000D02*
X34275000Y-50346000D01*
X42900000Y-54254000D02*
X42900000Y-50346000D01*
X42900000Y-54300000D02*
X37850000Y-54346000D01*
X32011000Y-52230000D02*
G75*
G02*
X34275000Y-50346000I2074000J-190000D01*
G01*
X34600000Y-63180000D02*
G75*
G02*
X35820000Y-64600000I-100000J-1320000D01*
G01*
X35615000Y-56230000D02*
G75*
G02*
X37875000Y-54350000I2070000J-190000D01*
G01*
X37900000Y-60720000D02*
G75*
G02*
X35530000Y-58550000I-100000J2270000D01*
G01*
%TO.C,SW17*%
X68925000Y-1400000D02*
X68900000Y-6000000D01*
X70100000Y4850000D02*
X70100000Y905000D01*
X70100000Y896000D02*
X73710000Y896000D01*
X72700000Y-6025000D02*
X68925000Y-6025000D01*
X73625000Y-1375000D02*
X68925000Y-1375000D01*
X73920000Y-7500000D02*
X73920000Y-8200000D01*
X78475000Y-3575000D02*
X75925000Y-3575000D01*
X78475000Y-8225000D02*
X73925000Y-8225000D01*
X78500000Y-3600000D02*
X78500000Y-8200000D01*
X81000000Y6804000D02*
X72375000Y6804000D01*
X81000000Y2896000D02*
X81000000Y6804000D01*
X81000000Y2850000D02*
X75950000Y2804000D01*
X70111000Y4920000D02*
G75*
G02*
X72375000Y6804000I2074000J-190000D01*
G01*
X72700000Y-6030000D02*
G75*
G02*
X73920000Y-7450000I-100000J-1320000D01*
G01*
X73715000Y920000D02*
G75*
G02*
X75975000Y2800000I2070000J-190000D01*
G01*
X76000000Y-3570000D02*
G75*
G02*
X73630000Y-1400000I-100000J2270000D01*
G01*
%TO.C,D12*%
X79710000Y-64510000D02*
X79710000Y-66010000D01*
X79710000Y-66010000D02*
X85110000Y-66010000D01*
X81910000Y-64760000D02*
X81910000Y-65760000D01*
X82010000Y-65260000D02*
X82910000Y-64760000D01*
X82910000Y-64760000D02*
X82910000Y-65760000D01*
X82910000Y-65760000D02*
X82010000Y-65260000D01*
X85110000Y-64510000D02*
X79710000Y-64510000D01*
X85110000Y-66010000D02*
X85110000Y-64510000D01*
%TO.C,D5*%
X10100000Y-7460000D02*
X10100000Y-8960000D01*
X10100000Y-8960000D02*
X15500000Y-8960000D01*
X12300000Y-7710000D02*
X12300000Y-8710000D01*
X12400000Y-8210000D02*
X13300000Y-7710000D01*
X13300000Y-7710000D02*
X13300000Y-8710000D01*
X13300000Y-8710000D02*
X12400000Y-8210000D01*
X15500000Y-7460000D02*
X10100000Y-7460000D01*
X15500000Y-8960000D02*
X15500000Y-7460000D01*
%TO.C,D18*%
X85050000Y-27060000D02*
X85050000Y-28560000D01*
X85050000Y-28560000D02*
X90450000Y-28560000D01*
X87250000Y-27310000D02*
X87250000Y-28310000D01*
X87350000Y-27810000D02*
X88250000Y-27310000D01*
X88250000Y-27310000D02*
X88250000Y-28310000D01*
X88250000Y-28310000D02*
X87350000Y-27810000D01*
X90450000Y-27060000D02*
X85050000Y-27060000D01*
X90450000Y-28560000D02*
X90450000Y-27060000D01*
%TO.C,SW6*%
X16537500Y-20450000D02*
X16512500Y-25050000D01*
X17712500Y-14200000D02*
X17712500Y-18145000D01*
X17712500Y-18154000D02*
X21322500Y-18154000D01*
X20312500Y-25075000D02*
X16537500Y-25075000D01*
X21237500Y-20425000D02*
X16537500Y-20425000D01*
X21532500Y-26550000D02*
X21532500Y-27250000D01*
X26087500Y-22625000D02*
X23537500Y-22625000D01*
X26087500Y-27275000D02*
X21537500Y-27275000D01*
X26112500Y-22650000D02*
X26112500Y-27250000D01*
X28612500Y-12246000D02*
X19987500Y-12246000D01*
X28612500Y-16154000D02*
X28612500Y-12246000D01*
X28612500Y-16200000D02*
X23562500Y-16246000D01*
X17723500Y-14130000D02*
G75*
G02*
X19987500Y-12246000I2074000J-190000D01*
G01*
X20312500Y-25080000D02*
G75*
G02*
X21532500Y-26500000I-100000J-1320000D01*
G01*
X21327500Y-18130000D02*
G75*
G02*
X23587500Y-16250000I2070000J-190000D01*
G01*
X23612500Y-22620000D02*
G75*
G02*
X21242500Y-20450000I-100000J2270000D01*
G01*
%TO.C,SW21*%
X92737500Y-20450000D02*
X92712500Y-25050000D01*
X93912500Y-14200000D02*
X93912500Y-18145000D01*
X93912500Y-18154000D02*
X97522500Y-18154000D01*
X96512500Y-25075000D02*
X92737500Y-25075000D01*
X97437500Y-20425000D02*
X92737500Y-20425000D01*
X97732500Y-26550000D02*
X97732500Y-27250000D01*
X102287500Y-22625000D02*
X99737500Y-22625000D01*
X102287500Y-27275000D02*
X97737500Y-27275000D01*
X102312500Y-22650000D02*
X102312500Y-27250000D01*
X104812500Y-12246000D02*
X96187500Y-12246000D01*
X104812500Y-16154000D02*
X104812500Y-12246000D01*
X104812500Y-16200000D02*
X99762500Y-16246000D01*
X93923500Y-14130000D02*
G75*
G02*
X96187500Y-12246000I2074000J-190000D01*
G01*
X96512500Y-25080000D02*
G75*
G02*
X97732500Y-26500000I-100000J-1320000D01*
G01*
X97527500Y-18130000D02*
G75*
G02*
X99787500Y-16250000I2070000J-190000D01*
G01*
X99812500Y-22620000D02*
G75*
G02*
X97442500Y-20450000I-100000J2270000D01*
G01*
%TO.C,SW3*%
X-131250Y-39500000D02*
X-156250Y-44100000D01*
X1043750Y-33250000D02*
X1043750Y-37195000D01*
X1043750Y-37204000D02*
X4653750Y-37204000D01*
X3643750Y-44125000D02*
X-131250Y-44125000D01*
X4568750Y-39475000D02*
X-131250Y-39475000D01*
X4863750Y-45600000D02*
X4863750Y-46300000D01*
X9418750Y-41675000D02*
X6868750Y-41675000D01*
X9418750Y-46325000D02*
X4868750Y-46325000D01*
X9443750Y-41700000D02*
X9443750Y-46300000D01*
X11943750Y-31296000D02*
X3318750Y-31296000D01*
X11943750Y-35204000D02*
X11943750Y-31296000D01*
X11943750Y-35250000D02*
X6893750Y-35296000D01*
X1054750Y-33180000D02*
G75*
G02*
X3318750Y-31296000I2074000J-190000D01*
G01*
X3643750Y-44130000D02*
G75*
G02*
X4863750Y-45550000I-100000J-1320000D01*
G01*
X4658750Y-37180000D02*
G75*
G02*
X6918750Y-35300000I2070000J-190000D01*
G01*
X6943750Y-41670000D02*
G75*
G02*
X4573750Y-39500000I-100000J2270000D01*
G01*
%TO.C,D4*%
X41690000Y-64670000D02*
X41690000Y-66170000D01*
X41690000Y-66170000D02*
X47090000Y-66170000D01*
X43890000Y-64920000D02*
X43890000Y-65920000D01*
X43990000Y-65420000D02*
X44890000Y-64920000D01*
X44890000Y-64920000D02*
X44890000Y-65920000D01*
X44890000Y-65920000D02*
X43990000Y-65420000D01*
X47090000Y-64670000D02*
X41690000Y-64670000D01*
X47090000Y-66170000D02*
X47090000Y-64670000D01*
%TO.C,SW2*%
X-4893750Y-20450000D02*
X-4918750Y-25050000D01*
X-3718750Y-14200000D02*
X-3718750Y-18145000D01*
X-3718750Y-18154000D02*
X-108750Y-18154000D01*
X-1118750Y-25075000D02*
X-4893750Y-25075000D01*
X-193750Y-20425000D02*
X-4893750Y-20425000D01*
X101250Y-26550000D02*
X101250Y-27250000D01*
X4656250Y-22625000D02*
X2106250Y-22625000D01*
X4656250Y-27275000D02*
X106250Y-27275000D01*
X4681250Y-22650000D02*
X4681250Y-27250000D01*
X7181250Y-12246000D02*
X-1443750Y-12246000D01*
X7181250Y-16154000D02*
X7181250Y-12246000D01*
X7181250Y-16200000D02*
X2131250Y-16246000D01*
X-3707750Y-14130000D02*
G75*
G02*
X-1443750Y-12246000I2074000J-190000D01*
G01*
X-1118750Y-25080000D02*
G75*
G02*
X101250Y-26500000I-100000J-1320000D01*
G01*
X-103750Y-18130000D02*
G75*
G02*
X2156250Y-16250000I2070000J-190000D01*
G01*
X2181250Y-22620000D02*
G75*
G02*
X-188750Y-20450000I-100000J2270000D01*
G01*
%TO.C,D16*%
X98780000Y-7410000D02*
X98780000Y-8910000D01*
X98780000Y-8910000D02*
X104180000Y-8910000D01*
X100980000Y-7660000D02*
X100980000Y-8660000D01*
X101080000Y-8160000D02*
X101980000Y-7660000D01*
X101980000Y-7660000D02*
X101980000Y-8660000D01*
X101980000Y-8660000D02*
X101080000Y-8160000D01*
X104180000Y-7410000D02*
X98780000Y-7410000D01*
X104180000Y-8910000D02*
X104180000Y-7410000D01*
%TO.C,D2*%
X6450000Y-26980000D02*
X6450000Y-28480000D01*
X6450000Y-28480000D02*
X11850000Y-28480000D01*
X8650000Y-27230000D02*
X8650000Y-28230000D01*
X8750000Y-27730000D02*
X9650000Y-27230000D01*
X9650000Y-27230000D02*
X9650000Y-28230000D01*
X9650000Y-28230000D02*
X8750000Y-27730000D01*
X11850000Y-26980000D02*
X6450000Y-26980000D01*
X11850000Y-28480000D02*
X11850000Y-26980000D01*
%TO.C,D21*%
X103530000Y-26460000D02*
X103530000Y-27960000D01*
X103530000Y-27960000D02*
X108930000Y-27960000D01*
X105730000Y-26710000D02*
X105730000Y-27710000D01*
X105830000Y-27210000D02*
X106730000Y-26710000D01*
X106730000Y-26710000D02*
X106730000Y-27710000D01*
X106730000Y-27710000D02*
X105830000Y-27210000D01*
X108930000Y-26460000D02*
X103530000Y-26460000D01*
X108930000Y-27960000D02*
X108930000Y-26460000D01*
%TO.C,SW8*%
X49875000Y-58550000D02*
X49850000Y-63150000D01*
X51050000Y-52300000D02*
X51050000Y-56245000D01*
X51050000Y-56254000D02*
X54660000Y-56254000D01*
X53650000Y-63175000D02*
X49875000Y-63175000D01*
X54575000Y-58525000D02*
X49875000Y-58525000D01*
X54870000Y-64650000D02*
X54870000Y-65350000D01*
X59425000Y-60725000D02*
X56875000Y-60725000D01*
X59425000Y-65375000D02*
X54875000Y-65375000D01*
X59450000Y-60750000D02*
X59450000Y-65350000D01*
X61950000Y-50346000D02*
X53325000Y-50346000D01*
X61950000Y-54254000D02*
X61950000Y-50346000D01*
X61950000Y-54300000D02*
X56900000Y-54346000D01*
X51061000Y-52230000D02*
G75*
G02*
X53325000Y-50346000I2074000J-190000D01*
G01*
X53650000Y-63180000D02*
G75*
G02*
X54870000Y-64600000I-100000J-1320000D01*
G01*
X54665000Y-56230000D02*
G75*
G02*
X56925000Y-54350000I2070000J-190000D01*
G01*
X56950000Y-60720000D02*
G75*
G02*
X54580000Y-58550000I-100000J2270000D01*
G01*
%TO.C,D17*%
X66670000Y-7950000D02*
X66670000Y-9450000D01*
X66670000Y-9450000D02*
X72070000Y-9450000D01*
X68870000Y-8200000D02*
X68870000Y-9200000D01*
X68970000Y-8700000D02*
X69870000Y-8200000D01*
X69870000Y-8200000D02*
X69870000Y-9200000D01*
X69870000Y-9200000D02*
X68970000Y-8700000D01*
X72070000Y-7950000D02*
X66670000Y-7950000D01*
X72070000Y-9450000D02*
X72070000Y-7950000D01*
%TO.C,D9*%
X42220000Y-7930000D02*
X42220000Y-9430000D01*
X42220000Y-9430000D02*
X47620000Y-9430000D01*
X44420000Y-8180000D02*
X44420000Y-9180000D01*
X44520000Y-8680000D02*
X45420000Y-8180000D01*
X45420000Y-8180000D02*
X45420000Y-9180000D01*
X45420000Y-9180000D02*
X44520000Y-8680000D01*
X47620000Y-7930000D02*
X42220000Y-7930000D01*
X47620000Y-9430000D02*
X47620000Y-7930000D01*
%TO.C,SW7*%
X26062500Y-39500000D02*
X26037500Y-44100000D01*
X27237500Y-33250000D02*
X27237500Y-37195000D01*
X27237500Y-37204000D02*
X30847500Y-37204000D01*
X29837500Y-44125000D02*
X26062500Y-44125000D01*
X30762500Y-39475000D02*
X26062500Y-39475000D01*
X31057500Y-45600000D02*
X31057500Y-46300000D01*
X35612500Y-41675000D02*
X33062500Y-41675000D01*
X35612500Y-46325000D02*
X31062500Y-46325000D01*
X35637500Y-41700000D02*
X35637500Y-46300000D01*
X38137500Y-31296000D02*
X29512500Y-31296000D01*
X38137500Y-35204000D02*
X38137500Y-31296000D01*
X38137500Y-35250000D02*
X33087500Y-35296000D01*
X27248500Y-33180000D02*
G75*
G02*
X29512500Y-31296000I2074000J-190000D01*
G01*
X29837500Y-44130000D02*
G75*
G02*
X31057500Y-45550000I-100000J-1320000D01*
G01*
X30852500Y-37180000D02*
G75*
G02*
X33112500Y-35300000I2070000J-190000D01*
G01*
X33137500Y-41670000D02*
G75*
G02*
X30767500Y-39500000I-100000J2270000D01*
G01*
%TO.C,D7*%
X37320000Y-46010000D02*
X37320000Y-47510000D01*
X37320000Y-47510000D02*
X42720000Y-47510000D01*
X39520000Y-46260000D02*
X39520000Y-47260000D01*
X39620000Y-46760000D02*
X40520000Y-46260000D01*
X40520000Y-46260000D02*
X40520000Y-47260000D01*
X40520000Y-47260000D02*
X39620000Y-46760000D01*
X42720000Y-46010000D02*
X37320000Y-46010000D01*
X42720000Y-47510000D02*
X42720000Y-46010000D01*
%TD*%
M02*
