%TF.GenerationSoftware,KiCad,Pcbnew,8.0.7*%
%TF.CreationDate,2025-01-20T20:00:10+09:00*%
%TF.ProjectId,cool937tb_L,636f6f6c-3933-4377-9462-5f4c2e6b6963,rev?*%
%TF.SameCoordinates,Original*%
%TF.FileFunction,Copper,L1,Top*%
%TF.FilePolarity,Positive*%
%FSLAX46Y46*%
G04 Gerber Fmt 4.6, Leading zero omitted, Abs format (unit mm)*
G04 Created by KiCad (PCBNEW 8.0.7) date 2025-01-20 20:00:10*
%MOMM*%
%LPD*%
G01*
G04 APERTURE LIST*
%TA.AperFunction,ComponentPad*%
%ADD10O,1.000000X1.300000*%
%TD*%
%TA.AperFunction,ComponentPad*%
%ADD11R,1.600000X1.600000*%
%TD*%
%TA.AperFunction,ComponentPad*%
%ADD12C,1.600000*%
%TD*%
%TA.AperFunction,ComponentPad*%
%ADD13O,1.800000X2.750000*%
%TD*%
%TA.AperFunction,ComponentPad*%
%ADD14C,1.500000*%
%TD*%
%TA.AperFunction,ViaPad*%
%ADD15C,0.600000*%
%TD*%
%TA.AperFunction,Conductor*%
%ADD16C,0.200000*%
%TD*%
G04 APERTURE END LIST*
D10*
%TO.P,SW23,1,A*%
%TO.N,Net-(J1-Pin_2)*%
X-6990000Y-16600000D03*
%TO.P,SW23,2,B*%
%TO.N,Bat*%
X-6990000Y-14100000D03*
%TO.P,SW23,3,C*%
%TO.N,unconnected-(SW23-C-Pad3)*%
X-6990000Y-11600000D03*
%TD*%
D11*
%TO.P,J1,1,Pin_1*%
%TO.N,GND*%
X18450000Y-59900000D03*
D12*
%TO.P,J1,2,Pin_2*%
%TO.N,Net-(J1-Pin_2)*%
X20970000Y-59900000D03*
%TD*%
D13*
%TO.P,U1,1,P0.02_A0_D0*%
%TO.N,RE_B*%
X-6600000Y-48350000D03*
%TO.P,U1,2,P0.03_A1_D1*%
%TO.N,Row0*%
X-4060000Y-48350000D03*
%TO.P,U1,3,P0.28_A2_D2*%
%TO.N,Row1*%
X-1520000Y-48350000D03*
%TO.P,U1,4,P0.29_A3_D3*%
%TO.N,Row2*%
X1020000Y-48350000D03*
%TO.P,U1,5,P0.04_A4_D4_SDA*%
%TO.N,unconnected-(U1-P0.04_A4_D4_SDA-Pad5)*%
X3560000Y-48350000D03*
%TO.P,U1,6,P0.05_A5_D5_SCL*%
%TO.N,RE_A1*%
X6100000Y-48350000D03*
%TO.P,U1,7,P1.11_D6_TX*%
%TO.N,Row3*%
X8640000Y-48350000D03*
%TO.P,U1,8,P1.12_D7_RX*%
%TO.N,Col3*%
X8640000Y-64590000D03*
%TO.P,U1,9,P1.13_D8_SCK*%
%TO.N,Col2*%
X6100000Y-64590000D03*
%TO.P,U1,10,P1.14_D9_MISO*%
%TO.N,Col1*%
X3560000Y-64590000D03*
%TO.P,U1,11,P1.15_D10_MOSI*%
%TO.N,Col0*%
X1020000Y-64590000D03*
%TO.P,U1,12,3V3*%
%TO.N,unconnected-(U1-3V3-Pad12)*%
X-1520000Y-64590000D03*
%TO.P,U1,13,GND*%
%TO.N,GND*%
X-4060000Y-64590000D03*
%TO.P,U1,14,5V*%
%TO.N,VCC*%
X-6600000Y-64590000D03*
D14*
%TO.P,U1,15,NFC1_0.09*%
%TO.N,Col5*%
X10332000Y-60305400D03*
%TO.P,U1,16,NFC2_0.10*%
%TO.N,Col4*%
X10332000Y-62185000D03*
%TO.P,U1,20,BATT+*%
%TO.N,Bat*%
X703000Y-52025000D03*
%TO.P,U1,21,BATT-*%
%TO.N,GND*%
X-1202000Y-52025000D03*
%TD*%
D15*
%TO.N,Col2*%
X41520000Y-27710000D03*
%TO.N,GND*%
X-4060000Y-59170000D03*
X6420000Y-59240000D03*
%TO.N,Bat*%
X-7770000Y-29690000D03*
%TO.N,Row0*%
X-8320000Y-8280000D03*
X1830000Y-8290000D03*
%TO.N,Row1*%
X-2300000Y-27740000D03*
X-2250000Y-35190000D03*
%TO.N,Row2*%
X1160000Y-46170000D03*
X10000000Y-46170000D03*
%TO.N,Row3*%
X23870000Y-65420000D03*
X23840000Y-50590000D03*
%TO.N,Col1*%
X9820000Y-16530000D03*
X25180000Y-52080000D03*
X25260000Y-49080000D03*
X9690000Y-6720000D03*
X15770000Y-27460000D03*
X15590000Y-35760000D03*
%TO.N,Col2*%
X44290000Y-46480000D03*
X33010000Y-7990000D03*
X26510000Y-52980000D03*
X26490000Y-51380000D03*
X47380000Y-49560000D03*
X32960000Y-16770000D03*
X41630000Y-35530000D03*
%TO.N,Col3*%
X51750000Y-16520000D03*
X53950000Y-27420000D03*
X63400000Y-48500000D03*
X63370000Y-46240000D03*
X61350000Y-35730000D03*
X49080000Y-8450000D03*
X27640000Y-50870000D03*
X27640000Y-52970000D03*
%TO.N,Col4*%
X72870000Y-27530000D03*
X74585000Y-29245000D03*
X82320000Y-49370000D03*
X-1290000Y-30640000D03*
X80800000Y-35640000D03*
X85720000Y-54670000D03*
X33810000Y-29230000D03*
X-8920000Y-30670000D03*
X-8900000Y-62200000D03*
X71190000Y-10980000D03*
X-3060000Y-30640000D03*
X71530000Y-16610000D03*
%TO.N,Col5*%
X98890000Y-35670000D03*
X90690000Y-8230000D03*
X90730000Y-16580000D03*
X101370000Y-45820000D03*
X92010000Y-27770000D03*
%TO.N,Net-(J1-Pin_2)*%
X14810000Y-29360000D03*
X20970000Y-42890000D03*
X-7090000Y-26350000D03*
%TD*%
D16*
%TO.N,Col4*%
X17560000Y-36360000D02*
X9980000Y-36360000D01*
X33810000Y-29230000D02*
X24690000Y-29230000D01*
X24690000Y-29230000D02*
X17560000Y-36360000D01*
%TO.N,Col2*%
X41520000Y-27710000D02*
X41520000Y-35420000D01*
X41520000Y-35420000D02*
X41630000Y-35530000D01*
%TO.N,Col4*%
X9980000Y-36360000D02*
X4260000Y-30640000D01*
X4260000Y-30640000D02*
X-1290000Y-30640000D01*
%TO.N,GND*%
X6420000Y-59240000D02*
X-3990000Y-59240000D01*
X-3990000Y-59240000D02*
X-4060000Y-59170000D01*
%TO.N,Bat*%
X-7770000Y-14880000D02*
X-7770000Y-29690000D01*
X-6990000Y-14100000D02*
X-7770000Y-14880000D01*
%TO.N,Row0*%
X-8320000Y-8280000D02*
X1820000Y-8280000D01*
X1820000Y-8280000D02*
X1830000Y-8290000D01*
%TO.N,Row1*%
X-2250000Y-35190000D02*
X-2250000Y-27790000D01*
X-2250000Y-27790000D02*
X-2300000Y-27740000D01*
%TO.N,Row2*%
X10000000Y-46170000D02*
X1160000Y-46170000D01*
%TO.N,Row3*%
X23848553Y-57728553D02*
X23848553Y-65398553D01*
X23848553Y-65398553D02*
X23870000Y-65420000D01*
X23840000Y-57720000D02*
X23848553Y-57728553D01*
X23840000Y-50590000D02*
X23840000Y-57720000D01*
%TO.N,Col1*%
X15770000Y-35580000D02*
X15590000Y-35760000D01*
X9690000Y-16400000D02*
X9820000Y-16530000D01*
X9690000Y-6720000D02*
X9690000Y-16400000D01*
X25260000Y-49080000D02*
X25260000Y-52000000D01*
X25260000Y-52000000D02*
X25180000Y-52080000D01*
X15770000Y-27460000D02*
X15770000Y-35580000D01*
%TO.N,Col2*%
X26510000Y-51400000D02*
X26490000Y-51380000D01*
X26510000Y-52980000D02*
X26510000Y-51400000D01*
X47370000Y-49560000D02*
X47380000Y-49560000D01*
X33010000Y-7990000D02*
X33010000Y-16720000D01*
X44290000Y-46480000D02*
X47370000Y-49560000D01*
X33010000Y-16720000D02*
X32960000Y-16770000D01*
%TO.N,Col3*%
X49080000Y-8450000D02*
X51750000Y-11120000D01*
X27640000Y-52970000D02*
X27640000Y-50870000D01*
X63400000Y-46270000D02*
X63370000Y-46240000D01*
X51750000Y-11120000D02*
X51750000Y-16520000D01*
X61350000Y-34820000D02*
X61350000Y-35730000D01*
X53950000Y-27420000D02*
X61350000Y-34820000D01*
X63400000Y-48500000D02*
X63400000Y-46270000D01*
%TO.N,Col4*%
X7744592Y-62200000D02*
X8099839Y-62555247D01*
X80800000Y-35460000D02*
X80800000Y-35640000D01*
X-8900000Y-62200000D02*
X7744592Y-62200000D01*
X82320000Y-51270000D02*
X85720000Y-54670000D01*
X10332000Y-62195298D02*
X10332000Y-62185000D01*
X-8920000Y-30670000D02*
X-3090000Y-30670000D01*
X74585000Y-29245000D02*
X80800000Y-35460000D01*
X-3090000Y-30670000D02*
X-3060000Y-30640000D01*
X9972051Y-62555247D02*
X10332000Y-62195298D01*
X71190000Y-10980000D02*
X71190000Y-16270000D01*
X82320000Y-49370000D02*
X82320000Y-51270000D01*
X71190000Y-16270000D02*
X71530000Y-16610000D01*
X72870000Y-27530000D02*
X74585000Y-29245000D01*
X8099839Y-62555247D02*
X9972051Y-62555247D01*
%TO.N,Col5*%
X35847258Y-66020000D02*
X37217258Y-64650000D01*
X37217258Y-64650000D02*
X106450000Y-64650000D01*
X106450000Y-64650000D02*
X108290000Y-62810000D01*
X10332000Y-60305400D02*
X12295130Y-62268530D01*
X23621471Y-66020000D02*
X35847258Y-66020000D01*
X90690000Y-16540000D02*
X90730000Y-16580000D01*
X92010000Y-27770000D02*
X92010000Y-28790000D01*
X19870000Y-62268530D02*
X21700735Y-64099265D01*
X21700735Y-64099265D02*
X23621471Y-66020000D01*
X108290000Y-62810000D02*
X108290000Y-52740000D01*
X108290000Y-52740000D02*
X101370000Y-45820000D01*
X92010000Y-28790000D02*
X98890000Y-35670000D01*
X12295130Y-62268530D02*
X19870000Y-62268530D01*
X90690000Y-8230000D02*
X90690000Y-16540000D01*
%TO.N,Net-(J1-Pin_2)*%
X20970000Y-42890000D02*
X20970000Y-59900000D01*
X-2841471Y-26350000D02*
X168529Y-29360000D01*
X-7090000Y-26350000D02*
X-2841471Y-26350000D01*
X168529Y-29360000D02*
X14810000Y-29360000D01*
%TD*%
M02*
