%TF.GenerationSoftware,KiCad,Pcbnew,8.0.7*%
%TF.CreationDate,2025-01-20T20:00:10+09:00*%
%TF.ProjectId,cool937tb_L,636f6f6c-3933-4377-9462-5f4c2e6b6963,rev?*%
%TF.SameCoordinates,Original*%
%TF.FileFunction,Copper,L2,Bot*%
%TF.FilePolarity,Positive*%
%FSLAX46Y46*%
G04 Gerber Fmt 4.6, Leading zero omitted, Abs format (unit mm)*
G04 Created by KiCad (PCBNEW 8.0.7) date 2025-01-20 20:00:10*
%MOMM*%
%LPD*%
G01*
G04 APERTURE LIST*
%TA.AperFunction,SMDPad,CuDef*%
%ADD10R,2.000000X2.000000*%
%TD*%
%TA.AperFunction,SMDPad,CuDef*%
%ADD11R,1.900000X2.000000*%
%TD*%
%TA.AperFunction,SMDPad,CuDef*%
%ADD12R,1.300000X0.950000*%
%TD*%
%TA.AperFunction,ComponentPad*%
%ADD13O,1.000000X1.300000*%
%TD*%
%TA.AperFunction,ComponentPad*%
%ADD14R,1.600000X1.600000*%
%TD*%
%TA.AperFunction,ComponentPad*%
%ADD15C,1.600000*%
%TD*%
%TA.AperFunction,ComponentPad*%
%ADD16O,1.800000X2.750000*%
%TD*%
%TA.AperFunction,ComponentPad*%
%ADD17C,1.500000*%
%TD*%
%TA.AperFunction,ViaPad*%
%ADD18C,0.600000*%
%TD*%
%TA.AperFunction,Conductor*%
%ADD19C,0.200000*%
%TD*%
G04 APERTURE END LIST*
D10*
%TO.P,SW22,1,1*%
%TO.N,Col5*%
X101437500Y-41800000D03*
X102637500Y-35560000D03*
D11*
%TO.P,SW22,2,2*%
%TO.N,Net-(D22-A)*%
X112337500Y-44000000D03*
D10*
X115137500Y-33020000D03*
%TD*%
D12*
%TO.P,D1,1,K*%
%TO.N,Row0*%
X4475000Y-8220000D03*
%TO.P,D1,2,A*%
%TO.N,Net-(D1-A)*%
X8025000Y-8220000D03*
%TD*%
D10*
%TO.P,SW14,1,1*%
%TO.N,Col3*%
X53812500Y-22750000D03*
X55012500Y-16510000D03*
D11*
%TO.P,SW14,2,2*%
%TO.N,Net-(D14-A)*%
X64712500Y-24950000D03*
D10*
X67512500Y-13970000D03*
%TD*%
D12*
%TO.P,D19,1,K*%
%TO.N,Row2*%
X94975000Y-46330000D03*
%TO.P,D19,2,A*%
%TO.N,Net-(D19-A)*%
X98525000Y-46330000D03*
%TD*%
D13*
%TO.P,SW23,1,A*%
%TO.N,Net-(J1-Pin_2)*%
X-6990000Y-16600000D03*
%TO.P,SW23,2,B*%
%TO.N,Bat*%
X-6990000Y-14100000D03*
%TO.P,SW23,3,C*%
%TO.N,unconnected-(SW23-C-Pad3)*%
X-6990000Y-11600000D03*
%TD*%
D10*
%TO.P,SW18,1,1*%
%TO.N,Col4*%
X72862500Y-22750000D03*
X74062500Y-16510000D03*
D11*
%TO.P,SW18,2,2*%
%TO.N,Net-(D18-A)*%
X83762500Y-24950000D03*
D10*
X86562500Y-13970000D03*
%TD*%
%TO.P,SW12,1,1*%
%TO.N,Col2*%
X68100000Y-60850000D03*
X69300000Y-54610000D03*
D11*
%TO.P,SW12,2,2*%
%TO.N,Net-(D12-A)*%
X79000000Y-63050000D03*
D10*
X81800000Y-52070000D03*
%TD*%
D12*
%TO.P,D6,1,K*%
%TO.N,Row1*%
X28765000Y-27720000D03*
%TO.P,D6,2,A*%
%TO.N,Net-(D6-A)*%
X32315000Y-27720000D03*
%TD*%
%TO.P,D13,1,K*%
%TO.N,Row0*%
X61655000Y-8690000D03*
%TO.P,D13,2,A*%
%TO.N,Net-(D13-A)*%
X65205000Y-8690000D03*
%TD*%
D10*
%TO.P,SW19,1,1*%
%TO.N,Col4*%
X82387500Y-41800000D03*
X83587500Y-35560000D03*
D11*
%TO.P,SW19,2,2*%
%TO.N,Net-(D19-A)*%
X93287500Y-44000000D03*
D10*
X96087500Y-33020000D03*
%TD*%
%TO.P,SW1,1,1*%
%TO.N,Col0*%
X-8100000Y-3700000D03*
X-6900000Y2540000D03*
D11*
%TO.P,SW1,2,2*%
%TO.N,Net-(D1-A)*%
X2800000Y-5900000D03*
D10*
X5600000Y5080000D03*
%TD*%
D12*
%TO.P,D10,1,K*%
%TO.N,Row1*%
X47775000Y-27690000D03*
%TO.P,D10,2,A*%
%TO.N,Net-(D10-A)*%
X51325000Y-27690000D03*
%TD*%
D10*
%TO.P,SW13,1,1*%
%TO.N,Col3*%
X49050000Y-3700000D03*
X50250000Y2540000D03*
D11*
%TO.P,SW13,2,2*%
%TO.N,Net-(D13-A)*%
X59950000Y-5900000D03*
D10*
X62750000Y5080000D03*
%TD*%
D14*
%TO.P,J1,1,Pin_1*%
%TO.N,GND*%
X18450000Y-59900000D03*
D15*
%TO.P,J1,2,Pin_2*%
%TO.N,Net-(J1-Pin_2)*%
X20970000Y-59900000D03*
%TD*%
D12*
%TO.P,D22,1,K*%
%TO.N,Row2*%
X113935000Y-46280000D03*
%TO.P,D22,2,A*%
%TO.N,Net-(D22-A)*%
X117485000Y-46280000D03*
%TD*%
D10*
%TO.P,SW10,1,1*%
%TO.N,Col2*%
X34762500Y-22750000D03*
X35962500Y-16510000D03*
D11*
%TO.P,SW10,2,2*%
%TO.N,Net-(D10-A)*%
X45662500Y-24950000D03*
D10*
X48462500Y-13970000D03*
%TD*%
D12*
%TO.P,D20,1,K*%
%TO.N,Row3*%
X104380000Y-65230000D03*
%TO.P,D20,2,A*%
%TO.N,Net-(D20-A)*%
X107930000Y-65230000D03*
%TD*%
%TO.P,D14,1,K*%
%TO.N,Row1*%
X66885000Y-27760000D03*
%TO.P,D14,2,A*%
%TO.N,Net-(D14-A)*%
X70435000Y-27760000D03*
%TD*%
%TO.P,D11,1,K*%
%TO.N,Row2*%
X57325000Y-46790000D03*
%TO.P,D11,2,A*%
%TO.N,Net-(D11-A)*%
X60875000Y-46790000D03*
%TD*%
D10*
%TO.P,SW9,1,1*%
%TO.N,Col2*%
X30000000Y-3700000D03*
X31200000Y2540000D03*
D11*
%TO.P,SW9,2,2*%
%TO.N,Net-(D9-A)*%
X40900000Y-5900000D03*
D10*
X43700000Y5080000D03*
%TD*%
D12*
%TO.P,D8,1,K*%
%TO.N,Row3*%
X61605000Y-65360000D03*
%TO.P,D8,2,A*%
%TO.N,Net-(D8-A)*%
X65155000Y-65360000D03*
%TD*%
D10*
%TO.P,SW15,1,1*%
%TO.N,Col3*%
X63337500Y-41800000D03*
X64537500Y-35560000D03*
D11*
%TO.P,SW15,2,2*%
%TO.N,Net-(D15-A)*%
X74237500Y-44000000D03*
D10*
X77037500Y-33020000D03*
%TD*%
%TO.P,SW20,1,1*%
%TO.N,Col4*%
X91900000Y-60850000D03*
X93100000Y-54610000D03*
D11*
%TO.P,SW20,2,2*%
%TO.N,Net-(D20-A)*%
X102800000Y-63050000D03*
D10*
X105600000Y-52070000D03*
%TD*%
%TO.P,SW11,1,1*%
%TO.N,Col2*%
X44287500Y-41800000D03*
X45487500Y-35560000D03*
D11*
%TO.P,SW11,2,2*%
%TO.N,Net-(D11-A)*%
X55187500Y-44000000D03*
D10*
X57987500Y-33020000D03*
%TD*%
%TO.P,SW16,1,1*%
%TO.N,Col5*%
X87150000Y-3700000D03*
X88350000Y2540000D03*
D11*
%TO.P,SW16,2,2*%
%TO.N,Net-(D16-A)*%
X98050000Y-5900000D03*
D10*
X100850000Y5080000D03*
%TD*%
D12*
%TO.P,D15,1,K*%
%TO.N,Row2*%
X76405000Y-46770000D03*
%TO.P,D15,2,A*%
%TO.N,Net-(D15-A)*%
X79955000Y-46770000D03*
%TD*%
D10*
%TO.P,SW5,1,1*%
%TO.N,Col1*%
X10950000Y-3700000D03*
X12150000Y2540000D03*
D11*
%TO.P,SW5,2,2*%
%TO.N,Net-(D5-A)*%
X21850000Y-5900000D03*
D10*
X24650000Y5080000D03*
%TD*%
D12*
%TO.P,D3,1,K*%
%TO.N,Row2*%
X11645000Y-46300000D03*
%TO.P,D3,2,A*%
%TO.N,Net-(D3-A)*%
X15195000Y-46300000D03*
%TD*%
D10*
%TO.P,SW4,1,1*%
%TO.N,Col0*%
X30000000Y-60850000D03*
X31200000Y-54610000D03*
D11*
%TO.P,SW4,2,2*%
%TO.N,Net-(D4-A)*%
X40900000Y-63050000D03*
D10*
X43700000Y-52070000D03*
%TD*%
%TO.P,SW17,1,1*%
%TO.N,Col4*%
X68100000Y-3700000D03*
X69300000Y2540000D03*
D11*
%TO.P,SW17,2,2*%
%TO.N,Net-(D17-A)*%
X79000000Y-5900000D03*
D10*
X81800000Y5080000D03*
%TD*%
D12*
%TO.P,D12,1,K*%
%TO.N,Row3*%
X80635000Y-65260000D03*
%TO.P,D12,2,A*%
%TO.N,Net-(D12-A)*%
X84185000Y-65260000D03*
%TD*%
%TO.P,D5,1,K*%
%TO.N,Row0*%
X11025000Y-8210000D03*
%TO.P,D5,2,A*%
%TO.N,Net-(D5-A)*%
X14575000Y-8210000D03*
%TD*%
%TO.P,D18,1,K*%
%TO.N,Row1*%
X85975000Y-27810000D03*
%TO.P,D18,2,A*%
%TO.N,Net-(D18-A)*%
X89525000Y-27810000D03*
%TD*%
D10*
%TO.P,SW6,1,1*%
%TO.N,Col1*%
X15712500Y-22750000D03*
X16912500Y-16510000D03*
D11*
%TO.P,SW6,2,2*%
%TO.N,Net-(D6-A)*%
X26612500Y-24950000D03*
D10*
X29412500Y-13970000D03*
%TD*%
%TO.P,SW21,1,1*%
%TO.N,Col5*%
X91912500Y-22750000D03*
X93112500Y-16510000D03*
D11*
%TO.P,SW21,2,2*%
%TO.N,Net-(D21-A)*%
X102812500Y-24950000D03*
D10*
X105612500Y-13970000D03*
%TD*%
%TO.P,SW3,1,1*%
%TO.N,Col0*%
X-956250Y-41800000D03*
X243750Y-35560000D03*
D11*
%TO.P,SW3,2,2*%
%TO.N,Net-(D3-A)*%
X9943750Y-44000000D03*
D10*
X12743750Y-33020000D03*
%TD*%
D12*
%TO.P,D4,1,K*%
%TO.N,Row3*%
X42615000Y-65420000D03*
%TO.P,D4,2,A*%
%TO.N,Net-(D4-A)*%
X46165000Y-65420000D03*
%TD*%
D10*
%TO.P,SW2,1,1*%
%TO.N,Col0*%
X-5718750Y-22750000D03*
X-4518750Y-16510000D03*
D11*
%TO.P,SW2,2,2*%
%TO.N,Net-(D2-A)*%
X5181250Y-24950000D03*
D10*
X7981250Y-13970000D03*
%TD*%
D12*
%TO.P,D16,1,K*%
%TO.N,Row0*%
X99705000Y-8160000D03*
%TO.P,D16,2,A*%
%TO.N,Net-(D16-A)*%
X103255000Y-8160000D03*
%TD*%
%TO.P,D2,1,K*%
%TO.N,Row1*%
X7375000Y-27730000D03*
%TO.P,D2,2,A*%
%TO.N,Net-(D2-A)*%
X10925000Y-27730000D03*
%TD*%
%TO.P,D21,1,K*%
%TO.N,Row1*%
X104455000Y-27210000D03*
%TO.P,D21,2,A*%
%TO.N,Net-(D21-A)*%
X108005000Y-27210000D03*
%TD*%
D10*
%TO.P,SW8,1,1*%
%TO.N,Col1*%
X49050000Y-60850000D03*
X50250000Y-54610000D03*
D11*
%TO.P,SW8,2,2*%
%TO.N,Net-(D8-A)*%
X59950000Y-63050000D03*
D10*
X62750000Y-52070000D03*
%TD*%
D12*
%TO.P,D17,1,K*%
%TO.N,Row0*%
X67595000Y-8700000D03*
%TO.P,D17,2,A*%
%TO.N,Net-(D17-A)*%
X71145000Y-8700000D03*
%TD*%
%TO.P,D9,1,K*%
%TO.N,Row0*%
X43145000Y-8680000D03*
%TO.P,D9,2,A*%
%TO.N,Net-(D9-A)*%
X46695000Y-8680000D03*
%TD*%
D10*
%TO.P,SW7,1,1*%
%TO.N,Col1*%
X25237500Y-41800000D03*
X26437500Y-35560000D03*
D11*
%TO.P,SW7,2,2*%
%TO.N,Net-(D7-A)*%
X36137500Y-44000000D03*
D10*
X38937500Y-33020000D03*
%TD*%
D12*
%TO.P,D7,1,K*%
%TO.N,Row2*%
X38245000Y-46760000D03*
%TO.P,D7,2,A*%
%TO.N,Net-(D7-A)*%
X41795000Y-46760000D03*
%TD*%
D16*
%TO.P,U1,1,P0.02_A0_D0*%
%TO.N,RE_B*%
X-6600000Y-48350000D03*
%TO.P,U1,2,P0.03_A1_D1*%
%TO.N,Row0*%
X-4060000Y-48350000D03*
%TO.P,U1,3,P0.28_A2_D2*%
%TO.N,Row1*%
X-1520000Y-48350000D03*
%TO.P,U1,4,P0.29_A3_D3*%
%TO.N,Row2*%
X1020000Y-48350000D03*
%TO.P,U1,5,P0.04_A4_D4_SDA*%
%TO.N,unconnected-(U1-P0.04_A4_D4_SDA-Pad5)*%
X3560000Y-48350000D03*
%TO.P,U1,6,P0.05_A5_D5_SCL*%
%TO.N,RE_A1*%
X6100000Y-48350000D03*
%TO.P,U1,7,P1.11_D6_TX*%
%TO.N,Row3*%
X8640000Y-48350000D03*
%TO.P,U1,8,P1.12_D7_RX*%
%TO.N,Col3*%
X8640000Y-64590000D03*
%TO.P,U1,9,P1.13_D8_SCK*%
%TO.N,Col2*%
X6100000Y-64590000D03*
%TO.P,U1,10,P1.14_D9_MISO*%
%TO.N,Col1*%
X3560000Y-64590000D03*
%TO.P,U1,11,P1.15_D10_MOSI*%
%TO.N,Col0*%
X1020000Y-64590000D03*
%TO.P,U1,12,3V3*%
%TO.N,unconnected-(U1-3V3-Pad12)*%
X-1520000Y-64590000D03*
%TO.P,U1,13,GND*%
%TO.N,GND*%
X-4060000Y-64590000D03*
%TO.P,U1,14,5V*%
%TO.N,VCC*%
X-6600000Y-64590000D03*
D17*
%TO.P,U1,15,NFC1_0.09*%
%TO.N,Col5*%
X10332000Y-60305400D03*
%TO.P,U1,16,NFC2_0.10*%
%TO.N,Col4*%
X10332000Y-62185000D03*
%TO.P,U1,20,BATT+*%
%TO.N,Bat*%
X703000Y-52025000D03*
%TO.P,U1,21,BATT-*%
%TO.N,GND*%
X-1202000Y-52025000D03*
%TD*%
D18*
%TO.N,Col2*%
X41520000Y-27710000D03*
%TO.N,GND*%
X-4060000Y-59170000D03*
X6420000Y-59240000D03*
%TO.N,Bat*%
X-7770000Y-29690000D03*
%TO.N,Row0*%
X-8320000Y-8280000D03*
X1830000Y-8290000D03*
%TO.N,Row1*%
X-2300000Y-27740000D03*
X-2250000Y-35190000D03*
%TO.N,Row2*%
X1160000Y-46170000D03*
X10000000Y-46170000D03*
%TO.N,Row3*%
X23870000Y-65420000D03*
X23840000Y-50590000D03*
%TO.N,Col1*%
X9820000Y-16530000D03*
X25180000Y-52080000D03*
X25260000Y-49080000D03*
X9690000Y-6720000D03*
X15770000Y-27460000D03*
X15590000Y-35760000D03*
%TO.N,Col2*%
X44290000Y-46480000D03*
X33010000Y-7990000D03*
X26510000Y-52980000D03*
X26490000Y-51380000D03*
X47380000Y-49560000D03*
X32960000Y-16770000D03*
X41630000Y-35530000D03*
%TO.N,Col3*%
X51750000Y-16520000D03*
X53950000Y-27420000D03*
X63400000Y-48500000D03*
X63370000Y-46240000D03*
X61350000Y-35730000D03*
X49080000Y-8450000D03*
X27640000Y-50870000D03*
X27640000Y-52970000D03*
%TO.N,Col4*%
X72870000Y-27530000D03*
X74585000Y-29245000D03*
X82320000Y-49370000D03*
X-1290000Y-30640000D03*
X80800000Y-35640000D03*
X85720000Y-54670000D03*
X33810000Y-29230000D03*
X-8920000Y-30670000D03*
X-8900000Y-62200000D03*
X71190000Y-10980000D03*
X-3060000Y-30640000D03*
X71530000Y-16610000D03*
%TO.N,Col5*%
X98890000Y-35670000D03*
X90690000Y-8230000D03*
X90730000Y-16580000D03*
X101370000Y-45820000D03*
X92010000Y-27770000D03*
%TO.N,Net-(J1-Pin_2)*%
X14810000Y-29360000D03*
X20970000Y-42890000D03*
X-7090000Y-26350000D03*
%TD*%
D19*
%TO.N,Col2*%
X35320000Y-27710000D02*
X41520000Y-27710000D01*
X34762500Y-27152500D02*
X35320000Y-27710000D01*
X34762500Y-22750000D02*
X34762500Y-26450000D01*
X34762500Y-26450000D02*
X34762500Y-27152500D01*
%TO.N,GND*%
X-4060000Y-64090000D02*
X-4060000Y-59170000D01*
X17805400Y-59255400D02*
X6435400Y-59255400D01*
X6435400Y-59255400D02*
X6420000Y-59240000D01*
X18450000Y-59900000D02*
X17805400Y-59255400D01*
X-4060000Y-59170000D02*
X-4060000Y-54883000D01*
%TO.N,Col0*%
X1020000Y-64090000D02*
X1020000Y-65740000D01*
X17292692Y-66830000D02*
X23272692Y-60850000D01*
X1020000Y-65740000D02*
X2110000Y-66830000D01*
X2110000Y-66830000D02*
X17292692Y-66830000D01*
X23272692Y-60850000D02*
X30000000Y-60850000D01*
%TO.N,Bat*%
X-7770000Y-29690000D02*
X-5260000Y-32200000D01*
X-5260000Y-32200000D02*
X-5260000Y-49322056D01*
X-5260000Y-49322056D02*
X-3607056Y-50975000D01*
X-3607056Y-50975000D02*
X-347000Y-50975000D01*
X-347000Y-50975000D02*
X703000Y-52025000D01*
%TO.N,Net-(D1-A)*%
X5705000Y-5900000D02*
X2800000Y-5900000D01*
X5600000Y5080000D02*
X2800000Y2280000D01*
X8025000Y-8220000D02*
X5705000Y-5900000D01*
X2800000Y2280000D02*
X2800000Y-5900000D01*
%TO.N,Row0*%
X10240000Y-8995000D02*
X11025000Y-8210000D01*
X62430000Y-9465000D02*
X66830000Y-9465000D01*
X70805000Y-11910000D02*
X95955000Y-11910000D01*
X67595000Y-8700000D02*
X70805000Y-11910000D01*
X-4060000Y-31840000D02*
X-8320000Y-27580000D01*
X1830000Y-8290000D02*
X2190000Y-8290000D01*
X43145000Y-8680000D02*
X43140000Y-8680000D01*
X5250000Y-8995000D02*
X10240000Y-8995000D01*
X-8320000Y-27580000D02*
X-8320000Y-8280000D01*
X60890000Y-9455000D02*
X43920000Y-9455000D01*
X14575000Y-11760000D02*
X11025000Y-8210000D01*
X2190000Y-8290000D02*
X2260000Y-8220000D01*
X61655000Y-8690000D02*
X60890000Y-9455000D01*
X61655000Y-8690000D02*
X62430000Y-9465000D01*
X43140000Y-8680000D02*
X40060000Y-11760000D01*
X40060000Y-11760000D02*
X14575000Y-11760000D01*
X-4060000Y-48850000D02*
X-4060000Y-31840000D01*
X2260000Y-8220000D02*
X4475000Y-8220000D01*
X4475000Y-8220000D02*
X5250000Y-8995000D01*
X43920000Y-9455000D02*
X43145000Y-8680000D01*
X95955000Y-11910000D02*
X99705000Y-8160000D01*
X66830000Y-9465000D02*
X67595000Y-8700000D01*
%TO.N,Net-(D2-A)*%
X8145000Y-24950000D02*
X10925000Y-27730000D01*
X5181250Y-24950000D02*
X8145000Y-24950000D01*
X7981250Y-13970000D02*
X5181250Y-16770000D01*
X5181250Y-16770000D02*
X5181250Y-24950000D01*
%TO.N,Row1*%
X67660000Y-28535000D02*
X85250000Y-28535000D01*
X66180000Y-28465000D02*
X66885000Y-27760000D01*
X-2300000Y-27740000D02*
X-2290000Y-27730000D01*
X-2290000Y-27730000D02*
X7375000Y-27730000D01*
X-1520000Y-48850000D02*
X-2256250Y-48113750D01*
X86750000Y-28585000D02*
X85975000Y-27810000D01*
X66885000Y-27760000D02*
X67660000Y-28535000D01*
X103080000Y-28585000D02*
X86750000Y-28585000D01*
X28765000Y-27720000D02*
X29540000Y-28495000D01*
X46970000Y-28495000D02*
X47775000Y-27690000D01*
X-2256250Y-48453750D02*
X-1590000Y-49120000D01*
X47775000Y-27690000D02*
X48550000Y-28465000D01*
X104455000Y-27210000D02*
X103080000Y-28585000D01*
X27980000Y-28505000D02*
X28765000Y-27720000D01*
X-2256250Y-35196250D02*
X-2250000Y-35190000D01*
X8150000Y-28505000D02*
X27980000Y-28505000D01*
X48550000Y-28465000D02*
X66180000Y-28465000D01*
X85250000Y-28535000D02*
X85975000Y-27810000D01*
X29540000Y-28495000D02*
X46970000Y-28495000D01*
X7375000Y-27730000D02*
X8150000Y-28505000D01*
X-2256250Y-48113750D02*
X-2256250Y-35196250D01*
%TO.N,Net-(D3-A)*%
X12743750Y-33020000D02*
X9943750Y-35820000D01*
X9943750Y-35820000D02*
X9943750Y-44000000D01*
X9943750Y-44000000D02*
X12895000Y-44000000D01*
X12895000Y-44000000D02*
X15195000Y-46300000D01*
%TO.N,Row2*%
X76577500Y-46942500D02*
X76405000Y-46770000D01*
X91255000Y-50050000D02*
X79670000Y-50050000D01*
X76577500Y-46957500D02*
X76577500Y-46942500D01*
X15335000Y-49990000D02*
X11645000Y-46300000D01*
X113110000Y-47105000D02*
X95750000Y-47105000D01*
X113935000Y-46280000D02*
X113110000Y-47105000D01*
X94975000Y-46330000D02*
X91255000Y-50050000D01*
X79670000Y-50050000D02*
X76577500Y-46957500D01*
X95750000Y-47105000D02*
X94975000Y-46330000D01*
X11515000Y-46170000D02*
X11645000Y-46300000D01*
X39020000Y-47535000D02*
X38245000Y-46760000D01*
X1160000Y-48710000D02*
X1020000Y-48850000D01*
X57325000Y-46790000D02*
X56580000Y-47535000D01*
X1160000Y-48910000D02*
X950000Y-49120000D01*
X75610000Y-47565000D02*
X58100000Y-47565000D01*
X58100000Y-47565000D02*
X57325000Y-46790000D01*
X10000000Y-46170000D02*
X11515000Y-46170000D01*
X76405000Y-46770000D02*
X75610000Y-47565000D01*
X35015000Y-49990000D02*
X15335000Y-49990000D01*
X38245000Y-46760000D02*
X35015000Y-49990000D01*
X56580000Y-47535000D02*
X39020000Y-47535000D01*
X1160000Y-46170000D02*
X1160000Y-48710000D01*
%TO.N,Net-(D4-A)*%
X40900000Y-54870000D02*
X40900000Y-63050000D01*
X40900000Y-63050000D02*
X43795000Y-63050000D01*
X43700000Y-52070000D02*
X40900000Y-54870000D01*
X43795000Y-63050000D02*
X46165000Y-65420000D01*
%TO.N,Row3*%
X103575000Y-66035000D02*
X81410000Y-66035000D01*
X62380000Y-66135000D02*
X61605000Y-65360000D01*
X104380000Y-65230000D02*
X103575000Y-66035000D01*
X60770000Y-66195000D02*
X43390000Y-66195000D01*
X10380000Y-50590000D02*
X23840000Y-50590000D01*
X43390000Y-66195000D02*
X42615000Y-65420000D01*
X80635000Y-65260000D02*
X79760000Y-66135000D01*
X79760000Y-66135000D02*
X62380000Y-66135000D01*
X61605000Y-65360000D02*
X60770000Y-66195000D01*
X81410000Y-66035000D02*
X80635000Y-65260000D01*
X8640000Y-48850000D02*
X10380000Y-50590000D01*
X23870000Y-65420000D02*
X42615000Y-65420000D01*
%TO.N,Net-(D5-A)*%
X21850000Y-5900000D02*
X19540000Y-8210000D01*
X21850000Y2280000D02*
X21850000Y-5900000D01*
X24650000Y5080000D02*
X21850000Y2280000D01*
X19540000Y-8210000D02*
X14575000Y-8210000D01*
%TO.N,Net-(D6-A)*%
X26612500Y-16770000D02*
X26612500Y-24950000D01*
X29412500Y-13970000D02*
X26612500Y-16770000D01*
X29545000Y-24950000D02*
X32315000Y-27720000D01*
X26612500Y-24950000D02*
X29545000Y-24950000D01*
%TO.N,Net-(D7-A)*%
X38937500Y-33020000D02*
X36137500Y-35820000D01*
X36137500Y-44000000D02*
X39035000Y-44000000D01*
X39035000Y-44000000D02*
X41795000Y-46760000D01*
X36137500Y-35820000D02*
X36137500Y-44000000D01*
%TO.N,Net-(D8-A)*%
X62750000Y-52070000D02*
X59950000Y-54870000D01*
X59950000Y-63050000D02*
X62845000Y-63050000D01*
X59950000Y-54870000D02*
X59950000Y-63050000D01*
X62845000Y-63050000D02*
X65155000Y-65360000D01*
%TO.N,Net-(D9-A)*%
X40900000Y2280000D02*
X40900000Y-5900000D01*
X43700000Y5080000D02*
X40900000Y2280000D01*
X43915000Y-5900000D02*
X46695000Y-8680000D01*
X40900000Y-5900000D02*
X43915000Y-5900000D01*
%TO.N,Net-(D10-A)*%
X48462500Y-13970000D02*
X45662500Y-16770000D01*
X48585000Y-24950000D02*
X51325000Y-27690000D01*
X45662500Y-24950000D02*
X48585000Y-24950000D01*
X45662500Y-16770000D02*
X45662500Y-24950000D01*
%TO.N,Net-(D11-A)*%
X55187500Y-44000000D02*
X58085000Y-44000000D01*
X55187500Y-35820000D02*
X55187500Y-44000000D01*
X58085000Y-44000000D02*
X60875000Y-46790000D01*
X57987500Y-33020000D02*
X55187500Y-35820000D01*
%TO.N,Net-(D12-A)*%
X81800000Y-52070000D02*
X79000000Y-54870000D01*
X79000000Y-54870000D02*
X79000000Y-63050000D01*
X81975000Y-63050000D02*
X79000000Y-63050000D01*
X84185000Y-65260000D02*
X81975000Y-63050000D01*
%TO.N,Net-(D13-A)*%
X62750000Y5080000D02*
X59950000Y2280000D01*
X59950000Y-5900000D02*
X62415000Y-5900000D01*
X62415000Y-5900000D02*
X65205000Y-8690000D01*
X59950000Y2280000D02*
X59950000Y-5900000D01*
%TO.N,Net-(D14-A)*%
X67512500Y-13970000D02*
X64712500Y-16770000D01*
X67625000Y-24950000D02*
X70435000Y-27760000D01*
X64712500Y-24950000D02*
X67625000Y-24950000D01*
X64712500Y-16770000D02*
X64712500Y-24950000D01*
%TO.N,Net-(D15-A)*%
X74237500Y-44000000D02*
X77185000Y-44000000D01*
X77185000Y-44000000D02*
X79955000Y-46770000D01*
X77037500Y-33020000D02*
X74237500Y-35820000D01*
X74237500Y-35820000D02*
X74237500Y-44000000D01*
%TO.N,Net-(D16-A)*%
X98050000Y-5900000D02*
X100995000Y-5900000D01*
X98050000Y2280000D02*
X98050000Y-5900000D01*
X100850000Y5080000D02*
X98050000Y2280000D01*
X100995000Y-5900000D02*
X103255000Y-8160000D01*
%TO.N,Net-(D17-A)*%
X76200000Y-8700000D02*
X71145000Y-8700000D01*
X81800000Y5080000D02*
X79000000Y2280000D01*
X79000000Y2280000D02*
X79000000Y-5900000D01*
X79000000Y-5900000D02*
X76200000Y-8700000D01*
%TO.N,Net-(D18-A)*%
X83762500Y-16770000D02*
X83762500Y-24950000D01*
X86665000Y-24950000D02*
X89525000Y-27810000D01*
X83762500Y-24950000D02*
X86665000Y-24950000D01*
X86562500Y-13970000D02*
X83762500Y-16770000D01*
%TO.N,Net-(D19-A)*%
X96087500Y-33020000D02*
X93287500Y-35820000D01*
X93287500Y-44000000D02*
X96195000Y-44000000D01*
X93287500Y-35820000D02*
X93287500Y-44000000D01*
X96195000Y-44000000D02*
X98525000Y-46330000D01*
%TO.N,Net-(D20-A)*%
X105750000Y-63050000D02*
X107930000Y-65230000D01*
X102800000Y-54870000D02*
X102800000Y-63050000D01*
X105600000Y-52070000D02*
X102800000Y-54870000D01*
X102800000Y-63050000D02*
X105750000Y-63050000D01*
%TO.N,Net-(D21-A)*%
X102812500Y-24950000D02*
X105745000Y-24950000D01*
X105745000Y-24950000D02*
X108005000Y-27210000D01*
X105612500Y-13970000D02*
X102812500Y-16770000D01*
X102812500Y-16770000D02*
X102812500Y-24950000D01*
%TO.N,Col0*%
X-5718750Y-29597500D02*
X243750Y-35560000D01*
X31200000Y-59650000D02*
X30000000Y-60850000D01*
X1020000Y-64090000D02*
X2290000Y-62820000D01*
X950000Y-64360000D02*
X950000Y-64467056D01*
X-8100000Y-3700000D02*
X-4518750Y-7281250D01*
X31200000Y-54610000D02*
X31200000Y-59650000D01*
X243750Y-40600000D02*
X-956250Y-41800000D01*
X-6900000Y2540000D02*
X-6900000Y-2500000D01*
X-4518750Y-7281250D02*
X-4518750Y-16510000D01*
X-6900000Y-2500000D02*
X-8100000Y-3700000D01*
X950000Y-64360000D02*
X490907Y-64360000D01*
X2290000Y-62820000D02*
X2290000Y-45046250D01*
X243750Y-35560000D02*
X243750Y-40600000D01*
X-4518750Y-21550000D02*
X-5718750Y-22750000D01*
X-5718750Y-22750000D02*
X-5718750Y-29597500D01*
X-956250Y-41800000D02*
X2290000Y-45046250D01*
X-4518750Y-16510000D02*
X-4518750Y-21550000D01*
%TO.N,Col1*%
X10400000Y-16510000D02*
X16912500Y-16510000D01*
X15590000Y-35760000D02*
X15910000Y-35760000D01*
X16912500Y-16510000D02*
X16912500Y-21550000D01*
X15712500Y-27402500D02*
X15712500Y-22750000D01*
X25237500Y-49057500D02*
X25260000Y-49080000D01*
X3560000Y-59170000D02*
X10650000Y-52080000D01*
X50250000Y-54610000D02*
X50250000Y-59650000D01*
X46110000Y-50470000D02*
X50250000Y-54610000D01*
X10950000Y-5460000D02*
X9690000Y-6720000D01*
X10950000Y-3700000D02*
X10950000Y-5460000D01*
X38040000Y-52080000D02*
X39650000Y-50470000D01*
X16912500Y-21550000D02*
X15712500Y-22750000D01*
X9820000Y-16530000D02*
X10380000Y-16530000D01*
X26437500Y-40600000D02*
X25237500Y-41800000D01*
X3560000Y-64090000D02*
X3560000Y-59170000D01*
X12150000Y2540000D02*
X12150000Y-2500000D01*
X12150000Y-2500000D02*
X10950000Y-3700000D01*
X50250000Y-59650000D02*
X49050000Y-60850000D01*
X25180000Y-52080000D02*
X38040000Y-52080000D01*
X15910000Y-35760000D02*
X16110000Y-35560000D01*
X39650000Y-50470000D02*
X46110000Y-50470000D01*
X10380000Y-16530000D02*
X10400000Y-16510000D01*
X15770000Y-27460000D02*
X15712500Y-27402500D01*
X26437500Y-35560000D02*
X26437500Y-40600000D01*
X10650000Y-52080000D02*
X25180000Y-52080000D01*
X16110000Y-35560000D02*
X26437500Y-35560000D01*
X25237500Y-41800000D02*
X25237500Y-49057500D01*
%TO.N,Col2*%
X45487500Y-35560000D02*
X45487500Y-40600000D01*
X9565000Y-62915000D02*
X9885000Y-63235000D01*
X26830000Y-51380000D02*
X26930000Y-51480000D01*
X31200000Y-2500000D02*
X30000000Y-3700000D01*
X35962500Y-16510000D02*
X35962500Y-21550000D01*
X33230000Y-16770000D02*
X33490000Y-16510000D01*
X69300000Y-54610000D02*
X69300000Y-59650000D01*
X44287500Y-41800000D02*
X44287500Y-46477500D01*
X6100000Y-64090000D02*
X7275000Y-62915000D01*
X30000000Y-4980000D02*
X33010000Y-7990000D01*
X69300000Y-59650000D02*
X68100000Y-60850000D01*
X20341321Y-62650000D02*
X26510000Y-56481321D01*
X64250000Y-49560000D02*
X69300000Y-54610000D01*
X41660000Y-35560000D02*
X45487500Y-35560000D01*
X32960000Y-16770000D02*
X33230000Y-16770000D01*
X19756321Y-63235000D02*
X20341321Y-62650000D01*
X41630000Y-35530000D02*
X41660000Y-35560000D01*
X26490000Y-51380000D02*
X26830000Y-51380000D01*
X31200000Y2540000D02*
X31200000Y-2500000D01*
X33490000Y-16510000D02*
X35962500Y-16510000D01*
X26930000Y-51480000D02*
X38074314Y-51480000D01*
X26510000Y-56481321D02*
X26510000Y-52980000D01*
X47380000Y-49560000D02*
X39994314Y-49560000D01*
X35962500Y-21550000D02*
X34762500Y-22750000D01*
X39994314Y-49560000D02*
X38074314Y-51480000D01*
X9885000Y-63235000D02*
X19756321Y-63235000D01*
X47380000Y-49560000D02*
X64250000Y-49560000D01*
X30000000Y-3700000D02*
X30000000Y-4980000D01*
X45487500Y-40600000D02*
X44287500Y-41800000D01*
X7275000Y-62915000D02*
X9565000Y-62915000D01*
X44287500Y-46477500D02*
X44290000Y-46480000D01*
X6030000Y-64360000D02*
X6030000Y-64300000D01*
%TO.N,Col3*%
X8640000Y-64090000D02*
X19467006Y-64090000D01*
X53812500Y-27282500D02*
X53950000Y-27420000D01*
X64537500Y-35560000D02*
X64537500Y-40600000D01*
X40058628Y-48930000D02*
X62970000Y-48930000D01*
X49050000Y-3700000D02*
X49050000Y-8420000D01*
X27640000Y-55917006D02*
X27640000Y-52970000D01*
X62970000Y-48930000D02*
X63400000Y-48500000D01*
X35610000Y-51080000D02*
X37908628Y-51080000D01*
X27850000Y-51080000D02*
X27640000Y-50870000D01*
X52230000Y-16510000D02*
X55012500Y-16510000D01*
X55012500Y-21550000D02*
X53812500Y-22750000D01*
X63370000Y-45850000D02*
X63337500Y-45817500D01*
X51750000Y-16520000D02*
X52220000Y-16520000D01*
X61520000Y-35560000D02*
X64537500Y-35560000D01*
X61350000Y-35730000D02*
X61520000Y-35560000D01*
X64537500Y-40600000D02*
X63337500Y-41800000D01*
X50250000Y2540000D02*
X50250000Y-2500000D01*
X63337500Y-45817500D02*
X63337500Y-41800000D01*
X53812500Y-22750000D02*
X53812500Y-27282500D01*
X49050000Y-8420000D02*
X49080000Y-8450000D01*
X55012500Y-16510000D02*
X55012500Y-21550000D01*
X50250000Y-2500000D02*
X49050000Y-3700000D01*
X35610000Y-51080000D02*
X27850000Y-51080000D01*
X8570000Y-64360000D02*
X8570000Y-64250000D01*
X37908628Y-51080000D02*
X40058628Y-48930000D01*
X52220000Y-16520000D02*
X52230000Y-16510000D01*
X19467006Y-64090000D02*
X27640000Y-55917006D01*
X63370000Y-46240000D02*
X63370000Y-45850000D01*
%TO.N,Col4*%
X85720000Y-54670000D02*
X85780000Y-54610000D01*
X93100000Y-54610000D02*
X93100000Y-59650000D01*
X81200000Y-35640000D02*
X81280000Y-35560000D01*
X71530000Y-16610000D02*
X71940000Y-16610000D01*
X82387500Y-41800000D02*
X82387500Y-49302500D01*
X93100000Y-59650000D02*
X91900000Y-60850000D01*
X81280000Y-35560000D02*
X83587500Y-35560000D01*
X74062500Y-16510000D02*
X74062500Y-21550000D01*
X-8920000Y-30670000D02*
X-8920000Y-62180000D01*
X68100000Y-3700000D02*
X68100000Y-7640000D01*
X71190000Y-10730000D02*
X71190000Y-10980000D01*
X72862500Y-27522500D02*
X72870000Y-27530000D01*
X82387500Y-49302500D02*
X82320000Y-49370000D01*
X69300000Y-2500000D02*
X68100000Y-3700000D01*
X72862500Y-22750000D02*
X72862500Y-27522500D01*
X33810000Y-29230000D02*
X74570000Y-29230000D01*
X72040000Y-16510000D02*
X74062500Y-16510000D01*
X83587500Y-35560000D02*
X83587500Y-40600000D01*
X85780000Y-54610000D02*
X93100000Y-54610000D01*
X71940000Y-16610000D02*
X72040000Y-16510000D01*
X-3060000Y-30640000D02*
X-1290000Y-30640000D01*
X74062500Y-21550000D02*
X72862500Y-22750000D01*
X83587500Y-40600000D02*
X82387500Y-41800000D01*
X68100000Y-7640000D02*
X71190000Y-10730000D01*
X80800000Y-35640000D02*
X81200000Y-35640000D01*
X69300000Y2540000D02*
X69300000Y-2500000D01*
X74570000Y-29230000D02*
X74585000Y-29245000D01*
X-8920000Y-62180000D02*
X-8900000Y-62200000D01*
%TO.N,Col5*%
X90800000Y-16510000D02*
X93112500Y-16510000D01*
X91912500Y-27672500D02*
X92010000Y-27770000D01*
X99140000Y-35560000D02*
X102637500Y-35560000D01*
X88350000Y-2500000D02*
X87150000Y-3700000D01*
X93112500Y-16510000D02*
X93112500Y-21550000D01*
X99030000Y-35670000D02*
X99140000Y-35560000D01*
X101370000Y-45820000D02*
X101437500Y-45752500D01*
X88350000Y2540000D02*
X88350000Y-2500000D01*
X102637500Y-35560000D02*
X102637500Y-40600000D01*
X93112500Y-21550000D02*
X91912500Y-22750000D01*
X90730000Y-16580000D02*
X90800000Y-16510000D01*
X87150000Y-3700000D02*
X90690000Y-7240000D01*
X102637500Y-40600000D02*
X101437500Y-41800000D01*
X98890000Y-35670000D02*
X99030000Y-35670000D01*
X90690000Y-7240000D02*
X90690000Y-8230000D01*
X101437500Y-45752500D02*
X101437500Y-41800000D01*
X91912500Y-22750000D02*
X91912500Y-27672500D01*
%TO.N,Net-(D22-A)*%
X115137500Y-33020000D02*
X112337500Y-35820000D01*
X115205000Y-44000000D02*
X117485000Y-46280000D01*
X112337500Y-44000000D02*
X115205000Y-44000000D01*
X112337500Y-35820000D02*
X112337500Y-44000000D01*
%TO.N,GND*%
X-4060000Y-54883000D02*
X-1202000Y-52025000D01*
%TO.N,Net-(J1-Pin_2)*%
X-6990000Y-16600000D02*
X-7090000Y-16700000D01*
X-7090000Y-16700000D02*
X-7090000Y-26350000D01*
X14810000Y-36730000D02*
X20970000Y-42890000D01*
X14810000Y-29360000D02*
X14810000Y-36730000D01*
%TD*%
M02*
