M48
; DRILL file {KiCad 8.0.7} date 2025-01-20T20:00:13+0900
; FORMAT={-:-/ absolute / metric / decimal}
; #@! TF.CreationDate,2025-01-20T20:00:13+09:00
; #@! TF.GenerationSoftware,Kicad,Pcbnew,8.0.7
; #@! TF.FileFunction,Plated,1,2,PTH
FMAT,2
METRIC
; #@! TA.AperFunction,Plated,PTH,ViaDrill
T1C0.300
; #@! TA.AperFunction,Plated,PTH,ComponentDrill
T2C0.500
; #@! TA.AperFunction,Plated,PTH,ComponentDrill
T3C0.813
; #@! TA.AperFunction,Plated,PTH,ComponentDrill
T4C0.900
; #@! TA.AperFunction,Plated,PTH,ComponentDrill
T5C1.000
%
G90
G05
T1
X-8.92Y-30.67
X-8.9Y-62.2
X-8.32Y-8.28
X-7.77Y-29.69
X-7.09Y-26.35
X-4.06Y-59.17
X-3.06Y-30.64
X-2.3Y-27.74
X-2.25Y-35.19
X-1.29Y-30.64
X1.16Y-46.17
X1.83Y-8.29
X6.42Y-59.24
X9.69Y-6.72
X9.82Y-16.53
X10.0Y-46.17
X14.81Y-29.36
X15.59Y-35.76
X15.77Y-27.46
X20.97Y-42.89
X23.84Y-50.59
X23.87Y-65.42
X25.18Y-52.08
X25.26Y-49.08
X26.49Y-51.38
X26.51Y-52.98
X27.64Y-50.87
X27.64Y-52.97
X32.96Y-16.77
X33.01Y-7.99
X33.81Y-29.23
X41.52Y-27.71
X41.63Y-35.53
X44.29Y-46.48
X47.38Y-49.56
X49.08Y-8.45
X51.75Y-16.52
X53.95Y-27.42
X61.35Y-35.73
X63.37Y-46.24
X63.4Y-48.5
X71.19Y-10.98
X71.53Y-16.61
X72.87Y-27.53
X74.585Y-29.245
X80.8Y-35.64
X82.32Y-49.37
X85.72Y-54.67
X90.69Y-8.23
X90.73Y-16.58
X92.01Y-27.77
X98.89Y-35.67
X101.37Y-45.82
T3
X-6.6Y-48.85
X-6.6Y-64.09
X-4.06Y-48.85
X-4.06Y-64.09
X-1.52Y-48.85
X-1.52Y-64.09
X1.02Y-48.85
X1.02Y-64.09
X3.56Y-48.85
X3.56Y-64.09
X6.1Y-48.85
X6.1Y-64.09
X8.64Y-48.85
X8.64Y-64.09
T4
X18.45Y-59.9
X20.97Y-59.9
T5
X-1.202Y-52.025
X0.703Y-52.025
X10.332Y-60.305
X10.332Y-62.185
T2
G00X-6.99Y-11.75
M15
G01X-6.99Y-11.45
M16
G05
G00X-6.99Y-14.25
M15
G01X-6.99Y-13.95
M16
G05
G00X-6.99Y-16.75
M15
G01X-6.99Y-16.45
M16
G05
M30
