%TF.GenerationSoftware,KiCad,Pcbnew,8.0.7*%
%TF.CreationDate,2025-01-09T22:17:52+09:00*%
%TF.ProjectId,cool937tb_R,636f6f6c-3933-4377-9462-5f522e6b6963,rev?*%
%TF.SameCoordinates,Original*%
%TF.FileFunction,Legend,Top*%
%TF.FilePolarity,Positive*%
%FSLAX46Y46*%
G04 Gerber Fmt 4.6, Leading zero omitted, Abs format (unit mm)*
G04 Created by KiCad (PCBNEW 8.0.7) date 2025-01-09 22:17:52*
%MOMM*%
%LPD*%
G01*
G04 APERTURE LIST*
%ADD10C,0.100000*%
%ADD11C,0.150000*%
%ADD12C,0.127000*%
G04 APERTURE END LIST*
D10*
X91446666Y-70367419D02*
X91446666Y-71081704D01*
X91446666Y-71081704D02*
X91399047Y-71224561D01*
X91399047Y-71224561D02*
X91303809Y-71319800D01*
X91303809Y-71319800D02*
X91160952Y-71367419D01*
X91160952Y-71367419D02*
X91065714Y-71367419D01*
X92446666Y-71367419D02*
X91875238Y-71367419D01*
X92160952Y-71367419D02*
X92160952Y-70367419D01*
X92160952Y-70367419D02*
X92065714Y-70510276D01*
X92065714Y-70510276D02*
X91970476Y-70605514D01*
X91970476Y-70605514D02*
X91875238Y-70653133D01*
D11*
X94122916Y-23148569D02*
X94122916Y-23862854D01*
X94122916Y-23862854D02*
X94075297Y-24005711D01*
X94075297Y-24005711D02*
X93980059Y-24100950D01*
X93980059Y-24100950D02*
X93837202Y-24148569D01*
X93837202Y-24148569D02*
X93741964Y-24148569D01*
X94741964Y-23577140D02*
X94646726Y-23529521D01*
X94646726Y-23529521D02*
X94599107Y-23481902D01*
X94599107Y-23481902D02*
X94551488Y-23386664D01*
X94551488Y-23386664D02*
X94551488Y-23339045D01*
X94551488Y-23339045D02*
X94599107Y-23243807D01*
X94599107Y-23243807D02*
X94646726Y-23196188D01*
X94646726Y-23196188D02*
X94741964Y-23148569D01*
X94741964Y-23148569D02*
X94932440Y-23148569D01*
X94932440Y-23148569D02*
X95027678Y-23196188D01*
X95027678Y-23196188D02*
X95075297Y-23243807D01*
X95075297Y-23243807D02*
X95122916Y-23339045D01*
X95122916Y-23339045D02*
X95122916Y-23386664D01*
X95122916Y-23386664D02*
X95075297Y-23481902D01*
X95075297Y-23481902D02*
X95027678Y-23529521D01*
X95027678Y-23529521D02*
X94932440Y-23577140D01*
X94932440Y-23577140D02*
X94741964Y-23577140D01*
X94741964Y-23577140D02*
X94646726Y-23624759D01*
X94646726Y-23624759D02*
X94599107Y-23672378D01*
X94599107Y-23672378D02*
X94551488Y-23767616D01*
X94551488Y-23767616D02*
X94551488Y-23958092D01*
X94551488Y-23958092D02*
X94599107Y-24053330D01*
X94599107Y-24053330D02*
X94646726Y-24100950D01*
X94646726Y-24100950D02*
X94741964Y-24148569D01*
X94741964Y-24148569D02*
X94932440Y-24148569D01*
X94932440Y-24148569D02*
X95027678Y-24100950D01*
X95027678Y-24100950D02*
X95075297Y-24053330D01*
X95075297Y-24053330D02*
X95122916Y-23958092D01*
X95122916Y-23958092D02*
X95122916Y-23767616D01*
X95122916Y-23767616D02*
X95075297Y-23672378D01*
X95075297Y-23672378D02*
X95027678Y-23624759D01*
X95027678Y-23624759D02*
X94932440Y-23577140D01*
%TO.C,SW21*%
X120270000Y-9620000D02*
X123770000Y-9620000D01*
X120270000Y-18620000D02*
X120270000Y-9620000D01*
X123770000Y-9620000D02*
X123770000Y-18620000D01*
X123770000Y-18620000D02*
X120270000Y-18620000D01*
D12*
%TO.C,J8*%
X91916250Y-24923750D02*
X96996250Y-24923750D01*
X91916250Y-27463750D02*
X91916250Y-24923750D01*
X96996250Y-24923750D02*
X96996250Y-27463750D01*
X96996250Y-27463750D02*
X91916250Y-27463750D01*
%TD*%
M02*
