M48
; DRILL file {KiCad 8.0.7} date 2025-01-09T22:17:54+0900
; FORMAT={-:-/ absolute / metric / decimal}
; #@! TF.CreationDate,2025-01-09T22:17:54+09:00
; #@! TF.GenerationSoftware,Kicad,Pcbnew,8.0.7
; #@! TF.FileFunction,Plated,1,2,PTH
FMAT,2
METRIC
; #@! TA.AperFunction,Plated,PTH,ViaDrill
T1C0.300
; #@! TA.AperFunction,Plated,PTH,ComponentDrill
T2C0.500
; #@! TA.AperFunction,Plated,PTH,ComponentDrill
T3C0.813
; #@! TA.AperFunction,Plated,PTH,ComponentDrill
T4C0.900
; #@! TA.AperFunction,Plated,PTH,ComponentDrill
T5C1.000
%
G90
G05
T1
X4.92Y-10.11
X6.188Y-49.86
X9.76Y-29.78
X11.44Y-10.11
X19.23Y-49.03
X22.324Y-31.446
X28.74Y-29.78
X34.64Y-48.29
X35.962Y-12.04
X38.19Y-49.16
X43.02Y-10.58
X47.82Y-29.78
X57.43Y-49.16
X58.124Y-29.146
X62.1Y-10.58
X66.95Y-29.78
X68.53Y-10.58
X72.89Y-30.82
X74.01Y-12.04
X76.34Y-49.16
X79.57Y-27.78
X79.57Y-44.05
X83.47Y-31.34
X85.95Y-25.63
X95.77Y-29.18
X96.28Y-10.72
X99.55Y-10.04
X103.826Y-60.76
X103.84Y-44.36
X104.767Y-60.853
X105.87Y-10.01
X110.02Y-30.5
X110.7Y-59.358
X111.48Y-56.06
X111.6Y-59.96
X112.16Y-29.72
X117.341Y-59.931
X118.04Y-45.98
X119.47Y-42.35
X119.54Y-31.29
X121.21Y-26.64
X122.55Y-26.71
X122.56Y-30.8
T3
X105.566Y-49.8
X105.566Y-65.04
X108.106Y-49.8
X108.106Y-65.04
X110.646Y-49.8
X110.646Y-65.04
X113.186Y-49.8
X113.186Y-65.04
X115.726Y-49.8
X115.726Y-65.04
X118.266Y-49.8
X118.266Y-65.04
X120.806Y-49.8
X120.806Y-65.04
T4
X93.206Y-26.194
X95.726Y-26.194
T5
X91.78Y-63.79
X91.78Y-66.33
X91.78Y-68.87
X91.78Y-71.41
X91.78Y-73.95
X91.78Y-76.49
X91.78Y-79.03
X103.874Y-51.705
X103.874Y-53.585
X113.503Y-61.865
X115.408Y-61.865
T2
G00X121.22Y-11.47
M15
G01X121.22Y-11.77
M16
G05
G00X121.22Y-13.97
M15
G01X121.22Y-14.27
M16
G05
G00X121.22Y-16.47
M15
G01X121.22Y-16.77
M16
G05
M30
