%TF.GenerationSoftware,KiCad,Pcbnew,8.0.7*%
%TF.CreationDate,2025-01-09T22:17:52+09:00*%
%TF.ProjectId,cool937tb_R,636f6f6c-3933-4377-9462-5f522e6b6963,rev?*%
%TF.SameCoordinates,Original*%
%TF.FileFunction,Copper,L1,Top*%
%TF.FilePolarity,Positive*%
%FSLAX46Y46*%
G04 Gerber Fmt 4.6, Leading zero omitted, Abs format (unit mm)*
G04 Created by KiCad (PCBNEW 8.0.7) date 2025-01-09 22:17:52*
%MOMM*%
%LPD*%
G01*
G04 APERTURE LIST*
%TA.AperFunction,ComponentPad*%
%ADD10O,1.000000X1.300000*%
%TD*%
%TA.AperFunction,ComponentPad*%
%ADD11R,1.700000X1.700000*%
%TD*%
%TA.AperFunction,ComponentPad*%
%ADD12O,1.700000X1.700000*%
%TD*%
%TA.AperFunction,ComponentPad*%
%ADD13R,1.600000X1.600000*%
%TD*%
%TA.AperFunction,ComponentPad*%
%ADD14C,1.600000*%
%TD*%
%TA.AperFunction,ComponentPad*%
%ADD15O,1.800000X2.750000*%
%TD*%
%TA.AperFunction,ComponentPad*%
%ADD16C,1.500000*%
%TD*%
%TA.AperFunction,ViaPad*%
%ADD17C,0.600000*%
%TD*%
%TA.AperFunction,Conductor*%
%ADD18C,0.200000*%
%TD*%
G04 APERTURE END LIST*
D10*
%TO.P,SW21,1,A*%
%TO.N,unconnected-(SW21-A-Pad1)*%
X121220000Y-11620000D03*
%TO.P,SW21,2,B*%
%TO.N,Bat*%
X121220000Y-14120000D03*
%TO.P,SW21,3,C*%
%TO.N,Net-(J8-Pin_2)*%
X121220000Y-16620000D03*
%TD*%
D11*
%TO.P,J1,1,SCLK*%
%TO.N,SCLK*%
X91780000Y-63790000D03*
D12*
%TO.P,J1,2,nCS*%
%TO.N,CS*%
X91780000Y-66330000D03*
%TO.P,J1,3,GND*%
%TO.N,GND*%
X91780000Y-68870000D03*
%TO.P,J1,4,Vin*%
%TO.N,3.3V*%
X91780000Y-71410000D03*
%TO.P,J1,5,nc*%
%TO.N,unconnected-(J1-nc-Pad5)*%
X91780000Y-73950000D03*
%TO.P,J1,6,SDIO*%
%TO.N,SDIO*%
X91780000Y-76490000D03*
%TO.P,J1,7,MOTION*%
%TO.N,MOTION*%
X91780000Y-79030000D03*
%TD*%
D13*
%TO.P,J8,1,Pin_1*%
%TO.N,GND*%
X93206250Y-26193750D03*
D14*
%TO.P,J8,2,Pin_2*%
%TO.N,Net-(J8-Pin_2)*%
X95726250Y-26193750D03*
%TD*%
D15*
%TO.P,U1,1,P0.02_A0_D0*%
%TO.N,MOTION*%
X120806000Y-65540000D03*
%TO.P,U1,2,P0.03_A1_D1*%
%TO.N,Row0*%
X118266000Y-65540000D03*
%TO.P,U1,3,P0.28_A2_D2*%
%TO.N,Row1*%
X115726000Y-65540000D03*
%TO.P,U1,4,P0.29_A3_D3*%
%TO.N,Row2*%
X113186000Y-65540000D03*
%TO.P,U1,5,P0.04_A4_D4_SDA*%
%TO.N,SDIO*%
X110646000Y-65540000D03*
%TO.P,U1,6,P0.05_A5_D5_SCL*%
%TO.N,SCLK*%
X108106000Y-65540000D03*
%TO.P,U1,7,P1.11_D6_TX*%
%TO.N,Row3*%
X105566000Y-65540000D03*
%TO.P,U1,8,P1.12_D7_RX*%
%TO.N,Col3*%
X105566000Y-49300000D03*
%TO.P,U1,9,P1.13_D8_SCK*%
%TO.N,Col2*%
X108106000Y-49300000D03*
%TO.P,U1,10,P1.14_D9_MISO*%
%TO.N,Col1*%
X110646000Y-49300000D03*
%TO.P,U1,11,P1.15_D10_MOSI*%
%TO.N,Col0*%
X113186000Y-49300000D03*
%TO.P,U1,12,3V3*%
%TO.N,3.3V*%
X115726000Y-49300000D03*
%TO.P,U1,13,GND*%
%TO.N,GND*%
X118266000Y-49300000D03*
%TO.P,U1,14,5V*%
%TO.N,VCC*%
X120806000Y-49300000D03*
D16*
%TO.P,U1,15,NFC1_0.09*%
%TO.N,CS*%
X103874000Y-53584600D03*
%TO.P,U1,16,NFC2_0.10*%
%TO.N,Col4*%
X103874000Y-51705000D03*
%TO.P,U1,20,BATT+*%
%TO.N,Bat*%
X113503000Y-61865000D03*
%TO.P,U1,21,BATT-*%
%TO.N,GND*%
X115408000Y-61865000D03*
%TD*%
D17*
%TO.N,Col4*%
X103840000Y-44360000D03*
%TO.N,Col3*%
X95770000Y-29180000D03*
X58123750Y-29146250D03*
%TO.N,Col2*%
X74010000Y-12040000D03*
X35962500Y-12040000D03*
X110020000Y-30500000D03*
X72890000Y-30820000D03*
%TO.N,Col1*%
X119470000Y-42350000D03*
X119540000Y-31290000D03*
X83470000Y-31340000D03*
X22323750Y-31446250D03*
%TO.N,Col0*%
X6187500Y-49860000D03*
X111480000Y-56060000D03*
%TO.N,3.3V*%
X111600000Y-59960000D03*
%TO.N,SCLK*%
X103826000Y-60760000D03*
%TO.N,CS*%
X104767265Y-60852735D03*
%TO.N,GND*%
X110700000Y-59358411D03*
X117341500Y-59931500D03*
%TO.N,Row3*%
X85950000Y-25630000D03*
X79570000Y-44050000D03*
X105870000Y-10010000D03*
X79570000Y-27780000D03*
X34640000Y-48290000D03*
X99550000Y-10040000D03*
%TO.N,Row2*%
X38190000Y-49160000D03*
X57430000Y-49160000D03*
X19230000Y-49030000D03*
X118040000Y-45980000D03*
X76340000Y-49160000D03*
%TO.N,Row1*%
X112160000Y-29720000D03*
X66950000Y-29780000D03*
X9760000Y-29780000D03*
X28740000Y-29780000D03*
X47820000Y-29780000D03*
%TO.N,Row0*%
X11440000Y-10110000D03*
X43020000Y-10580000D03*
X96280000Y-10720000D03*
X62100000Y-10580000D03*
X68530000Y-10580000D03*
X4920000Y-10110000D03*
%TO.N,Bat*%
X122560000Y-30800000D03*
X122550000Y-26710000D03*
%TO.N,Net-(J8-Pin_2)*%
X121210000Y-26640000D03*
%TD*%
D18*
%TO.N,SCLK*%
X91780000Y-63790000D02*
X100796000Y-63790000D01*
X100796000Y-63790000D02*
X103826000Y-60760000D01*
%TO.N,CS*%
X91780000Y-66330000D02*
X99290000Y-66330000D01*
X99290000Y-66330000D02*
X104767265Y-60852735D01*
%TO.N,GND*%
X102618529Y-63850000D02*
X102694264Y-63774264D01*
X102694264Y-63774264D02*
X107110118Y-59358411D01*
X91780000Y-68870000D02*
X97598528Y-68870000D01*
X97598528Y-68870000D02*
X102694264Y-63774264D01*
%TO.N,3.3V*%
X98654215Y-68380000D02*
X98867108Y-68167108D01*
X98867108Y-68167108D02*
X106792108Y-60242107D01*
X91780000Y-71410000D02*
X95624216Y-71410000D01*
X95624216Y-71410000D02*
X98867108Y-68167108D01*
%TO.N,Col4*%
X103874000Y-44394000D02*
X103840000Y-44360000D01*
X103874000Y-51705000D02*
X103874000Y-44394000D01*
%TO.N,Col3*%
X95770000Y-29180000D02*
X58157500Y-29180000D01*
X58157500Y-29180000D02*
X58123750Y-29146250D01*
%TO.N,Col2*%
X110020000Y-30500000D02*
X73210000Y-30500000D01*
X73210000Y-30500000D02*
X72890000Y-30820000D01*
X74010000Y-12040000D02*
X35962500Y-12040000D01*
%TO.N,Col1*%
X119430000Y-31400000D02*
X119540000Y-31290000D01*
X117243529Y-47625000D02*
X111115000Y-47625000D01*
X110646000Y-48094000D02*
X110646000Y-49800000D01*
X22350000Y-31420000D02*
X22323750Y-31446250D01*
X83390000Y-31420000D02*
X22350000Y-31420000D01*
X83530000Y-31400000D02*
X83470000Y-31340000D01*
X83470000Y-31340000D02*
X83390000Y-31420000D01*
X119470000Y-45398529D02*
X117243529Y-47625000D01*
X99100000Y-31400000D02*
X119430000Y-31400000D01*
X111115000Y-47625000D02*
X110646000Y-48094000D01*
X99100000Y-31400000D02*
X83530000Y-31400000D01*
X119470000Y-42350000D02*
X119470000Y-45398529D01*
%TO.N,Col0*%
X31140000Y-51530000D02*
X32360025Y-50309975D01*
X78815711Y-50309975D02*
X84445686Y-44680000D01*
X32360025Y-50309975D02*
X78815711Y-50309975D01*
X25994314Y-49940000D02*
X27584314Y-51530000D01*
X88480000Y-44680000D02*
X99860000Y-56060000D01*
X6187500Y-49860000D02*
X6267500Y-49940000D01*
X27584314Y-51530000D02*
X31140000Y-51530000D01*
X99860000Y-56060000D02*
X111480000Y-56060000D01*
X6267500Y-49940000D02*
X25994314Y-49940000D01*
X84445686Y-44680000D02*
X88480000Y-44680000D01*
%TO.N,3.3V*%
X106792108Y-60242107D02*
X107074215Y-59960000D01*
X107074215Y-59960000D02*
X111600000Y-59960000D01*
%TO.N,GND*%
X107110118Y-59358411D02*
X110700000Y-59358411D01*
X110700000Y-59358411D02*
X116768411Y-59358411D01*
X116768411Y-59358411D02*
X117341500Y-59931500D01*
%TO.N,Row3*%
X99550000Y-12030000D02*
X99550000Y-10040000D01*
X79570000Y-44050000D02*
X75330000Y-48290000D01*
X85950000Y-25630000D02*
X83800000Y-27780000D01*
X75330000Y-48290000D02*
X34640000Y-48290000D01*
X83800000Y-27780000D02*
X79570000Y-27780000D01*
X99580000Y-10010000D02*
X99550000Y-10040000D01*
X105870000Y-10010000D02*
X99580000Y-10010000D01*
X85950000Y-25630000D02*
X99550000Y-12030000D01*
%TO.N,Row2*%
X38190000Y-49160000D02*
X57430000Y-49160000D01*
X96740000Y-41870000D02*
X98410000Y-40200000D01*
X27750000Y-51130000D02*
X30950000Y-51130000D01*
X98410000Y-40200000D02*
X108080000Y-40200000D01*
X19230000Y-49030000D02*
X25650000Y-49030000D01*
X30950000Y-51130000D02*
X32920000Y-49160000D01*
X32920000Y-49160000D02*
X38190000Y-49160000D01*
X79400000Y-49160000D02*
X84280000Y-44280000D01*
X118040000Y-45980000D02*
X113190000Y-45980000D01*
X84280000Y-44280000D02*
X87944758Y-44280000D01*
X110318750Y-45278750D02*
X111020000Y-45980000D01*
X76340000Y-49160000D02*
X79400000Y-49160000D01*
X110318750Y-42438750D02*
X110318750Y-45278750D01*
X113186000Y-45984000D02*
X113190000Y-45980000D01*
X90354758Y-41870000D02*
X96740000Y-41870000D01*
X87944758Y-44280000D02*
X90354758Y-41870000D01*
X25650000Y-49030000D02*
X27750000Y-51130000D01*
X108080000Y-40200000D02*
X110318750Y-42438750D01*
X111020000Y-45980000D02*
X113190000Y-45980000D01*
X57430000Y-49160000D02*
X76340000Y-49160000D01*
%TO.N,Row1*%
X9760000Y-29780000D02*
X28740000Y-29780000D01*
X47820000Y-29780000D02*
X66950000Y-29780000D01*
X28740000Y-29780000D02*
X47820000Y-29780000D01*
X66950000Y-29780000D02*
X112100000Y-29780000D01*
X115726000Y-65172056D02*
X115726000Y-65040000D01*
X112100000Y-29780000D02*
X112160000Y-29720000D01*
%TO.N,Row0*%
X81490000Y-10580000D02*
X68530000Y-10580000D01*
X30690000Y-12370000D02*
X26560000Y-12370000D01*
X68530000Y-10580000D02*
X62100000Y-10580000D01*
X24300000Y-10110000D02*
X11440000Y-10110000D01*
X89780000Y-10720000D02*
X88140000Y-12360000D01*
X43020000Y-10580000D02*
X32480000Y-10580000D01*
X11440000Y-10110000D02*
X4920000Y-10110000D01*
X32480000Y-10580000D02*
X30690000Y-12370000D01*
X96280000Y-10720000D02*
X89780000Y-10720000D01*
X26560000Y-12370000D02*
X24300000Y-10110000D01*
X62100000Y-10580000D02*
X43020000Y-10580000D01*
X83270000Y-12360000D02*
X81490000Y-10580000D01*
X88140000Y-12360000D02*
X83270000Y-12360000D01*
%TO.N,Bat*%
X122550000Y-30430000D02*
X122550000Y-26710000D01*
X122560000Y-30440000D02*
X122550000Y-30430000D01*
X122560000Y-30800000D02*
X122560000Y-30440000D01*
%TO.N,Net-(J8-Pin_2)*%
X95726250Y-26193750D02*
X96082500Y-26550000D01*
X121120000Y-26550000D02*
X121210000Y-26640000D01*
X96082500Y-26550000D02*
X121120000Y-26550000D01*
%TD*%
M02*
