%TF.GenerationSoftware,KiCad,Pcbnew,8.0.7*%
%TF.CreationDate,2025-02-24T15:42:20+09:00*%
%TF.ProjectId,pmw3610_breakout,706d7733-3631-4305-9f62-7265616b6f75,rev?*%
%TF.SameCoordinates,Original*%
%TF.FileFunction,Legend,Bot*%
%TF.FilePolarity,Positive*%
%FSLAX46Y46*%
G04 Gerber Fmt 4.6, Leading zero omitted, Abs format (unit mm)*
G04 Created by KiCad (PCBNEW 8.0.7) date 2025-02-24 15:42:20*
%MOMM*%
%LPD*%
G01*
G04 APERTURE LIST*
%ADD10C,0.100000*%
%ADD11C,0.300000*%
%ADD12C,0.062500*%
%ADD13C,0.150000*%
%ADD14C,0.120000*%
G04 APERTURE END LIST*
D10*
X139202380Y-96700276D02*
X139202380Y-97200276D01*
X139202380Y-96724085D02*
X139154761Y-96700276D01*
X139154761Y-96700276D02*
X139059523Y-96700276D01*
X139059523Y-96700276D02*
X139011904Y-96724085D01*
X139011904Y-96724085D02*
X138988094Y-96747895D01*
X138988094Y-96747895D02*
X138964285Y-96795514D01*
X138964285Y-96795514D02*
X138964285Y-96938371D01*
X138964285Y-96938371D02*
X138988094Y-96985990D01*
X138988094Y-96985990D02*
X139011904Y-97009800D01*
X139011904Y-97009800D02*
X139059523Y-97033609D01*
X139059523Y-97033609D02*
X139154761Y-97033609D01*
X139154761Y-97033609D02*
X139202380Y-97009800D01*
X138749999Y-97033609D02*
X138749999Y-96700276D01*
X138749999Y-96747895D02*
X138726189Y-96724085D01*
X138726189Y-96724085D02*
X138678570Y-96700276D01*
X138678570Y-96700276D02*
X138607142Y-96700276D01*
X138607142Y-96700276D02*
X138559523Y-96724085D01*
X138559523Y-96724085D02*
X138535713Y-96771704D01*
X138535713Y-96771704D02*
X138535713Y-97033609D01*
X138535713Y-96771704D02*
X138511904Y-96724085D01*
X138511904Y-96724085D02*
X138464285Y-96700276D01*
X138464285Y-96700276D02*
X138392856Y-96700276D01*
X138392856Y-96700276D02*
X138345237Y-96724085D01*
X138345237Y-96724085D02*
X138321427Y-96771704D01*
X138321427Y-96771704D02*
X138321427Y-97033609D01*
X138130951Y-96700276D02*
X138035713Y-97033609D01*
X138035713Y-97033609D02*
X137940475Y-96795514D01*
X137940475Y-96795514D02*
X137845237Y-97033609D01*
X137845237Y-97033609D02*
X137749999Y-96700276D01*
X137607141Y-96533609D02*
X137297617Y-96533609D01*
X137297617Y-96533609D02*
X137464284Y-96724085D01*
X137464284Y-96724085D02*
X137392855Y-96724085D01*
X137392855Y-96724085D02*
X137345236Y-96747895D01*
X137345236Y-96747895D02*
X137321427Y-96771704D01*
X137321427Y-96771704D02*
X137297617Y-96819323D01*
X137297617Y-96819323D02*
X137297617Y-96938371D01*
X137297617Y-96938371D02*
X137321427Y-96985990D01*
X137321427Y-96985990D02*
X137345236Y-97009800D01*
X137345236Y-97009800D02*
X137392855Y-97033609D01*
X137392855Y-97033609D02*
X137535712Y-97033609D01*
X137535712Y-97033609D02*
X137583331Y-97009800D01*
X137583331Y-97009800D02*
X137607141Y-96985990D01*
X136869046Y-96533609D02*
X136964284Y-96533609D01*
X136964284Y-96533609D02*
X137011903Y-96557419D01*
X137011903Y-96557419D02*
X137035713Y-96581228D01*
X137035713Y-96581228D02*
X137083332Y-96652657D01*
X137083332Y-96652657D02*
X137107141Y-96747895D01*
X137107141Y-96747895D02*
X137107141Y-96938371D01*
X137107141Y-96938371D02*
X137083332Y-96985990D01*
X137083332Y-96985990D02*
X137059522Y-97009800D01*
X137059522Y-97009800D02*
X137011903Y-97033609D01*
X137011903Y-97033609D02*
X136916665Y-97033609D01*
X136916665Y-97033609D02*
X136869046Y-97009800D01*
X136869046Y-97009800D02*
X136845237Y-96985990D01*
X136845237Y-96985990D02*
X136821427Y-96938371D01*
X136821427Y-96938371D02*
X136821427Y-96819323D01*
X136821427Y-96819323D02*
X136845237Y-96771704D01*
X136845237Y-96771704D02*
X136869046Y-96747895D01*
X136869046Y-96747895D02*
X136916665Y-96724085D01*
X136916665Y-96724085D02*
X137011903Y-96724085D01*
X137011903Y-96724085D02*
X137059522Y-96747895D01*
X137059522Y-96747895D02*
X137083332Y-96771704D01*
X137083332Y-96771704D02*
X137107141Y-96819323D01*
X136345237Y-97033609D02*
X136630951Y-97033609D01*
X136488094Y-97033609D02*
X136488094Y-96533609D01*
X136488094Y-96533609D02*
X136535713Y-96605038D01*
X136535713Y-96605038D02*
X136583332Y-96652657D01*
X136583332Y-96652657D02*
X136630951Y-96676466D01*
X136035714Y-96533609D02*
X135988095Y-96533609D01*
X135988095Y-96533609D02*
X135940476Y-96557419D01*
X135940476Y-96557419D02*
X135916666Y-96581228D01*
X135916666Y-96581228D02*
X135892857Y-96628847D01*
X135892857Y-96628847D02*
X135869047Y-96724085D01*
X135869047Y-96724085D02*
X135869047Y-96843133D01*
X135869047Y-96843133D02*
X135892857Y-96938371D01*
X135892857Y-96938371D02*
X135916666Y-96985990D01*
X135916666Y-96985990D02*
X135940476Y-97009800D01*
X135940476Y-97009800D02*
X135988095Y-97033609D01*
X135988095Y-97033609D02*
X136035714Y-97033609D01*
X136035714Y-97033609D02*
X136083333Y-97009800D01*
X136083333Y-97009800D02*
X136107142Y-96985990D01*
X136107142Y-96985990D02*
X136130952Y-96938371D01*
X136130952Y-96938371D02*
X136154761Y-96843133D01*
X136154761Y-96843133D02*
X136154761Y-96724085D01*
X136154761Y-96724085D02*
X136130952Y-96628847D01*
X136130952Y-96628847D02*
X136107142Y-96581228D01*
X136107142Y-96581228D02*
X136083333Y-96557419D01*
X136083333Y-96557419D02*
X136035714Y-96533609D01*
X135273810Y-97033609D02*
X135273810Y-96700276D01*
X135273810Y-96747895D02*
X135250000Y-96724085D01*
X135250000Y-96724085D02*
X135202381Y-96700276D01*
X135202381Y-96700276D02*
X135130953Y-96700276D01*
X135130953Y-96700276D02*
X135083334Y-96724085D01*
X135083334Y-96724085D02*
X135059524Y-96771704D01*
X135059524Y-96771704D02*
X135059524Y-97033609D01*
X135059524Y-96771704D02*
X135035715Y-96724085D01*
X135035715Y-96724085D02*
X134988096Y-96700276D01*
X134988096Y-96700276D02*
X134916667Y-96700276D01*
X134916667Y-96700276D02*
X134869048Y-96724085D01*
X134869048Y-96724085D02*
X134845238Y-96771704D01*
X134845238Y-96771704D02*
X134845238Y-97033609D01*
X134535714Y-97033609D02*
X134583333Y-97009800D01*
X134583333Y-97009800D02*
X134607143Y-96985990D01*
X134607143Y-96985990D02*
X134630952Y-96938371D01*
X134630952Y-96938371D02*
X134630952Y-96795514D01*
X134630952Y-96795514D02*
X134607143Y-96747895D01*
X134607143Y-96747895D02*
X134583333Y-96724085D01*
X134583333Y-96724085D02*
X134535714Y-96700276D01*
X134535714Y-96700276D02*
X134464286Y-96700276D01*
X134464286Y-96700276D02*
X134416667Y-96724085D01*
X134416667Y-96724085D02*
X134392857Y-96747895D01*
X134392857Y-96747895D02*
X134369048Y-96795514D01*
X134369048Y-96795514D02*
X134369048Y-96938371D01*
X134369048Y-96938371D02*
X134392857Y-96985990D01*
X134392857Y-96985990D02*
X134416667Y-97009800D01*
X134416667Y-97009800D02*
X134464286Y-97033609D01*
X134464286Y-97033609D02*
X134535714Y-97033609D01*
X133940476Y-97033609D02*
X133940476Y-96533609D01*
X133940476Y-97009800D02*
X133988095Y-97033609D01*
X133988095Y-97033609D02*
X134083333Y-97033609D01*
X134083333Y-97033609D02*
X134130952Y-97009800D01*
X134130952Y-97009800D02*
X134154762Y-96985990D01*
X134154762Y-96985990D02*
X134178571Y-96938371D01*
X134178571Y-96938371D02*
X134178571Y-96795514D01*
X134178571Y-96795514D02*
X134154762Y-96747895D01*
X134154762Y-96747895D02*
X134130952Y-96724085D01*
X134130952Y-96724085D02*
X134083333Y-96700276D01*
X134083333Y-96700276D02*
X133988095Y-96700276D01*
X133988095Y-96700276D02*
X133940476Y-96724085D01*
X133488095Y-96700276D02*
X133488095Y-97033609D01*
X133702381Y-96700276D02*
X133702381Y-96962180D01*
X133702381Y-96962180D02*
X133678571Y-97009800D01*
X133678571Y-97009800D02*
X133630952Y-97033609D01*
X133630952Y-97033609D02*
X133559524Y-97033609D01*
X133559524Y-97033609D02*
X133511905Y-97009800D01*
X133511905Y-97009800D02*
X133488095Y-96985990D01*
X133178571Y-97033609D02*
X133226190Y-97009800D01*
X133226190Y-97009800D02*
X133250000Y-96962180D01*
X133250000Y-96962180D02*
X133250000Y-96533609D01*
X132797619Y-97009800D02*
X132845238Y-97033609D01*
X132845238Y-97033609D02*
X132940476Y-97033609D01*
X132940476Y-97033609D02*
X132988095Y-97009800D01*
X132988095Y-97009800D02*
X133011904Y-96962180D01*
X133011904Y-96962180D02*
X133011904Y-96771704D01*
X133011904Y-96771704D02*
X132988095Y-96724085D01*
X132988095Y-96724085D02*
X132940476Y-96700276D01*
X132940476Y-96700276D02*
X132845238Y-96700276D01*
X132845238Y-96700276D02*
X132797619Y-96724085D01*
X132797619Y-96724085D02*
X132773809Y-96771704D01*
X132773809Y-96771704D02*
X132773809Y-96819323D01*
X132773809Y-96819323D02*
X133011904Y-96866942D01*
D11*
X145734885Y-90845489D02*
X145734885Y-91345489D01*
X144949171Y-91345489D02*
X146449171Y-91345489D01*
X146449171Y-91345489D02*
X146449171Y-90631203D01*
X144949171Y-90059775D02*
X145949171Y-90059775D01*
X145663457Y-90059775D02*
X145806314Y-89988346D01*
X145806314Y-89988346D02*
X145877742Y-89916918D01*
X145877742Y-89916918D02*
X145949171Y-89774060D01*
X145949171Y-89774060D02*
X145949171Y-89631203D01*
X144949171Y-88916918D02*
X145020600Y-89059775D01*
X145020600Y-89059775D02*
X145092028Y-89131204D01*
X145092028Y-89131204D02*
X145234885Y-89202632D01*
X145234885Y-89202632D02*
X145663457Y-89202632D01*
X145663457Y-89202632D02*
X145806314Y-89131204D01*
X145806314Y-89131204D02*
X145877742Y-89059775D01*
X145877742Y-89059775D02*
X145949171Y-88916918D01*
X145949171Y-88916918D02*
X145949171Y-88702632D01*
X145949171Y-88702632D02*
X145877742Y-88559775D01*
X145877742Y-88559775D02*
X145806314Y-88488347D01*
X145806314Y-88488347D02*
X145663457Y-88416918D01*
X145663457Y-88416918D02*
X145234885Y-88416918D01*
X145234885Y-88416918D02*
X145092028Y-88488347D01*
X145092028Y-88488347D02*
X145020600Y-88559775D01*
X145020600Y-88559775D02*
X144949171Y-88702632D01*
X144949171Y-88702632D02*
X144949171Y-88916918D01*
X145949171Y-87774061D02*
X144949171Y-87774061D01*
X145806314Y-87774061D02*
X145877742Y-87702632D01*
X145877742Y-87702632D02*
X145949171Y-87559775D01*
X145949171Y-87559775D02*
X145949171Y-87345489D01*
X145949171Y-87345489D02*
X145877742Y-87202632D01*
X145877742Y-87202632D02*
X145734885Y-87131204D01*
X145734885Y-87131204D02*
X144949171Y-87131204D01*
X145949171Y-86631203D02*
X145949171Y-86059775D01*
X146449171Y-86416918D02*
X145163457Y-86416918D01*
X145163457Y-86416918D02*
X145020600Y-86345489D01*
X145020600Y-86345489D02*
X144949171Y-86202632D01*
X144949171Y-86202632D02*
X144949171Y-86059775D01*
X145020600Y-84488346D02*
X144949171Y-84345489D01*
X144949171Y-84345489D02*
X144949171Y-84059775D01*
X144949171Y-84059775D02*
X145020600Y-83916918D01*
X145020600Y-83916918D02*
X145163457Y-83845489D01*
X145163457Y-83845489D02*
X145234885Y-83845489D01*
X145234885Y-83845489D02*
X145377742Y-83916918D01*
X145377742Y-83916918D02*
X145449171Y-84059775D01*
X145449171Y-84059775D02*
X145449171Y-84274061D01*
X145449171Y-84274061D02*
X145520600Y-84416918D01*
X145520600Y-84416918D02*
X145663457Y-84488346D01*
X145663457Y-84488346D02*
X145734885Y-84488346D01*
X145734885Y-84488346D02*
X145877742Y-84416918D01*
X145877742Y-84416918D02*
X145949171Y-84274061D01*
X145949171Y-84274061D02*
X145949171Y-84059775D01*
X145949171Y-84059775D02*
X145877742Y-83916918D01*
X144949171Y-83202632D02*
X145949171Y-83202632D01*
X146449171Y-83202632D02*
X146377742Y-83274060D01*
X146377742Y-83274060D02*
X146306314Y-83202632D01*
X146306314Y-83202632D02*
X146377742Y-83131203D01*
X146377742Y-83131203D02*
X146449171Y-83202632D01*
X146449171Y-83202632D02*
X146306314Y-83202632D01*
X144949171Y-81845489D02*
X146449171Y-81845489D01*
X145020600Y-81845489D02*
X144949171Y-81988346D01*
X144949171Y-81988346D02*
X144949171Y-82274060D01*
X144949171Y-82274060D02*
X145020600Y-82416917D01*
X145020600Y-82416917D02*
X145092028Y-82488346D01*
X145092028Y-82488346D02*
X145234885Y-82559774D01*
X145234885Y-82559774D02*
X145663457Y-82559774D01*
X145663457Y-82559774D02*
X145806314Y-82488346D01*
X145806314Y-82488346D02*
X145877742Y-82416917D01*
X145877742Y-82416917D02*
X145949171Y-82274060D01*
X145949171Y-82274060D02*
X145949171Y-81988346D01*
X145949171Y-81988346D02*
X145877742Y-81845489D01*
X145020600Y-80559774D02*
X144949171Y-80702631D01*
X144949171Y-80702631D02*
X144949171Y-80988346D01*
X144949171Y-80988346D02*
X145020600Y-81131203D01*
X145020600Y-81131203D02*
X145163457Y-81202631D01*
X145163457Y-81202631D02*
X145734885Y-81202631D01*
X145734885Y-81202631D02*
X145877742Y-81131203D01*
X145877742Y-81131203D02*
X145949171Y-80988346D01*
X145949171Y-80988346D02*
X145949171Y-80702631D01*
X145949171Y-80702631D02*
X145877742Y-80559774D01*
X145877742Y-80559774D02*
X145734885Y-80488346D01*
X145734885Y-80488346D02*
X145592028Y-80488346D01*
X145592028Y-80488346D02*
X145449171Y-81202631D01*
D12*
X139633333Y-99750440D02*
X139657142Y-99774250D01*
X139657142Y-99774250D02*
X139728571Y-99798059D01*
X139728571Y-99798059D02*
X139776190Y-99798059D01*
X139776190Y-99798059D02*
X139847618Y-99774250D01*
X139847618Y-99774250D02*
X139895237Y-99726630D01*
X139895237Y-99726630D02*
X139919047Y-99679011D01*
X139919047Y-99679011D02*
X139942856Y-99583773D01*
X139942856Y-99583773D02*
X139942856Y-99512345D01*
X139942856Y-99512345D02*
X139919047Y-99417107D01*
X139919047Y-99417107D02*
X139895237Y-99369488D01*
X139895237Y-99369488D02*
X139847618Y-99321869D01*
X139847618Y-99321869D02*
X139776190Y-99298059D01*
X139776190Y-99298059D02*
X139728571Y-99298059D01*
X139728571Y-99298059D02*
X139657142Y-99321869D01*
X139657142Y-99321869D02*
X139633333Y-99345678D01*
X139442856Y-99345678D02*
X139419047Y-99321869D01*
X139419047Y-99321869D02*
X139371428Y-99298059D01*
X139371428Y-99298059D02*
X139252380Y-99298059D01*
X139252380Y-99298059D02*
X139204761Y-99321869D01*
X139204761Y-99321869D02*
X139180952Y-99345678D01*
X139180952Y-99345678D02*
X139157142Y-99393297D01*
X139157142Y-99393297D02*
X139157142Y-99440916D01*
X139157142Y-99440916D02*
X139180952Y-99512345D01*
X139180952Y-99512345D02*
X139466666Y-99798059D01*
X139466666Y-99798059D02*
X139157142Y-99798059D01*
X127908333Y-83750440D02*
X127932142Y-83774250D01*
X127932142Y-83774250D02*
X128003571Y-83798059D01*
X128003571Y-83798059D02*
X128051190Y-83798059D01*
X128051190Y-83798059D02*
X128122618Y-83774250D01*
X128122618Y-83774250D02*
X128170237Y-83726630D01*
X128170237Y-83726630D02*
X128194047Y-83679011D01*
X128194047Y-83679011D02*
X128217856Y-83583773D01*
X128217856Y-83583773D02*
X128217856Y-83512345D01*
X128217856Y-83512345D02*
X128194047Y-83417107D01*
X128194047Y-83417107D02*
X128170237Y-83369488D01*
X128170237Y-83369488D02*
X128122618Y-83321869D01*
X128122618Y-83321869D02*
X128051190Y-83298059D01*
X128051190Y-83298059D02*
X128003571Y-83298059D01*
X128003571Y-83298059D02*
X127932142Y-83321869D01*
X127932142Y-83321869D02*
X127908333Y-83345678D01*
X127741666Y-83298059D02*
X127408333Y-83298059D01*
X127408333Y-83298059D02*
X127622618Y-83798059D01*
X129133333Y-99750440D02*
X129157142Y-99774250D01*
X129157142Y-99774250D02*
X129228571Y-99798059D01*
X129228571Y-99798059D02*
X129276190Y-99798059D01*
X129276190Y-99798059D02*
X129347618Y-99774250D01*
X129347618Y-99774250D02*
X129395237Y-99726630D01*
X129395237Y-99726630D02*
X129419047Y-99679011D01*
X129419047Y-99679011D02*
X129442856Y-99583773D01*
X129442856Y-99583773D02*
X129442856Y-99512345D01*
X129442856Y-99512345D02*
X129419047Y-99417107D01*
X129419047Y-99417107D02*
X129395237Y-99369488D01*
X129395237Y-99369488D02*
X129347618Y-99321869D01*
X129347618Y-99321869D02*
X129276190Y-99298059D01*
X129276190Y-99298059D02*
X129228571Y-99298059D01*
X129228571Y-99298059D02*
X129157142Y-99321869D01*
X129157142Y-99321869D02*
X129133333Y-99345678D01*
X128680952Y-99298059D02*
X128919047Y-99298059D01*
X128919047Y-99298059D02*
X128942856Y-99536154D01*
X128942856Y-99536154D02*
X128919047Y-99512345D01*
X128919047Y-99512345D02*
X128871428Y-99488535D01*
X128871428Y-99488535D02*
X128752380Y-99488535D01*
X128752380Y-99488535D02*
X128704761Y-99512345D01*
X128704761Y-99512345D02*
X128680952Y-99536154D01*
X128680952Y-99536154D02*
X128657142Y-99583773D01*
X128657142Y-99583773D02*
X128657142Y-99702821D01*
X128657142Y-99702821D02*
X128680952Y-99750440D01*
X128680952Y-99750440D02*
X128704761Y-99774250D01*
X128704761Y-99774250D02*
X128752380Y-99798059D01*
X128752380Y-99798059D02*
X128871428Y-99798059D01*
X128871428Y-99798059D02*
X128919047Y-99774250D01*
X128919047Y-99774250D02*
X128942856Y-99750440D01*
X143133333Y-99750440D02*
X143157142Y-99774250D01*
X143157142Y-99774250D02*
X143228571Y-99798059D01*
X143228571Y-99798059D02*
X143276190Y-99798059D01*
X143276190Y-99798059D02*
X143347618Y-99774250D01*
X143347618Y-99774250D02*
X143395237Y-99726630D01*
X143395237Y-99726630D02*
X143419047Y-99679011D01*
X143419047Y-99679011D02*
X143442856Y-99583773D01*
X143442856Y-99583773D02*
X143442856Y-99512345D01*
X143442856Y-99512345D02*
X143419047Y-99417107D01*
X143419047Y-99417107D02*
X143395237Y-99369488D01*
X143395237Y-99369488D02*
X143347618Y-99321869D01*
X143347618Y-99321869D02*
X143276190Y-99298059D01*
X143276190Y-99298059D02*
X143228571Y-99298059D01*
X143228571Y-99298059D02*
X143157142Y-99321869D01*
X143157142Y-99321869D02*
X143133333Y-99345678D01*
X142657142Y-99798059D02*
X142942856Y-99798059D01*
X142799999Y-99798059D02*
X142799999Y-99298059D01*
X142799999Y-99298059D02*
X142847618Y-99369488D01*
X142847618Y-99369488D02*
X142895237Y-99417107D01*
X142895237Y-99417107D02*
X142942856Y-99440916D01*
X127908333Y-89750440D02*
X127932142Y-89774250D01*
X127932142Y-89774250D02*
X128003571Y-89798059D01*
X128003571Y-89798059D02*
X128051190Y-89798059D01*
X128051190Y-89798059D02*
X128122618Y-89774250D01*
X128122618Y-89774250D02*
X128170237Y-89726630D01*
X128170237Y-89726630D02*
X128194047Y-89679011D01*
X128194047Y-89679011D02*
X128217856Y-89583773D01*
X128217856Y-89583773D02*
X128217856Y-89512345D01*
X128217856Y-89512345D02*
X128194047Y-89417107D01*
X128194047Y-89417107D02*
X128170237Y-89369488D01*
X128170237Y-89369488D02*
X128122618Y-89321869D01*
X128122618Y-89321869D02*
X128051190Y-89298059D01*
X128051190Y-89298059D02*
X128003571Y-89298059D01*
X128003571Y-89298059D02*
X127932142Y-89321869D01*
X127932142Y-89321869D02*
X127908333Y-89345678D01*
X127670237Y-89798059D02*
X127574999Y-89798059D01*
X127574999Y-89798059D02*
X127527380Y-89774250D01*
X127527380Y-89774250D02*
X127503571Y-89750440D01*
X127503571Y-89750440D02*
X127455952Y-89679011D01*
X127455952Y-89679011D02*
X127432142Y-89583773D01*
X127432142Y-89583773D02*
X127432142Y-89393297D01*
X127432142Y-89393297D02*
X127455952Y-89345678D01*
X127455952Y-89345678D02*
X127479761Y-89321869D01*
X127479761Y-89321869D02*
X127527380Y-89298059D01*
X127527380Y-89298059D02*
X127622618Y-89298059D01*
X127622618Y-89298059D02*
X127670237Y-89321869D01*
X127670237Y-89321869D02*
X127694047Y-89345678D01*
X127694047Y-89345678D02*
X127717856Y-89393297D01*
X127717856Y-89393297D02*
X127717856Y-89512345D01*
X127717856Y-89512345D02*
X127694047Y-89559964D01*
X127694047Y-89559964D02*
X127670237Y-89583773D01*
X127670237Y-89583773D02*
X127622618Y-89607583D01*
X127622618Y-89607583D02*
X127527380Y-89607583D01*
X127527380Y-89607583D02*
X127479761Y-89583773D01*
X127479761Y-89583773D02*
X127455952Y-89559964D01*
X127455952Y-89559964D02*
X127432142Y-89512345D01*
D13*
X144761904Y-91054819D02*
X144761904Y-91864342D01*
X144761904Y-91864342D02*
X144714285Y-91959580D01*
X144714285Y-91959580D02*
X144666666Y-92007200D01*
X144666666Y-92007200D02*
X144571428Y-92054819D01*
X144571428Y-92054819D02*
X144380952Y-92054819D01*
X144380952Y-92054819D02*
X144285714Y-92007200D01*
X144285714Y-92007200D02*
X144238095Y-91959580D01*
X144238095Y-91959580D02*
X144190476Y-91864342D01*
X144190476Y-91864342D02*
X144190476Y-91054819D01*
X143190476Y-92054819D02*
X143761904Y-92054819D01*
X143476190Y-92054819D02*
X143476190Y-91054819D01*
X143476190Y-91054819D02*
X143571428Y-91197676D01*
X143571428Y-91197676D02*
X143666666Y-91292914D01*
X143666666Y-91292914D02*
X143761904Y-91340533D01*
D12*
X127908333Y-86750440D02*
X127932142Y-86774250D01*
X127932142Y-86774250D02*
X128003571Y-86798059D01*
X128003571Y-86798059D02*
X128051190Y-86798059D01*
X128051190Y-86798059D02*
X128122618Y-86774250D01*
X128122618Y-86774250D02*
X128170237Y-86726630D01*
X128170237Y-86726630D02*
X128194047Y-86679011D01*
X128194047Y-86679011D02*
X128217856Y-86583773D01*
X128217856Y-86583773D02*
X128217856Y-86512345D01*
X128217856Y-86512345D02*
X128194047Y-86417107D01*
X128194047Y-86417107D02*
X128170237Y-86369488D01*
X128170237Y-86369488D02*
X128122618Y-86321869D01*
X128122618Y-86321869D02*
X128051190Y-86298059D01*
X128051190Y-86298059D02*
X128003571Y-86298059D01*
X128003571Y-86298059D02*
X127932142Y-86321869D01*
X127932142Y-86321869D02*
X127908333Y-86345678D01*
X127622618Y-86512345D02*
X127670237Y-86488535D01*
X127670237Y-86488535D02*
X127694047Y-86464726D01*
X127694047Y-86464726D02*
X127717856Y-86417107D01*
X127717856Y-86417107D02*
X127717856Y-86393297D01*
X127717856Y-86393297D02*
X127694047Y-86345678D01*
X127694047Y-86345678D02*
X127670237Y-86321869D01*
X127670237Y-86321869D02*
X127622618Y-86298059D01*
X127622618Y-86298059D02*
X127527380Y-86298059D01*
X127527380Y-86298059D02*
X127479761Y-86321869D01*
X127479761Y-86321869D02*
X127455952Y-86345678D01*
X127455952Y-86345678D02*
X127432142Y-86393297D01*
X127432142Y-86393297D02*
X127432142Y-86417107D01*
X127432142Y-86417107D02*
X127455952Y-86464726D01*
X127455952Y-86464726D02*
X127479761Y-86488535D01*
X127479761Y-86488535D02*
X127527380Y-86512345D01*
X127527380Y-86512345D02*
X127622618Y-86512345D01*
X127622618Y-86512345D02*
X127670237Y-86536154D01*
X127670237Y-86536154D02*
X127694047Y-86559964D01*
X127694047Y-86559964D02*
X127717856Y-86607583D01*
X127717856Y-86607583D02*
X127717856Y-86702821D01*
X127717856Y-86702821D02*
X127694047Y-86750440D01*
X127694047Y-86750440D02*
X127670237Y-86774250D01*
X127670237Y-86774250D02*
X127622618Y-86798059D01*
X127622618Y-86798059D02*
X127527380Y-86798059D01*
X127527380Y-86798059D02*
X127479761Y-86774250D01*
X127479761Y-86774250D02*
X127455952Y-86750440D01*
X127455952Y-86750440D02*
X127432142Y-86702821D01*
X127432142Y-86702821D02*
X127432142Y-86607583D01*
X127432142Y-86607583D02*
X127455952Y-86559964D01*
X127455952Y-86559964D02*
X127479761Y-86536154D01*
X127479761Y-86536154D02*
X127527380Y-86512345D01*
X127908333Y-80750440D02*
X127932142Y-80774250D01*
X127932142Y-80774250D02*
X128003571Y-80798059D01*
X128003571Y-80798059D02*
X128051190Y-80798059D01*
X128051190Y-80798059D02*
X128122618Y-80774250D01*
X128122618Y-80774250D02*
X128170237Y-80726630D01*
X128170237Y-80726630D02*
X128194047Y-80679011D01*
X128194047Y-80679011D02*
X128217856Y-80583773D01*
X128217856Y-80583773D02*
X128217856Y-80512345D01*
X128217856Y-80512345D02*
X128194047Y-80417107D01*
X128194047Y-80417107D02*
X128170237Y-80369488D01*
X128170237Y-80369488D02*
X128122618Y-80321869D01*
X128122618Y-80321869D02*
X128051190Y-80298059D01*
X128051190Y-80298059D02*
X128003571Y-80298059D01*
X128003571Y-80298059D02*
X127932142Y-80321869D01*
X127932142Y-80321869D02*
X127908333Y-80345678D01*
X127479761Y-80298059D02*
X127574999Y-80298059D01*
X127574999Y-80298059D02*
X127622618Y-80321869D01*
X127622618Y-80321869D02*
X127646428Y-80345678D01*
X127646428Y-80345678D02*
X127694047Y-80417107D01*
X127694047Y-80417107D02*
X127717856Y-80512345D01*
X127717856Y-80512345D02*
X127717856Y-80702821D01*
X127717856Y-80702821D02*
X127694047Y-80750440D01*
X127694047Y-80750440D02*
X127670237Y-80774250D01*
X127670237Y-80774250D02*
X127622618Y-80798059D01*
X127622618Y-80798059D02*
X127527380Y-80798059D01*
X127527380Y-80798059D02*
X127479761Y-80774250D01*
X127479761Y-80774250D02*
X127455952Y-80750440D01*
X127455952Y-80750440D02*
X127432142Y-80702821D01*
X127432142Y-80702821D02*
X127432142Y-80583773D01*
X127432142Y-80583773D02*
X127455952Y-80536154D01*
X127455952Y-80536154D02*
X127479761Y-80512345D01*
X127479761Y-80512345D02*
X127527380Y-80488535D01*
X127527380Y-80488535D02*
X127622618Y-80488535D01*
X127622618Y-80488535D02*
X127670237Y-80512345D01*
X127670237Y-80512345D02*
X127694047Y-80536154D01*
X127694047Y-80536154D02*
X127717856Y-80583773D01*
X132633333Y-99750440D02*
X132657142Y-99774250D01*
X132657142Y-99774250D02*
X132728571Y-99798059D01*
X132728571Y-99798059D02*
X132776190Y-99798059D01*
X132776190Y-99798059D02*
X132847618Y-99774250D01*
X132847618Y-99774250D02*
X132895237Y-99726630D01*
X132895237Y-99726630D02*
X132919047Y-99679011D01*
X132919047Y-99679011D02*
X132942856Y-99583773D01*
X132942856Y-99583773D02*
X132942856Y-99512345D01*
X132942856Y-99512345D02*
X132919047Y-99417107D01*
X132919047Y-99417107D02*
X132895237Y-99369488D01*
X132895237Y-99369488D02*
X132847618Y-99321869D01*
X132847618Y-99321869D02*
X132776190Y-99298059D01*
X132776190Y-99298059D02*
X132728571Y-99298059D01*
X132728571Y-99298059D02*
X132657142Y-99321869D01*
X132657142Y-99321869D02*
X132633333Y-99345678D01*
X132204761Y-99464726D02*
X132204761Y-99798059D01*
X132323809Y-99274250D02*
X132442856Y-99631392D01*
X132442856Y-99631392D02*
X132133333Y-99631392D01*
X136133333Y-99750440D02*
X136157142Y-99774250D01*
X136157142Y-99774250D02*
X136228571Y-99798059D01*
X136228571Y-99798059D02*
X136276190Y-99798059D01*
X136276190Y-99798059D02*
X136347618Y-99774250D01*
X136347618Y-99774250D02*
X136395237Y-99726630D01*
X136395237Y-99726630D02*
X136419047Y-99679011D01*
X136419047Y-99679011D02*
X136442856Y-99583773D01*
X136442856Y-99583773D02*
X136442856Y-99512345D01*
X136442856Y-99512345D02*
X136419047Y-99417107D01*
X136419047Y-99417107D02*
X136395237Y-99369488D01*
X136395237Y-99369488D02*
X136347618Y-99321869D01*
X136347618Y-99321869D02*
X136276190Y-99298059D01*
X136276190Y-99298059D02*
X136228571Y-99298059D01*
X136228571Y-99298059D02*
X136157142Y-99321869D01*
X136157142Y-99321869D02*
X136133333Y-99345678D01*
X135966666Y-99298059D02*
X135657142Y-99298059D01*
X135657142Y-99298059D02*
X135823809Y-99488535D01*
X135823809Y-99488535D02*
X135752380Y-99488535D01*
X135752380Y-99488535D02*
X135704761Y-99512345D01*
X135704761Y-99512345D02*
X135680952Y-99536154D01*
X135680952Y-99536154D02*
X135657142Y-99583773D01*
X135657142Y-99583773D02*
X135657142Y-99702821D01*
X135657142Y-99702821D02*
X135680952Y-99750440D01*
X135680952Y-99750440D02*
X135704761Y-99774250D01*
X135704761Y-99774250D02*
X135752380Y-99798059D01*
X135752380Y-99798059D02*
X135895237Y-99798059D01*
X135895237Y-99798059D02*
X135942856Y-99774250D01*
X135942856Y-99774250D02*
X135966666Y-99750440D01*
X127908333Y-92798059D02*
X128074999Y-92559964D01*
X128194047Y-92798059D02*
X128194047Y-92298059D01*
X128194047Y-92298059D02*
X128003571Y-92298059D01*
X128003571Y-92298059D02*
X127955952Y-92321869D01*
X127955952Y-92321869D02*
X127932142Y-92345678D01*
X127932142Y-92345678D02*
X127908333Y-92393297D01*
X127908333Y-92393297D02*
X127908333Y-92464726D01*
X127908333Y-92464726D02*
X127932142Y-92512345D01*
X127932142Y-92512345D02*
X127955952Y-92536154D01*
X127955952Y-92536154D02*
X128003571Y-92559964D01*
X128003571Y-92559964D02*
X128194047Y-92559964D01*
X127432142Y-92798059D02*
X127717856Y-92798059D01*
X127574999Y-92798059D02*
X127574999Y-92298059D01*
X127574999Y-92298059D02*
X127622618Y-92369488D01*
X127622618Y-92369488D02*
X127670237Y-92417107D01*
X127670237Y-92417107D02*
X127717856Y-92440916D01*
D14*
%TO.C,C2*%
X139409420Y-100490000D02*
X139690580Y-100490000D01*
X139409420Y-101510000D02*
X139690580Y-101510000D01*
%TO.C,C7*%
X127684420Y-84490000D02*
X127965580Y-84490000D01*
X127684420Y-85510000D02*
X127965580Y-85510000D01*
%TO.C,C5*%
X128909420Y-100490000D02*
X129190580Y-100490000D01*
X128909420Y-101510000D02*
X129190580Y-101510000D01*
%TO.C,C1*%
X142909420Y-100490000D02*
X143190580Y-100490000D01*
X142909420Y-101510000D02*
X143190580Y-101510000D01*
%TO.C,C9*%
X127684420Y-90490000D02*
X127965580Y-90490000D01*
X127684420Y-91510000D02*
X127965580Y-91510000D01*
%TO.C,U1*%
X143350000Y-92440000D02*
X144000000Y-92440000D01*
X143350000Y-95560000D02*
X144000000Y-95560000D01*
X144650000Y-92440000D02*
X144000000Y-92440000D01*
X144650000Y-95560000D02*
X144000000Y-95560000D01*
X145162500Y-92490000D02*
X144922500Y-92160000D01*
X145402500Y-92160000D01*
X145162500Y-92490000D01*
G36*
X145162500Y-92490000D02*
G01*
X144922500Y-92160000D01*
X145402500Y-92160000D01*
X145162500Y-92490000D01*
G37*
%TO.C,C8*%
X127684420Y-87490000D02*
X127965580Y-87490000D01*
X127684420Y-88510000D02*
X127965580Y-88510000D01*
%TO.C,C6*%
X127684420Y-81490000D02*
X127965580Y-81490000D01*
X127684420Y-82510000D02*
X127965580Y-82510000D01*
%TO.C,C4*%
X132409420Y-100490000D02*
X132690580Y-100490000D01*
X132409420Y-101510000D02*
X132690580Y-101510000D01*
%TO.C,C3*%
X135909420Y-100490000D02*
X136190580Y-100490000D01*
X135909420Y-101510000D02*
X136190580Y-101510000D01*
%TO.C,R1*%
X127587742Y-93477500D02*
X128062258Y-93477500D01*
X127587742Y-94522500D02*
X128062258Y-94522500D01*
%TD*%
M02*
