%TF.GenerationSoftware,KiCad,Pcbnew,8.0.7*%
%TF.CreationDate,2025-02-24T15:42:19+09:00*%
%TF.ProjectId,pmw3610_breakout,706d7733-3631-4305-9f62-7265616b6f75,rev?*%
%TF.SameCoordinates,Original*%
%TF.FileFunction,Copper,L1,Top*%
%TF.FilePolarity,Positive*%
%FSLAX46Y46*%
G04 Gerber Fmt 4.6, Leading zero omitted, Abs format (unit mm)*
G04 Created by KiCad (PCBNEW 8.0.7) date 2025-02-24 15:42:19*
%MOMM*%
%LPD*%
G01*
G04 APERTURE LIST*
G04 Aperture macros list*
%AMRoundRect*
0 Rectangle with rounded corners*
0 $1 Rounding radius*
0 $2 $3 $4 $5 $6 $7 $8 $9 X,Y pos of 4 corners*
0 Add a 4 corners polygon primitive as box body*
4,1,4,$2,$3,$4,$5,$6,$7,$8,$9,$2,$3,0*
0 Add four circle primitives for the rounded corners*
1,1,$1+$1,$2,$3*
1,1,$1+$1,$4,$5*
1,1,$1+$1,$6,$7*
1,1,$1+$1,$8,$9*
0 Add four rect primitives between the rounded corners*
20,1,$1+$1,$2,$3,$4,$5,0*
20,1,$1+$1,$4,$5,$6,$7,0*
20,1,$1+$1,$6,$7,$8,$9,0*
20,1,$1+$1,$8,$9,$2,$3,0*%
G04 Aperture macros list end*
%TA.AperFunction,ComponentPad*%
%ADD10RoundRect,0.187500X-0.437500X0.437500X-0.437500X-0.437500X0.437500X-0.437500X0.437500X0.437500X0*%
%TD*%
%TA.AperFunction,ComponentPad*%
%ADD11O,1.250000X1.250000*%
%TD*%
%TA.AperFunction,ComponentPad*%
%ADD12R,1.300000X1.300000*%
%TD*%
%TA.AperFunction,ComponentPad*%
%ADD13O,1.300000X1.300000*%
%TD*%
%TA.AperFunction,ViaPad*%
%ADD14C,0.600000*%
%TD*%
%TA.AperFunction,Conductor*%
%ADD15C,0.500000*%
%TD*%
%TA.AperFunction,Conductor*%
%ADD16C,0.250000*%
%TD*%
%TA.AperFunction,Conductor*%
%ADD17C,0.200000*%
%TD*%
G04 APERTURE END LIST*
D10*
%TO.P,U2,1,+VCSEL*%
%TO.N,Net-(U2-+VCSEL)*%
X130650000Y-81100000D03*
D11*
%TO.P,U2,2,SDIO*%
%TO.N,SDIO*%
X130650000Y-82880000D03*
%TO.P,U2,3,SCLK*%
%TO.N,SCLK*%
X130650000Y-84660000D03*
%TO.P,U2,4,NC*%
%TO.N,unconnected-(U2-NC-Pad4)*%
X130650000Y-86440000D03*
%TO.P,U2,5,NCS*%
%TO.N,NCS*%
X130650000Y-88220000D03*
%TO.P,U2,6,VDDIO*%
%TO.N,VCC*%
X130650000Y-90000000D03*
%TO.P,U2,7,NRESET*%
%TO.N,Net-(U2-NRESET)*%
X130650000Y-91780000D03*
%TO.P,U2,8,MOTION*%
%TO.N,MOTION*%
X130650000Y-93560000D03*
%TO.P,U2,9,VCP*%
%TO.N,Net-(U2-VCP)*%
X141350000Y-94450000D03*
%TO.P,U2,10,PASS_T*%
%TO.N,Net-(U2-+VCSEL)*%
X141350000Y-92670000D03*
%TO.P,U2,11,GND*%
%TO.N,GND*%
X141350000Y-90890000D03*
%TO.P,U2,12,CP*%
%TO.N,Net-(U2-CP)*%
X141350000Y-89110000D03*
%TO.P,U2,13,CN*%
%TO.N,Net-(U2-CN)*%
X141350000Y-87330000D03*
%TO.P,U2,14,VDD*%
%TO.N,+1V9*%
X141350000Y-85550000D03*
%TO.P,U2,15,XYLASER*%
%TO.N,Net-(U2--VCSEL)*%
X141350000Y-83770000D03*
%TO.P,U2,16,-VCSEL*%
X141350000Y-81990000D03*
%TD*%
D12*
%TO.P,J1,1,Pin_1*%
%TO.N,SCLK*%
X143620000Y-98500000D03*
D13*
%TO.P,J1,2,Pin_2*%
%TO.N,NCS*%
X141080000Y-98500000D03*
%TO.P,J1,3,Pin_3*%
%TO.N,GND*%
X138540000Y-98500000D03*
%TO.P,J1,4,Pin_4*%
%TO.N,VCC*%
X136000000Y-98500000D03*
%TO.P,J1,5,Pin_5*%
%TO.N,N/C*%
X133460000Y-98500000D03*
%TO.P,J1,6,Pin_6*%
%TO.N,SDIO*%
X130920000Y-98500000D03*
%TO.P,J1,7,Pin_6*%
%TO.N,MOTION*%
X128380000Y-98500000D03*
%TD*%
D14*
%TO.N,VCC*%
X139897300Y-102005500D03*
X143571500Y-99996600D03*
X144786300Y-94126600D03*
X128165200Y-95839900D03*
%TO.N,GND*%
X134225700Y-100246100D03*
X126416900Y-91894700D03*
X142725100Y-96595900D03*
%TO.N,+1V9*%
X145681100Y-94000000D03*
X130935400Y-102884900D03*
X141444700Y-101864200D03*
%TO.N,Net-(U2-+VCSEL)*%
X143492800Y-92441900D03*
X134112300Y-101787300D03*
X129686600Y-102965600D03*
%TO.N,Net-(U2-CP)*%
X129928300Y-97201600D03*
X141882400Y-95840600D03*
%TO.N,Net-(U2-CN)*%
X144153500Y-96412300D03*
%TO.N,Net-(U2-VCP)*%
X131224900Y-96031200D03*
%TO.N,SCLK*%
X139884000Y-99625400D03*
X129248700Y-83567000D03*
%TD*%
D15*
%TO.N,VCC*%
X145227500Y-94751300D02*
X144786300Y-94310100D01*
X128165300Y-92484700D02*
X128165300Y-95839900D01*
X128165300Y-95839900D02*
X128165200Y-95839900D01*
X144786300Y-94310100D02*
X144786300Y-94126600D01*
X139897300Y-102005500D02*
X141906200Y-99996600D01*
X130650000Y-90000000D02*
X128165300Y-92484700D01*
X141906200Y-99996600D02*
X143571500Y-99996600D01*
X143571500Y-99996600D02*
X144111600Y-99996600D01*
X144111600Y-99996600D02*
X145227500Y-98880700D01*
X145227500Y-98880700D02*
X145227500Y-94751300D01*
%TO.N,GND*%
X135832200Y-100246100D02*
X134225700Y-100246100D01*
X137578300Y-98500000D02*
X135832200Y-100246100D01*
X127504500Y-100565500D02*
X126333800Y-99394800D01*
X142725100Y-92265100D02*
X142725100Y-96595900D01*
X126333800Y-91977800D02*
X126416900Y-91894700D01*
X126333800Y-99394800D02*
X126333800Y-91977800D01*
X138540000Y-98500000D02*
X137578300Y-98500000D01*
X134225700Y-100246100D02*
X133906300Y-100565500D01*
X133906300Y-100565500D02*
X127504500Y-100565500D01*
X141350000Y-90890000D02*
X142725100Y-92265100D01*
%TO.N,+1V9*%
X145963100Y-99137500D02*
X145963100Y-94282000D01*
X141350000Y-85550000D02*
X144380000Y-85550000D01*
X145681100Y-86851100D02*
X145681100Y-94000000D01*
X145963100Y-94282000D02*
X145681100Y-94000000D01*
X130935400Y-102884900D02*
X140424000Y-102884900D01*
X140424000Y-102884900D02*
X141444700Y-101864200D01*
X143236400Y-101864200D02*
X145963100Y-99137500D01*
X144380000Y-85550000D02*
X145681100Y-86851100D01*
X141444700Y-101864200D02*
X143236400Y-101864200D01*
D16*
%TO.N,Net-(U2-+VCSEL)*%
X134112300Y-101787300D02*
X139174000Y-101787300D01*
X134112300Y-101787400D02*
X134112300Y-101787300D01*
X130864800Y-101787400D02*
X134112300Y-101787400D01*
X143492800Y-96811700D02*
X143492800Y-92441900D01*
X142550300Y-98411000D02*
X142550300Y-97754200D01*
X139174000Y-101787300D02*
X142550300Y-98411000D01*
X129686600Y-102965600D02*
X130864800Y-101787400D01*
X142550300Y-97754200D02*
X143492800Y-96811700D01*
%TO.N,Net-(U2-CP)*%
X130084700Y-97045200D02*
X140677800Y-97045200D01*
X129928300Y-97201600D02*
X130084700Y-97045200D01*
X140677800Y-97045200D02*
X141882400Y-95840600D01*
%TO.N,Net-(U2-CN)*%
X141350000Y-87330000D02*
X143690000Y-87330000D01*
X144153500Y-87793500D02*
X144153500Y-96412300D01*
X143690000Y-87330000D02*
X144153500Y-87793500D01*
%TO.N,Net-(U2-VCP)*%
X141350000Y-94450000D02*
X141350000Y-95453900D01*
X141350000Y-95453900D02*
X140466500Y-96337400D01*
X131531100Y-96337400D02*
X131224900Y-96031200D01*
X140466500Y-96337400D02*
X131531100Y-96337400D01*
D17*
%TO.N,Net-(U2--VCSEL)*%
X141350000Y-81990000D02*
X141350000Y-83770000D01*
D16*
%TO.N,MOTION*%
X130650000Y-93560000D02*
X130650000Y-95253300D01*
X128380000Y-98500000D02*
X128380000Y-97523300D01*
X130650000Y-95253300D02*
X128380000Y-97523300D01*
%TO.N,SCLK*%
X125757100Y-87058600D02*
X129248700Y-83567000D01*
X125757100Y-99671000D02*
X125757100Y-87058600D01*
X127237500Y-101151400D02*
X125757100Y-99671000D01*
X138358000Y-101151400D02*
X127237500Y-101151400D01*
X139884000Y-99625400D02*
X138358000Y-101151400D01*
%TO.N,SDIO*%
X126919300Y-92680800D02*
X127132600Y-92467500D01*
X127795000Y-99981700D02*
X126919300Y-99106000D01*
X126919300Y-99106000D02*
X126919300Y-92680800D01*
X127132600Y-86582700D02*
X130650000Y-83065300D01*
X130650000Y-83065300D02*
X130650000Y-82880000D01*
X127132600Y-92467500D02*
X127132600Y-86582700D01*
X129943300Y-98500000D02*
X129943300Y-98988300D01*
X130920000Y-98500000D02*
X129943300Y-98500000D01*
X128949900Y-99981700D02*
X127795000Y-99981700D01*
X129943300Y-98988300D02*
X128949900Y-99981700D01*
%TO.N,NCS*%
X129470000Y-98807800D02*
X129470000Y-98311400D01*
X130187900Y-97828300D02*
X130519300Y-97496900D01*
X127584300Y-92691500D02*
X127401400Y-92874400D01*
X128017200Y-99528500D02*
X128749300Y-99528500D01*
X127401400Y-92874400D02*
X127401400Y-98912700D01*
X130650000Y-88220000D02*
X127584300Y-91285700D01*
X127401400Y-98912700D02*
X128017200Y-99528500D01*
X139100200Y-97496900D02*
X140103300Y-98500000D01*
X141080000Y-98500000D02*
X140103300Y-98500000D01*
X130519300Y-97496900D02*
X139100200Y-97496900D01*
X129470000Y-98311400D02*
X129953100Y-97828300D01*
X128749300Y-99528500D02*
X129470000Y-98807800D01*
X127584300Y-91285700D02*
X127584300Y-92691500D01*
X129953100Y-97828300D02*
X130187900Y-97828300D01*
%TD*%
M02*
