%TF.GenerationSoftware,KiCad,Pcbnew,8.0.7*%
%TF.CreationDate,2025-02-24T15:42:19+09:00*%
%TF.ProjectId,pmw3610_breakout,706d7733-3631-4305-9f62-7265616b6f75,rev?*%
%TF.SameCoordinates,Original*%
%TF.FileFunction,Legend,Top*%
%TF.FilePolarity,Positive*%
%FSLAX46Y46*%
G04 Gerber Fmt 4.6, Leading zero omitted, Abs format (unit mm)*
G04 Created by KiCad (PCBNEW 8.0.7) date 2025-02-24 15:42:19*
%MOMM*%
%LPD*%
G01*
G04 APERTURE LIST*
%ADD10C,0.300000*%
%ADD11C,0.100000*%
G04 APERTURE END LIST*
D10*
X145624885Y-81284510D02*
X145553457Y-81498796D01*
X145553457Y-81498796D02*
X145482028Y-81570225D01*
X145482028Y-81570225D02*
X145339171Y-81641653D01*
X145339171Y-81641653D02*
X145124885Y-81641653D01*
X145124885Y-81641653D02*
X144982028Y-81570225D01*
X144982028Y-81570225D02*
X144910600Y-81498796D01*
X144910600Y-81498796D02*
X144839171Y-81355939D01*
X144839171Y-81355939D02*
X144839171Y-80784510D01*
X144839171Y-80784510D02*
X146339171Y-80784510D01*
X146339171Y-80784510D02*
X146339171Y-81284510D01*
X146339171Y-81284510D02*
X146267742Y-81427368D01*
X146267742Y-81427368D02*
X146196314Y-81498796D01*
X146196314Y-81498796D02*
X146053457Y-81570225D01*
X146053457Y-81570225D02*
X145910600Y-81570225D01*
X145910600Y-81570225D02*
X145767742Y-81498796D01*
X145767742Y-81498796D02*
X145696314Y-81427368D01*
X145696314Y-81427368D02*
X145624885Y-81284510D01*
X145624885Y-81284510D02*
X145624885Y-80784510D01*
X144839171Y-82927368D02*
X145624885Y-82927368D01*
X145624885Y-82927368D02*
X145767742Y-82855939D01*
X145767742Y-82855939D02*
X145839171Y-82713082D01*
X145839171Y-82713082D02*
X145839171Y-82427368D01*
X145839171Y-82427368D02*
X145767742Y-82284510D01*
X144910600Y-82927368D02*
X144839171Y-82784510D01*
X144839171Y-82784510D02*
X144839171Y-82427368D01*
X144839171Y-82427368D02*
X144910600Y-82284510D01*
X144910600Y-82284510D02*
X145053457Y-82213082D01*
X145053457Y-82213082D02*
X145196314Y-82213082D01*
X145196314Y-82213082D02*
X145339171Y-82284510D01*
X145339171Y-82284510D02*
X145410600Y-82427368D01*
X145410600Y-82427368D02*
X145410600Y-82784510D01*
X145410600Y-82784510D02*
X145482028Y-82927368D01*
X144910600Y-84284511D02*
X144839171Y-84141653D01*
X144839171Y-84141653D02*
X144839171Y-83855939D01*
X144839171Y-83855939D02*
X144910600Y-83713082D01*
X144910600Y-83713082D02*
X144982028Y-83641653D01*
X144982028Y-83641653D02*
X145124885Y-83570225D01*
X145124885Y-83570225D02*
X145553457Y-83570225D01*
X145553457Y-83570225D02*
X145696314Y-83641653D01*
X145696314Y-83641653D02*
X145767742Y-83713082D01*
X145767742Y-83713082D02*
X145839171Y-83855939D01*
X145839171Y-83855939D02*
X145839171Y-84141653D01*
X145839171Y-84141653D02*
X145767742Y-84284511D01*
X144839171Y-84927367D02*
X146339171Y-84927367D01*
X145410600Y-85070225D02*
X144839171Y-85498796D01*
X145839171Y-85498796D02*
X145267742Y-84927367D01*
X144910600Y-87213082D02*
X144839171Y-87355939D01*
X144839171Y-87355939D02*
X144839171Y-87641653D01*
X144839171Y-87641653D02*
X144910600Y-87784510D01*
X144910600Y-87784510D02*
X145053457Y-87855939D01*
X145053457Y-87855939D02*
X145124885Y-87855939D01*
X145124885Y-87855939D02*
X145267742Y-87784510D01*
X145267742Y-87784510D02*
X145339171Y-87641653D01*
X145339171Y-87641653D02*
X145339171Y-87427368D01*
X145339171Y-87427368D02*
X145410600Y-87284510D01*
X145410600Y-87284510D02*
X145553457Y-87213082D01*
X145553457Y-87213082D02*
X145624885Y-87213082D01*
X145624885Y-87213082D02*
X145767742Y-87284510D01*
X145767742Y-87284510D02*
X145839171Y-87427368D01*
X145839171Y-87427368D02*
X145839171Y-87641653D01*
X145839171Y-87641653D02*
X145767742Y-87784510D01*
X144839171Y-88498796D02*
X145839171Y-88498796D01*
X146339171Y-88498796D02*
X146267742Y-88427368D01*
X146267742Y-88427368D02*
X146196314Y-88498796D01*
X146196314Y-88498796D02*
X146267742Y-88570225D01*
X146267742Y-88570225D02*
X146339171Y-88498796D01*
X146339171Y-88498796D02*
X146196314Y-88498796D01*
X144839171Y-89855940D02*
X146339171Y-89855940D01*
X144910600Y-89855940D02*
X144839171Y-89713082D01*
X144839171Y-89713082D02*
X144839171Y-89427368D01*
X144839171Y-89427368D02*
X144910600Y-89284511D01*
X144910600Y-89284511D02*
X144982028Y-89213082D01*
X144982028Y-89213082D02*
X145124885Y-89141654D01*
X145124885Y-89141654D02*
X145553457Y-89141654D01*
X145553457Y-89141654D02*
X145696314Y-89213082D01*
X145696314Y-89213082D02*
X145767742Y-89284511D01*
X145767742Y-89284511D02*
X145839171Y-89427368D01*
X145839171Y-89427368D02*
X145839171Y-89713082D01*
X145839171Y-89713082D02*
X145767742Y-89855940D01*
X144910600Y-91141654D02*
X144839171Y-90998797D01*
X144839171Y-90998797D02*
X144839171Y-90713083D01*
X144839171Y-90713083D02*
X144910600Y-90570225D01*
X144910600Y-90570225D02*
X145053457Y-90498797D01*
X145053457Y-90498797D02*
X145624885Y-90498797D01*
X145624885Y-90498797D02*
X145767742Y-90570225D01*
X145767742Y-90570225D02*
X145839171Y-90713083D01*
X145839171Y-90713083D02*
X145839171Y-90998797D01*
X145839171Y-90998797D02*
X145767742Y-91141654D01*
X145767742Y-91141654D02*
X145624885Y-91213083D01*
X145624885Y-91213083D02*
X145482028Y-91213083D01*
X145482028Y-91213083D02*
X145339171Y-90498797D01*
D11*
X135313408Y-99433609D02*
X135480074Y-99933609D01*
X135480074Y-99933609D02*
X135646741Y-99433609D01*
X136099121Y-99885990D02*
X136075312Y-99909800D01*
X136075312Y-99909800D02*
X136003883Y-99933609D01*
X136003883Y-99933609D02*
X135956264Y-99933609D01*
X135956264Y-99933609D02*
X135884836Y-99909800D01*
X135884836Y-99909800D02*
X135837217Y-99862180D01*
X135837217Y-99862180D02*
X135813407Y-99814561D01*
X135813407Y-99814561D02*
X135789598Y-99719323D01*
X135789598Y-99719323D02*
X135789598Y-99647895D01*
X135789598Y-99647895D02*
X135813407Y-99552657D01*
X135813407Y-99552657D02*
X135837217Y-99505038D01*
X135837217Y-99505038D02*
X135884836Y-99457419D01*
X135884836Y-99457419D02*
X135956264Y-99433609D01*
X135956264Y-99433609D02*
X136003883Y-99433609D01*
X136003883Y-99433609D02*
X136075312Y-99457419D01*
X136075312Y-99457419D02*
X136099121Y-99481228D01*
X136599121Y-99885990D02*
X136575312Y-99909800D01*
X136575312Y-99909800D02*
X136503883Y-99933609D01*
X136503883Y-99933609D02*
X136456264Y-99933609D01*
X136456264Y-99933609D02*
X136384836Y-99909800D01*
X136384836Y-99909800D02*
X136337217Y-99862180D01*
X136337217Y-99862180D02*
X136313407Y-99814561D01*
X136313407Y-99814561D02*
X136289598Y-99719323D01*
X136289598Y-99719323D02*
X136289598Y-99647895D01*
X136289598Y-99647895D02*
X136313407Y-99552657D01*
X136313407Y-99552657D02*
X136337217Y-99505038D01*
X136337217Y-99505038D02*
X136384836Y-99457419D01*
X136384836Y-99457419D02*
X136456264Y-99433609D01*
X136456264Y-99433609D02*
X136503883Y-99433609D01*
X136503883Y-99433609D02*
X136575312Y-99457419D01*
X136575312Y-99457419D02*
X136599121Y-99481228D01*
X138146741Y-99457419D02*
X138099122Y-99433609D01*
X138099122Y-99433609D02*
X138027693Y-99433609D01*
X138027693Y-99433609D02*
X137956265Y-99457419D01*
X137956265Y-99457419D02*
X137908646Y-99505038D01*
X137908646Y-99505038D02*
X137884836Y-99552657D01*
X137884836Y-99552657D02*
X137861027Y-99647895D01*
X137861027Y-99647895D02*
X137861027Y-99719323D01*
X137861027Y-99719323D02*
X137884836Y-99814561D01*
X137884836Y-99814561D02*
X137908646Y-99862180D01*
X137908646Y-99862180D02*
X137956265Y-99909800D01*
X137956265Y-99909800D02*
X138027693Y-99933609D01*
X138027693Y-99933609D02*
X138075312Y-99933609D01*
X138075312Y-99933609D02*
X138146741Y-99909800D01*
X138146741Y-99909800D02*
X138170550Y-99885990D01*
X138170550Y-99885990D02*
X138170550Y-99719323D01*
X138170550Y-99719323D02*
X138075312Y-99719323D01*
X138384836Y-99933609D02*
X138384836Y-99433609D01*
X138384836Y-99433609D02*
X138670550Y-99933609D01*
X138670550Y-99933609D02*
X138670550Y-99433609D01*
X138908646Y-99933609D02*
X138908646Y-99433609D01*
X138908646Y-99433609D02*
X139027694Y-99433609D01*
X139027694Y-99433609D02*
X139099122Y-99457419D01*
X139099122Y-99457419D02*
X139146741Y-99505038D01*
X139146741Y-99505038D02*
X139170551Y-99552657D01*
X139170551Y-99552657D02*
X139194360Y-99647895D01*
X139194360Y-99647895D02*
X139194360Y-99719323D01*
X139194360Y-99719323D02*
X139170551Y-99814561D01*
X139170551Y-99814561D02*
X139146741Y-99862180D01*
X139146741Y-99862180D02*
X139099122Y-99909800D01*
X139099122Y-99909800D02*
X139027694Y-99933609D01*
X139027694Y-99933609D02*
X138908646Y-99933609D01*
X127184836Y-99933609D02*
X127184836Y-99433609D01*
X127184836Y-99433609D02*
X127351503Y-99790752D01*
X127351503Y-99790752D02*
X127518169Y-99433609D01*
X127518169Y-99433609D02*
X127518169Y-99933609D01*
X127851503Y-99433609D02*
X127946741Y-99433609D01*
X127946741Y-99433609D02*
X127994360Y-99457419D01*
X127994360Y-99457419D02*
X128041979Y-99505038D01*
X128041979Y-99505038D02*
X128065789Y-99600276D01*
X128065789Y-99600276D02*
X128065789Y-99766942D01*
X128065789Y-99766942D02*
X128041979Y-99862180D01*
X128041979Y-99862180D02*
X127994360Y-99909800D01*
X127994360Y-99909800D02*
X127946741Y-99933609D01*
X127946741Y-99933609D02*
X127851503Y-99933609D01*
X127851503Y-99933609D02*
X127803884Y-99909800D01*
X127803884Y-99909800D02*
X127756265Y-99862180D01*
X127756265Y-99862180D02*
X127732456Y-99766942D01*
X127732456Y-99766942D02*
X127732456Y-99600276D01*
X127732456Y-99600276D02*
X127756265Y-99505038D01*
X127756265Y-99505038D02*
X127803884Y-99457419D01*
X127803884Y-99457419D02*
X127851503Y-99433609D01*
X128208647Y-99433609D02*
X128494361Y-99433609D01*
X128351504Y-99933609D02*
X128351504Y-99433609D01*
X128661027Y-99933609D02*
X128661027Y-99433609D01*
X128994360Y-99433609D02*
X129089598Y-99433609D01*
X129089598Y-99433609D02*
X129137217Y-99457419D01*
X129137217Y-99457419D02*
X129184836Y-99505038D01*
X129184836Y-99505038D02*
X129208646Y-99600276D01*
X129208646Y-99600276D02*
X129208646Y-99766942D01*
X129208646Y-99766942D02*
X129184836Y-99862180D01*
X129184836Y-99862180D02*
X129137217Y-99909800D01*
X129137217Y-99909800D02*
X129089598Y-99933609D01*
X129089598Y-99933609D02*
X128994360Y-99933609D01*
X128994360Y-99933609D02*
X128946741Y-99909800D01*
X128946741Y-99909800D02*
X128899122Y-99862180D01*
X128899122Y-99862180D02*
X128875313Y-99766942D01*
X128875313Y-99766942D02*
X128875313Y-99600276D01*
X128875313Y-99600276D02*
X128899122Y-99505038D01*
X128899122Y-99505038D02*
X128946741Y-99457419D01*
X128946741Y-99457419D02*
X128994360Y-99433609D01*
X129422932Y-99933609D02*
X129422932Y-99433609D01*
X129422932Y-99433609D02*
X129708646Y-99933609D01*
X129708646Y-99933609D02*
X129708646Y-99433609D01*
X130161027Y-99909800D02*
X130232455Y-99933609D01*
X130232455Y-99933609D02*
X130351503Y-99933609D01*
X130351503Y-99933609D02*
X130399122Y-99909800D01*
X130399122Y-99909800D02*
X130422931Y-99885990D01*
X130422931Y-99885990D02*
X130446741Y-99838371D01*
X130446741Y-99838371D02*
X130446741Y-99790752D01*
X130446741Y-99790752D02*
X130422931Y-99743133D01*
X130422931Y-99743133D02*
X130399122Y-99719323D01*
X130399122Y-99719323D02*
X130351503Y-99695514D01*
X130351503Y-99695514D02*
X130256265Y-99671704D01*
X130256265Y-99671704D02*
X130208646Y-99647895D01*
X130208646Y-99647895D02*
X130184836Y-99624085D01*
X130184836Y-99624085D02*
X130161027Y-99576466D01*
X130161027Y-99576466D02*
X130161027Y-99528847D01*
X130161027Y-99528847D02*
X130184836Y-99481228D01*
X130184836Y-99481228D02*
X130208646Y-99457419D01*
X130208646Y-99457419D02*
X130256265Y-99433609D01*
X130256265Y-99433609D02*
X130375312Y-99433609D01*
X130375312Y-99433609D02*
X130446741Y-99457419D01*
X130661026Y-99933609D02*
X130661026Y-99433609D01*
X130661026Y-99433609D02*
X130780074Y-99433609D01*
X130780074Y-99433609D02*
X130851502Y-99457419D01*
X130851502Y-99457419D02*
X130899121Y-99505038D01*
X130899121Y-99505038D02*
X130922931Y-99552657D01*
X130922931Y-99552657D02*
X130946740Y-99647895D01*
X130946740Y-99647895D02*
X130946740Y-99719323D01*
X130946740Y-99719323D02*
X130922931Y-99814561D01*
X130922931Y-99814561D02*
X130899121Y-99862180D01*
X130899121Y-99862180D02*
X130851502Y-99909800D01*
X130851502Y-99909800D02*
X130780074Y-99933609D01*
X130780074Y-99933609D02*
X130661026Y-99933609D01*
X131161026Y-99933609D02*
X131161026Y-99433609D01*
X131494359Y-99433609D02*
X131589597Y-99433609D01*
X131589597Y-99433609D02*
X131637216Y-99457419D01*
X131637216Y-99457419D02*
X131684835Y-99505038D01*
X131684835Y-99505038D02*
X131708645Y-99600276D01*
X131708645Y-99600276D02*
X131708645Y-99766942D01*
X131708645Y-99766942D02*
X131684835Y-99862180D01*
X131684835Y-99862180D02*
X131637216Y-99909800D01*
X131637216Y-99909800D02*
X131589597Y-99933609D01*
X131589597Y-99933609D02*
X131494359Y-99933609D01*
X131494359Y-99933609D02*
X131446740Y-99909800D01*
X131446740Y-99909800D02*
X131399121Y-99862180D01*
X131399121Y-99862180D02*
X131375312Y-99766942D01*
X131375312Y-99766942D02*
X131375312Y-99600276D01*
X131375312Y-99600276D02*
X131399121Y-99505038D01*
X131399121Y-99505038D02*
X131446740Y-99457419D01*
X131446740Y-99457419D02*
X131494359Y-99433609D01*
X140484836Y-99933609D02*
X140484836Y-99433609D01*
X140484836Y-99433609D02*
X140770550Y-99933609D01*
X140770550Y-99933609D02*
X140770550Y-99433609D01*
X141294360Y-99885990D02*
X141270551Y-99909800D01*
X141270551Y-99909800D02*
X141199122Y-99933609D01*
X141199122Y-99933609D02*
X141151503Y-99933609D01*
X141151503Y-99933609D02*
X141080075Y-99909800D01*
X141080075Y-99909800D02*
X141032456Y-99862180D01*
X141032456Y-99862180D02*
X141008646Y-99814561D01*
X141008646Y-99814561D02*
X140984837Y-99719323D01*
X140984837Y-99719323D02*
X140984837Y-99647895D01*
X140984837Y-99647895D02*
X141008646Y-99552657D01*
X141008646Y-99552657D02*
X141032456Y-99505038D01*
X141032456Y-99505038D02*
X141080075Y-99457419D01*
X141080075Y-99457419D02*
X141151503Y-99433609D01*
X141151503Y-99433609D02*
X141199122Y-99433609D01*
X141199122Y-99433609D02*
X141270551Y-99457419D01*
X141270551Y-99457419D02*
X141294360Y-99481228D01*
X141484837Y-99909800D02*
X141556265Y-99933609D01*
X141556265Y-99933609D02*
X141675313Y-99933609D01*
X141675313Y-99933609D02*
X141722932Y-99909800D01*
X141722932Y-99909800D02*
X141746741Y-99885990D01*
X141746741Y-99885990D02*
X141770551Y-99838371D01*
X141770551Y-99838371D02*
X141770551Y-99790752D01*
X141770551Y-99790752D02*
X141746741Y-99743133D01*
X141746741Y-99743133D02*
X141722932Y-99719323D01*
X141722932Y-99719323D02*
X141675313Y-99695514D01*
X141675313Y-99695514D02*
X141580075Y-99671704D01*
X141580075Y-99671704D02*
X141532456Y-99647895D01*
X141532456Y-99647895D02*
X141508646Y-99624085D01*
X141508646Y-99624085D02*
X141484837Y-99576466D01*
X141484837Y-99576466D02*
X141484837Y-99528847D01*
X141484837Y-99528847D02*
X141508646Y-99481228D01*
X141508646Y-99481228D02*
X141532456Y-99457419D01*
X141532456Y-99457419D02*
X141580075Y-99433609D01*
X141580075Y-99433609D02*
X141699122Y-99433609D01*
X141699122Y-99433609D02*
X141770551Y-99457419D01*
X133332455Y-99600276D02*
X133618169Y-99885990D01*
X133618169Y-99600276D02*
X133332455Y-99885990D01*
X142861027Y-99909800D02*
X142932455Y-99933609D01*
X142932455Y-99933609D02*
X143051503Y-99933609D01*
X143051503Y-99933609D02*
X143099122Y-99909800D01*
X143099122Y-99909800D02*
X143122931Y-99885990D01*
X143122931Y-99885990D02*
X143146741Y-99838371D01*
X143146741Y-99838371D02*
X143146741Y-99790752D01*
X143146741Y-99790752D02*
X143122931Y-99743133D01*
X143122931Y-99743133D02*
X143099122Y-99719323D01*
X143099122Y-99719323D02*
X143051503Y-99695514D01*
X143051503Y-99695514D02*
X142956265Y-99671704D01*
X142956265Y-99671704D02*
X142908646Y-99647895D01*
X142908646Y-99647895D02*
X142884836Y-99624085D01*
X142884836Y-99624085D02*
X142861027Y-99576466D01*
X142861027Y-99576466D02*
X142861027Y-99528847D01*
X142861027Y-99528847D02*
X142884836Y-99481228D01*
X142884836Y-99481228D02*
X142908646Y-99457419D01*
X142908646Y-99457419D02*
X142956265Y-99433609D01*
X142956265Y-99433609D02*
X143075312Y-99433609D01*
X143075312Y-99433609D02*
X143146741Y-99457419D01*
X143646740Y-99885990D02*
X143622931Y-99909800D01*
X143622931Y-99909800D02*
X143551502Y-99933609D01*
X143551502Y-99933609D02*
X143503883Y-99933609D01*
X143503883Y-99933609D02*
X143432455Y-99909800D01*
X143432455Y-99909800D02*
X143384836Y-99862180D01*
X143384836Y-99862180D02*
X143361026Y-99814561D01*
X143361026Y-99814561D02*
X143337217Y-99719323D01*
X143337217Y-99719323D02*
X143337217Y-99647895D01*
X143337217Y-99647895D02*
X143361026Y-99552657D01*
X143361026Y-99552657D02*
X143384836Y-99505038D01*
X143384836Y-99505038D02*
X143432455Y-99457419D01*
X143432455Y-99457419D02*
X143503883Y-99433609D01*
X143503883Y-99433609D02*
X143551502Y-99433609D01*
X143551502Y-99433609D02*
X143622931Y-99457419D01*
X143622931Y-99457419D02*
X143646740Y-99481228D01*
X144099121Y-99933609D02*
X143861026Y-99933609D01*
X143861026Y-99933609D02*
X143861026Y-99433609D01*
X144265788Y-99933609D02*
X144265788Y-99433609D01*
X144551502Y-99933609D02*
X144337217Y-99647895D01*
X144551502Y-99433609D02*
X144265788Y-99719323D01*
M02*
