M48
; DRILL file {KiCad 8.0.7} date 2025-02-24T15:42:23+0900
; FORMAT={-:-/ absolute / metric / decimal}
; #@! TF.CreationDate,2025-02-24T15:42:23+09:00
; #@! TF.GenerationSoftware,Kicad,Pcbnew,8.0.7
; #@! TF.FileFunction,Plated,1,2,PTH
FMAT,2
METRIC
; #@! TA.AperFunction,Plated,PTH,ViaDrill
T1C0.300
; #@! TA.AperFunction,Plated,PTH,ComponentDrill
T2C0.750
; #@! TA.AperFunction,Plated,PTH,ComponentDrill
T3C0.800
%
G90
G05
T1
X126.417Y-91.895
X128.165Y-95.84
X129.249Y-83.567
X129.687Y-102.966
X129.928Y-97.202
X130.935Y-102.885
X131.225Y-96.031
X134.112Y-101.787
X134.226Y-100.246
X139.884Y-99.625
X139.897Y-102.005
X141.445Y-101.864
X141.882Y-95.841
X142.725Y-96.596
X143.493Y-92.442
X143.571Y-99.997
X144.153Y-96.412
X144.786Y-94.127
X145.681Y-94.0
T2
X130.65Y-81.1
X130.65Y-82.88
X130.65Y-84.66
X130.65Y-86.44
X130.65Y-88.22
X130.65Y-90.0
X130.65Y-91.78
X130.65Y-93.56
X141.35Y-81.99
X141.35Y-83.77
X141.35Y-85.55
X141.35Y-87.33
X141.35Y-89.11
X141.35Y-90.89
X141.35Y-92.67
X141.35Y-94.45
T3
X128.38Y-98.5
X130.92Y-98.5
X133.46Y-98.5
X136.0Y-98.5
X138.54Y-98.5
X141.08Y-98.5
X143.62Y-98.5
M30
