%TF.GenerationSoftware,KiCad,Pcbnew,8.0.7*%
%TF.CreationDate,2025-01-10T20:34:57+09:00*%
%TF.ProjectId,cool937tb_R_v2,636f6f6c-3933-4377-9462-5f525f76322e,rev?*%
%TF.SameCoordinates,Original*%
%TF.FileFunction,Copper,L2,Bot*%
%TF.FilePolarity,Positive*%
%FSLAX46Y46*%
G04 Gerber Fmt 4.6, Leading zero omitted, Abs format (unit mm)*
G04 Created by KiCad (PCBNEW 8.0.7) date 2025-01-10 20:34:57*
%MOMM*%
%LPD*%
G01*
G04 APERTURE LIST*
%TA.AperFunction,SMDPad,CuDef*%
%ADD10R,1.300000X0.950000*%
%TD*%
%TA.AperFunction,SMDPad,CuDef*%
%ADD11R,2.000000X2.000000*%
%TD*%
%TA.AperFunction,SMDPad,CuDef*%
%ADD12R,1.900000X2.000000*%
%TD*%
%TA.AperFunction,ComponentPad*%
%ADD13O,1.000000X1.300000*%
%TD*%
%TA.AperFunction,ComponentPad*%
%ADD14R,1.700000X1.700000*%
%TD*%
%TA.AperFunction,ComponentPad*%
%ADD15O,1.700000X1.700000*%
%TD*%
%TA.AperFunction,ComponentPad*%
%ADD16R,1.600000X1.600000*%
%TD*%
%TA.AperFunction,ComponentPad*%
%ADD17C,1.600000*%
%TD*%
%TA.AperFunction,ComponentPad*%
%ADD18O,1.800000X2.750000*%
%TD*%
%TA.AperFunction,ComponentPad*%
%ADD19C,1.500000*%
%TD*%
%TA.AperFunction,ViaPad*%
%ADD20C,0.600000*%
%TD*%
%TA.AperFunction,Conductor*%
%ADD21C,0.200000*%
%TD*%
G04 APERTURE END LIST*
D10*
%TO.P,D14,1,K*%
%TO.N,Row1*%
X66955000Y-27760000D03*
%TO.P,D14,2,A*%
%TO.N,Net-(D14-A)*%
X70505000Y-27760000D03*
%TD*%
D11*
%TO.P,SW1,1,1*%
%TO.N,Col0*%
X-8100000Y-3700000D03*
X-6900000Y2540000D03*
D12*
%TO.P,SW1,2,2*%
%TO.N,Net-(D1-A)*%
X2800000Y-5900000D03*
D11*
X5600000Y5080000D03*
%TD*%
D10*
%TO.P,D10,1,K*%
%TO.N,Row1*%
X47835000Y-27730000D03*
%TO.P,D10,2,A*%
%TO.N,Net-(D10-A)*%
X51385000Y-27730000D03*
%TD*%
%TO.P,D15,1,K*%
%TO.N,Row2*%
X76375000Y-46770000D03*
%TO.P,D15,2,A*%
%TO.N,Net-(D15-A)*%
X79925000Y-46770000D03*
%TD*%
D11*
%TO.P,SW8,1,1*%
%TO.N,Col1*%
X82387500Y-41800000D03*
X83587500Y-35560000D03*
D12*
%TO.P,SW8,2,2*%
%TO.N,Net-(D8-A)*%
X93287500Y-44000000D03*
D11*
X96087500Y-33020000D03*
%TD*%
%TO.P,SW15,1,1*%
%TO.N,Col3*%
X63337500Y-41800000D03*
X64537500Y-35560000D03*
D12*
%TO.P,SW15,2,2*%
%TO.N,Net-(D15-A)*%
X74237500Y-44000000D03*
D11*
X77037500Y-33020000D03*
%TD*%
D10*
%TO.P,D13,1,K*%
%TO.N,Row0*%
X62155000Y-8750000D03*
%TO.P,D13,2,A*%
%TO.N,Net-(D13-A)*%
X65705000Y-8750000D03*
%TD*%
D11*
%TO.P,SW16,1,1*%
%TO.N,Col3*%
X106200000Y-3700000D03*
X107400000Y2540000D03*
D12*
%TO.P,SW16,2,2*%
%TO.N,Net-(D16-A)*%
X117100000Y-5900000D03*
D11*
X119900000Y5080000D03*
%TD*%
D13*
%TO.P,SW21,1,A*%
%TO.N,unconnected-(SW21-A-Pad1)*%
X121220000Y-11620000D03*
%TO.P,SW21,2,B*%
%TO.N,Bat*%
X121220000Y-14120000D03*
%TO.P,SW21,3,C*%
%TO.N,Net-(J8-Pin_2)*%
X121220000Y-16620000D03*
%TD*%
D10*
%TO.P,D1,1,K*%
%TO.N,Row0*%
X4865000Y-8620000D03*
%TO.P,D1,2,A*%
%TO.N,Net-(D1-A)*%
X8415000Y-8620000D03*
%TD*%
%TO.P,D2,1,K*%
%TO.N,Row1*%
X9745000Y-27730000D03*
%TO.P,D2,2,A*%
%TO.N,Net-(D2-A)*%
X13295000Y-27730000D03*
%TD*%
%TO.P,D17,1,K*%
%TO.N,Row0*%
X68535000Y-8710000D03*
%TO.P,D17,2,A*%
%TO.N,Net-(D17-A)*%
X72085000Y-8710000D03*
%TD*%
%TO.P,D7,1,K*%
%TO.N,Row2*%
X38245000Y-46750000D03*
%TO.P,D7,2,A*%
%TO.N,Net-(D7-A)*%
X41795000Y-46750000D03*
%TD*%
D11*
%TO.P,SW13,1,1*%
%TO.N,Col3*%
X49050000Y-3700000D03*
X50250000Y2540000D03*
D12*
%TO.P,SW13,2,2*%
%TO.N,Net-(D13-A)*%
X59950000Y-5900000D03*
D11*
X62750000Y5080000D03*
%TD*%
D10*
%TO.P,D11,1,K*%
%TO.N,Row2*%
X57405000Y-46880000D03*
%TO.P,D11,2,A*%
%TO.N,Net-(D11-A)*%
X60955000Y-46880000D03*
%TD*%
D11*
%TO.P,SW17,1,1*%
%TO.N,Col4*%
X68100000Y-3700000D03*
X69300000Y2540000D03*
D12*
%TO.P,SW17,2,2*%
%TO.N,Net-(D17-A)*%
X79000000Y-5900000D03*
D11*
X81800000Y5080000D03*
%TD*%
%TO.P,SW11,1,1*%
%TO.N,Col2*%
X44287500Y-41800000D03*
X45487500Y-35560000D03*
D12*
%TO.P,SW11,2,2*%
%TO.N,Net-(D11-A)*%
X55187500Y-44000000D03*
D11*
X57987500Y-33020000D03*
%TD*%
%TO.P,SW12,1,1*%
%TO.N,Col2*%
X72862500Y-22750000D03*
X74062500Y-16510000D03*
D12*
%TO.P,SW12,2,2*%
%TO.N,Net-(D12-A)*%
X83762500Y-24950000D03*
D11*
X86562500Y-13970000D03*
%TD*%
%TO.P,SW19,1,1*%
%TO.N,Col4*%
X103818750Y-41800000D03*
X105018750Y-35560000D03*
D12*
%TO.P,SW19,2,2*%
%TO.N,Net-(D19-A)*%
X114718750Y-44000000D03*
D11*
X117518750Y-33020000D03*
%TD*%
%TO.P,SW20,1,1*%
%TO.N,Col4*%
X87150000Y-3700000D03*
X88350000Y2540000D03*
D12*
%TO.P,SW20,2,2*%
%TO.N,Net-(D20-A)*%
X98050000Y-5900000D03*
D11*
X100850000Y5080000D03*
%TD*%
D10*
%TO.P,D18,1,K*%
%TO.N,Row1*%
X112155000Y-27740000D03*
%TO.P,D18,2,A*%
%TO.N,Net-(D18-A)*%
X115705000Y-27740000D03*
%TD*%
D11*
%TO.P,SW3,1,1*%
%TO.N,Col0*%
X6187500Y-41800000D03*
X7387500Y-35560000D03*
D12*
%TO.P,SW3,2,2*%
%TO.N,Net-(D3-A)*%
X17087500Y-44000000D03*
D11*
X19887500Y-33020000D03*
%TD*%
%TO.P,SW7,1,1*%
%TO.N,Col1*%
X25237500Y-41800000D03*
X26437500Y-35560000D03*
D12*
%TO.P,SW7,2,2*%
%TO.N,Net-(D7-A)*%
X36137500Y-44000000D03*
D11*
X38937500Y-33020000D03*
%TD*%
D10*
%TO.P,D4,1,K*%
%TO.N,Row3*%
X16775000Y-65730000D03*
%TO.P,D4,2,A*%
%TO.N,Net-(D4-A)*%
X20325000Y-65730000D03*
%TD*%
%TO.P,D19,1,K*%
%TO.N,Row2*%
X118075000Y-44200000D03*
%TO.P,D19,2,A*%
%TO.N,Net-(D19-A)*%
X121625000Y-44200000D03*
%TD*%
%TO.P,D5,1,K*%
%TO.N,Row0*%
X10985000Y-8670000D03*
%TO.P,D5,2,A*%
%TO.N,Net-(D5-A)*%
X14535000Y-8670000D03*
%TD*%
D11*
%TO.P,SW10,1,1*%
%TO.N,Col2*%
X34762500Y-22750000D03*
X35962500Y-16510000D03*
D12*
%TO.P,SW10,2,2*%
%TO.N,Net-(D10-A)*%
X45662500Y-24950000D03*
D11*
X48462500Y-13970000D03*
%TD*%
D14*
%TO.P,J1,1,SCLK*%
%TO.N,SCLK*%
X72730000Y-63790000D03*
D15*
%TO.P,J1,2,nCS*%
%TO.N,CS*%
X72730000Y-66330000D03*
%TO.P,J1,3,GND*%
%TO.N,GND*%
X72730000Y-68870000D03*
%TO.P,J1,4,Vin*%
%TO.N,3.3V*%
X72730000Y-71410000D03*
%TO.P,J1,5,nc*%
%TO.N,unconnected-(J1-nc-Pad5)*%
X72730000Y-73950000D03*
%TO.P,J1,6,SDIO*%
%TO.N,SDIO*%
X72730000Y-76490000D03*
%TO.P,J1,7,MOTION*%
%TO.N,MOTION*%
X72730000Y-79030000D03*
%TD*%
D10*
%TO.P,D12,1,K*%
%TO.N,Row3*%
X85975000Y-27700000D03*
%TO.P,D12,2,A*%
%TO.N,Net-(D12-A)*%
X89525000Y-27700000D03*
%TD*%
%TO.P,D3,1,K*%
%TO.N,Row2*%
X19265000Y-46810000D03*
%TO.P,D3,2,A*%
%TO.N,Net-(D3-A)*%
X22815000Y-46810000D03*
%TD*%
D16*
%TO.P,J8,1,Pin_1*%
%TO.N,GND*%
X93206250Y-26193750D03*
D17*
%TO.P,J8,2,Pin_2*%
%TO.N,Net-(J8-Pin_2)*%
X95726250Y-26193750D03*
%TD*%
D11*
%TO.P,SW5,1,1*%
%TO.N,Col1*%
X10950000Y-3700000D03*
X12150000Y2540000D03*
D12*
%TO.P,SW5,2,2*%
%TO.N,Net-(D5-A)*%
X21850000Y-5900000D03*
D11*
X24650000Y5080000D03*
%TD*%
%TO.P,SW6,1,1*%
%TO.N,Col1*%
X15712500Y-22750000D03*
X16912500Y-16510000D03*
D12*
%TO.P,SW6,2,2*%
%TO.N,Net-(D6-A)*%
X26612500Y-24950000D03*
D11*
X29412500Y-13970000D03*
%TD*%
%TO.P,SW9,1,1*%
%TO.N,Col2*%
X30000000Y-3700000D03*
X31200000Y2540000D03*
D12*
%TO.P,SW9,2,2*%
%TO.N,Net-(D9-A)*%
X40900000Y-5900000D03*
D11*
X43700000Y5080000D03*
%TD*%
%TO.P,SW4,1,1*%
%TO.N,Col0*%
X3806250Y-60850000D03*
X5006250Y-54610000D03*
D12*
%TO.P,SW4,2,2*%
%TO.N,Net-(D4-A)*%
X14706250Y-63050000D03*
D11*
X17506250Y-52070000D03*
%TD*%
D10*
%TO.P,D6,1,K*%
%TO.N,Row1*%
X28725000Y-27780000D03*
%TO.P,D6,2,A*%
%TO.N,Net-(D6-A)*%
X32275000Y-27780000D03*
%TD*%
%TO.P,D16,1,K*%
%TO.N,Row3*%
X105845000Y-8730000D03*
%TO.P,D16,2,A*%
%TO.N,Net-(D16-A)*%
X109395000Y-8730000D03*
%TD*%
D11*
%TO.P,SW2,1,1*%
%TO.N,Col0*%
X-3337500Y-22750000D03*
X-2137500Y-16510000D03*
D12*
%TO.P,SW2,2,2*%
%TO.N,Net-(D2-A)*%
X7562500Y-24950000D03*
D11*
X10362500Y-13970000D03*
%TD*%
%TO.P,SW18,1,1*%
%TO.N,Col4*%
X99056250Y-22750000D03*
X100256250Y-16510000D03*
D12*
%TO.P,SW18,2,2*%
%TO.N,Net-(D18-A)*%
X109956250Y-24950000D03*
D11*
X112756250Y-13970000D03*
%TD*%
%TO.P,SW14,1,1*%
%TO.N,Col3*%
X53812500Y-22750000D03*
X55012500Y-16510000D03*
D12*
%TO.P,SW14,2,2*%
%TO.N,Net-(D14-A)*%
X64712500Y-24950000D03*
D11*
X67512500Y-13970000D03*
%TD*%
D10*
%TO.P,D20,1,K*%
%TO.N,Row3*%
X99565000Y-8640000D03*
%TO.P,D20,2,A*%
%TO.N,Net-(D20-A)*%
X103115000Y-8640000D03*
%TD*%
%TO.P,D9,1,K*%
%TO.N,Row0*%
X43055000Y-8680000D03*
%TO.P,D9,2,A*%
%TO.N,Net-(D9-A)*%
X46605000Y-8680000D03*
%TD*%
%TO.P,D8,1,K*%
%TO.N,Row3*%
X95465000Y-46850000D03*
%TO.P,D8,2,A*%
%TO.N,Net-(D8-A)*%
X99015000Y-46850000D03*
%TD*%
D18*
%TO.P,U1,1,P0.02_A0_D0*%
%TO.N,MOTION*%
X120806000Y-65540000D03*
%TO.P,U1,2,P0.03_A1_D1*%
%TO.N,Row0*%
X118266000Y-65540000D03*
%TO.P,U1,3,P0.28_A2_D2*%
%TO.N,Row1*%
X115726000Y-65540000D03*
%TO.P,U1,4,P0.29_A3_D3*%
%TO.N,Row2*%
X113186000Y-65540000D03*
%TO.P,U1,5,P0.04_A4_D4_SDA*%
%TO.N,SDIO*%
X110646000Y-65540000D03*
%TO.P,U1,6,P0.05_A5_D5_SCL*%
%TO.N,SCLK*%
X108106000Y-65540000D03*
%TO.P,U1,7,P1.11_D6_TX*%
%TO.N,Row3*%
X105566000Y-65540000D03*
%TO.P,U1,8,P1.12_D7_RX*%
%TO.N,Col3*%
X105566000Y-49300000D03*
%TO.P,U1,9,P1.13_D8_SCK*%
%TO.N,Col2*%
X108106000Y-49300000D03*
%TO.P,U1,10,P1.14_D9_MISO*%
%TO.N,Col1*%
X110646000Y-49300000D03*
%TO.P,U1,11,P1.15_D10_MOSI*%
%TO.N,Col0*%
X113186000Y-49300000D03*
%TO.P,U1,12,3V3*%
%TO.N,3.3V*%
X115726000Y-49300000D03*
%TO.P,U1,13,GND*%
%TO.N,GND*%
X118266000Y-49300000D03*
%TO.P,U1,14,5V*%
%TO.N,VCC*%
X120806000Y-49300000D03*
D19*
%TO.P,U1,15,NFC1_0.09*%
%TO.N,CS*%
X103874000Y-53584600D03*
%TO.P,U1,16,NFC2_0.10*%
%TO.N,Col4*%
X103874000Y-51705000D03*
%TO.P,U1,20,BATT+*%
%TO.N,Bat*%
X113503000Y-61865000D03*
%TO.P,U1,21,BATT-*%
%TO.N,GND*%
X115408000Y-61865000D03*
%TD*%
D20*
%TO.N,Col0*%
X423750Y-28596250D03*
X93730000Y-28550000D03*
%TO.N,Row2*%
X19330000Y-45540000D03*
%TO.N,Col4*%
X103840000Y-44360000D03*
%TO.N,Col3*%
X95770000Y-29180000D03*
X58123750Y-29146250D03*
%TO.N,Col2*%
X74010000Y-12040000D03*
X35962500Y-12040000D03*
X110020000Y-30500000D03*
X72890000Y-30820000D03*
%TO.N,Col1*%
X119470000Y-42350000D03*
X119540000Y-31290000D03*
X83470000Y-31340000D03*
X22323750Y-31446250D03*
%TO.N,Col0*%
X6187500Y-49860000D03*
%TO.N,3.3V*%
X111600000Y-59960000D03*
%TO.N,SCLK*%
X103826000Y-60760000D03*
%TO.N,CS*%
X104767265Y-60852735D03*
%TO.N,GND*%
X110700000Y-59358411D03*
X117341500Y-59931500D03*
%TO.N,Row3*%
X85950000Y-25630000D03*
X79570000Y-44050000D03*
X105870000Y-10010000D03*
X79570000Y-27780000D03*
X34640000Y-48290000D03*
X99550000Y-10040000D03*
%TO.N,Row2*%
X38190000Y-49160000D03*
X57430000Y-49160000D03*
X118040000Y-45980000D03*
X76340000Y-49160000D03*
%TO.N,Row1*%
X112160000Y-29720000D03*
X66950000Y-29780000D03*
X9760000Y-29780000D03*
X28740000Y-29780000D03*
X47820000Y-29780000D03*
%TO.N,Row0*%
X11440000Y-10110000D03*
X43020000Y-10580000D03*
X96280000Y-10720000D03*
X62100000Y-10580000D03*
X68530000Y-10580000D03*
X4920000Y-10110000D03*
%TO.N,Bat*%
X122560000Y-30800000D03*
X122550000Y-26710000D03*
%TO.N,Net-(J8-Pin_2)*%
X121210000Y-26640000D03*
%TD*%
D21*
%TO.N,Col4*%
X105018750Y-35560000D02*
X105018750Y-40600000D01*
X105018750Y-40600000D02*
X103818750Y-41800000D01*
%TO.N,MOTION*%
X120806000Y-65172056D02*
X118558056Y-67420000D01*
X118558056Y-67420000D02*
X109110000Y-67420000D01*
X109110000Y-67420000D02*
X108560000Y-67970000D01*
X78450000Y-73310000D02*
X72730000Y-79030000D01*
X108560000Y-67970000D02*
X101545686Y-67970000D01*
X101545686Y-67970000D02*
X96205686Y-73310000D01*
X96205686Y-73310000D02*
X78450000Y-73310000D01*
%TO.N,SDIO*%
X96100000Y-72850000D02*
X101420000Y-67530000D01*
X74080000Y-76490000D02*
X77720000Y-72850000D01*
X72730000Y-76490000D02*
X74080000Y-76490000D01*
X101420000Y-67530000D02*
X108288056Y-67530000D01*
X77720000Y-72850000D02*
X96100000Y-72850000D01*
X108288056Y-67530000D02*
X110646000Y-65172056D01*
X110646000Y-65172056D02*
X110646000Y-65040000D01*
%TO.N,Col0*%
X101440000Y-33990000D02*
X96000000Y-28550000D01*
X101440000Y-42808529D02*
X101440000Y-33990000D01*
X423750Y-28596250D02*
X7387500Y-35560000D01*
X113186000Y-49800000D02*
X112011000Y-50975000D01*
X107608944Y-50975000D02*
X106906000Y-50272056D01*
X-3337500Y-24835000D02*
X423750Y-28596250D01*
X112011000Y-50975000D02*
X107608944Y-50975000D01*
X96000000Y-28550000D02*
X93730000Y-28550000D01*
X106906000Y-48274529D02*
X101440000Y-42808529D01*
X106906000Y-50272056D02*
X106906000Y-48274529D01*
%TO.N,Row2*%
X19330000Y-45540000D02*
X19330000Y-46745000D01*
X19330000Y-46745000D02*
X19265000Y-46810000D01*
%TO.N,Row3*%
X34640000Y-48290000D02*
X30670000Y-44320000D01*
X30670000Y-44320000D02*
X25450000Y-44320000D01*
X23830000Y-45940000D02*
X23830000Y-63950000D01*
X25450000Y-44320000D02*
X23830000Y-45940000D01*
X23830000Y-63950000D02*
X21275000Y-66505000D01*
X21275000Y-66505000D02*
X17550000Y-66505000D01*
X17550000Y-66505000D02*
X16775000Y-65730000D01*
%TO.N,Net-(D4-A)*%
X20325000Y-65730000D02*
X17645000Y-63050000D01*
X17645000Y-63050000D02*
X14706250Y-63050000D01*
X17506250Y-52070000D02*
X14706250Y-54870000D01*
X14706250Y-54870000D02*
X14706250Y-63050000D01*
%TO.N,Col0*%
X5006250Y-54610000D02*
X5006250Y-54693750D01*
X5006250Y-54693750D02*
X3806250Y-55893750D01*
X3806250Y-55893750D02*
X3806250Y-60850000D01*
X6187500Y-49860000D02*
X6187500Y-50512500D01*
X6187500Y-50512500D02*
X5006250Y-51693750D01*
X5006250Y-51693750D02*
X5006250Y-54610000D01*
%TO.N,Net-(D20-A)*%
X100850000Y5080000D02*
X98050000Y2280000D01*
X98050000Y2280000D02*
X98050000Y-5900000D01*
X100375000Y-5900000D02*
X103115000Y-8640000D01*
X98050000Y-5900000D02*
X100375000Y-5900000D01*
%TO.N,Col4*%
X99056250Y-29597500D02*
X105018750Y-35560000D01*
X69300000Y-2500000D02*
X68100000Y-3700000D01*
X69300000Y2540000D02*
X69300000Y-2500000D01*
X88350000Y-2500000D02*
X87150000Y-3700000D01*
X88350000Y2540000D02*
X84210000Y6680000D01*
X100256250Y-16510000D02*
X100256250Y-21550000D01*
X73440000Y6680000D02*
X69300000Y2540000D01*
X100256250Y-21550000D02*
X99056250Y-22750000D01*
X88350000Y2540000D02*
X88350000Y-2500000D01*
X84210000Y6680000D02*
X73440000Y6680000D01*
X87150000Y-3700000D02*
X87446250Y-3700000D01*
X99056250Y-22750000D02*
X99056250Y-29597500D01*
X103840000Y-44360000D02*
X103818750Y-44338750D01*
X103818750Y-44338750D02*
X103818750Y-41800000D01*
X87446250Y-3700000D02*
X100256250Y-16510000D01*
%TO.N,Col3*%
X95870000Y-29180000D02*
X95770000Y-29180000D01*
X54790000Y7080000D02*
X102860000Y7080000D01*
X50250000Y2540000D02*
X50250000Y-2500000D01*
X58123750Y-29146250D02*
X64537500Y-35560000D01*
X49050000Y-3700000D02*
X49050000Y-10547500D01*
X107400000Y2540000D02*
X107400000Y-2500000D01*
X50250000Y2540000D02*
X54790000Y7080000D01*
X49050000Y-10547500D02*
X55012500Y-16510000D01*
X99965000Y-33275000D02*
X95870000Y-29180000D01*
X107400000Y-2500000D02*
X106200000Y-3700000D01*
X64537500Y-40600000D02*
X63337500Y-41800000D01*
X105566000Y-49800000D02*
X99965000Y-44199000D01*
X50250000Y-2500000D02*
X49050000Y-3700000D01*
X53812500Y-24835000D02*
X58123750Y-29146250D01*
X99965000Y-44199000D02*
X99965000Y-33275000D01*
X55012500Y-16510000D02*
X55012500Y-21550000D01*
X53812500Y-22750000D02*
X53812500Y-24835000D01*
X55012500Y-21550000D02*
X53812500Y-22750000D01*
X64537500Y-35560000D02*
X64537500Y-40600000D01*
X102860000Y7080000D02*
X107400000Y2540000D01*
%TO.N,Col2*%
X74062500Y-21550000D02*
X72862500Y-22750000D01*
X45487500Y-40600000D02*
X44287500Y-41800000D01*
X72862500Y-30792500D02*
X72862500Y-22750000D01*
X45487500Y-34087500D02*
X45487500Y-35560000D01*
X109318750Y-48587250D02*
X109318750Y-41260000D01*
X35962500Y-9662500D02*
X35962500Y-12040000D01*
X109318750Y-41260000D02*
X109318750Y-36701250D01*
X74062500Y-12092500D02*
X74010000Y-12040000D01*
X35962500Y-16510000D02*
X35962500Y-21550000D01*
X31200000Y2540000D02*
X31200000Y-2500000D01*
X31200000Y-2500000D02*
X30000000Y-3700000D01*
X108070000Y-49836000D02*
X108106000Y-49800000D01*
X74062500Y-16510000D02*
X74062500Y-12092500D01*
X45487500Y-35560000D02*
X45487500Y-40600000D01*
X109318750Y-36701250D02*
X110020000Y-36000000D01*
X30000000Y-3700000D02*
X35962500Y-9662500D01*
X35962500Y-21550000D02*
X34762500Y-22750000D01*
X72890000Y-30820000D02*
X72862500Y-30792500D01*
X35962500Y-12040000D02*
X35962500Y-16510000D01*
X34762500Y-23362500D02*
X45487500Y-34087500D01*
X74062500Y-16510000D02*
X74062500Y-21550000D01*
X34762500Y-22750000D02*
X34762500Y-23362500D01*
X110020000Y-36000000D02*
X110020000Y-30500000D01*
X108106000Y-49800000D02*
X109318750Y-48587250D01*
%TO.N,Col1*%
X83470000Y-31340000D02*
X83587500Y-31457500D01*
X10035000Y-4615000D02*
X10035000Y-9632500D01*
X12150000Y-2500000D02*
X10950000Y-3700000D01*
X16912500Y-16510000D02*
X16912500Y-21550000D01*
X83587500Y-40600000D02*
X82387500Y-41800000D01*
X16912500Y-21550000D02*
X15712500Y-22750000D01*
X10035000Y-9632500D02*
X16912500Y-16510000D01*
X119540000Y-31290000D02*
X119540000Y-42280000D01*
X12150000Y2540000D02*
X12150000Y-2500000D01*
X83587500Y-31457500D02*
X83587500Y-35560000D01*
X83587500Y-35560000D02*
X83587500Y-40600000D01*
X10950000Y-3700000D02*
X10035000Y-4615000D01*
X119540000Y-42280000D02*
X119470000Y-42350000D01*
X26437500Y-40600000D02*
X25237500Y-41800000D01*
X15712500Y-24835000D02*
X22323750Y-31446250D01*
X22323750Y-31446250D02*
X26437500Y-35560000D01*
X15712500Y-22750000D02*
X15712500Y-24835000D01*
X26437500Y-35560000D02*
X26437500Y-40600000D01*
%TO.N,Col0*%
X-8100000Y-3700000D02*
X-8100000Y-10547500D01*
X-2137500Y-21550000D02*
X-3337500Y-22750000D01*
X7387500Y-35560000D02*
X7387500Y-40600000D01*
X113186000Y-49800000D02*
X113186000Y-49667944D01*
X-6900000Y2540000D02*
X-6900000Y-2500000D01*
X-2137500Y-16510000D02*
X-2137500Y-21550000D01*
X6187500Y-41800000D02*
X6187500Y-49860000D01*
X7387500Y-40600000D02*
X6187500Y-41800000D01*
X-8100000Y-10547500D02*
X-2137500Y-16510000D01*
X-6900000Y-2500000D02*
X-8100000Y-3700000D01*
X-3337500Y-22750000D02*
X-3337500Y-24835000D01*
%TO.N,Net-(D19-A)*%
X120850000Y-43425000D02*
X121625000Y-44200000D01*
X114718750Y-44000000D02*
X115293750Y-43425000D01*
X117518750Y-33020000D02*
X114718750Y-35820000D01*
X114718750Y-35820000D02*
X114718750Y-44000000D01*
X115293750Y-43425000D02*
X120850000Y-43425000D01*
%TO.N,SDIO*%
X110646000Y-65040000D02*
X110110000Y-64504000D01*
%TO.N,3.3V*%
X115726000Y-55466000D02*
X115726000Y-49800000D01*
X115760000Y-55500000D02*
X115726000Y-55466000D01*
X115760000Y-55700000D02*
X115760000Y-55500000D01*
X111600000Y-59860000D02*
X115760000Y-55700000D01*
X111600000Y-59960000D02*
X111600000Y-59860000D01*
X115726000Y-49800000D02*
X115726000Y-49667944D01*
%TO.N,MOTION*%
X120806000Y-65040000D02*
X120806000Y-65172056D01*
%TO.N,SCLK*%
X108106000Y-65040000D02*
X103826000Y-60760000D01*
%TO.N,CS*%
X104767265Y-60852735D02*
X104767265Y-54477865D01*
X104767265Y-54477865D02*
X103874000Y-53584600D01*
%TO.N,GND*%
X105751408Y-50980000D02*
X104633925Y-50980000D01*
X110700000Y-55928592D02*
X105751408Y-50980000D01*
X93206250Y-27464779D02*
X89410545Y-31260484D01*
X110700000Y-59358411D02*
X110700000Y-55928592D01*
X115408000Y-61865000D02*
X117341500Y-59931500D01*
X90299758Y-46075000D02*
X96415000Y-46075000D01*
X89410545Y-35089697D02*
X87887500Y-36612742D01*
X96415000Y-46075000D02*
X97965000Y-47625000D01*
X118266000Y-59007000D02*
X118266000Y-49800000D01*
X89410545Y-31260484D02*
X89410545Y-35089697D01*
X118266000Y-49800000D02*
X118266000Y-49667944D01*
X101278925Y-47625000D02*
X97965000Y-47625000D01*
X87887500Y-36612742D02*
X87887500Y-43662742D01*
X117341500Y-59931500D02*
X118266000Y-59007000D01*
X87887500Y-43662742D02*
X90299758Y-46075000D01*
X104633925Y-50980000D02*
X101278925Y-47625000D01*
X93206250Y-26193750D02*
X93206250Y-27464779D01*
%TO.N,Net-(D18-A)*%
X112915000Y-24950000D02*
X115705000Y-27740000D01*
X109956250Y-16770000D02*
X109956250Y-24950000D01*
X109956250Y-24950000D02*
X112915000Y-24950000D01*
X112756250Y-13970000D02*
X109956250Y-16770000D01*
%TO.N,Net-(D17-A)*%
X79000000Y2280000D02*
X79000000Y-5900000D01*
X76190000Y-8710000D02*
X72085000Y-8710000D01*
X81800000Y5080000D02*
X79000000Y2280000D01*
X79000000Y-5900000D02*
X76190000Y-8710000D01*
%TO.N,Net-(D16-A)*%
X119900000Y5080000D02*
X117100000Y2280000D01*
X117100000Y2280000D02*
X117100000Y-5900000D01*
X117100000Y-5900000D02*
X114270000Y-8730000D01*
X114270000Y-8730000D02*
X109395000Y-8730000D01*
%TO.N,Net-(D15-A)*%
X77155000Y-44000000D02*
X79925000Y-46770000D01*
X74237500Y-44000000D02*
X77155000Y-44000000D01*
X77037500Y-33020000D02*
X74237500Y-35820000D01*
X74237500Y-35820000D02*
X74237500Y-44000000D01*
%TO.N,Net-(D14-A)*%
X64712500Y-16770000D02*
X64712500Y-24950000D01*
X67695000Y-24950000D02*
X70505000Y-27760000D01*
X67512500Y-13970000D02*
X64712500Y-16770000D01*
X64712500Y-24950000D02*
X67695000Y-24950000D01*
%TO.N,Net-(D13-A)*%
X59950000Y2280000D02*
X59950000Y-5900000D01*
X62750000Y5080000D02*
X59950000Y2280000D01*
X59950000Y-5900000D02*
X62855000Y-5900000D01*
X62855000Y-5900000D02*
X65705000Y-8750000D01*
%TO.N,Net-(D12-A)*%
X86562500Y-13970000D02*
X83762500Y-16770000D01*
X83762500Y-16770000D02*
X83762500Y-24950000D01*
X86775000Y-24950000D02*
X89525000Y-27700000D01*
X83762500Y-24950000D02*
X86775000Y-24950000D01*
%TO.N,Net-(D11-A)*%
X55187500Y-35820000D02*
X55187500Y-44000000D01*
X55187500Y-44000000D02*
X58075000Y-44000000D01*
X58075000Y-44000000D02*
X60955000Y-46880000D01*
X57987500Y-33020000D02*
X55187500Y-35820000D01*
%TO.N,Net-(D10-A)*%
X45662500Y-16770000D02*
X45662500Y-24950000D01*
X48462500Y-13970000D02*
X45662500Y-16770000D01*
X48605000Y-24950000D02*
X51385000Y-27730000D01*
X45662500Y-24950000D02*
X48605000Y-24950000D01*
%TO.N,Net-(D9-A)*%
X43825000Y-5900000D02*
X46605000Y-8680000D01*
X40900000Y-5900000D02*
X43825000Y-5900000D01*
X40900000Y2280000D02*
X40900000Y-5900000D01*
X43700000Y5080000D02*
X40900000Y2280000D01*
%TO.N,Net-(D8-A)*%
X93287500Y-44000000D02*
X96165000Y-44000000D01*
X96087500Y-33020000D02*
X93287500Y-35820000D01*
X93287500Y-35820000D02*
X93287500Y-44000000D01*
X96165000Y-44000000D02*
X99015000Y-46850000D01*
%TO.N,Net-(D7-A)*%
X38937500Y-33020000D02*
X36137500Y-35820000D01*
X36137500Y-35820000D02*
X36137500Y-44000000D01*
X36137500Y-44000000D02*
X39045000Y-44000000D01*
X39045000Y-44000000D02*
X41795000Y-46750000D01*
%TO.N,Net-(D6-A)*%
X29445000Y-24950000D02*
X32275000Y-27780000D01*
X26612500Y-16770000D02*
X26612500Y-24950000D01*
X26612500Y-24950000D02*
X29445000Y-24950000D01*
X29412500Y-13970000D02*
X26612500Y-16770000D01*
%TO.N,Net-(D5-A)*%
X14535000Y-8670000D02*
X19080000Y-8670000D01*
X21850000Y2280000D02*
X21850000Y-5900000D01*
X19080000Y-8670000D02*
X21850000Y-5900000D01*
X24650000Y5080000D02*
X21850000Y2280000D01*
%TO.N,Row3*%
X90134072Y-46475000D02*
X87709072Y-44050000D01*
X87709072Y-44050000D02*
X79570000Y-44050000D01*
X85975000Y-25655000D02*
X85950000Y-25630000D01*
X99550000Y-10040000D02*
X99550000Y-8655000D01*
X99550000Y-8655000D02*
X99565000Y-8640000D01*
X90509073Y-46850000D02*
X90134072Y-46475000D01*
X95465000Y-46850000D02*
X95465000Y-54939000D01*
X95465000Y-46850000D02*
X90509073Y-46850000D01*
X79570000Y-44050000D02*
X79570000Y-27780000D01*
X95465000Y-54939000D02*
X105566000Y-65040000D01*
X105845000Y-9985000D02*
X105870000Y-10010000D01*
X105845000Y-8730000D02*
X105845000Y-9985000D01*
X85975000Y-27700000D02*
X85975000Y-25655000D01*
%TO.N,Row2*%
X57405000Y-46880000D02*
X57405000Y-49135000D01*
X118075000Y-44200000D02*
X118075000Y-45945000D01*
X113186000Y-65040000D02*
X112453000Y-64307000D01*
X112453000Y-59757000D02*
X117090000Y-55120000D01*
X112453000Y-64307000D02*
X112453000Y-59757000D01*
X117090000Y-55120000D02*
X117066000Y-55096000D01*
X117066000Y-55096000D02*
X117066000Y-46954000D01*
X76375000Y-46770000D02*
X76375000Y-49125000D01*
X57405000Y-49135000D02*
X57430000Y-49160000D01*
X117066000Y-46954000D02*
X118040000Y-45980000D01*
X118075000Y-45945000D02*
X118040000Y-45980000D01*
X38245000Y-49105000D02*
X38190000Y-49160000D01*
X38245000Y-46750000D02*
X38245000Y-49105000D01*
X76375000Y-49125000D02*
X76340000Y-49160000D01*
%TO.N,Net-(D3-A)*%
X17087500Y-35820000D02*
X17087500Y-44000000D01*
X19887500Y-33020000D02*
X17087500Y-35820000D01*
X17087500Y-44000000D02*
X20005000Y-44000000D01*
X20005000Y-44000000D02*
X22815000Y-46810000D01*
%TO.N,Row1*%
X47835000Y-27730000D02*
X47835000Y-29765000D01*
X112160000Y-29720000D02*
X122370000Y-29720000D01*
X123260000Y-30610000D02*
X123260000Y-61304314D01*
X123260000Y-61304314D02*
X121314314Y-63250000D01*
X112160000Y-27745000D02*
X112155000Y-27740000D01*
X112160000Y-29720000D02*
X112160000Y-27745000D01*
X117516000Y-63250000D02*
X115726000Y-65040000D01*
X28725000Y-27780000D02*
X28725000Y-29765000D01*
X66955000Y-27760000D02*
X66955000Y-29775000D01*
X28725000Y-29765000D02*
X28740000Y-29780000D01*
X9745000Y-29765000D02*
X9760000Y-29780000D01*
X9745000Y-27730000D02*
X9745000Y-29765000D01*
X122370000Y-29720000D02*
X123260000Y-30610000D01*
X47835000Y-29765000D02*
X47820000Y-29780000D01*
X66955000Y-29775000D02*
X66950000Y-29780000D01*
X121314314Y-63250000D02*
X117516000Y-63250000D01*
%TO.N,Net-(D2-A)*%
X10515000Y-24950000D02*
X13295000Y-27730000D01*
X10362500Y-13970000D02*
X7562500Y-16770000D01*
X7562500Y-16770000D02*
X7562500Y-24950000D01*
X7562500Y-24950000D02*
X10515000Y-24950000D01*
%TO.N,Row0*%
X4920000Y-10110000D02*
X4920000Y-8675000D01*
X122575000Y-25520000D02*
X123660000Y-26605000D01*
X121480000Y-63650000D02*
X119656000Y-63650000D01*
X121580000Y-10720000D02*
X122575000Y-11715000D01*
X43055000Y-8680000D02*
X43055000Y-10545000D01*
X123660000Y-61470000D02*
X121480000Y-63650000D01*
X96280000Y-10720000D02*
X121580000Y-10720000D01*
X122575000Y-11715000D02*
X122575000Y-25520000D01*
X123660000Y-26605000D02*
X123660000Y-61470000D01*
X10985000Y-8670000D02*
X10985000Y-9655000D01*
X62155000Y-8750000D02*
X62155000Y-10525000D01*
X68535000Y-10575000D02*
X68530000Y-10580000D01*
X119656000Y-63650000D02*
X118266000Y-65040000D01*
X62155000Y-10525000D02*
X62100000Y-10580000D01*
X10985000Y-9655000D02*
X11440000Y-10110000D01*
X4920000Y-8675000D02*
X4865000Y-8620000D01*
X68535000Y-8710000D02*
X68535000Y-10575000D01*
X43055000Y-10545000D02*
X43020000Y-10580000D01*
%TO.N,Net-(D1-A)*%
X2800000Y2280000D02*
X2800000Y-5900000D01*
X5695000Y-5900000D02*
X8415000Y-8620000D01*
X2800000Y-5900000D02*
X5695000Y-5900000D01*
X5600000Y5080000D02*
X2800000Y2280000D01*
%TO.N,Bat*%
X121970000Y-26130000D02*
X121970000Y-14870000D01*
X117285314Y-62915000D02*
X117376000Y-62824314D01*
X121174314Y-62824314D02*
X122860000Y-61138628D01*
X114553000Y-62915000D02*
X117285314Y-62915000D01*
X122550000Y-26710000D02*
X121970000Y-26130000D01*
X122860000Y-61138628D02*
X122860000Y-31100000D01*
X117376000Y-62824314D02*
X121174314Y-62824314D01*
X113503000Y-61865000D02*
X114553000Y-62915000D01*
X122860000Y-31100000D02*
X122560000Y-30800000D01*
X121970000Y-14870000D02*
X121220000Y-14120000D01*
%TO.N,Net-(J8-Pin_2)*%
X121220000Y-26280000D02*
X121220000Y-16620000D01*
X121210000Y-26640000D02*
X121210000Y-26290000D01*
X121210000Y-26290000D02*
X121220000Y-26280000D01*
%TD*%
M02*
