M48
; DRILL file {KiCad 8.0.7} date 2025-01-10T20:35:00+0900
; FORMAT={-:-/ absolute / metric / decimal}
; #@! TF.CreationDate,2025-01-10T20:35:00+09:00
; #@! TF.GenerationSoftware,Kicad,Pcbnew,8.0.7
; #@! TF.FileFunction,NonPlated,1,2,NPTH
FMAT,2
METRIC
; #@! TA.AperFunction,NonPlated,NPTH,ComponentDrill
T1C1.700
; #@! TA.AperFunction,NonPlated,NPTH,ComponentDrill
T2C1.900
; #@! TA.AperFunction,NonPlated,NPTH,ComponentDrill
T3C3.000
; #@! TA.AperFunction,NonPlated,NPTH,ComponentDrill
T4C5.000
%
G90
G05
T1
X-5.08Y0.0
X-4.5Y0.0
X-0.318Y-19.05
X0.263Y-19.05
X4.5Y0.0
X5.08Y0.0
X6.826Y-57.15
X7.406Y-57.15
X9.207Y-38.1
X9.262Y-19.05
X9.787Y-38.1
X9.842Y-19.05
X13.97Y0.0
X14.55Y0.0
X16.406Y-57.15
X16.986Y-57.15
X18.732Y-19.05
X18.787Y-38.1
X19.312Y-19.05
X19.367Y-38.1
X23.55Y0.0
X24.13Y0.0
X28.258Y-38.1
X28.312Y-19.05
X28.837Y-38.1
X28.892Y-19.05
X33.02Y0.0
X33.6Y0.0
X37.782Y-19.05
X37.837Y-38.1
X38.362Y-19.05
X38.417Y-38.1
X42.6Y0.0
X43.18Y0.0
X47.307Y-38.1
X47.362Y-19.05
X47.887Y-38.1
X47.942Y-19.05
X52.07Y0.0
X52.65Y0.0
X56.832Y-19.05
X56.887Y-38.1
X57.412Y-19.05
X57.467Y-38.1
X61.65Y0.0
X62.23Y0.0
X66.358Y-38.1
X66.412Y-19.05
X66.938Y-38.1
X66.992Y-19.05
X71.12Y0.0
X71.7Y0.0
X75.882Y-19.05
X75.938Y-38.1
X76.462Y-19.05
X76.517Y-38.1
X80.7Y0.0
X81.28Y0.0
X85.407Y-38.1
X85.462Y-19.05
X85.987Y-38.1
X86.042Y-19.05
X90.17Y0.0
X90.75Y0.0
X94.987Y-38.1
X95.567Y-38.1
X99.75Y0.0
X100.33Y0.0
X102.076Y-19.05
X102.656Y-19.05
X106.839Y-38.1
X107.419Y-38.1
X109.22Y0.0
X109.8Y0.0
X111.656Y-19.05
X112.236Y-19.05
X116.419Y-38.1
X116.999Y-38.1
X118.8Y0.0
X119.38Y0.0
T2
X-5.5Y0.0
X-0.737Y-19.05
X5.5Y0.0
X6.406Y-57.15
X8.787Y-38.1
X10.262Y-19.05
X13.55Y0.0
X17.406Y-57.15
X18.312Y-19.05
X19.787Y-38.1
X24.55Y0.0
X27.837Y-38.1
X29.312Y-19.05
X32.6Y0.0
X37.362Y-19.05
X38.837Y-38.1
X43.6Y0.0
X46.887Y-38.1
X48.362Y-19.05
X51.65Y0.0
X56.412Y-19.05
X57.887Y-38.1
X62.65Y0.0
X65.938Y-38.1
X67.412Y-19.05
X70.7Y0.0
X75.462Y-19.05
X76.938Y-38.1
X81.7Y0.0
X84.987Y-38.1
X86.462Y-19.05
X89.75Y0.0
X95.987Y-38.1
X100.75Y0.0
X101.656Y-19.05
X106.419Y-38.1
X108.8Y0.0
X112.656Y-19.05
X117.419Y-38.1
X119.8Y0.0
T3
X-5.0Y-3.7
X-3.81Y2.54
X-0.237Y-22.75
X0.0Y-5.9
X0.952Y-16.51
X2.54Y5.08
X4.763Y-24.95
X6.906Y-60.85
X7.302Y-13.97
X8.096Y-54.61
X9.287Y-41.8
X10.477Y-35.56
X11.906Y-63.05
X14.05Y-3.7
X14.287Y-44.0
X14.446Y-52.07
X15.24Y2.54
X16.828Y-33.02
X18.812Y-22.75
X19.05Y-5.9
X20.002Y-16.51
X21.59Y5.08
X23.812Y-24.95
X26.352Y-13.97
X28.337Y-41.8
X29.527Y-35.56
X33.1Y-3.7
X33.337Y-44.0
X34.29Y2.54
X35.877Y-33.02
X37.862Y-22.75
X38.1Y-5.9
X39.052Y-16.51
X40.64Y5.08
X42.862Y-24.95
X45.402Y-13.97
X47.387Y-41.8
X48.578Y-35.56
X52.15Y-3.7
X52.387Y-44.0
X53.34Y2.54
X54.927Y-33.02
X56.912Y-22.75
X57.15Y-5.9
X58.102Y-16.51
X59.69Y5.08
X61.912Y-24.95
X64.453Y-13.97
X66.438Y-41.8
X67.627Y-35.56
X71.2Y-3.7
X71.438Y-44.0
X72.39Y2.54
X73.977Y-33.02
X75.962Y-22.75
X76.2Y-5.9
X77.153Y-16.51
X78.74Y5.08
X80.962Y-24.95
X83.502Y-13.97
X85.487Y-41.8
X86.677Y-35.56
X90.25Y-3.7
X90.487Y-44.0
X91.44Y2.54
X93.027Y-33.02
X95.25Y-5.9
X97.79Y5.08
X102.156Y-22.75
X103.346Y-16.51
X106.919Y-41.8
X107.156Y-24.95
X108.109Y-35.56
X109.3Y-3.7
X109.696Y-13.97
X110.49Y2.54
X111.919Y-44.0
X114.3Y-5.9
X114.459Y-33.02
X116.84Y5.08
T4
X0.0Y0.0
X4.763Y-19.05
X11.906Y-57.15
X14.287Y-38.1
X19.05Y0.0
X23.812Y-19.05
X33.337Y-38.1
X38.1Y0.0
X42.862Y-19.05
X52.387Y-38.1
X57.15Y0.0
X61.912Y-19.05
X71.438Y-38.1
X76.2Y0.0
X80.962Y-19.05
X90.487Y-38.1
X95.25Y0.0
X107.156Y-19.05
X111.919Y-38.1
X114.3Y0.0
M30
