%TF.GenerationSoftware,KiCad,Pcbnew,8.0.7*%
%TF.CreationDate,2025-01-10T20:34:57+09:00*%
%TF.ProjectId,cool937tb_R_v2,636f6f6c-3933-4377-9462-5f525f76322e,rev?*%
%TF.SameCoordinates,Original*%
%TF.FileFunction,Legend,Bot*%
%TF.FilePolarity,Positive*%
%FSLAX46Y46*%
G04 Gerber Fmt 4.6, Leading zero omitted, Abs format (unit mm)*
G04 Created by KiCad (PCBNEW 8.0.7) date 2025-01-10 20:34:57*
%MOMM*%
%LPD*%
G01*
G04 APERTURE LIST*
%ADD10C,0.300000*%
%ADD11C,0.125000*%
%ADD12C,0.150000*%
G04 APERTURE END LIST*
D10*
X-4170432Y-33867368D02*
X-4099003Y-33724510D01*
X-4099003Y-33724510D02*
X-4099003Y-33438796D01*
X-4099003Y-33438796D02*
X-4170432Y-33295939D01*
X-4170432Y-33295939D02*
X-4241860Y-33224510D01*
X-4241860Y-33224510D02*
X-4384717Y-33153082D01*
X-4384717Y-33153082D02*
X-4813289Y-33153082D01*
X-4813289Y-33153082D02*
X-4956146Y-33224510D01*
X-4956146Y-33224510D02*
X-5027574Y-33295939D01*
X-5027574Y-33295939D02*
X-5099003Y-33438796D01*
X-5099003Y-33438796D02*
X-5099003Y-33724510D01*
X-5099003Y-33724510D02*
X-5027574Y-33867368D01*
X-4099003Y-34724510D02*
X-4170432Y-34581653D01*
X-4170432Y-34581653D02*
X-4241860Y-34510224D01*
X-4241860Y-34510224D02*
X-4384717Y-34438796D01*
X-4384717Y-34438796D02*
X-4813289Y-34438796D01*
X-4813289Y-34438796D02*
X-4956146Y-34510224D01*
X-4956146Y-34510224D02*
X-5027574Y-34581653D01*
X-5027574Y-34581653D02*
X-5099003Y-34724510D01*
X-5099003Y-34724510D02*
X-5099003Y-34938796D01*
X-5099003Y-34938796D02*
X-5027574Y-35081653D01*
X-5027574Y-35081653D02*
X-4956146Y-35153082D01*
X-4956146Y-35153082D02*
X-4813289Y-35224510D01*
X-4813289Y-35224510D02*
X-4384717Y-35224510D01*
X-4384717Y-35224510D02*
X-4241860Y-35153082D01*
X-4241860Y-35153082D02*
X-4170432Y-35081653D01*
X-4170432Y-35081653D02*
X-4099003Y-34938796D01*
X-4099003Y-34938796D02*
X-4099003Y-34724510D01*
X-4099003Y-36081653D02*
X-4170432Y-35938796D01*
X-4170432Y-35938796D02*
X-4241860Y-35867367D01*
X-4241860Y-35867367D02*
X-4384717Y-35795939D01*
X-4384717Y-35795939D02*
X-4813289Y-35795939D01*
X-4813289Y-35795939D02*
X-4956146Y-35867367D01*
X-4956146Y-35867367D02*
X-5027574Y-35938796D01*
X-5027574Y-35938796D02*
X-5099003Y-36081653D01*
X-5099003Y-36081653D02*
X-5099003Y-36295939D01*
X-5099003Y-36295939D02*
X-5027574Y-36438796D01*
X-5027574Y-36438796D02*
X-4956146Y-36510225D01*
X-4956146Y-36510225D02*
X-4813289Y-36581653D01*
X-4813289Y-36581653D02*
X-4384717Y-36581653D01*
X-4384717Y-36581653D02*
X-4241860Y-36510225D01*
X-4241860Y-36510225D02*
X-4170432Y-36438796D01*
X-4170432Y-36438796D02*
X-4099003Y-36295939D01*
X-4099003Y-36295939D02*
X-4099003Y-36081653D01*
X-4099003Y-37438796D02*
X-4170432Y-37295939D01*
X-4170432Y-37295939D02*
X-4313289Y-37224510D01*
X-4313289Y-37224510D02*
X-5599003Y-37224510D01*
X-4099003Y-38081653D02*
X-4099003Y-38367367D01*
X-4099003Y-38367367D02*
X-4170432Y-38510224D01*
X-4170432Y-38510224D02*
X-4241860Y-38581653D01*
X-4241860Y-38581653D02*
X-4456146Y-38724510D01*
X-4456146Y-38724510D02*
X-4741860Y-38795939D01*
X-4741860Y-38795939D02*
X-5313289Y-38795939D01*
X-5313289Y-38795939D02*
X-5456146Y-38724510D01*
X-5456146Y-38724510D02*
X-5527574Y-38653082D01*
X-5527574Y-38653082D02*
X-5599003Y-38510224D01*
X-5599003Y-38510224D02*
X-5599003Y-38224510D01*
X-5599003Y-38224510D02*
X-5527574Y-38081653D01*
X-5527574Y-38081653D02*
X-5456146Y-38010224D01*
X-5456146Y-38010224D02*
X-5313289Y-37938796D01*
X-5313289Y-37938796D02*
X-4956146Y-37938796D01*
X-4956146Y-37938796D02*
X-4813289Y-38010224D01*
X-4813289Y-38010224D02*
X-4741860Y-38081653D01*
X-4741860Y-38081653D02*
X-4670432Y-38224510D01*
X-4670432Y-38224510D02*
X-4670432Y-38510224D01*
X-4670432Y-38510224D02*
X-4741860Y-38653082D01*
X-4741860Y-38653082D02*
X-4813289Y-38724510D01*
X-4813289Y-38724510D02*
X-4956146Y-38795939D01*
X-5099003Y-40081653D02*
X-4099003Y-40081653D01*
X-5670432Y-39724510D02*
X-4599003Y-39367367D01*
X-4599003Y-39367367D02*
X-4599003Y-40295938D01*
X-5456146Y-40795938D02*
X-5527574Y-40867366D01*
X-5527574Y-40867366D02*
X-5599003Y-41010224D01*
X-5599003Y-41010224D02*
X-5599003Y-41367366D01*
X-5599003Y-41367366D02*
X-5527574Y-41510224D01*
X-5527574Y-41510224D02*
X-5456146Y-41581652D01*
X-5456146Y-41581652D02*
X-5313289Y-41653081D01*
X-5313289Y-41653081D02*
X-5170432Y-41653081D01*
X-5170432Y-41653081D02*
X-4956146Y-41581652D01*
X-4956146Y-41581652D02*
X-4099003Y-40724509D01*
X-4099003Y-40724509D02*
X-4099003Y-41653081D01*
X-5099003Y-42081652D02*
X-5099003Y-42653080D01*
X-5599003Y-42295937D02*
X-4313289Y-42295937D01*
X-4313289Y-42295937D02*
X-4170432Y-42367366D01*
X-4170432Y-42367366D02*
X-4099003Y-42510223D01*
X-4099003Y-42510223D02*
X-4099003Y-42653080D01*
X-4099003Y-43153080D02*
X-5599003Y-43153080D01*
X-5027574Y-43153080D02*
X-5099003Y-43295938D01*
X-5099003Y-43295938D02*
X-5099003Y-43581652D01*
X-5099003Y-43581652D02*
X-5027574Y-43724509D01*
X-5027574Y-43724509D02*
X-4956146Y-43795938D01*
X-4956146Y-43795938D02*
X-4813289Y-43867366D01*
X-4813289Y-43867366D02*
X-4384717Y-43867366D01*
X-4384717Y-43867366D02*
X-4241860Y-43795938D01*
X-4241860Y-43795938D02*
X-4170432Y-43724509D01*
X-4170432Y-43724509D02*
X-4099003Y-43581652D01*
X-4099003Y-43581652D02*
X-4099003Y-43295938D01*
X-4099003Y-43295938D02*
X-4170432Y-43153080D01*
X-4099003Y-46295938D02*
X-5599003Y-46295938D01*
X-4170432Y-46295938D02*
X-4099003Y-46153080D01*
X-4099003Y-46153080D02*
X-4099003Y-45867366D01*
X-4099003Y-45867366D02*
X-4170432Y-45724509D01*
X-4170432Y-45724509D02*
X-4241860Y-45653080D01*
X-4241860Y-45653080D02*
X-4384717Y-45581652D01*
X-4384717Y-45581652D02*
X-4813289Y-45581652D01*
X-4813289Y-45581652D02*
X-4956146Y-45653080D01*
X-4956146Y-45653080D02*
X-5027574Y-45724509D01*
X-5027574Y-45724509D02*
X-5099003Y-45867366D01*
X-5099003Y-45867366D02*
X-5099003Y-46153080D01*
X-5099003Y-46153080D02*
X-5027574Y-46295938D01*
X-4170432Y-47581652D02*
X-4099003Y-47438795D01*
X-4099003Y-47438795D02*
X-4099003Y-47153081D01*
X-4099003Y-47153081D02*
X-4170432Y-47010223D01*
X-4170432Y-47010223D02*
X-4313289Y-46938795D01*
X-4313289Y-46938795D02*
X-4884717Y-46938795D01*
X-4884717Y-46938795D02*
X-5027574Y-47010223D01*
X-5027574Y-47010223D02*
X-5099003Y-47153081D01*
X-5099003Y-47153081D02*
X-5099003Y-47438795D01*
X-5099003Y-47438795D02*
X-5027574Y-47581652D01*
X-5027574Y-47581652D02*
X-4884717Y-47653081D01*
X-4884717Y-47653081D02*
X-4741860Y-47653081D01*
X-4741860Y-47653081D02*
X-4599003Y-46938795D01*
X-4170432Y-48224509D02*
X-4099003Y-48367366D01*
X-4099003Y-48367366D02*
X-4099003Y-48653080D01*
X-4099003Y-48653080D02*
X-4170432Y-48795937D01*
X-4170432Y-48795937D02*
X-4313289Y-48867366D01*
X-4313289Y-48867366D02*
X-4384717Y-48867366D01*
X-4384717Y-48867366D02*
X-4527574Y-48795937D01*
X-4527574Y-48795937D02*
X-4599003Y-48653080D01*
X-4599003Y-48653080D02*
X-4599003Y-48438795D01*
X-4599003Y-48438795D02*
X-4670432Y-48295937D01*
X-4670432Y-48295937D02*
X-4813289Y-48224509D01*
X-4813289Y-48224509D02*
X-4884717Y-48224509D01*
X-4884717Y-48224509D02*
X-5027574Y-48295937D01*
X-5027574Y-48295937D02*
X-5099003Y-48438795D01*
X-5099003Y-48438795D02*
X-5099003Y-48653080D01*
X-5099003Y-48653080D02*
X-5027574Y-48795937D01*
X-4099003Y-49510223D02*
X-5099003Y-49510223D01*
X-5599003Y-49510223D02*
X-5527574Y-49438795D01*
X-5527574Y-49438795D02*
X-5456146Y-49510223D01*
X-5456146Y-49510223D02*
X-5527574Y-49581652D01*
X-5527574Y-49581652D02*
X-5599003Y-49510223D01*
X-5599003Y-49510223D02*
X-5456146Y-49510223D01*
X-5099003Y-50867367D02*
X-3884717Y-50867367D01*
X-3884717Y-50867367D02*
X-3741860Y-50795938D01*
X-3741860Y-50795938D02*
X-3670432Y-50724509D01*
X-3670432Y-50724509D02*
X-3599003Y-50581652D01*
X-3599003Y-50581652D02*
X-3599003Y-50367367D01*
X-3599003Y-50367367D02*
X-3670432Y-50224509D01*
X-4170432Y-50867367D02*
X-4099003Y-50724509D01*
X-4099003Y-50724509D02*
X-4099003Y-50438795D01*
X-4099003Y-50438795D02*
X-4170432Y-50295938D01*
X-4170432Y-50295938D02*
X-4241860Y-50224509D01*
X-4241860Y-50224509D02*
X-4384717Y-50153081D01*
X-4384717Y-50153081D02*
X-4813289Y-50153081D01*
X-4813289Y-50153081D02*
X-4956146Y-50224509D01*
X-4956146Y-50224509D02*
X-5027574Y-50295938D01*
X-5027574Y-50295938D02*
X-5099003Y-50438795D01*
X-5099003Y-50438795D02*
X-5099003Y-50724509D01*
X-5099003Y-50724509D02*
X-5027574Y-50867367D01*
X-5099003Y-51581652D02*
X-4099003Y-51581652D01*
X-4956146Y-51581652D02*
X-5027574Y-51653081D01*
X-5027574Y-51653081D02*
X-5099003Y-51795938D01*
X-5099003Y-51795938D02*
X-5099003Y-52010224D01*
X-5099003Y-52010224D02*
X-5027574Y-52153081D01*
X-5027574Y-52153081D02*
X-4884717Y-52224510D01*
X-4884717Y-52224510D02*
X-4099003Y-52224510D01*
X-4170432Y-53510224D02*
X-4099003Y-53367367D01*
X-4099003Y-53367367D02*
X-4099003Y-53081653D01*
X-4099003Y-53081653D02*
X-4170432Y-52938795D01*
X-4170432Y-52938795D02*
X-4313289Y-52867367D01*
X-4313289Y-52867367D02*
X-4884717Y-52867367D01*
X-4884717Y-52867367D02*
X-5027574Y-52938795D01*
X-5027574Y-52938795D02*
X-5099003Y-53081653D01*
X-5099003Y-53081653D02*
X-5099003Y-53367367D01*
X-5099003Y-53367367D02*
X-5027574Y-53510224D01*
X-5027574Y-53510224D02*
X-4884717Y-53581653D01*
X-4884717Y-53581653D02*
X-4741860Y-53581653D01*
X-4741860Y-53581653D02*
X-4599003Y-52867367D01*
X-4099003Y-54867367D02*
X-5599003Y-54867367D01*
X-4170432Y-54867367D02*
X-4099003Y-54724509D01*
X-4099003Y-54724509D02*
X-4099003Y-54438795D01*
X-4099003Y-54438795D02*
X-4170432Y-54295938D01*
X-4170432Y-54295938D02*
X-4241860Y-54224509D01*
X-4241860Y-54224509D02*
X-4384717Y-54153081D01*
X-4384717Y-54153081D02*
X-4813289Y-54153081D01*
X-4813289Y-54153081D02*
X-4956146Y-54224509D01*
X-4956146Y-54224509D02*
X-5027574Y-54295938D01*
X-5027574Y-54295938D02*
X-5099003Y-54438795D01*
X-5099003Y-54438795D02*
X-5099003Y-54724509D01*
X-5099003Y-54724509D02*
X-5027574Y-54867367D01*
X-4099003Y-56724509D02*
X-5599003Y-56724509D01*
X-5027574Y-56724509D02*
X-5099003Y-56867367D01*
X-5099003Y-56867367D02*
X-5099003Y-57153081D01*
X-5099003Y-57153081D02*
X-5027574Y-57295938D01*
X-5027574Y-57295938D02*
X-4956146Y-57367367D01*
X-4956146Y-57367367D02*
X-4813289Y-57438795D01*
X-4813289Y-57438795D02*
X-4384717Y-57438795D01*
X-4384717Y-57438795D02*
X-4241860Y-57367367D01*
X-4241860Y-57367367D02*
X-4170432Y-57295938D01*
X-4170432Y-57295938D02*
X-4099003Y-57153081D01*
X-4099003Y-57153081D02*
X-4099003Y-56867367D01*
X-4099003Y-56867367D02*
X-4170432Y-56724509D01*
X-5099003Y-57938795D02*
X-4099003Y-58295938D01*
X-5099003Y-58653081D02*
X-4099003Y-58295938D01*
X-4099003Y-58295938D02*
X-3741860Y-58153081D01*
X-3741860Y-58153081D02*
X-3670432Y-58081652D01*
X-3670432Y-58081652D02*
X-3599003Y-57938795D01*
X-4099003Y-60367366D02*
X-5099003Y-60367366D01*
X-4956146Y-60367366D02*
X-5027574Y-60438795D01*
X-5027574Y-60438795D02*
X-5099003Y-60581652D01*
X-5099003Y-60581652D02*
X-5099003Y-60795938D01*
X-5099003Y-60795938D02*
X-5027574Y-60938795D01*
X-5027574Y-60938795D02*
X-4884717Y-61010224D01*
X-4884717Y-61010224D02*
X-4099003Y-61010224D01*
X-4884717Y-61010224D02*
X-5027574Y-61081652D01*
X-5027574Y-61081652D02*
X-5099003Y-61224509D01*
X-5099003Y-61224509D02*
X-5099003Y-61438795D01*
X-5099003Y-61438795D02*
X-5027574Y-61581652D01*
X-5027574Y-61581652D02*
X-4884717Y-61653081D01*
X-4884717Y-61653081D02*
X-4099003Y-61653081D01*
X-4241860Y-62367366D02*
X-4170432Y-62438795D01*
X-4170432Y-62438795D02*
X-4099003Y-62367366D01*
X-4099003Y-62367366D02*
X-4170432Y-62295938D01*
X-4170432Y-62295938D02*
X-4241860Y-62367366D01*
X-4241860Y-62367366D02*
X-4099003Y-62367366D01*
X-4099003Y-63081652D02*
X-5599003Y-63081652D01*
X-4670432Y-63224510D02*
X-4099003Y-63653081D01*
X-5099003Y-63653081D02*
X-4527574Y-63081652D01*
X-4099003Y-64295938D02*
X-5099003Y-64295938D01*
X-5599003Y-64295938D02*
X-5527574Y-64224510D01*
X-5527574Y-64224510D02*
X-5456146Y-64295938D01*
X-5456146Y-64295938D02*
X-5527574Y-64367367D01*
X-5527574Y-64367367D02*
X-5599003Y-64295938D01*
X-5599003Y-64295938D02*
X-5456146Y-64295938D01*
X-1684087Y-33224510D02*
X-2684087Y-33224510D01*
X-3184087Y-33224510D02*
X-3112658Y-33153082D01*
X-3112658Y-33153082D02*
X-3041230Y-33224510D01*
X-3041230Y-33224510D02*
X-3112658Y-33295939D01*
X-3112658Y-33295939D02*
X-3184087Y-33224510D01*
X-3184087Y-33224510D02*
X-3041230Y-33224510D01*
X-2684087Y-33938796D02*
X-1684087Y-33938796D01*
X-2541230Y-33938796D02*
X-2612658Y-34010225D01*
X-2612658Y-34010225D02*
X-2684087Y-34153082D01*
X-2684087Y-34153082D02*
X-2684087Y-34367368D01*
X-2684087Y-34367368D02*
X-2612658Y-34510225D01*
X-2612658Y-34510225D02*
X-2469801Y-34581654D01*
X-2469801Y-34581654D02*
X-1684087Y-34581654D01*
X-1755516Y-35224511D02*
X-1684087Y-35367368D01*
X-1684087Y-35367368D02*
X-1684087Y-35653082D01*
X-1684087Y-35653082D02*
X-1755516Y-35795939D01*
X-1755516Y-35795939D02*
X-1898373Y-35867368D01*
X-1898373Y-35867368D02*
X-1969801Y-35867368D01*
X-1969801Y-35867368D02*
X-2112658Y-35795939D01*
X-2112658Y-35795939D02*
X-2184087Y-35653082D01*
X-2184087Y-35653082D02*
X-2184087Y-35438797D01*
X-2184087Y-35438797D02*
X-2255516Y-35295939D01*
X-2255516Y-35295939D02*
X-2398373Y-35224511D01*
X-2398373Y-35224511D02*
X-2469801Y-35224511D01*
X-2469801Y-35224511D02*
X-2612658Y-35295939D01*
X-2612658Y-35295939D02*
X-2684087Y-35438797D01*
X-2684087Y-35438797D02*
X-2684087Y-35653082D01*
X-2684087Y-35653082D02*
X-2612658Y-35795939D01*
X-2684087Y-36510225D02*
X-1184087Y-36510225D01*
X-2612658Y-36510225D02*
X-2684087Y-36653083D01*
X-2684087Y-36653083D02*
X-2684087Y-36938797D01*
X-2684087Y-36938797D02*
X-2612658Y-37081654D01*
X-2612658Y-37081654D02*
X-2541230Y-37153083D01*
X-2541230Y-37153083D02*
X-2398373Y-37224511D01*
X-2398373Y-37224511D02*
X-1969801Y-37224511D01*
X-1969801Y-37224511D02*
X-1826944Y-37153083D01*
X-1826944Y-37153083D02*
X-1755516Y-37081654D01*
X-1755516Y-37081654D02*
X-1684087Y-36938797D01*
X-1684087Y-36938797D02*
X-1684087Y-36653083D01*
X-1684087Y-36653083D02*
X-1755516Y-36510225D01*
X-1684087Y-37867368D02*
X-2684087Y-37867368D01*
X-3184087Y-37867368D02*
X-3112658Y-37795940D01*
X-3112658Y-37795940D02*
X-3041230Y-37867368D01*
X-3041230Y-37867368D02*
X-3112658Y-37938797D01*
X-3112658Y-37938797D02*
X-3184087Y-37867368D01*
X-3184087Y-37867368D02*
X-3041230Y-37867368D01*
X-1684087Y-38581654D02*
X-2684087Y-38581654D01*
X-2398373Y-38581654D02*
X-2541230Y-38653083D01*
X-2541230Y-38653083D02*
X-2612658Y-38724512D01*
X-2612658Y-38724512D02*
X-2684087Y-38867369D01*
X-2684087Y-38867369D02*
X-2684087Y-39010226D01*
X-1755516Y-40081654D02*
X-1684087Y-39938797D01*
X-1684087Y-39938797D02*
X-1684087Y-39653083D01*
X-1684087Y-39653083D02*
X-1755516Y-39510225D01*
X-1755516Y-39510225D02*
X-1898373Y-39438797D01*
X-1898373Y-39438797D02*
X-2469801Y-39438797D01*
X-2469801Y-39438797D02*
X-2612658Y-39510225D01*
X-2612658Y-39510225D02*
X-2684087Y-39653083D01*
X-2684087Y-39653083D02*
X-2684087Y-39938797D01*
X-2684087Y-39938797D02*
X-2612658Y-40081654D01*
X-2612658Y-40081654D02*
X-2469801Y-40153083D01*
X-2469801Y-40153083D02*
X-2326944Y-40153083D01*
X-2326944Y-40153083D02*
X-2184087Y-39438797D01*
X-1684087Y-41438797D02*
X-3184087Y-41438797D01*
X-1755516Y-41438797D02*
X-1684087Y-41295939D01*
X-1684087Y-41295939D02*
X-1684087Y-41010225D01*
X-1684087Y-41010225D02*
X-1755516Y-40867368D01*
X-1755516Y-40867368D02*
X-1826944Y-40795939D01*
X-1826944Y-40795939D02*
X-1969801Y-40724511D01*
X-1969801Y-40724511D02*
X-2398373Y-40724511D01*
X-2398373Y-40724511D02*
X-2541230Y-40795939D01*
X-2541230Y-40795939D02*
X-2612658Y-40867368D01*
X-2612658Y-40867368D02*
X-2684087Y-41010225D01*
X-2684087Y-41010225D02*
X-2684087Y-41295939D01*
X-2684087Y-41295939D02*
X-2612658Y-41438797D01*
X-1684087Y-43295939D02*
X-3184087Y-43295939D01*
X-2612658Y-43295939D02*
X-2684087Y-43438797D01*
X-2684087Y-43438797D02*
X-2684087Y-43724511D01*
X-2684087Y-43724511D02*
X-2612658Y-43867368D01*
X-2612658Y-43867368D02*
X-2541230Y-43938797D01*
X-2541230Y-43938797D02*
X-2398373Y-44010225D01*
X-2398373Y-44010225D02*
X-1969801Y-44010225D01*
X-1969801Y-44010225D02*
X-1826944Y-43938797D01*
X-1826944Y-43938797D02*
X-1755516Y-43867368D01*
X-1755516Y-43867368D02*
X-1684087Y-43724511D01*
X-1684087Y-43724511D02*
X-1684087Y-43438797D01*
X-1684087Y-43438797D02*
X-1755516Y-43295939D01*
X-2684087Y-44510225D02*
X-1684087Y-44867368D01*
X-2684087Y-45224511D02*
X-1684087Y-44867368D01*
X-1684087Y-44867368D02*
X-1326944Y-44724511D01*
X-1326944Y-44724511D02*
X-1255516Y-44653082D01*
X-1255516Y-44653082D02*
X-1184087Y-44510225D01*
X-1684087Y-46938796D02*
X-2684087Y-46938796D01*
X-2398373Y-46938796D02*
X-2541230Y-47010225D01*
X-2541230Y-47010225D02*
X-2612658Y-47081654D01*
X-2612658Y-47081654D02*
X-2684087Y-47224511D01*
X-2684087Y-47224511D02*
X-2684087Y-47367368D01*
X-1684087Y-48081653D02*
X-1755516Y-47938796D01*
X-1755516Y-47938796D02*
X-1826944Y-47867367D01*
X-1826944Y-47867367D02*
X-1969801Y-47795939D01*
X-1969801Y-47795939D02*
X-2398373Y-47795939D01*
X-2398373Y-47795939D02*
X-2541230Y-47867367D01*
X-2541230Y-47867367D02*
X-2612658Y-47938796D01*
X-2612658Y-47938796D02*
X-2684087Y-48081653D01*
X-2684087Y-48081653D02*
X-2684087Y-48295939D01*
X-2684087Y-48295939D02*
X-2612658Y-48438796D01*
X-2612658Y-48438796D02*
X-2541230Y-48510225D01*
X-2541230Y-48510225D02*
X-2398373Y-48581653D01*
X-2398373Y-48581653D02*
X-1969801Y-48581653D01*
X-1969801Y-48581653D02*
X-1826944Y-48510225D01*
X-1826944Y-48510225D02*
X-1755516Y-48438796D01*
X-1755516Y-48438796D02*
X-1684087Y-48295939D01*
X-1684087Y-48295939D02*
X-1684087Y-48081653D01*
X-2469801Y-49724510D02*
X-2398373Y-49938796D01*
X-2398373Y-49938796D02*
X-2326944Y-50010225D01*
X-2326944Y-50010225D02*
X-2184087Y-50081653D01*
X-2184087Y-50081653D02*
X-1969801Y-50081653D01*
X-1969801Y-50081653D02*
X-1826944Y-50010225D01*
X-1826944Y-50010225D02*
X-1755516Y-49938796D01*
X-1755516Y-49938796D02*
X-1684087Y-49795939D01*
X-1684087Y-49795939D02*
X-1684087Y-49224510D01*
X-1684087Y-49224510D02*
X-3184087Y-49224510D01*
X-3184087Y-49224510D02*
X-3184087Y-49724510D01*
X-3184087Y-49724510D02*
X-3112658Y-49867368D01*
X-3112658Y-49867368D02*
X-3041230Y-49938796D01*
X-3041230Y-49938796D02*
X-2898373Y-50010225D01*
X-2898373Y-50010225D02*
X-2755516Y-50010225D01*
X-2755516Y-50010225D02*
X-2612658Y-49938796D01*
X-2612658Y-49938796D02*
X-2541230Y-49867368D01*
X-2541230Y-49867368D02*
X-2469801Y-49724510D01*
X-2469801Y-49724510D02*
X-2469801Y-49224510D01*
X-1684087Y-51367368D02*
X-2469801Y-51367368D01*
X-2469801Y-51367368D02*
X-2612658Y-51295939D01*
X-2612658Y-51295939D02*
X-2684087Y-51153082D01*
X-2684087Y-51153082D02*
X-2684087Y-50867368D01*
X-2684087Y-50867368D02*
X-2612658Y-50724510D01*
X-1755516Y-51367368D02*
X-1684087Y-51224510D01*
X-1684087Y-51224510D02*
X-1684087Y-50867368D01*
X-1684087Y-50867368D02*
X-1755516Y-50724510D01*
X-1755516Y-50724510D02*
X-1898373Y-50653082D01*
X-1898373Y-50653082D02*
X-2041230Y-50653082D01*
X-2041230Y-50653082D02*
X-2184087Y-50724510D01*
X-2184087Y-50724510D02*
X-2255516Y-50867368D01*
X-2255516Y-50867368D02*
X-2255516Y-51224510D01*
X-2255516Y-51224510D02*
X-2326944Y-51367368D01*
X-2684087Y-53081653D02*
X-1684087Y-53438796D01*
X-1684087Y-53438796D02*
X-2684087Y-53795939D01*
X-1755516Y-54938796D02*
X-1684087Y-54795939D01*
X-1684087Y-54795939D02*
X-1684087Y-54510225D01*
X-1684087Y-54510225D02*
X-1755516Y-54367367D01*
X-1755516Y-54367367D02*
X-1898373Y-54295939D01*
X-1898373Y-54295939D02*
X-2469801Y-54295939D01*
X-2469801Y-54295939D02*
X-2612658Y-54367367D01*
X-2612658Y-54367367D02*
X-2684087Y-54510225D01*
X-2684087Y-54510225D02*
X-2684087Y-54795939D01*
X-2684087Y-54795939D02*
X-2612658Y-54938796D01*
X-2612658Y-54938796D02*
X-2469801Y-55010225D01*
X-2469801Y-55010225D02*
X-2326944Y-55010225D01*
X-2326944Y-55010225D02*
X-2184087Y-54295939D01*
X-1684087Y-55653081D02*
X-2684087Y-55653081D01*
X-2398373Y-55653081D02*
X-2541230Y-55724510D01*
X-2541230Y-55724510D02*
X-2612658Y-55795939D01*
X-2612658Y-55795939D02*
X-2684087Y-55938796D01*
X-2684087Y-55938796D02*
X-2684087Y-56081653D01*
X-1826944Y-56581652D02*
X-1755516Y-56653081D01*
X-1755516Y-56653081D02*
X-1684087Y-56581652D01*
X-1684087Y-56581652D02*
X-1755516Y-56510224D01*
X-1755516Y-56510224D02*
X-1826944Y-56581652D01*
X-1826944Y-56581652D02*
X-1684087Y-56581652D01*
X-3041230Y-57224510D02*
X-3112658Y-57295938D01*
X-3112658Y-57295938D02*
X-3184087Y-57438796D01*
X-3184087Y-57438796D02*
X-3184087Y-57795938D01*
X-3184087Y-57795938D02*
X-3112658Y-57938796D01*
X-3112658Y-57938796D02*
X-3041230Y-58010224D01*
X-3041230Y-58010224D02*
X-2898373Y-58081653D01*
X-2898373Y-58081653D02*
X-2755516Y-58081653D01*
X-2755516Y-58081653D02*
X-2541230Y-58010224D01*
X-2541230Y-58010224D02*
X-1684087Y-57153081D01*
X-1684087Y-57153081D02*
X-1684087Y-58081653D01*
X-1826944Y-58724509D02*
X-1755516Y-58795938D01*
X-1755516Y-58795938D02*
X-1684087Y-58724509D01*
X-1684087Y-58724509D02*
X-1755516Y-58653081D01*
X-1755516Y-58653081D02*
X-1826944Y-58724509D01*
X-1826944Y-58724509D02*
X-1684087Y-58724509D01*
X-3184087Y-59724510D02*
X-3184087Y-59867367D01*
X-3184087Y-59867367D02*
X-3112658Y-60010224D01*
X-3112658Y-60010224D02*
X-3041230Y-60081653D01*
X-3041230Y-60081653D02*
X-2898373Y-60153081D01*
X-2898373Y-60153081D02*
X-2612658Y-60224510D01*
X-2612658Y-60224510D02*
X-2255516Y-60224510D01*
X-2255516Y-60224510D02*
X-1969801Y-60153081D01*
X-1969801Y-60153081D02*
X-1826944Y-60081653D01*
X-1826944Y-60081653D02*
X-1755516Y-60010224D01*
X-1755516Y-60010224D02*
X-1684087Y-59867367D01*
X-1684087Y-59867367D02*
X-1684087Y-59724510D01*
X-1684087Y-59724510D02*
X-1755516Y-59581653D01*
X-1755516Y-59581653D02*
X-1826944Y-59510224D01*
X-1826944Y-59510224D02*
X-1969801Y-59438795D01*
X-1969801Y-59438795D02*
X-2255516Y-59367367D01*
X-2255516Y-59367367D02*
X-2612658Y-59367367D01*
X-2612658Y-59367367D02*
X-2898373Y-59438795D01*
X-2898373Y-59438795D02*
X-3041230Y-59510224D01*
X-3041230Y-59510224D02*
X-3112658Y-59581653D01*
X-3112658Y-59581653D02*
X-3184087Y-59724510D01*
X-3184087Y-61153081D02*
X-3184087Y-61295938D01*
X-3184087Y-61295938D02*
X-3112658Y-61438795D01*
X-3112658Y-61438795D02*
X-3041230Y-61510224D01*
X-3041230Y-61510224D02*
X-2898373Y-61581652D01*
X-2898373Y-61581652D02*
X-2612658Y-61653081D01*
X-2612658Y-61653081D02*
X-2255516Y-61653081D01*
X-2255516Y-61653081D02*
X-1969801Y-61581652D01*
X-1969801Y-61581652D02*
X-1826944Y-61510224D01*
X-1826944Y-61510224D02*
X-1755516Y-61438795D01*
X-1755516Y-61438795D02*
X-1684087Y-61295938D01*
X-1684087Y-61295938D02*
X-1684087Y-61153081D01*
X-1684087Y-61153081D02*
X-1755516Y-61010224D01*
X-1755516Y-61010224D02*
X-1826944Y-60938795D01*
X-1826944Y-60938795D02*
X-1969801Y-60867366D01*
X-1969801Y-60867366D02*
X-2255516Y-60795938D01*
X-2255516Y-60795938D02*
X-2612658Y-60795938D01*
X-2612658Y-60795938D02*
X-2898373Y-60867366D01*
X-2898373Y-60867366D02*
X-3041230Y-60938795D01*
X-3041230Y-60938795D02*
X-3112658Y-61010224D01*
X-3112658Y-61010224D02*
X-3184087Y-61153081D01*
X730828Y-33867368D02*
X-769171Y-33867368D01*
X659400Y-33867368D02*
X730828Y-33724510D01*
X730828Y-33724510D02*
X730828Y-33438796D01*
X730828Y-33438796D02*
X659400Y-33295939D01*
X659400Y-33295939D02*
X587971Y-33224510D01*
X587971Y-33224510D02*
X445114Y-33153082D01*
X445114Y-33153082D02*
X16542Y-33153082D01*
X16542Y-33153082D02*
X-126314Y-33224510D01*
X-126314Y-33224510D02*
X-197742Y-33295939D01*
X-197742Y-33295939D02*
X-269171Y-33438796D01*
X-269171Y-33438796D02*
X-269171Y-33724510D01*
X-269171Y-33724510D02*
X-197742Y-33867368D01*
X730828Y-35224511D02*
X-54885Y-35224511D01*
X-54885Y-35224511D02*
X-197742Y-35153082D01*
X-197742Y-35153082D02*
X-269171Y-35010225D01*
X-269171Y-35010225D02*
X-269171Y-34724511D01*
X-269171Y-34724511D02*
X-197742Y-34581653D01*
X659400Y-35224511D02*
X730828Y-35081653D01*
X730828Y-35081653D02*
X730828Y-34724511D01*
X730828Y-34724511D02*
X659400Y-34581653D01*
X659400Y-34581653D02*
X516542Y-34510225D01*
X516542Y-34510225D02*
X373685Y-34510225D01*
X373685Y-34510225D02*
X230828Y-34581653D01*
X230828Y-34581653D02*
X159400Y-34724511D01*
X159400Y-34724511D02*
X159400Y-35081653D01*
X159400Y-35081653D02*
X87971Y-35224511D01*
X-269171Y-35724511D02*
X-269171Y-36295939D01*
X-769171Y-35938796D02*
X516542Y-35938796D01*
X516542Y-35938796D02*
X659400Y-36010225D01*
X659400Y-36010225D02*
X730828Y-36153082D01*
X730828Y-36153082D02*
X730828Y-36295939D01*
X730828Y-37438797D02*
X-54885Y-37438797D01*
X-54885Y-37438797D02*
X-197742Y-37367368D01*
X-197742Y-37367368D02*
X-269171Y-37224511D01*
X-269171Y-37224511D02*
X-269171Y-36938797D01*
X-269171Y-36938797D02*
X-197742Y-36795939D01*
X659400Y-37438797D02*
X730828Y-37295939D01*
X730828Y-37295939D02*
X730828Y-36938797D01*
X730828Y-36938797D02*
X659400Y-36795939D01*
X659400Y-36795939D02*
X516542Y-36724511D01*
X516542Y-36724511D02*
X373685Y-36724511D01*
X373685Y-36724511D02*
X230828Y-36795939D01*
X230828Y-36795939D02*
X159400Y-36938797D01*
X159400Y-36938797D02*
X159400Y-37295939D01*
X159400Y-37295939D02*
X87971Y-37438797D01*
X-626314Y-39224511D02*
X-697742Y-39295939D01*
X-697742Y-39295939D02*
X-769171Y-39438797D01*
X-769171Y-39438797D02*
X-769171Y-39795939D01*
X-769171Y-39795939D02*
X-697742Y-39938797D01*
X-697742Y-39938797D02*
X-626314Y-40010225D01*
X-626314Y-40010225D02*
X-483457Y-40081654D01*
X-483457Y-40081654D02*
X-340600Y-40081654D01*
X-340600Y-40081654D02*
X-126314Y-40010225D01*
X-126314Y-40010225D02*
X730828Y-39153082D01*
X730828Y-39153082D02*
X730828Y-40081654D01*
X-769171Y-41010225D02*
X-769171Y-41153082D01*
X-769171Y-41153082D02*
X-697742Y-41295939D01*
X-697742Y-41295939D02*
X-626314Y-41367368D01*
X-626314Y-41367368D02*
X-483457Y-41438796D01*
X-483457Y-41438796D02*
X-197742Y-41510225D01*
X-197742Y-41510225D02*
X159400Y-41510225D01*
X159400Y-41510225D02*
X445114Y-41438796D01*
X445114Y-41438796D02*
X587971Y-41367368D01*
X587971Y-41367368D02*
X659400Y-41295939D01*
X659400Y-41295939D02*
X730828Y-41153082D01*
X730828Y-41153082D02*
X730828Y-41010225D01*
X730828Y-41010225D02*
X659400Y-40867368D01*
X659400Y-40867368D02*
X587971Y-40795939D01*
X587971Y-40795939D02*
X445114Y-40724510D01*
X445114Y-40724510D02*
X159400Y-40653082D01*
X159400Y-40653082D02*
X-197742Y-40653082D01*
X-197742Y-40653082D02*
X-483457Y-40724510D01*
X-483457Y-40724510D02*
X-626314Y-40795939D01*
X-626314Y-40795939D02*
X-697742Y-40867368D01*
X-697742Y-40867368D02*
X-769171Y-41010225D01*
X-626314Y-42081653D02*
X-697742Y-42153081D01*
X-697742Y-42153081D02*
X-769171Y-42295939D01*
X-769171Y-42295939D02*
X-769171Y-42653081D01*
X-769171Y-42653081D02*
X-697742Y-42795939D01*
X-697742Y-42795939D02*
X-626314Y-42867367D01*
X-626314Y-42867367D02*
X-483457Y-42938796D01*
X-483457Y-42938796D02*
X-340600Y-42938796D01*
X-340600Y-42938796D02*
X-126314Y-42867367D01*
X-126314Y-42867367D02*
X730828Y-42010224D01*
X730828Y-42010224D02*
X730828Y-42938796D01*
X-769171Y-44295938D02*
X-769171Y-43581652D01*
X-769171Y-43581652D02*
X-54885Y-43510224D01*
X-54885Y-43510224D02*
X-126314Y-43581652D01*
X-126314Y-43581652D02*
X-197742Y-43724510D01*
X-197742Y-43724510D02*
X-197742Y-44081652D01*
X-197742Y-44081652D02*
X-126314Y-44224510D01*
X-126314Y-44224510D02*
X-54885Y-44295938D01*
X-54885Y-44295938D02*
X87971Y-44367367D01*
X87971Y-44367367D02*
X445114Y-44367367D01*
X445114Y-44367367D02*
X587971Y-44295938D01*
X587971Y-44295938D02*
X659400Y-44224510D01*
X659400Y-44224510D02*
X730828Y-44081652D01*
X730828Y-44081652D02*
X730828Y-43724510D01*
X730828Y-43724510D02*
X659400Y-43581652D01*
X659400Y-43581652D02*
X587971Y-43510224D01*
X-769171Y-45295938D02*
X-769171Y-45438795D01*
X-769171Y-45438795D02*
X-697742Y-45581652D01*
X-697742Y-45581652D02*
X-626314Y-45653081D01*
X-626314Y-45653081D02*
X-483457Y-45724509D01*
X-483457Y-45724509D02*
X-197742Y-45795938D01*
X-197742Y-45795938D02*
X159400Y-45795938D01*
X159400Y-45795938D02*
X445114Y-45724509D01*
X445114Y-45724509D02*
X587971Y-45653081D01*
X587971Y-45653081D02*
X659400Y-45581652D01*
X659400Y-45581652D02*
X730828Y-45438795D01*
X730828Y-45438795D02*
X730828Y-45295938D01*
X730828Y-45295938D02*
X659400Y-45153081D01*
X659400Y-45153081D02*
X587971Y-45081652D01*
X587971Y-45081652D02*
X445114Y-45010223D01*
X445114Y-45010223D02*
X159400Y-44938795D01*
X159400Y-44938795D02*
X-197742Y-44938795D01*
X-197742Y-44938795D02*
X-483457Y-45010223D01*
X-483457Y-45010223D02*
X-626314Y-45081652D01*
X-626314Y-45081652D02*
X-697742Y-45153081D01*
X-697742Y-45153081D02*
X-769171Y-45295938D01*
X730828Y-47224509D02*
X730828Y-46367366D01*
X730828Y-46795937D02*
X-769171Y-46795937D01*
X-769171Y-46795937D02*
X-554885Y-46653080D01*
X-554885Y-46653080D02*
X-412028Y-46510223D01*
X-412028Y-46510223D02*
X-340600Y-46367366D01*
X730828Y-48653080D02*
X730828Y-47795937D01*
X730828Y-48224508D02*
X-769171Y-48224508D01*
X-769171Y-48224508D02*
X-554885Y-48081651D01*
X-554885Y-48081651D02*
X-412028Y-47938794D01*
X-412028Y-47938794D02*
X-340600Y-47795937D01*
X-769171Y-49581651D02*
X-769171Y-49724508D01*
X-769171Y-49724508D02*
X-697742Y-49867365D01*
X-697742Y-49867365D02*
X-626314Y-49938794D01*
X-626314Y-49938794D02*
X-483457Y-50010222D01*
X-483457Y-50010222D02*
X-197742Y-50081651D01*
X-197742Y-50081651D02*
X159400Y-50081651D01*
X159400Y-50081651D02*
X445114Y-50010222D01*
X445114Y-50010222D02*
X587971Y-49938794D01*
X587971Y-49938794D02*
X659400Y-49867365D01*
X659400Y-49867365D02*
X730828Y-49724508D01*
X730828Y-49724508D02*
X730828Y-49581651D01*
X730828Y-49581651D02*
X659400Y-49438794D01*
X659400Y-49438794D02*
X587971Y-49367365D01*
X587971Y-49367365D02*
X445114Y-49295936D01*
X445114Y-49295936D02*
X159400Y-49224508D01*
X159400Y-49224508D02*
X-197742Y-49224508D01*
X-197742Y-49224508D02*
X-483457Y-49295936D01*
X-483457Y-49295936D02*
X-626314Y-49367365D01*
X-626314Y-49367365D02*
X-697742Y-49438794D01*
X-697742Y-49438794D02*
X-769171Y-49581651D01*
D11*
X69701428Y-29523595D02*
X69701428Y-28723595D01*
X69701428Y-28723595D02*
X69510952Y-28723595D01*
X69510952Y-28723595D02*
X69396666Y-28761690D01*
X69396666Y-28761690D02*
X69320476Y-28837880D01*
X69320476Y-28837880D02*
X69282381Y-28914071D01*
X69282381Y-28914071D02*
X69244285Y-29066452D01*
X69244285Y-29066452D02*
X69244285Y-29180738D01*
X69244285Y-29180738D02*
X69282381Y-29333119D01*
X69282381Y-29333119D02*
X69320476Y-29409309D01*
X69320476Y-29409309D02*
X69396666Y-29485500D01*
X69396666Y-29485500D02*
X69510952Y-29523595D01*
X69510952Y-29523595D02*
X69701428Y-29523595D01*
X68482381Y-29523595D02*
X68939524Y-29523595D01*
X68710952Y-29523595D02*
X68710952Y-28723595D01*
X68710952Y-28723595D02*
X68787143Y-28837880D01*
X68787143Y-28837880D02*
X68863333Y-28914071D01*
X68863333Y-28914071D02*
X68939524Y-28952166D01*
X67796666Y-28990261D02*
X67796666Y-29523595D01*
X67987142Y-28685500D02*
X68177619Y-29256928D01*
X68177619Y-29256928D02*
X67682380Y-29256928D01*
X50581428Y-29493595D02*
X50581428Y-28693595D01*
X50581428Y-28693595D02*
X50390952Y-28693595D01*
X50390952Y-28693595D02*
X50276666Y-28731690D01*
X50276666Y-28731690D02*
X50200476Y-28807880D01*
X50200476Y-28807880D02*
X50162381Y-28884071D01*
X50162381Y-28884071D02*
X50124285Y-29036452D01*
X50124285Y-29036452D02*
X50124285Y-29150738D01*
X50124285Y-29150738D02*
X50162381Y-29303119D01*
X50162381Y-29303119D02*
X50200476Y-29379309D01*
X50200476Y-29379309D02*
X50276666Y-29455500D01*
X50276666Y-29455500D02*
X50390952Y-29493595D01*
X50390952Y-29493595D02*
X50581428Y-29493595D01*
X49362381Y-29493595D02*
X49819524Y-29493595D01*
X49590952Y-29493595D02*
X49590952Y-28693595D01*
X49590952Y-28693595D02*
X49667143Y-28807880D01*
X49667143Y-28807880D02*
X49743333Y-28884071D01*
X49743333Y-28884071D02*
X49819524Y-28922166D01*
X48867142Y-28693595D02*
X48790952Y-28693595D01*
X48790952Y-28693595D02*
X48714761Y-28731690D01*
X48714761Y-28731690D02*
X48676666Y-28769785D01*
X48676666Y-28769785D02*
X48638571Y-28845976D01*
X48638571Y-28845976D02*
X48600476Y-28998357D01*
X48600476Y-28998357D02*
X48600476Y-29188833D01*
X48600476Y-29188833D02*
X48638571Y-29341214D01*
X48638571Y-29341214D02*
X48676666Y-29417404D01*
X48676666Y-29417404D02*
X48714761Y-29455500D01*
X48714761Y-29455500D02*
X48790952Y-29493595D01*
X48790952Y-29493595D02*
X48867142Y-29493595D01*
X48867142Y-29493595D02*
X48943333Y-29455500D01*
X48943333Y-29455500D02*
X48981428Y-29417404D01*
X48981428Y-29417404D02*
X49019523Y-29341214D01*
X49019523Y-29341214D02*
X49057619Y-29188833D01*
X49057619Y-29188833D02*
X49057619Y-28998357D01*
X49057619Y-28998357D02*
X49019523Y-28845976D01*
X49019523Y-28845976D02*
X48981428Y-28769785D01*
X48981428Y-28769785D02*
X48943333Y-28731690D01*
X48943333Y-28731690D02*
X48867142Y-28693595D01*
X79121428Y-48533595D02*
X79121428Y-47733595D01*
X79121428Y-47733595D02*
X78930952Y-47733595D01*
X78930952Y-47733595D02*
X78816666Y-47771690D01*
X78816666Y-47771690D02*
X78740476Y-47847880D01*
X78740476Y-47847880D02*
X78702381Y-47924071D01*
X78702381Y-47924071D02*
X78664285Y-48076452D01*
X78664285Y-48076452D02*
X78664285Y-48190738D01*
X78664285Y-48190738D02*
X78702381Y-48343119D01*
X78702381Y-48343119D02*
X78740476Y-48419309D01*
X78740476Y-48419309D02*
X78816666Y-48495500D01*
X78816666Y-48495500D02*
X78930952Y-48533595D01*
X78930952Y-48533595D02*
X79121428Y-48533595D01*
X77902381Y-48533595D02*
X78359524Y-48533595D01*
X78130952Y-48533595D02*
X78130952Y-47733595D01*
X78130952Y-47733595D02*
X78207143Y-47847880D01*
X78207143Y-47847880D02*
X78283333Y-47924071D01*
X78283333Y-47924071D02*
X78359524Y-47962166D01*
X77178571Y-47733595D02*
X77559523Y-47733595D01*
X77559523Y-47733595D02*
X77597619Y-48114547D01*
X77597619Y-48114547D02*
X77559523Y-48076452D01*
X77559523Y-48076452D02*
X77483333Y-48038357D01*
X77483333Y-48038357D02*
X77292857Y-48038357D01*
X77292857Y-48038357D02*
X77216666Y-48076452D01*
X77216666Y-48076452D02*
X77178571Y-48114547D01*
X77178571Y-48114547D02*
X77140476Y-48190738D01*
X77140476Y-48190738D02*
X77140476Y-48381214D01*
X77140476Y-48381214D02*
X77178571Y-48457404D01*
X77178571Y-48457404D02*
X77216666Y-48495500D01*
X77216666Y-48495500D02*
X77292857Y-48533595D01*
X77292857Y-48533595D02*
X77483333Y-48533595D01*
X77483333Y-48533595D02*
X77559523Y-48495500D01*
X77559523Y-48495500D02*
X77597619Y-48457404D01*
X64901428Y-10513595D02*
X64901428Y-9713595D01*
X64901428Y-9713595D02*
X64710952Y-9713595D01*
X64710952Y-9713595D02*
X64596666Y-9751690D01*
X64596666Y-9751690D02*
X64520476Y-9827880D01*
X64520476Y-9827880D02*
X64482381Y-9904071D01*
X64482381Y-9904071D02*
X64444285Y-10056452D01*
X64444285Y-10056452D02*
X64444285Y-10170738D01*
X64444285Y-10170738D02*
X64482381Y-10323119D01*
X64482381Y-10323119D02*
X64520476Y-10399309D01*
X64520476Y-10399309D02*
X64596666Y-10475500D01*
X64596666Y-10475500D02*
X64710952Y-10513595D01*
X64710952Y-10513595D02*
X64901428Y-10513595D01*
X63682381Y-10513595D02*
X64139524Y-10513595D01*
X63910952Y-10513595D02*
X63910952Y-9713595D01*
X63910952Y-9713595D02*
X63987143Y-9827880D01*
X63987143Y-9827880D02*
X64063333Y-9904071D01*
X64063333Y-9904071D02*
X64139524Y-9942166D01*
X63415714Y-9713595D02*
X62920476Y-9713595D01*
X62920476Y-9713595D02*
X63187142Y-10018357D01*
X63187142Y-10018357D02*
X63072857Y-10018357D01*
X63072857Y-10018357D02*
X62996666Y-10056452D01*
X62996666Y-10056452D02*
X62958571Y-10094547D01*
X62958571Y-10094547D02*
X62920476Y-10170738D01*
X62920476Y-10170738D02*
X62920476Y-10361214D01*
X62920476Y-10361214D02*
X62958571Y-10437404D01*
X62958571Y-10437404D02*
X62996666Y-10475500D01*
X62996666Y-10475500D02*
X63072857Y-10513595D01*
X63072857Y-10513595D02*
X63301428Y-10513595D01*
X63301428Y-10513595D02*
X63377619Y-10475500D01*
X63377619Y-10475500D02*
X63415714Y-10437404D01*
X7230475Y-10383595D02*
X7230475Y-9583595D01*
X7230475Y-9583595D02*
X7039999Y-9583595D01*
X7039999Y-9583595D02*
X6925713Y-9621690D01*
X6925713Y-9621690D02*
X6849523Y-9697880D01*
X6849523Y-9697880D02*
X6811428Y-9774071D01*
X6811428Y-9774071D02*
X6773332Y-9926452D01*
X6773332Y-9926452D02*
X6773332Y-10040738D01*
X6773332Y-10040738D02*
X6811428Y-10193119D01*
X6811428Y-10193119D02*
X6849523Y-10269309D01*
X6849523Y-10269309D02*
X6925713Y-10345500D01*
X6925713Y-10345500D02*
X7039999Y-10383595D01*
X7039999Y-10383595D02*
X7230475Y-10383595D01*
X6011428Y-10383595D02*
X6468571Y-10383595D01*
X6239999Y-10383595D02*
X6239999Y-9583595D01*
X6239999Y-9583595D02*
X6316190Y-9697880D01*
X6316190Y-9697880D02*
X6392380Y-9774071D01*
X6392380Y-9774071D02*
X6468571Y-9812166D01*
X12110475Y-29493595D02*
X12110475Y-28693595D01*
X12110475Y-28693595D02*
X11919999Y-28693595D01*
X11919999Y-28693595D02*
X11805713Y-28731690D01*
X11805713Y-28731690D02*
X11729523Y-28807880D01*
X11729523Y-28807880D02*
X11691428Y-28884071D01*
X11691428Y-28884071D02*
X11653332Y-29036452D01*
X11653332Y-29036452D02*
X11653332Y-29150738D01*
X11653332Y-29150738D02*
X11691428Y-29303119D01*
X11691428Y-29303119D02*
X11729523Y-29379309D01*
X11729523Y-29379309D02*
X11805713Y-29455500D01*
X11805713Y-29455500D02*
X11919999Y-29493595D01*
X11919999Y-29493595D02*
X12110475Y-29493595D01*
X11348571Y-28769785D02*
X11310475Y-28731690D01*
X11310475Y-28731690D02*
X11234285Y-28693595D01*
X11234285Y-28693595D02*
X11043809Y-28693595D01*
X11043809Y-28693595D02*
X10967618Y-28731690D01*
X10967618Y-28731690D02*
X10929523Y-28769785D01*
X10929523Y-28769785D02*
X10891428Y-28845976D01*
X10891428Y-28845976D02*
X10891428Y-28922166D01*
X10891428Y-28922166D02*
X10929523Y-29036452D01*
X10929523Y-29036452D02*
X11386666Y-29493595D01*
X11386666Y-29493595D02*
X10891428Y-29493595D01*
X71281428Y-10473595D02*
X71281428Y-9673595D01*
X71281428Y-9673595D02*
X71090952Y-9673595D01*
X71090952Y-9673595D02*
X70976666Y-9711690D01*
X70976666Y-9711690D02*
X70900476Y-9787880D01*
X70900476Y-9787880D02*
X70862381Y-9864071D01*
X70862381Y-9864071D02*
X70824285Y-10016452D01*
X70824285Y-10016452D02*
X70824285Y-10130738D01*
X70824285Y-10130738D02*
X70862381Y-10283119D01*
X70862381Y-10283119D02*
X70900476Y-10359309D01*
X70900476Y-10359309D02*
X70976666Y-10435500D01*
X70976666Y-10435500D02*
X71090952Y-10473595D01*
X71090952Y-10473595D02*
X71281428Y-10473595D01*
X70062381Y-10473595D02*
X70519524Y-10473595D01*
X70290952Y-10473595D02*
X70290952Y-9673595D01*
X70290952Y-9673595D02*
X70367143Y-9787880D01*
X70367143Y-9787880D02*
X70443333Y-9864071D01*
X70443333Y-9864071D02*
X70519524Y-9902166D01*
X69795714Y-9673595D02*
X69262380Y-9673595D01*
X69262380Y-9673595D02*
X69605238Y-10473595D01*
X40610475Y-48513595D02*
X40610475Y-47713595D01*
X40610475Y-47713595D02*
X40419999Y-47713595D01*
X40419999Y-47713595D02*
X40305713Y-47751690D01*
X40305713Y-47751690D02*
X40229523Y-47827880D01*
X40229523Y-47827880D02*
X40191428Y-47904071D01*
X40191428Y-47904071D02*
X40153332Y-48056452D01*
X40153332Y-48056452D02*
X40153332Y-48170738D01*
X40153332Y-48170738D02*
X40191428Y-48323119D01*
X40191428Y-48323119D02*
X40229523Y-48399309D01*
X40229523Y-48399309D02*
X40305713Y-48475500D01*
X40305713Y-48475500D02*
X40419999Y-48513595D01*
X40419999Y-48513595D02*
X40610475Y-48513595D01*
X39886666Y-47713595D02*
X39353332Y-47713595D01*
X39353332Y-47713595D02*
X39696190Y-48513595D01*
X60151428Y-48643595D02*
X60151428Y-47843595D01*
X60151428Y-47843595D02*
X59960952Y-47843595D01*
X59960952Y-47843595D02*
X59846666Y-47881690D01*
X59846666Y-47881690D02*
X59770476Y-47957880D01*
X59770476Y-47957880D02*
X59732381Y-48034071D01*
X59732381Y-48034071D02*
X59694285Y-48186452D01*
X59694285Y-48186452D02*
X59694285Y-48300738D01*
X59694285Y-48300738D02*
X59732381Y-48453119D01*
X59732381Y-48453119D02*
X59770476Y-48529309D01*
X59770476Y-48529309D02*
X59846666Y-48605500D01*
X59846666Y-48605500D02*
X59960952Y-48643595D01*
X59960952Y-48643595D02*
X60151428Y-48643595D01*
X58932381Y-48643595D02*
X59389524Y-48643595D01*
X59160952Y-48643595D02*
X59160952Y-47843595D01*
X59160952Y-47843595D02*
X59237143Y-47957880D01*
X59237143Y-47957880D02*
X59313333Y-48034071D01*
X59313333Y-48034071D02*
X59389524Y-48072166D01*
X58170476Y-48643595D02*
X58627619Y-48643595D01*
X58399047Y-48643595D02*
X58399047Y-47843595D01*
X58399047Y-47843595D02*
X58475238Y-47957880D01*
X58475238Y-47957880D02*
X58551428Y-48034071D01*
X58551428Y-48034071D02*
X58627619Y-48072166D01*
X114901428Y-29503595D02*
X114901428Y-28703595D01*
X114901428Y-28703595D02*
X114710952Y-28703595D01*
X114710952Y-28703595D02*
X114596666Y-28741690D01*
X114596666Y-28741690D02*
X114520476Y-28817880D01*
X114520476Y-28817880D02*
X114482381Y-28894071D01*
X114482381Y-28894071D02*
X114444285Y-29046452D01*
X114444285Y-29046452D02*
X114444285Y-29160738D01*
X114444285Y-29160738D02*
X114482381Y-29313119D01*
X114482381Y-29313119D02*
X114520476Y-29389309D01*
X114520476Y-29389309D02*
X114596666Y-29465500D01*
X114596666Y-29465500D02*
X114710952Y-29503595D01*
X114710952Y-29503595D02*
X114901428Y-29503595D01*
X113682381Y-29503595D02*
X114139524Y-29503595D01*
X113910952Y-29503595D02*
X113910952Y-28703595D01*
X113910952Y-28703595D02*
X113987143Y-28817880D01*
X113987143Y-28817880D02*
X114063333Y-28894071D01*
X114063333Y-28894071D02*
X114139524Y-28932166D01*
X113225238Y-29046452D02*
X113301428Y-29008357D01*
X113301428Y-29008357D02*
X113339523Y-28970261D01*
X113339523Y-28970261D02*
X113377619Y-28894071D01*
X113377619Y-28894071D02*
X113377619Y-28855976D01*
X113377619Y-28855976D02*
X113339523Y-28779785D01*
X113339523Y-28779785D02*
X113301428Y-28741690D01*
X113301428Y-28741690D02*
X113225238Y-28703595D01*
X113225238Y-28703595D02*
X113072857Y-28703595D01*
X113072857Y-28703595D02*
X112996666Y-28741690D01*
X112996666Y-28741690D02*
X112958571Y-28779785D01*
X112958571Y-28779785D02*
X112920476Y-28855976D01*
X112920476Y-28855976D02*
X112920476Y-28894071D01*
X112920476Y-28894071D02*
X112958571Y-28970261D01*
X112958571Y-28970261D02*
X112996666Y-29008357D01*
X112996666Y-29008357D02*
X113072857Y-29046452D01*
X113072857Y-29046452D02*
X113225238Y-29046452D01*
X113225238Y-29046452D02*
X113301428Y-29084547D01*
X113301428Y-29084547D02*
X113339523Y-29122642D01*
X113339523Y-29122642D02*
X113377619Y-29198833D01*
X113377619Y-29198833D02*
X113377619Y-29351214D01*
X113377619Y-29351214D02*
X113339523Y-29427404D01*
X113339523Y-29427404D02*
X113301428Y-29465500D01*
X113301428Y-29465500D02*
X113225238Y-29503595D01*
X113225238Y-29503595D02*
X113072857Y-29503595D01*
X113072857Y-29503595D02*
X112996666Y-29465500D01*
X112996666Y-29465500D02*
X112958571Y-29427404D01*
X112958571Y-29427404D02*
X112920476Y-29351214D01*
X112920476Y-29351214D02*
X112920476Y-29198833D01*
X112920476Y-29198833D02*
X112958571Y-29122642D01*
X112958571Y-29122642D02*
X112996666Y-29084547D01*
X112996666Y-29084547D02*
X113072857Y-29046452D01*
X19140475Y-67493595D02*
X19140475Y-66693595D01*
X19140475Y-66693595D02*
X18949999Y-66693595D01*
X18949999Y-66693595D02*
X18835713Y-66731690D01*
X18835713Y-66731690D02*
X18759523Y-66807880D01*
X18759523Y-66807880D02*
X18721428Y-66884071D01*
X18721428Y-66884071D02*
X18683332Y-67036452D01*
X18683332Y-67036452D02*
X18683332Y-67150738D01*
X18683332Y-67150738D02*
X18721428Y-67303119D01*
X18721428Y-67303119D02*
X18759523Y-67379309D01*
X18759523Y-67379309D02*
X18835713Y-67455500D01*
X18835713Y-67455500D02*
X18949999Y-67493595D01*
X18949999Y-67493595D02*
X19140475Y-67493595D01*
X17997618Y-66960261D02*
X17997618Y-67493595D01*
X18188094Y-66655500D02*
X18378571Y-67226928D01*
X18378571Y-67226928D02*
X17883332Y-67226928D01*
X120821428Y-45963595D02*
X120821428Y-45163595D01*
X120821428Y-45163595D02*
X120630952Y-45163595D01*
X120630952Y-45163595D02*
X120516666Y-45201690D01*
X120516666Y-45201690D02*
X120440476Y-45277880D01*
X120440476Y-45277880D02*
X120402381Y-45354071D01*
X120402381Y-45354071D02*
X120364285Y-45506452D01*
X120364285Y-45506452D02*
X120364285Y-45620738D01*
X120364285Y-45620738D02*
X120402381Y-45773119D01*
X120402381Y-45773119D02*
X120440476Y-45849309D01*
X120440476Y-45849309D02*
X120516666Y-45925500D01*
X120516666Y-45925500D02*
X120630952Y-45963595D01*
X120630952Y-45963595D02*
X120821428Y-45963595D01*
X119602381Y-45963595D02*
X120059524Y-45963595D01*
X119830952Y-45963595D02*
X119830952Y-45163595D01*
X119830952Y-45163595D02*
X119907143Y-45277880D01*
X119907143Y-45277880D02*
X119983333Y-45354071D01*
X119983333Y-45354071D02*
X120059524Y-45392166D01*
X119221428Y-45963595D02*
X119069047Y-45963595D01*
X119069047Y-45963595D02*
X118992857Y-45925500D01*
X118992857Y-45925500D02*
X118954761Y-45887404D01*
X118954761Y-45887404D02*
X118878571Y-45773119D01*
X118878571Y-45773119D02*
X118840476Y-45620738D01*
X118840476Y-45620738D02*
X118840476Y-45315976D01*
X118840476Y-45315976D02*
X118878571Y-45239785D01*
X118878571Y-45239785D02*
X118916666Y-45201690D01*
X118916666Y-45201690D02*
X118992857Y-45163595D01*
X118992857Y-45163595D02*
X119145238Y-45163595D01*
X119145238Y-45163595D02*
X119221428Y-45201690D01*
X119221428Y-45201690D02*
X119259523Y-45239785D01*
X119259523Y-45239785D02*
X119297619Y-45315976D01*
X119297619Y-45315976D02*
X119297619Y-45506452D01*
X119297619Y-45506452D02*
X119259523Y-45582642D01*
X119259523Y-45582642D02*
X119221428Y-45620738D01*
X119221428Y-45620738D02*
X119145238Y-45658833D01*
X119145238Y-45658833D02*
X118992857Y-45658833D01*
X118992857Y-45658833D02*
X118916666Y-45620738D01*
X118916666Y-45620738D02*
X118878571Y-45582642D01*
X118878571Y-45582642D02*
X118840476Y-45506452D01*
X13350475Y-10433595D02*
X13350475Y-9633595D01*
X13350475Y-9633595D02*
X13159999Y-9633595D01*
X13159999Y-9633595D02*
X13045713Y-9671690D01*
X13045713Y-9671690D02*
X12969523Y-9747880D01*
X12969523Y-9747880D02*
X12931428Y-9824071D01*
X12931428Y-9824071D02*
X12893332Y-9976452D01*
X12893332Y-9976452D02*
X12893332Y-10090738D01*
X12893332Y-10090738D02*
X12931428Y-10243119D01*
X12931428Y-10243119D02*
X12969523Y-10319309D01*
X12969523Y-10319309D02*
X13045713Y-10395500D01*
X13045713Y-10395500D02*
X13159999Y-10433595D01*
X13159999Y-10433595D02*
X13350475Y-10433595D01*
X12169523Y-9633595D02*
X12550475Y-9633595D01*
X12550475Y-9633595D02*
X12588571Y-10014547D01*
X12588571Y-10014547D02*
X12550475Y-9976452D01*
X12550475Y-9976452D02*
X12474285Y-9938357D01*
X12474285Y-9938357D02*
X12283809Y-9938357D01*
X12283809Y-9938357D02*
X12207618Y-9976452D01*
X12207618Y-9976452D02*
X12169523Y-10014547D01*
X12169523Y-10014547D02*
X12131428Y-10090738D01*
X12131428Y-10090738D02*
X12131428Y-10281214D01*
X12131428Y-10281214D02*
X12169523Y-10357404D01*
X12169523Y-10357404D02*
X12207618Y-10395500D01*
X12207618Y-10395500D02*
X12283809Y-10433595D01*
X12283809Y-10433595D02*
X12474285Y-10433595D01*
X12474285Y-10433595D02*
X12550475Y-10395500D01*
X12550475Y-10395500D02*
X12588571Y-10357404D01*
X88721428Y-29463595D02*
X88721428Y-28663595D01*
X88721428Y-28663595D02*
X88530952Y-28663595D01*
X88530952Y-28663595D02*
X88416666Y-28701690D01*
X88416666Y-28701690D02*
X88340476Y-28777880D01*
X88340476Y-28777880D02*
X88302381Y-28854071D01*
X88302381Y-28854071D02*
X88264285Y-29006452D01*
X88264285Y-29006452D02*
X88264285Y-29120738D01*
X88264285Y-29120738D02*
X88302381Y-29273119D01*
X88302381Y-29273119D02*
X88340476Y-29349309D01*
X88340476Y-29349309D02*
X88416666Y-29425500D01*
X88416666Y-29425500D02*
X88530952Y-29463595D01*
X88530952Y-29463595D02*
X88721428Y-29463595D01*
X87502381Y-29463595D02*
X87959524Y-29463595D01*
X87730952Y-29463595D02*
X87730952Y-28663595D01*
X87730952Y-28663595D02*
X87807143Y-28777880D01*
X87807143Y-28777880D02*
X87883333Y-28854071D01*
X87883333Y-28854071D02*
X87959524Y-28892166D01*
X87197619Y-28739785D02*
X87159523Y-28701690D01*
X87159523Y-28701690D02*
X87083333Y-28663595D01*
X87083333Y-28663595D02*
X86892857Y-28663595D01*
X86892857Y-28663595D02*
X86816666Y-28701690D01*
X86816666Y-28701690D02*
X86778571Y-28739785D01*
X86778571Y-28739785D02*
X86740476Y-28815976D01*
X86740476Y-28815976D02*
X86740476Y-28892166D01*
X86740476Y-28892166D02*
X86778571Y-29006452D01*
X86778571Y-29006452D02*
X87235714Y-29463595D01*
X87235714Y-29463595D02*
X86740476Y-29463595D01*
X21630475Y-48573595D02*
X21630475Y-47773595D01*
X21630475Y-47773595D02*
X21439999Y-47773595D01*
X21439999Y-47773595D02*
X21325713Y-47811690D01*
X21325713Y-47811690D02*
X21249523Y-47887880D01*
X21249523Y-47887880D02*
X21211428Y-47964071D01*
X21211428Y-47964071D02*
X21173332Y-48116452D01*
X21173332Y-48116452D02*
X21173332Y-48230738D01*
X21173332Y-48230738D02*
X21211428Y-48383119D01*
X21211428Y-48383119D02*
X21249523Y-48459309D01*
X21249523Y-48459309D02*
X21325713Y-48535500D01*
X21325713Y-48535500D02*
X21439999Y-48573595D01*
X21439999Y-48573595D02*
X21630475Y-48573595D01*
X20906666Y-47773595D02*
X20411428Y-47773595D01*
X20411428Y-47773595D02*
X20678094Y-48078357D01*
X20678094Y-48078357D02*
X20563809Y-48078357D01*
X20563809Y-48078357D02*
X20487618Y-48116452D01*
X20487618Y-48116452D02*
X20449523Y-48154547D01*
X20449523Y-48154547D02*
X20411428Y-48230738D01*
X20411428Y-48230738D02*
X20411428Y-48421214D01*
X20411428Y-48421214D02*
X20449523Y-48497404D01*
X20449523Y-48497404D02*
X20487618Y-48535500D01*
X20487618Y-48535500D02*
X20563809Y-48573595D01*
X20563809Y-48573595D02*
X20792380Y-48573595D01*
X20792380Y-48573595D02*
X20868571Y-48535500D01*
X20868571Y-48535500D02*
X20906666Y-48497404D01*
D12*
X96456137Y-28139759D02*
X96313280Y-28187378D01*
X96313280Y-28187378D02*
X96265661Y-28234997D01*
X96265661Y-28234997D02*
X96218042Y-28330235D01*
X96218042Y-28330235D02*
X96218042Y-28473092D01*
X96218042Y-28473092D02*
X96265661Y-28568330D01*
X96265661Y-28568330D02*
X96313280Y-28615950D01*
X96313280Y-28615950D02*
X96408518Y-28663569D01*
X96408518Y-28663569D02*
X96789470Y-28663569D01*
X96789470Y-28663569D02*
X96789470Y-27663569D01*
X96789470Y-27663569D02*
X96456137Y-27663569D01*
X96456137Y-27663569D02*
X96360899Y-27711188D01*
X96360899Y-27711188D02*
X96313280Y-27758807D01*
X96313280Y-27758807D02*
X96265661Y-27854045D01*
X96265661Y-27854045D02*
X96265661Y-27949283D01*
X96265661Y-27949283D02*
X96313280Y-28044521D01*
X96313280Y-28044521D02*
X96360899Y-28092140D01*
X96360899Y-28092140D02*
X96456137Y-28139759D01*
X96456137Y-28139759D02*
X96789470Y-28139759D01*
X95837089Y-28377854D02*
X95360899Y-28377854D01*
X95932327Y-28663569D02*
X95598994Y-27663569D01*
X95598994Y-27663569D02*
X95265661Y-28663569D01*
X95075184Y-27663569D02*
X94503756Y-27663569D01*
X94789470Y-28663569D02*
X94789470Y-27663569D01*
X93715661Y-27701188D02*
X93810899Y-27653569D01*
X93810899Y-27653569D02*
X93953756Y-27653569D01*
X93953756Y-27653569D02*
X94096613Y-27701188D01*
X94096613Y-27701188D02*
X94191851Y-27796426D01*
X94191851Y-27796426D02*
X94239470Y-27891664D01*
X94239470Y-27891664D02*
X94287089Y-28082140D01*
X94287089Y-28082140D02*
X94287089Y-28224997D01*
X94287089Y-28224997D02*
X94239470Y-28415473D01*
X94239470Y-28415473D02*
X94191851Y-28510711D01*
X94191851Y-28510711D02*
X94096613Y-28605950D01*
X94096613Y-28605950D02*
X93953756Y-28653569D01*
X93953756Y-28653569D02*
X93858518Y-28653569D01*
X93858518Y-28653569D02*
X93715661Y-28605950D01*
X93715661Y-28605950D02*
X93668042Y-28558330D01*
X93668042Y-28558330D02*
X93668042Y-28224997D01*
X93668042Y-28224997D02*
X93858518Y-28224997D01*
X93239470Y-28653569D02*
X93239470Y-27653569D01*
X93239470Y-27653569D02*
X92668042Y-28653569D01*
X92668042Y-28653569D02*
X92668042Y-27653569D01*
X92191851Y-28653569D02*
X92191851Y-27653569D01*
X92191851Y-27653569D02*
X91953756Y-27653569D01*
X91953756Y-27653569D02*
X91810899Y-27701188D01*
X91810899Y-27701188D02*
X91715661Y-27796426D01*
X91715661Y-27796426D02*
X91668042Y-27891664D01*
X91668042Y-27891664D02*
X91620423Y-28082140D01*
X91620423Y-28082140D02*
X91620423Y-28224997D01*
X91620423Y-28224997D02*
X91668042Y-28415473D01*
X91668042Y-28415473D02*
X91715661Y-28510711D01*
X91715661Y-28510711D02*
X91810899Y-28605950D01*
X91810899Y-28605950D02*
X91953756Y-28653569D01*
X91953756Y-28653569D02*
X92191851Y-28653569D01*
D11*
X31090475Y-29543595D02*
X31090475Y-28743595D01*
X31090475Y-28743595D02*
X30899999Y-28743595D01*
X30899999Y-28743595D02*
X30785713Y-28781690D01*
X30785713Y-28781690D02*
X30709523Y-28857880D01*
X30709523Y-28857880D02*
X30671428Y-28934071D01*
X30671428Y-28934071D02*
X30633332Y-29086452D01*
X30633332Y-29086452D02*
X30633332Y-29200738D01*
X30633332Y-29200738D02*
X30671428Y-29353119D01*
X30671428Y-29353119D02*
X30709523Y-29429309D01*
X30709523Y-29429309D02*
X30785713Y-29505500D01*
X30785713Y-29505500D02*
X30899999Y-29543595D01*
X30899999Y-29543595D02*
X31090475Y-29543595D01*
X29947618Y-28743595D02*
X30099999Y-28743595D01*
X30099999Y-28743595D02*
X30176190Y-28781690D01*
X30176190Y-28781690D02*
X30214285Y-28819785D01*
X30214285Y-28819785D02*
X30290475Y-28934071D01*
X30290475Y-28934071D02*
X30328571Y-29086452D01*
X30328571Y-29086452D02*
X30328571Y-29391214D01*
X30328571Y-29391214D02*
X30290475Y-29467404D01*
X30290475Y-29467404D02*
X30252380Y-29505500D01*
X30252380Y-29505500D02*
X30176190Y-29543595D01*
X30176190Y-29543595D02*
X30023809Y-29543595D01*
X30023809Y-29543595D02*
X29947618Y-29505500D01*
X29947618Y-29505500D02*
X29909523Y-29467404D01*
X29909523Y-29467404D02*
X29871428Y-29391214D01*
X29871428Y-29391214D02*
X29871428Y-29200738D01*
X29871428Y-29200738D02*
X29909523Y-29124547D01*
X29909523Y-29124547D02*
X29947618Y-29086452D01*
X29947618Y-29086452D02*
X30023809Y-29048357D01*
X30023809Y-29048357D02*
X30176190Y-29048357D01*
X30176190Y-29048357D02*
X30252380Y-29086452D01*
X30252380Y-29086452D02*
X30290475Y-29124547D01*
X30290475Y-29124547D02*
X30328571Y-29200738D01*
X108591428Y-10493595D02*
X108591428Y-9693595D01*
X108591428Y-9693595D02*
X108400952Y-9693595D01*
X108400952Y-9693595D02*
X108286666Y-9731690D01*
X108286666Y-9731690D02*
X108210476Y-9807880D01*
X108210476Y-9807880D02*
X108172381Y-9884071D01*
X108172381Y-9884071D02*
X108134285Y-10036452D01*
X108134285Y-10036452D02*
X108134285Y-10150738D01*
X108134285Y-10150738D02*
X108172381Y-10303119D01*
X108172381Y-10303119D02*
X108210476Y-10379309D01*
X108210476Y-10379309D02*
X108286666Y-10455500D01*
X108286666Y-10455500D02*
X108400952Y-10493595D01*
X108400952Y-10493595D02*
X108591428Y-10493595D01*
X107372381Y-10493595D02*
X107829524Y-10493595D01*
X107600952Y-10493595D02*
X107600952Y-9693595D01*
X107600952Y-9693595D02*
X107677143Y-9807880D01*
X107677143Y-9807880D02*
X107753333Y-9884071D01*
X107753333Y-9884071D02*
X107829524Y-9922166D01*
X106686666Y-9693595D02*
X106839047Y-9693595D01*
X106839047Y-9693595D02*
X106915238Y-9731690D01*
X106915238Y-9731690D02*
X106953333Y-9769785D01*
X106953333Y-9769785D02*
X107029523Y-9884071D01*
X107029523Y-9884071D02*
X107067619Y-10036452D01*
X107067619Y-10036452D02*
X107067619Y-10341214D01*
X107067619Y-10341214D02*
X107029523Y-10417404D01*
X107029523Y-10417404D02*
X106991428Y-10455500D01*
X106991428Y-10455500D02*
X106915238Y-10493595D01*
X106915238Y-10493595D02*
X106762857Y-10493595D01*
X106762857Y-10493595D02*
X106686666Y-10455500D01*
X106686666Y-10455500D02*
X106648571Y-10417404D01*
X106648571Y-10417404D02*
X106610476Y-10341214D01*
X106610476Y-10341214D02*
X106610476Y-10150738D01*
X106610476Y-10150738D02*
X106648571Y-10074547D01*
X106648571Y-10074547D02*
X106686666Y-10036452D01*
X106686666Y-10036452D02*
X106762857Y-9998357D01*
X106762857Y-9998357D02*
X106915238Y-9998357D01*
X106915238Y-9998357D02*
X106991428Y-10036452D01*
X106991428Y-10036452D02*
X107029523Y-10074547D01*
X107029523Y-10074547D02*
X107067619Y-10150738D01*
X102311428Y-10403595D02*
X102311428Y-9603595D01*
X102311428Y-9603595D02*
X102120952Y-9603595D01*
X102120952Y-9603595D02*
X102006666Y-9641690D01*
X102006666Y-9641690D02*
X101930476Y-9717880D01*
X101930476Y-9717880D02*
X101892381Y-9794071D01*
X101892381Y-9794071D02*
X101854285Y-9946452D01*
X101854285Y-9946452D02*
X101854285Y-10060738D01*
X101854285Y-10060738D02*
X101892381Y-10213119D01*
X101892381Y-10213119D02*
X101930476Y-10289309D01*
X101930476Y-10289309D02*
X102006666Y-10365500D01*
X102006666Y-10365500D02*
X102120952Y-10403595D01*
X102120952Y-10403595D02*
X102311428Y-10403595D01*
X101549524Y-9679785D02*
X101511428Y-9641690D01*
X101511428Y-9641690D02*
X101435238Y-9603595D01*
X101435238Y-9603595D02*
X101244762Y-9603595D01*
X101244762Y-9603595D02*
X101168571Y-9641690D01*
X101168571Y-9641690D02*
X101130476Y-9679785D01*
X101130476Y-9679785D02*
X101092381Y-9755976D01*
X101092381Y-9755976D02*
X101092381Y-9832166D01*
X101092381Y-9832166D02*
X101130476Y-9946452D01*
X101130476Y-9946452D02*
X101587619Y-10403595D01*
X101587619Y-10403595D02*
X101092381Y-10403595D01*
X100597142Y-9603595D02*
X100520952Y-9603595D01*
X100520952Y-9603595D02*
X100444761Y-9641690D01*
X100444761Y-9641690D02*
X100406666Y-9679785D01*
X100406666Y-9679785D02*
X100368571Y-9755976D01*
X100368571Y-9755976D02*
X100330476Y-9908357D01*
X100330476Y-9908357D02*
X100330476Y-10098833D01*
X100330476Y-10098833D02*
X100368571Y-10251214D01*
X100368571Y-10251214D02*
X100406666Y-10327404D01*
X100406666Y-10327404D02*
X100444761Y-10365500D01*
X100444761Y-10365500D02*
X100520952Y-10403595D01*
X100520952Y-10403595D02*
X100597142Y-10403595D01*
X100597142Y-10403595D02*
X100673333Y-10365500D01*
X100673333Y-10365500D02*
X100711428Y-10327404D01*
X100711428Y-10327404D02*
X100749523Y-10251214D01*
X100749523Y-10251214D02*
X100787619Y-10098833D01*
X100787619Y-10098833D02*
X100787619Y-9908357D01*
X100787619Y-9908357D02*
X100749523Y-9755976D01*
X100749523Y-9755976D02*
X100711428Y-9679785D01*
X100711428Y-9679785D02*
X100673333Y-9641690D01*
X100673333Y-9641690D02*
X100597142Y-9603595D01*
X45420475Y-10443595D02*
X45420475Y-9643595D01*
X45420475Y-9643595D02*
X45229999Y-9643595D01*
X45229999Y-9643595D02*
X45115713Y-9681690D01*
X45115713Y-9681690D02*
X45039523Y-9757880D01*
X45039523Y-9757880D02*
X45001428Y-9834071D01*
X45001428Y-9834071D02*
X44963332Y-9986452D01*
X44963332Y-9986452D02*
X44963332Y-10100738D01*
X44963332Y-10100738D02*
X45001428Y-10253119D01*
X45001428Y-10253119D02*
X45039523Y-10329309D01*
X45039523Y-10329309D02*
X45115713Y-10405500D01*
X45115713Y-10405500D02*
X45229999Y-10443595D01*
X45229999Y-10443595D02*
X45420475Y-10443595D01*
X44582380Y-10443595D02*
X44429999Y-10443595D01*
X44429999Y-10443595D02*
X44353809Y-10405500D01*
X44353809Y-10405500D02*
X44315713Y-10367404D01*
X44315713Y-10367404D02*
X44239523Y-10253119D01*
X44239523Y-10253119D02*
X44201428Y-10100738D01*
X44201428Y-10100738D02*
X44201428Y-9795976D01*
X44201428Y-9795976D02*
X44239523Y-9719785D01*
X44239523Y-9719785D02*
X44277618Y-9681690D01*
X44277618Y-9681690D02*
X44353809Y-9643595D01*
X44353809Y-9643595D02*
X44506190Y-9643595D01*
X44506190Y-9643595D02*
X44582380Y-9681690D01*
X44582380Y-9681690D02*
X44620475Y-9719785D01*
X44620475Y-9719785D02*
X44658571Y-9795976D01*
X44658571Y-9795976D02*
X44658571Y-9986452D01*
X44658571Y-9986452D02*
X44620475Y-10062642D01*
X44620475Y-10062642D02*
X44582380Y-10100738D01*
X44582380Y-10100738D02*
X44506190Y-10138833D01*
X44506190Y-10138833D02*
X44353809Y-10138833D01*
X44353809Y-10138833D02*
X44277618Y-10100738D01*
X44277618Y-10100738D02*
X44239523Y-10062642D01*
X44239523Y-10062642D02*
X44201428Y-9986452D01*
X97830475Y-48613595D02*
X97830475Y-47813595D01*
X97830475Y-47813595D02*
X97639999Y-47813595D01*
X97639999Y-47813595D02*
X97525713Y-47851690D01*
X97525713Y-47851690D02*
X97449523Y-47927880D01*
X97449523Y-47927880D02*
X97411428Y-48004071D01*
X97411428Y-48004071D02*
X97373332Y-48156452D01*
X97373332Y-48156452D02*
X97373332Y-48270738D01*
X97373332Y-48270738D02*
X97411428Y-48423119D01*
X97411428Y-48423119D02*
X97449523Y-48499309D01*
X97449523Y-48499309D02*
X97525713Y-48575500D01*
X97525713Y-48575500D02*
X97639999Y-48613595D01*
X97639999Y-48613595D02*
X97830475Y-48613595D01*
X96916190Y-48156452D02*
X96992380Y-48118357D01*
X96992380Y-48118357D02*
X97030475Y-48080261D01*
X97030475Y-48080261D02*
X97068571Y-48004071D01*
X97068571Y-48004071D02*
X97068571Y-47965976D01*
X97068571Y-47965976D02*
X97030475Y-47889785D01*
X97030475Y-47889785D02*
X96992380Y-47851690D01*
X96992380Y-47851690D02*
X96916190Y-47813595D01*
X96916190Y-47813595D02*
X96763809Y-47813595D01*
X96763809Y-47813595D02*
X96687618Y-47851690D01*
X96687618Y-47851690D02*
X96649523Y-47889785D01*
X96649523Y-47889785D02*
X96611428Y-47965976D01*
X96611428Y-47965976D02*
X96611428Y-48004071D01*
X96611428Y-48004071D02*
X96649523Y-48080261D01*
X96649523Y-48080261D02*
X96687618Y-48118357D01*
X96687618Y-48118357D02*
X96763809Y-48156452D01*
X96763809Y-48156452D02*
X96916190Y-48156452D01*
X96916190Y-48156452D02*
X96992380Y-48194547D01*
X96992380Y-48194547D02*
X97030475Y-48232642D01*
X97030475Y-48232642D02*
X97068571Y-48308833D01*
X97068571Y-48308833D02*
X97068571Y-48461214D01*
X97068571Y-48461214D02*
X97030475Y-48537404D01*
X97030475Y-48537404D02*
X96992380Y-48575500D01*
X96992380Y-48575500D02*
X96916190Y-48613595D01*
X96916190Y-48613595D02*
X96763809Y-48613595D01*
X96763809Y-48613595D02*
X96687618Y-48575500D01*
X96687618Y-48575500D02*
X96649523Y-48537404D01*
X96649523Y-48537404D02*
X96611428Y-48461214D01*
X96611428Y-48461214D02*
X96611428Y-48308833D01*
X96611428Y-48308833D02*
X96649523Y-48232642D01*
X96649523Y-48232642D02*
X96687618Y-48194547D01*
X96687618Y-48194547D02*
X96763809Y-48156452D01*
D12*
%TO.C,D14*%
X66030000Y-27010000D02*
X66030000Y-28510000D01*
X66030000Y-28510000D02*
X71430000Y-28510000D01*
X68230000Y-27260000D02*
X68230000Y-28260000D01*
X68330000Y-27760000D02*
X69230000Y-27260000D01*
X69230000Y-27260000D02*
X69230000Y-28260000D01*
X69230000Y-28260000D02*
X68330000Y-27760000D01*
X71430000Y-27010000D02*
X66030000Y-27010000D01*
X71430000Y-28510000D02*
X71430000Y-27010000D01*
%TO.C,SW1*%
X-7275000Y-1400000D02*
X-7300000Y-6000000D01*
X-6100000Y4850000D02*
X-6100000Y905000D01*
X-6100000Y896000D02*
X-2490000Y896000D01*
X-3500000Y-6025000D02*
X-7275000Y-6025000D01*
X-2575000Y-1375000D02*
X-7275000Y-1375000D01*
X-2280000Y-7500000D02*
X-2280000Y-8200000D01*
X2275000Y-3575000D02*
X-275000Y-3575000D01*
X2275000Y-8225000D02*
X-2275000Y-8225000D01*
X2300000Y-3600000D02*
X2300000Y-8200000D01*
X4800000Y6804000D02*
X-3825000Y6804000D01*
X4800000Y2896000D02*
X4800000Y6804000D01*
X4800000Y2850000D02*
X-250000Y2804000D01*
X-6089000Y4920000D02*
G75*
G02*
X-3825000Y6804000I2074000J-190000D01*
G01*
X-3500000Y-6030000D02*
G75*
G02*
X-2280000Y-7450000I-100000J-1320000D01*
G01*
X-2485000Y920000D02*
G75*
G02*
X-225000Y2800000I2070000J-190000D01*
G01*
X-200000Y-3570000D02*
G75*
G02*
X-2570000Y-1400000I-100000J2270000D01*
G01*
%TO.C,D10*%
X46910000Y-26980000D02*
X46910000Y-28480000D01*
X46910000Y-28480000D02*
X52310000Y-28480000D01*
X49110000Y-27230000D02*
X49110000Y-28230000D01*
X49210000Y-27730000D02*
X50110000Y-27230000D01*
X50110000Y-27230000D02*
X50110000Y-28230000D01*
X50110000Y-28230000D02*
X49210000Y-27730000D01*
X52310000Y-26980000D02*
X46910000Y-26980000D01*
X52310000Y-28480000D02*
X52310000Y-26980000D01*
%TO.C,D15*%
X75450000Y-46020000D02*
X75450000Y-47520000D01*
X75450000Y-47520000D02*
X80850000Y-47520000D01*
X77650000Y-46270000D02*
X77650000Y-47270000D01*
X77750000Y-46770000D02*
X78650000Y-46270000D01*
X78650000Y-46270000D02*
X78650000Y-47270000D01*
X78650000Y-47270000D02*
X77750000Y-46770000D01*
X80850000Y-46020000D02*
X75450000Y-46020000D01*
X80850000Y-47520000D02*
X80850000Y-46020000D01*
%TO.C,SW8*%
X83212500Y-39500000D02*
X83187500Y-44100000D01*
X84387500Y-33250000D02*
X84387500Y-37195000D01*
X84387500Y-37204000D02*
X87997500Y-37204000D01*
X86987500Y-44125000D02*
X83212500Y-44125000D01*
X87912500Y-39475000D02*
X83212500Y-39475000D01*
X88207500Y-45600000D02*
X88207500Y-46300000D01*
X92762500Y-41675000D02*
X90212500Y-41675000D01*
X92762500Y-46325000D02*
X88212500Y-46325000D01*
X92787500Y-41700000D02*
X92787500Y-46300000D01*
X95287500Y-31296000D02*
X86662500Y-31296000D01*
X95287500Y-35204000D02*
X95287500Y-31296000D01*
X95287500Y-35250000D02*
X90237500Y-35296000D01*
X84398500Y-33180000D02*
G75*
G02*
X86662500Y-31296000I2074000J-190000D01*
G01*
X86987500Y-44130000D02*
G75*
G02*
X88207500Y-45550000I-100000J-1320000D01*
G01*
X88002500Y-37180000D02*
G75*
G02*
X90262500Y-35300000I2070000J-190000D01*
G01*
X90287500Y-41670000D02*
G75*
G02*
X87917500Y-39500000I-100000J2270000D01*
G01*
%TO.C,SW15*%
X64162500Y-39500000D02*
X64137500Y-44100000D01*
X65337500Y-33250000D02*
X65337500Y-37195000D01*
X65337500Y-37204000D02*
X68947500Y-37204000D01*
X67937500Y-44125000D02*
X64162500Y-44125000D01*
X68862500Y-39475000D02*
X64162500Y-39475000D01*
X69157500Y-45600000D02*
X69157500Y-46300000D01*
X73712500Y-41675000D02*
X71162500Y-41675000D01*
X73712500Y-46325000D02*
X69162500Y-46325000D01*
X73737500Y-41700000D02*
X73737500Y-46300000D01*
X76237500Y-31296000D02*
X67612500Y-31296000D01*
X76237500Y-35204000D02*
X76237500Y-31296000D01*
X76237500Y-35250000D02*
X71187500Y-35296000D01*
X65348500Y-33180000D02*
G75*
G02*
X67612500Y-31296000I2074000J-190000D01*
G01*
X67937500Y-44130000D02*
G75*
G02*
X69157500Y-45550000I-100000J-1320000D01*
G01*
X68952500Y-37180000D02*
G75*
G02*
X71212500Y-35300000I2070000J-190000D01*
G01*
X71237500Y-41670000D02*
G75*
G02*
X68867500Y-39500000I-100000J2270000D01*
G01*
%TO.C,D13*%
X61230000Y-8000000D02*
X61230000Y-9500000D01*
X61230000Y-9500000D02*
X66630000Y-9500000D01*
X63430000Y-8250000D02*
X63430000Y-9250000D01*
X63530000Y-8750000D02*
X64430000Y-8250000D01*
X64430000Y-8250000D02*
X64430000Y-9250000D01*
X64430000Y-9250000D02*
X63530000Y-8750000D01*
X66630000Y-8000000D02*
X61230000Y-8000000D01*
X66630000Y-9500000D02*
X66630000Y-8000000D01*
%TO.C,SW16*%
X107025000Y-1400000D02*
X107000000Y-6000000D01*
X108200000Y4850000D02*
X108200000Y905000D01*
X108200000Y896000D02*
X111810000Y896000D01*
X110800000Y-6025000D02*
X107025000Y-6025000D01*
X111725000Y-1375000D02*
X107025000Y-1375000D01*
X112020000Y-7500000D02*
X112020000Y-8200000D01*
X116575000Y-3575000D02*
X114025000Y-3575000D01*
X116575000Y-8225000D02*
X112025000Y-8225000D01*
X116600000Y-3600000D02*
X116600000Y-8200000D01*
X119100000Y6804000D02*
X110475000Y6804000D01*
X119100000Y2896000D02*
X119100000Y6804000D01*
X119100000Y2850000D02*
X114050000Y2804000D01*
X108211000Y4920000D02*
G75*
G02*
X110475000Y6804000I2074000J-190000D01*
G01*
X110800000Y-6030000D02*
G75*
G02*
X112020000Y-7450000I-100000J-1320000D01*
G01*
X111815000Y920000D02*
G75*
G02*
X114075000Y2800000I2070000J-190000D01*
G01*
X114100000Y-3570000D02*
G75*
G02*
X111730000Y-1400000I-100000J2270000D01*
G01*
%TO.C,D1*%
X3940000Y-7870000D02*
X3940000Y-9370000D01*
X3940000Y-9370000D02*
X9340000Y-9370000D01*
X6140000Y-8120000D02*
X6140000Y-9120000D01*
X6240000Y-8620000D02*
X7140000Y-8120000D01*
X7140000Y-8120000D02*
X7140000Y-9120000D01*
X7140000Y-9120000D02*
X6240000Y-8620000D01*
X9340000Y-7870000D02*
X3940000Y-7870000D01*
X9340000Y-9370000D02*
X9340000Y-7870000D01*
%TO.C,D2*%
X8820000Y-26980000D02*
X8820000Y-28480000D01*
X8820000Y-28480000D02*
X14220000Y-28480000D01*
X11020000Y-27230000D02*
X11020000Y-28230000D01*
X11120000Y-27730000D02*
X12020000Y-27230000D01*
X12020000Y-27230000D02*
X12020000Y-28230000D01*
X12020000Y-28230000D02*
X11120000Y-27730000D01*
X14220000Y-26980000D02*
X8820000Y-26980000D01*
X14220000Y-28480000D02*
X14220000Y-26980000D01*
%TO.C,D17*%
X67610000Y-7960000D02*
X67610000Y-9460000D01*
X67610000Y-9460000D02*
X73010000Y-9460000D01*
X69810000Y-8210000D02*
X69810000Y-9210000D01*
X69910000Y-8710000D02*
X70810000Y-8210000D01*
X70810000Y-8210000D02*
X70810000Y-9210000D01*
X70810000Y-9210000D02*
X69910000Y-8710000D01*
X73010000Y-7960000D02*
X67610000Y-7960000D01*
X73010000Y-9460000D02*
X73010000Y-7960000D01*
%TO.C,D7*%
X37320000Y-46000000D02*
X37320000Y-47500000D01*
X37320000Y-47500000D02*
X42720000Y-47500000D01*
X39520000Y-46250000D02*
X39520000Y-47250000D01*
X39620000Y-46750000D02*
X40520000Y-46250000D01*
X40520000Y-46250000D02*
X40520000Y-47250000D01*
X40520000Y-47250000D02*
X39620000Y-46750000D01*
X42720000Y-46000000D02*
X37320000Y-46000000D01*
X42720000Y-47500000D02*
X42720000Y-46000000D01*
%TO.C,SW13*%
X49875000Y-1400000D02*
X49850000Y-6000000D01*
X51050000Y4850000D02*
X51050000Y905000D01*
X51050000Y896000D02*
X54660000Y896000D01*
X53650000Y-6025000D02*
X49875000Y-6025000D01*
X54575000Y-1375000D02*
X49875000Y-1375000D01*
X54870000Y-7500000D02*
X54870000Y-8200000D01*
X59425000Y-3575000D02*
X56875000Y-3575000D01*
X59425000Y-8225000D02*
X54875000Y-8225000D01*
X59450000Y-3600000D02*
X59450000Y-8200000D01*
X61950000Y6804000D02*
X53325000Y6804000D01*
X61950000Y2896000D02*
X61950000Y6804000D01*
X61950000Y2850000D02*
X56900000Y2804000D01*
X51061000Y4920000D02*
G75*
G02*
X53325000Y6804000I2074000J-190000D01*
G01*
X53650000Y-6030000D02*
G75*
G02*
X54870000Y-7450000I-100000J-1320000D01*
G01*
X54665000Y920000D02*
G75*
G02*
X56925000Y2800000I2070000J-190000D01*
G01*
X56950000Y-3570000D02*
G75*
G02*
X54580000Y-1400000I-100000J2270000D01*
G01*
%TO.C,D11*%
X56480000Y-46130000D02*
X56480000Y-47630000D01*
X56480000Y-47630000D02*
X61880000Y-47630000D01*
X58680000Y-46380000D02*
X58680000Y-47380000D01*
X58780000Y-46880000D02*
X59680000Y-46380000D01*
X59680000Y-46380000D02*
X59680000Y-47380000D01*
X59680000Y-47380000D02*
X58780000Y-46880000D01*
X61880000Y-46130000D02*
X56480000Y-46130000D01*
X61880000Y-47630000D02*
X61880000Y-46130000D01*
%TO.C,SW17*%
X68925000Y-1400000D02*
X68900000Y-6000000D01*
X70100000Y4850000D02*
X70100000Y905000D01*
X70100000Y896000D02*
X73710000Y896000D01*
X72700000Y-6025000D02*
X68925000Y-6025000D01*
X73625000Y-1375000D02*
X68925000Y-1375000D01*
X73920000Y-7500000D02*
X73920000Y-8200000D01*
X78475000Y-3575000D02*
X75925000Y-3575000D01*
X78475000Y-8225000D02*
X73925000Y-8225000D01*
X78500000Y-3600000D02*
X78500000Y-8200000D01*
X81000000Y6804000D02*
X72375000Y6804000D01*
X81000000Y2896000D02*
X81000000Y6804000D01*
X81000000Y2850000D02*
X75950000Y2804000D01*
X70111000Y4920000D02*
G75*
G02*
X72375000Y6804000I2074000J-190000D01*
G01*
X72700000Y-6030000D02*
G75*
G02*
X73920000Y-7450000I-100000J-1320000D01*
G01*
X73715000Y920000D02*
G75*
G02*
X75975000Y2800000I2070000J-190000D01*
G01*
X76000000Y-3570000D02*
G75*
G02*
X73630000Y-1400000I-100000J2270000D01*
G01*
%TO.C,SW11*%
X45112500Y-39500000D02*
X45087500Y-44100000D01*
X46287500Y-33250000D02*
X46287500Y-37195000D01*
X46287500Y-37204000D02*
X49897500Y-37204000D01*
X48887500Y-44125000D02*
X45112500Y-44125000D01*
X49812500Y-39475000D02*
X45112500Y-39475000D01*
X50107500Y-45600000D02*
X50107500Y-46300000D01*
X54662500Y-41675000D02*
X52112500Y-41675000D01*
X54662500Y-46325000D02*
X50112500Y-46325000D01*
X54687500Y-41700000D02*
X54687500Y-46300000D01*
X57187500Y-31296000D02*
X48562500Y-31296000D01*
X57187500Y-35204000D02*
X57187500Y-31296000D01*
X57187500Y-35250000D02*
X52137500Y-35296000D01*
X46298500Y-33180000D02*
G75*
G02*
X48562500Y-31296000I2074000J-190000D01*
G01*
X48887500Y-44130000D02*
G75*
G02*
X50107500Y-45550000I-100000J-1320000D01*
G01*
X49902500Y-37180000D02*
G75*
G02*
X52162500Y-35300000I2070000J-190000D01*
G01*
X52187500Y-41670000D02*
G75*
G02*
X49817500Y-39500000I-100000J2270000D01*
G01*
%TO.C,SW12*%
X73687500Y-20450000D02*
X73662500Y-25050000D01*
X74862500Y-14200000D02*
X74862500Y-18145000D01*
X74862500Y-18154000D02*
X78472500Y-18154000D01*
X77462500Y-25075000D02*
X73687500Y-25075000D01*
X78387500Y-20425000D02*
X73687500Y-20425000D01*
X78682500Y-26550000D02*
X78682500Y-27250000D01*
X83237500Y-22625000D02*
X80687500Y-22625000D01*
X83237500Y-27275000D02*
X78687500Y-27275000D01*
X83262500Y-22650000D02*
X83262500Y-27250000D01*
X85762500Y-12246000D02*
X77137500Y-12246000D01*
X85762500Y-16154000D02*
X85762500Y-12246000D01*
X85762500Y-16200000D02*
X80712500Y-16246000D01*
X74873500Y-14130000D02*
G75*
G02*
X77137500Y-12246000I2074000J-190000D01*
G01*
X77462500Y-25080000D02*
G75*
G02*
X78682500Y-26500000I-100000J-1320000D01*
G01*
X78477500Y-18130000D02*
G75*
G02*
X80737500Y-16250000I2070000J-190000D01*
G01*
X80762500Y-22620000D02*
G75*
G02*
X78392500Y-20450000I-100000J2270000D01*
G01*
%TO.C,SW19*%
X104643750Y-39500000D02*
X104618750Y-44100000D01*
X105818750Y-33250000D02*
X105818750Y-37195000D01*
X105818750Y-37204000D02*
X109428750Y-37204000D01*
X108418750Y-44125000D02*
X104643750Y-44125000D01*
X109343750Y-39475000D02*
X104643750Y-39475000D01*
X109638750Y-45600000D02*
X109638750Y-46300000D01*
X114193750Y-41675000D02*
X111643750Y-41675000D01*
X114193750Y-46325000D02*
X109643750Y-46325000D01*
X114218750Y-41700000D02*
X114218750Y-46300000D01*
X116718750Y-31296000D02*
X108093750Y-31296000D01*
X116718750Y-35204000D02*
X116718750Y-31296000D01*
X116718750Y-35250000D02*
X111668750Y-35296000D01*
X105829750Y-33180000D02*
G75*
G02*
X108093750Y-31296000I2074000J-190000D01*
G01*
X108418750Y-44130000D02*
G75*
G02*
X109638750Y-45550000I-100000J-1320000D01*
G01*
X109433750Y-37180000D02*
G75*
G02*
X111693750Y-35300000I2070000J-190000D01*
G01*
X111718750Y-41670000D02*
G75*
G02*
X109348750Y-39500000I-100000J2270000D01*
G01*
%TO.C,SW20*%
X87975000Y-1400000D02*
X87950000Y-6000000D01*
X89150000Y4850000D02*
X89150000Y905000D01*
X89150000Y896000D02*
X92760000Y896000D01*
X91750000Y-6025000D02*
X87975000Y-6025000D01*
X92675000Y-1375000D02*
X87975000Y-1375000D01*
X92970000Y-7500000D02*
X92970000Y-8200000D01*
X97525000Y-3575000D02*
X94975000Y-3575000D01*
X97525000Y-8225000D02*
X92975000Y-8225000D01*
X97550000Y-3600000D02*
X97550000Y-8200000D01*
X100050000Y6804000D02*
X91425000Y6804000D01*
X100050000Y2896000D02*
X100050000Y6804000D01*
X100050000Y2850000D02*
X95000000Y2804000D01*
X89161000Y4920000D02*
G75*
G02*
X91425000Y6804000I2074000J-190000D01*
G01*
X91750000Y-6030000D02*
G75*
G02*
X92970000Y-7450000I-100000J-1320000D01*
G01*
X92765000Y920000D02*
G75*
G02*
X95025000Y2800000I2070000J-190000D01*
G01*
X95050000Y-3570000D02*
G75*
G02*
X92680000Y-1400000I-100000J2270000D01*
G01*
%TO.C,D18*%
X111230000Y-26990000D02*
X111230000Y-28490000D01*
X111230000Y-28490000D02*
X116630000Y-28490000D01*
X113430000Y-27240000D02*
X113430000Y-28240000D01*
X113530000Y-27740000D02*
X114430000Y-27240000D01*
X114430000Y-27240000D02*
X114430000Y-28240000D01*
X114430000Y-28240000D02*
X113530000Y-27740000D01*
X116630000Y-26990000D02*
X111230000Y-26990000D01*
X116630000Y-28490000D02*
X116630000Y-26990000D01*
%TO.C,SW3*%
X7012500Y-39500000D02*
X6987500Y-44100000D01*
X8187500Y-33250000D02*
X8187500Y-37195000D01*
X8187500Y-37204000D02*
X11797500Y-37204000D01*
X10787500Y-44125000D02*
X7012500Y-44125000D01*
X11712500Y-39475000D02*
X7012500Y-39475000D01*
X12007500Y-45600000D02*
X12007500Y-46300000D01*
X16562500Y-41675000D02*
X14012500Y-41675000D01*
X16562500Y-46325000D02*
X12012500Y-46325000D01*
X16587500Y-41700000D02*
X16587500Y-46300000D01*
X19087500Y-31296000D02*
X10462500Y-31296000D01*
X19087500Y-35204000D02*
X19087500Y-31296000D01*
X19087500Y-35250000D02*
X14037500Y-35296000D01*
X8198500Y-33180000D02*
G75*
G02*
X10462500Y-31296000I2074000J-190000D01*
G01*
X10787500Y-44130000D02*
G75*
G02*
X12007500Y-45550000I-100000J-1320000D01*
G01*
X11802500Y-37180000D02*
G75*
G02*
X14062500Y-35300000I2070000J-190000D01*
G01*
X14087500Y-41670000D02*
G75*
G02*
X11717500Y-39500000I-100000J2270000D01*
G01*
%TO.C,SW7*%
X26062500Y-39500000D02*
X26037500Y-44100000D01*
X27237500Y-33250000D02*
X27237500Y-37195000D01*
X27237500Y-37204000D02*
X30847500Y-37204000D01*
X29837500Y-44125000D02*
X26062500Y-44125000D01*
X30762500Y-39475000D02*
X26062500Y-39475000D01*
X31057500Y-45600000D02*
X31057500Y-46300000D01*
X35612500Y-41675000D02*
X33062500Y-41675000D01*
X35612500Y-46325000D02*
X31062500Y-46325000D01*
X35637500Y-41700000D02*
X35637500Y-46300000D01*
X38137500Y-31296000D02*
X29512500Y-31296000D01*
X38137500Y-35204000D02*
X38137500Y-31296000D01*
X38137500Y-35250000D02*
X33087500Y-35296000D01*
X27248500Y-33180000D02*
G75*
G02*
X29512500Y-31296000I2074000J-190000D01*
G01*
X29837500Y-44130000D02*
G75*
G02*
X31057500Y-45550000I-100000J-1320000D01*
G01*
X30852500Y-37180000D02*
G75*
G02*
X33112500Y-35300000I2070000J-190000D01*
G01*
X33137500Y-41670000D02*
G75*
G02*
X30767500Y-39500000I-100000J2270000D01*
G01*
%TO.C,D4*%
X15850000Y-64980000D02*
X15850000Y-66480000D01*
X15850000Y-66480000D02*
X21250000Y-66480000D01*
X18050000Y-65230000D02*
X18050000Y-66230000D01*
X18150000Y-65730000D02*
X19050000Y-65230000D01*
X19050000Y-65230000D02*
X19050000Y-66230000D01*
X19050000Y-66230000D02*
X18150000Y-65730000D01*
X21250000Y-64980000D02*
X15850000Y-64980000D01*
X21250000Y-66480000D02*
X21250000Y-64980000D01*
%TO.C,D19*%
X117150000Y-43450000D02*
X117150000Y-44950000D01*
X117150000Y-44950000D02*
X122550000Y-44950000D01*
X119350000Y-43700000D02*
X119350000Y-44700000D01*
X119450000Y-44200000D02*
X120350000Y-43700000D01*
X120350000Y-43700000D02*
X120350000Y-44700000D01*
X120350000Y-44700000D02*
X119450000Y-44200000D01*
X122550000Y-43450000D02*
X117150000Y-43450000D01*
X122550000Y-44950000D02*
X122550000Y-43450000D01*
%TO.C,D5*%
X10060000Y-7920000D02*
X10060000Y-9420000D01*
X10060000Y-9420000D02*
X15460000Y-9420000D01*
X12260000Y-8170000D02*
X12260000Y-9170000D01*
X12360000Y-8670000D02*
X13260000Y-8170000D01*
X13260000Y-8170000D02*
X13260000Y-9170000D01*
X13260000Y-9170000D02*
X12360000Y-8670000D01*
X15460000Y-7920000D02*
X10060000Y-7920000D01*
X15460000Y-9420000D02*
X15460000Y-7920000D01*
%TO.C,SW10*%
X35587500Y-20450000D02*
X35562500Y-25050000D01*
X36762500Y-14200000D02*
X36762500Y-18145000D01*
X36762500Y-18154000D02*
X40372500Y-18154000D01*
X39362500Y-25075000D02*
X35587500Y-25075000D01*
X40287500Y-20425000D02*
X35587500Y-20425000D01*
X40582500Y-26550000D02*
X40582500Y-27250000D01*
X45137500Y-22625000D02*
X42587500Y-22625000D01*
X45137500Y-27275000D02*
X40587500Y-27275000D01*
X45162500Y-22650000D02*
X45162500Y-27250000D01*
X47662500Y-12246000D02*
X39037500Y-12246000D01*
X47662500Y-16154000D02*
X47662500Y-12246000D01*
X47662500Y-16200000D02*
X42612500Y-16246000D01*
X36773500Y-14130000D02*
G75*
G02*
X39037500Y-12246000I2074000J-190000D01*
G01*
X39362500Y-25080000D02*
G75*
G02*
X40582500Y-26500000I-100000J-1320000D01*
G01*
X40377500Y-18130000D02*
G75*
G02*
X42637500Y-16250000I2070000J-190000D01*
G01*
X42662500Y-22620000D02*
G75*
G02*
X40292500Y-20450000I-100000J2270000D01*
G01*
%TO.C,D12*%
X85050000Y-26950000D02*
X85050000Y-28450000D01*
X85050000Y-28450000D02*
X90450000Y-28450000D01*
X87250000Y-27200000D02*
X87250000Y-28200000D01*
X87350000Y-27700000D02*
X88250000Y-27200000D01*
X88250000Y-27200000D02*
X88250000Y-28200000D01*
X88250000Y-28200000D02*
X87350000Y-27700000D01*
X90450000Y-26950000D02*
X85050000Y-26950000D01*
X90450000Y-28450000D02*
X90450000Y-26950000D01*
%TO.C,D3*%
X18340000Y-46060000D02*
X18340000Y-47560000D01*
X18340000Y-47560000D02*
X23740000Y-47560000D01*
X20540000Y-46310000D02*
X20540000Y-47310000D01*
X20640000Y-46810000D02*
X21540000Y-46310000D01*
X21540000Y-46310000D02*
X21540000Y-47310000D01*
X21540000Y-47310000D02*
X20640000Y-46810000D01*
X23740000Y-46060000D02*
X18340000Y-46060000D01*
X23740000Y-47560000D02*
X23740000Y-46060000D01*
%TO.C,SW5*%
X11775000Y-1400000D02*
X11750000Y-6000000D01*
X12950000Y4850000D02*
X12950000Y905000D01*
X12950000Y896000D02*
X16560000Y896000D01*
X15550000Y-6025000D02*
X11775000Y-6025000D01*
X16475000Y-1375000D02*
X11775000Y-1375000D01*
X16770000Y-7500000D02*
X16770000Y-8200000D01*
X21325000Y-3575000D02*
X18775000Y-3575000D01*
X21325000Y-8225000D02*
X16775000Y-8225000D01*
X21350000Y-3600000D02*
X21350000Y-8200000D01*
X23850000Y6804000D02*
X15225000Y6804000D01*
X23850000Y2896000D02*
X23850000Y6804000D01*
X23850000Y2850000D02*
X18800000Y2804000D01*
X12961000Y4920000D02*
G75*
G02*
X15225000Y6804000I2074000J-190000D01*
G01*
X15550000Y-6030000D02*
G75*
G02*
X16770000Y-7450000I-100000J-1320000D01*
G01*
X16565000Y920000D02*
G75*
G02*
X18825000Y2800000I2070000J-190000D01*
G01*
X18850000Y-3570000D02*
G75*
G02*
X16480000Y-1400000I-100000J2270000D01*
G01*
%TO.C,SW6*%
X16537500Y-20450000D02*
X16512500Y-25050000D01*
X17712500Y-14200000D02*
X17712500Y-18145000D01*
X17712500Y-18154000D02*
X21322500Y-18154000D01*
X20312500Y-25075000D02*
X16537500Y-25075000D01*
X21237500Y-20425000D02*
X16537500Y-20425000D01*
X21532500Y-26550000D02*
X21532500Y-27250000D01*
X26087500Y-22625000D02*
X23537500Y-22625000D01*
X26087500Y-27275000D02*
X21537500Y-27275000D01*
X26112500Y-22650000D02*
X26112500Y-27250000D01*
X28612500Y-12246000D02*
X19987500Y-12246000D01*
X28612500Y-16154000D02*
X28612500Y-12246000D01*
X28612500Y-16200000D02*
X23562500Y-16246000D01*
X17723500Y-14130000D02*
G75*
G02*
X19987500Y-12246000I2074000J-190000D01*
G01*
X20312500Y-25080000D02*
G75*
G02*
X21532500Y-26500000I-100000J-1320000D01*
G01*
X21327500Y-18130000D02*
G75*
G02*
X23587500Y-16250000I2070000J-190000D01*
G01*
X23612500Y-22620000D02*
G75*
G02*
X21242500Y-20450000I-100000J2270000D01*
G01*
%TO.C,SW9*%
X30825000Y-1400000D02*
X30800000Y-6000000D01*
X32000000Y4850000D02*
X32000000Y905000D01*
X32000000Y896000D02*
X35610000Y896000D01*
X34600000Y-6025000D02*
X30825000Y-6025000D01*
X35525000Y-1375000D02*
X30825000Y-1375000D01*
X35820000Y-7500000D02*
X35820000Y-8200000D01*
X40375000Y-3575000D02*
X37825000Y-3575000D01*
X40375000Y-8225000D02*
X35825000Y-8225000D01*
X40400000Y-3600000D02*
X40400000Y-8200000D01*
X42900000Y6804000D02*
X34275000Y6804000D01*
X42900000Y2896000D02*
X42900000Y6804000D01*
X42900000Y2850000D02*
X37850000Y2804000D01*
X32011000Y4920000D02*
G75*
G02*
X34275000Y6804000I2074000J-190000D01*
G01*
X34600000Y-6030000D02*
G75*
G02*
X35820000Y-7450000I-100000J-1320000D01*
G01*
X35615000Y920000D02*
G75*
G02*
X37875000Y2800000I2070000J-190000D01*
G01*
X37900000Y-3570000D02*
G75*
G02*
X35530000Y-1400000I-100000J2270000D01*
G01*
%TO.C,SW4*%
X4631250Y-58550000D02*
X4606250Y-63150000D01*
X5806250Y-52300000D02*
X5806250Y-56245000D01*
X5806250Y-56254000D02*
X9416250Y-56254000D01*
X8406250Y-63175000D02*
X4631250Y-63175000D01*
X9331250Y-58525000D02*
X4631250Y-58525000D01*
X9626250Y-64650000D02*
X9626250Y-65350000D01*
X14181250Y-60725000D02*
X11631250Y-60725000D01*
X14181250Y-65375000D02*
X9631250Y-65375000D01*
X14206250Y-60750000D02*
X14206250Y-65350000D01*
X16706250Y-50346000D02*
X8081250Y-50346000D01*
X16706250Y-54254000D02*
X16706250Y-50346000D01*
X16706250Y-54300000D02*
X11656250Y-54346000D01*
X5817250Y-52230000D02*
G75*
G02*
X8081250Y-50346000I2074000J-190000D01*
G01*
X8406250Y-63180000D02*
G75*
G02*
X9626250Y-64600000I-100000J-1320000D01*
G01*
X9421250Y-56230000D02*
G75*
G02*
X11681250Y-54350000I2070000J-190000D01*
G01*
X11706250Y-60720000D02*
G75*
G02*
X9336250Y-58550000I-100000J2270000D01*
G01*
%TO.C,D6*%
X27800000Y-27030000D02*
X27800000Y-28530000D01*
X27800000Y-28530000D02*
X33200000Y-28530000D01*
X30000000Y-27280000D02*
X30000000Y-28280000D01*
X30100000Y-27780000D02*
X31000000Y-27280000D01*
X31000000Y-27280000D02*
X31000000Y-28280000D01*
X31000000Y-28280000D02*
X30100000Y-27780000D01*
X33200000Y-27030000D02*
X27800000Y-27030000D01*
X33200000Y-28530000D02*
X33200000Y-27030000D01*
%TO.C,D16*%
X104920000Y-7980000D02*
X104920000Y-9480000D01*
X104920000Y-9480000D02*
X110320000Y-9480000D01*
X107120000Y-8230000D02*
X107120000Y-9230000D01*
X107220000Y-8730000D02*
X108120000Y-8230000D01*
X108120000Y-8230000D02*
X108120000Y-9230000D01*
X108120000Y-9230000D02*
X107220000Y-8730000D01*
X110320000Y-7980000D02*
X104920000Y-7980000D01*
X110320000Y-9480000D02*
X110320000Y-7980000D01*
%TO.C,SW2*%
X-2512500Y-20450000D02*
X-2537500Y-25050000D01*
X-1337500Y-14200000D02*
X-1337500Y-18145000D01*
X-1337500Y-18154000D02*
X2272500Y-18154000D01*
X1262500Y-25075000D02*
X-2512500Y-25075000D01*
X2187500Y-20425000D02*
X-2512500Y-20425000D01*
X2482500Y-26550000D02*
X2482500Y-27250000D01*
X7037500Y-22625000D02*
X4487500Y-22625000D01*
X7037500Y-27275000D02*
X2487500Y-27275000D01*
X7062500Y-22650000D02*
X7062500Y-27250000D01*
X9562500Y-12246000D02*
X937500Y-12246000D01*
X9562500Y-16154000D02*
X9562500Y-12246000D01*
X9562500Y-16200000D02*
X4512500Y-16246000D01*
X-1326500Y-14130000D02*
G75*
G02*
X937500Y-12246000I2074000J-190000D01*
G01*
X1262500Y-25080000D02*
G75*
G02*
X2482500Y-26500000I-100000J-1320000D01*
G01*
X2277500Y-18130000D02*
G75*
G02*
X4537500Y-16250000I2070000J-190000D01*
G01*
X4562500Y-22620000D02*
G75*
G02*
X2192500Y-20450000I-100000J2270000D01*
G01*
%TO.C,SW18*%
X99881250Y-20450000D02*
X99856250Y-25050000D01*
X101056250Y-14200000D02*
X101056250Y-18145000D01*
X101056250Y-18154000D02*
X104666250Y-18154000D01*
X103656250Y-25075000D02*
X99881250Y-25075000D01*
X104581250Y-20425000D02*
X99881250Y-20425000D01*
X104876250Y-26550000D02*
X104876250Y-27250000D01*
X109431250Y-22625000D02*
X106881250Y-22625000D01*
X109431250Y-27275000D02*
X104881250Y-27275000D01*
X109456250Y-22650000D02*
X109456250Y-27250000D01*
X111956250Y-12246000D02*
X103331250Y-12246000D01*
X111956250Y-16154000D02*
X111956250Y-12246000D01*
X111956250Y-16200000D02*
X106906250Y-16246000D01*
X101067250Y-14130000D02*
G75*
G02*
X103331250Y-12246000I2074000J-190000D01*
G01*
X103656250Y-25080000D02*
G75*
G02*
X104876250Y-26500000I-100000J-1320000D01*
G01*
X104671250Y-18130000D02*
G75*
G02*
X106931250Y-16250000I2070000J-190000D01*
G01*
X106956250Y-22620000D02*
G75*
G02*
X104586250Y-20450000I-100000J2270000D01*
G01*
%TO.C,SW14*%
X54637500Y-20450000D02*
X54612500Y-25050000D01*
X55812500Y-14200000D02*
X55812500Y-18145000D01*
X55812500Y-18154000D02*
X59422500Y-18154000D01*
X58412500Y-25075000D02*
X54637500Y-25075000D01*
X59337500Y-20425000D02*
X54637500Y-20425000D01*
X59632500Y-26550000D02*
X59632500Y-27250000D01*
X64187500Y-22625000D02*
X61637500Y-22625000D01*
X64187500Y-27275000D02*
X59637500Y-27275000D01*
X64212500Y-22650000D02*
X64212500Y-27250000D01*
X66712500Y-12246000D02*
X58087500Y-12246000D01*
X66712500Y-16154000D02*
X66712500Y-12246000D01*
X66712500Y-16200000D02*
X61662500Y-16246000D01*
X55823500Y-14130000D02*
G75*
G02*
X58087500Y-12246000I2074000J-190000D01*
G01*
X58412500Y-25080000D02*
G75*
G02*
X59632500Y-26500000I-100000J-1320000D01*
G01*
X59427500Y-18130000D02*
G75*
G02*
X61687500Y-16250000I2070000J-190000D01*
G01*
X61712500Y-22620000D02*
G75*
G02*
X59342500Y-20450000I-100000J2270000D01*
G01*
%TO.C,D20*%
X98640000Y-7890000D02*
X98640000Y-9390000D01*
X98640000Y-9390000D02*
X104040000Y-9390000D01*
X100840000Y-8140000D02*
X100840000Y-9140000D01*
X100940000Y-8640000D02*
X101840000Y-8140000D01*
X101840000Y-8140000D02*
X101840000Y-9140000D01*
X101840000Y-9140000D02*
X100940000Y-8640000D01*
X104040000Y-7890000D02*
X98640000Y-7890000D01*
X104040000Y-9390000D02*
X104040000Y-7890000D01*
%TO.C,D9*%
X42130000Y-7930000D02*
X42130000Y-9430000D01*
X42130000Y-9430000D02*
X47530000Y-9430000D01*
X44330000Y-8180000D02*
X44330000Y-9180000D01*
X44430000Y-8680000D02*
X45330000Y-8180000D01*
X45330000Y-8180000D02*
X45330000Y-9180000D01*
X45330000Y-9180000D02*
X44430000Y-8680000D01*
X47530000Y-7930000D02*
X42130000Y-7930000D01*
X47530000Y-9430000D02*
X47530000Y-7930000D01*
%TO.C,D8*%
X94540000Y-46100000D02*
X94540000Y-47600000D01*
X94540000Y-47600000D02*
X99940000Y-47600000D01*
X96740000Y-46350000D02*
X96740000Y-47350000D01*
X96840000Y-46850000D02*
X97740000Y-46350000D01*
X97740000Y-46350000D02*
X97740000Y-47350000D01*
X97740000Y-47350000D02*
X96840000Y-46850000D01*
X99940000Y-46100000D02*
X94540000Y-46100000D01*
X99940000Y-47600000D02*
X99940000Y-46100000D01*
%TD*%
M02*
